G04 #@! TF.GenerationSoftware,KiCad,Pcbnew,(5.1.0-rc2-21-g16b3c80a7)*
G04 #@! TF.CreationDate,2019-05-25T16:35:41+02:00*
G04 #@! TF.ProjectId,Analog_Input_Module,416e616c-6f67-45f4-996e-7075745f4d6f,R2.1*
G04 #@! TF.SameCoordinates,Original*
G04 #@! TF.FileFunction,Other,User*
%FSLAX46Y46*%
G04 Gerber Fmt 4.6, Leading zero omitted, Abs format (unit mm)*
G04 Created by KiCad (PCBNEW (5.1.0-rc2-21-g16b3c80a7)) date 2019-05-25 16:35:41*
%MOMM*%
%LPD*%
G04 APERTURE LIST*
%ADD10C,0.150000*%
%ADD11C,0.050000*%
G04 APERTURE END LIST*
D10*
X80000000Y-42000000D02*
X80000000Y-20000000D01*
X80000000Y-20000000D02*
X20000000Y-20000000D01*
X80000000Y-42000000D02*
X20000000Y-42000000D01*
X20000000Y-20000000D02*
X20000000Y-42000000D01*
D11*
X30833000Y-33323000D02*
X27333000Y-33323000D01*
X30833000Y-29923000D02*
X30833000Y-33323000D01*
X27333000Y-29923000D02*
X30833000Y-29923000D01*
X27333000Y-33323000D02*
X27333000Y-29923000D01*
X59154000Y-33132500D02*
X55654000Y-33132500D01*
X59154000Y-29732500D02*
X59154000Y-33132500D01*
X55654000Y-29732500D02*
X59154000Y-29732500D01*
X55654000Y-33132500D02*
X55654000Y-29732500D01*
X20144000Y-33373000D02*
X20144000Y-29873000D01*
X23544000Y-33373000D02*
X20144000Y-33373000D01*
X23544000Y-29873000D02*
X23544000Y-33373000D01*
X20144000Y-29873000D02*
X23544000Y-29873000D01*
X42517000Y-33132500D02*
X39017000Y-33132500D01*
X42517000Y-29732500D02*
X42517000Y-33132500D01*
X39017000Y-29732500D02*
X42517000Y-29732500D01*
X39017000Y-33132500D02*
X39017000Y-29732500D01*
X55386500Y-26007000D02*
X55386500Y-22507000D01*
X58786500Y-26007000D02*
X55386500Y-26007000D01*
X58786500Y-22507000D02*
X58786500Y-26007000D01*
X55386500Y-22507000D02*
X58786500Y-22507000D01*
X42975000Y-21681500D02*
X42975000Y-25181500D01*
X39575000Y-21681500D02*
X42975000Y-21681500D01*
X39575000Y-25181500D02*
X39575000Y-21681500D01*
X42975000Y-25181500D02*
X39575000Y-25181500D01*
X30910000Y-22380000D02*
X30910000Y-25880000D01*
X27510000Y-22380000D02*
X30910000Y-22380000D01*
X27510000Y-25880000D02*
X27510000Y-22380000D01*
X30910000Y-25880000D02*
X27510000Y-25880000D01*
X66583500Y-32608500D02*
X63083500Y-32608500D01*
X66583500Y-29208500D02*
X66583500Y-32608500D01*
X63083500Y-29208500D02*
X66583500Y-29208500D01*
X63083500Y-32608500D02*
X63083500Y-29208500D01*
X66787500Y-22570500D02*
X66787500Y-26070500D01*
X63387500Y-22570500D02*
X66787500Y-22570500D01*
X63387500Y-26070500D02*
X63387500Y-22570500D01*
X66787500Y-26070500D02*
X63387500Y-26070500D01*
X35151000Y-33196000D02*
X31651000Y-33196000D01*
X35151000Y-29796000D02*
X35151000Y-33196000D01*
X31651000Y-29796000D02*
X35151000Y-29796000D01*
X31651000Y-33196000D02*
X31651000Y-29796000D01*
X43131000Y-25118000D02*
X43131000Y-21618000D01*
X46531000Y-25118000D02*
X43131000Y-25118000D01*
X46531000Y-21618000D02*
X46531000Y-25118000D01*
X43131000Y-21618000D02*
X46531000Y-21618000D01*
X46962000Y-33132500D02*
X43462000Y-33132500D01*
X46962000Y-29732500D02*
X46962000Y-33132500D01*
X43462000Y-29732500D02*
X46962000Y-29732500D01*
X43462000Y-33132500D02*
X43462000Y-29732500D01*
X31129500Y-25880000D02*
X31129500Y-22380000D01*
X34529500Y-25880000D02*
X31129500Y-25880000D01*
X34529500Y-22380000D02*
X34529500Y-25880000D01*
X31129500Y-22380000D02*
X34529500Y-22380000D01*
X54913000Y-22443500D02*
X54913000Y-25943500D01*
X51513000Y-22443500D02*
X54913000Y-22443500D01*
X51513000Y-25943500D02*
X51513000Y-22443500D01*
X54913000Y-25943500D02*
X51513000Y-25943500D01*
X54328000Y-33196000D02*
X50828000Y-33196000D01*
X54328000Y-29796000D02*
X54328000Y-33196000D01*
X50828000Y-29796000D02*
X54328000Y-29796000D01*
X50828000Y-33196000D02*
X50828000Y-29796000D01*
X23721000Y-25957000D02*
X20221000Y-25957000D01*
X23721000Y-22557000D02*
X23721000Y-25957000D01*
X20221000Y-22557000D02*
X23721000Y-22557000D01*
X20221000Y-25957000D02*
X20221000Y-22557000D01*
X71336000Y-42440000D02*
X19536000Y-42440000D01*
X71336000Y-36340000D02*
X71336000Y-42440000D01*
X19536000Y-36340000D02*
X71336000Y-36340000D01*
X19536000Y-42440000D02*
X19536000Y-36340000D01*
X59110000Y-25172000D02*
X59110000Y-22072000D01*
X59110000Y-25172000D02*
X62810000Y-25172000D01*
X62810000Y-22072000D02*
X59110000Y-22072000D01*
X62810000Y-22072000D02*
X62810000Y-25172000D01*
X47064000Y-25172000D02*
X47064000Y-22072000D01*
X47064000Y-25172000D02*
X50764000Y-25172000D01*
X50764000Y-22072000D02*
X47064000Y-22072000D01*
X50764000Y-22072000D02*
X50764000Y-25172000D01*
X62937000Y-27914000D02*
X62937000Y-31014000D01*
X62937000Y-27914000D02*
X59237000Y-27914000D01*
X59237000Y-31014000D02*
X62937000Y-31014000D01*
X59237000Y-31014000D02*
X59237000Y-27914000D01*
X50745000Y-27914000D02*
X50745000Y-31014000D01*
X50745000Y-27914000D02*
X47045000Y-27914000D01*
X47045000Y-31014000D02*
X50745000Y-31014000D01*
X47045000Y-31014000D02*
X47045000Y-27914000D01*
X35361000Y-25172000D02*
X35361000Y-22072000D01*
X35361000Y-25172000D02*
X39061000Y-25172000D01*
X39061000Y-22072000D02*
X35361000Y-22072000D01*
X39061000Y-22072000D02*
X39061000Y-25172000D01*
X23740500Y-25426000D02*
X23740500Y-22326000D01*
X23740500Y-25426000D02*
X27440500Y-25426000D01*
X27440500Y-22326000D02*
X23740500Y-22326000D01*
X27440500Y-22326000D02*
X27440500Y-25426000D01*
X38934000Y-27914000D02*
X38934000Y-31014000D01*
X38934000Y-27914000D02*
X35234000Y-27914000D01*
X35234000Y-31014000D02*
X38934000Y-31014000D01*
X35234000Y-31014000D02*
X35234000Y-27914000D01*
X27250000Y-28041000D02*
X27250000Y-31141000D01*
X27250000Y-28041000D02*
X23550000Y-28041000D01*
X23550000Y-31141000D02*
X27250000Y-31141000D01*
X23550000Y-31141000D02*
X23550000Y-28041000D01*
X77342000Y-28035000D02*
X74042000Y-28035000D01*
X77342000Y-26575000D02*
X77342000Y-28035000D01*
X74042000Y-26575000D02*
X77342000Y-26575000D01*
X74042000Y-28035000D02*
X74042000Y-26575000D01*
X77342000Y-29559000D02*
X74042000Y-29559000D01*
X77342000Y-28099000D02*
X77342000Y-29559000D01*
X74042000Y-28099000D02*
X77342000Y-28099000D01*
X74042000Y-29559000D02*
X74042000Y-28099000D01*
X77342000Y-26511000D02*
X74042000Y-26511000D01*
X77342000Y-25051000D02*
X77342000Y-26511000D01*
X74042000Y-25051000D02*
X77342000Y-25051000D01*
X74042000Y-26511000D02*
X74042000Y-25051000D01*
X77342000Y-23463000D02*
X74042000Y-23463000D01*
X77342000Y-22003000D02*
X77342000Y-23463000D01*
X74042000Y-22003000D02*
X77342000Y-22003000D01*
X74042000Y-23463000D02*
X74042000Y-22003000D01*
X77342000Y-24987000D02*
X74042000Y-24987000D01*
X77342000Y-23527000D02*
X77342000Y-24987000D01*
X74042000Y-23527000D02*
X77342000Y-23527000D01*
X74042000Y-24987000D02*
X74042000Y-23527000D01*
X77342000Y-34131000D02*
X74042000Y-34131000D01*
X77342000Y-32671000D02*
X77342000Y-34131000D01*
X74042000Y-32671000D02*
X77342000Y-32671000D01*
X74042000Y-34131000D02*
X74042000Y-32671000D01*
X74042000Y-31083000D02*
X74042000Y-29623000D01*
X74042000Y-29623000D02*
X77342000Y-29623000D01*
X77342000Y-29623000D02*
X77342000Y-31083000D01*
X77342000Y-31083000D02*
X74042000Y-31083000D01*
X74042000Y-35655000D02*
X74042000Y-34195000D01*
X74042000Y-34195000D02*
X77342000Y-34195000D01*
X77342000Y-34195000D02*
X77342000Y-35655000D01*
X77342000Y-35655000D02*
X74042000Y-35655000D01*
X74042000Y-37179000D02*
X74042000Y-35719000D01*
X74042000Y-35719000D02*
X77342000Y-35719000D01*
X77342000Y-35719000D02*
X77342000Y-37179000D01*
X77342000Y-37179000D02*
X74042000Y-37179000D01*
X74042000Y-32607000D02*
X74042000Y-31147000D01*
X74042000Y-31147000D02*
X77342000Y-31147000D01*
X77342000Y-31147000D02*
X77342000Y-32607000D01*
X77342000Y-32607000D02*
X74042000Y-32607000D01*
X74042000Y-38703000D02*
X74042000Y-37243000D01*
X74042000Y-37243000D02*
X77342000Y-37243000D01*
X77342000Y-37243000D02*
X77342000Y-38703000D01*
X77342000Y-38703000D02*
X74042000Y-38703000D01*
X41497000Y-25401000D02*
X41497000Y-28701000D01*
X40037000Y-25401000D02*
X41497000Y-25401000D01*
X40037000Y-28701000D02*
X40037000Y-25401000D01*
X41497000Y-28701000D02*
X40037000Y-28701000D01*
X54101000Y-27527000D02*
X50801000Y-27527000D01*
X54101000Y-26067000D02*
X54101000Y-27527000D01*
X50801000Y-26067000D02*
X54101000Y-26067000D01*
X50801000Y-27527000D02*
X50801000Y-26067000D01*
X65912000Y-27654000D02*
X62612000Y-27654000D01*
X65912000Y-26194000D02*
X65912000Y-27654000D01*
X62612000Y-26194000D02*
X65912000Y-26194000D01*
X62612000Y-27654000D02*
X62612000Y-26194000D01*
X30733000Y-27781000D02*
X27433000Y-27781000D01*
X30733000Y-26321000D02*
X30733000Y-27781000D01*
X27433000Y-26321000D02*
X30733000Y-26321000D01*
X27433000Y-27781000D02*
X27433000Y-26321000D01*
M02*
