G04 #@! TF.GenerationSoftware,KiCad,Pcbnew,(5.1.0-rc2-21-g16b3c80a7)*
G04 #@! TF.CreationDate,2019-05-25T16:35:41+02:00*
G04 #@! TF.ProjectId,Analog_Input_Module,416e616c-6f67-45f4-996e-7075745f4d6f,R2.1*
G04 #@! TF.SameCoordinates,Original*
G04 #@! TF.FileFunction,Copper,L2,Bot*
G04 #@! TF.FilePolarity,Positive*
%FSLAX46Y46*%
G04 Gerber Fmt 4.6, Leading zero omitted, Abs format (unit mm)*
G04 Created by KiCad (PCBNEW (5.1.0-rc2-21-g16b3c80a7)) date 2019-05-25 16:35:41*
%MOMM*%
%LPD*%
G04 APERTURE LIST*
%ADD10C,0.150000*%
%ADD11R,1.450000X0.450000*%
%ADD12R,0.500000X0.800000*%
%ADD13R,0.400000X0.800000*%
%ADD14O,1.700000X1.700000*%
%ADD15R,1.700000X1.700000*%
%ADD16C,0.100000*%
%ADD17C,0.950000*%
%ADD18C,0.600000*%
%ADD19C,0.789940*%
%ADD20C,0.215900*%
%ADD21C,1.651000*%
%ADD22C,1.066800*%
%ADD23C,0.152400*%
%ADD24C,0.254000*%
G04 APERTURE END LIST*
D10*
X80000000Y-42000000D02*
X80000000Y-20000000D01*
X80000000Y-20000000D02*
X20000000Y-20000000D01*
X80000000Y-42000000D02*
X20000000Y-42000000D01*
X20000000Y-20000000D02*
X20000000Y-42000000D01*
D11*
X58285590Y-24847000D03*
X58285590Y-25497000D03*
X58285590Y-26147000D03*
X58285590Y-26797000D03*
X58285590Y-27447000D03*
X58285590Y-28097000D03*
X58285590Y-28747000D03*
X64185590Y-28747000D03*
X64185590Y-28097000D03*
X64185590Y-27447000D03*
X64185590Y-26797000D03*
X64185590Y-26147000D03*
X64185590Y-25497000D03*
X64185590Y-24847000D03*
D12*
X35884000Y-30405500D03*
D13*
X36684000Y-30405500D03*
D12*
X38284000Y-30405500D03*
D13*
X37484000Y-30405500D03*
D12*
X35884000Y-32205500D03*
D13*
X37484000Y-32205500D03*
X36684000Y-32205500D03*
D12*
X38284000Y-32205500D03*
D14*
X69596000Y-40640000D03*
X69596000Y-38100000D03*
X67056000Y-40640000D03*
X67056000Y-38100000D03*
X64516000Y-40640000D03*
X64516000Y-38100000D03*
X61976000Y-40640000D03*
X61976000Y-38100000D03*
X59436000Y-40640000D03*
X59436000Y-38100000D03*
X56896000Y-40640000D03*
X56896000Y-38100000D03*
X54356000Y-40640000D03*
X54356000Y-38100000D03*
X51816000Y-40640000D03*
X51816000Y-38100000D03*
X49276000Y-40640000D03*
X49276000Y-38100000D03*
X46736000Y-40640000D03*
X46736000Y-38100000D03*
X44196000Y-40640000D03*
X44196000Y-38100000D03*
X41656000Y-40640000D03*
X41656000Y-38100000D03*
X39116000Y-40640000D03*
X39116000Y-38100000D03*
X36576000Y-40640000D03*
X36576000Y-38100000D03*
X34036000Y-40640000D03*
X34036000Y-38100000D03*
X31496000Y-40640000D03*
X31496000Y-38100000D03*
X28956000Y-40640000D03*
X28956000Y-38100000D03*
X26416000Y-40640000D03*
X26416000Y-38100000D03*
X23876000Y-40640000D03*
X23876000Y-38100000D03*
X21336000Y-40640000D03*
D15*
X21336000Y-38100000D03*
D12*
X59756610Y-21452000D03*
D13*
X60556610Y-21452000D03*
D12*
X62156610Y-21452000D03*
D13*
X61356610Y-21452000D03*
D12*
X59756610Y-23252000D03*
D13*
X61356610Y-23252000D03*
X60556610Y-23252000D03*
D12*
X62156610Y-23252000D03*
X47691720Y-21579000D03*
D13*
X48491720Y-21579000D03*
D12*
X50091720Y-21579000D03*
D13*
X49291720Y-21579000D03*
D12*
X47691720Y-23379000D03*
D13*
X49291720Y-23379000D03*
X48491720Y-23379000D03*
D12*
X50091720Y-23379000D03*
X59887000Y-30342000D03*
D13*
X60687000Y-30342000D03*
D12*
X62287000Y-30342000D03*
D13*
X61487000Y-30342000D03*
D12*
X59887000Y-32142000D03*
D13*
X61487000Y-32142000D03*
X60687000Y-32142000D03*
D12*
X62287000Y-32142000D03*
X47695000Y-30405500D03*
D13*
X48495000Y-30405500D03*
D12*
X50095000Y-30405500D03*
D13*
X49295000Y-30405500D03*
D12*
X47695000Y-32205500D03*
D13*
X49295000Y-32205500D03*
X48495000Y-32205500D03*
D12*
X50095000Y-32205500D03*
D11*
X46081210Y-24910500D03*
X46081210Y-25560500D03*
X46081210Y-26210500D03*
X46081210Y-26860500D03*
X46081210Y-27510500D03*
X46081210Y-28160500D03*
X46081210Y-28810500D03*
X51981210Y-28810500D03*
X51981210Y-28160500D03*
X51981210Y-27510500D03*
X51981210Y-26860500D03*
X51981210Y-26210500D03*
X51981210Y-25560500D03*
X51981210Y-24910500D03*
D12*
X36011000Y-21515500D03*
D13*
X36811000Y-21515500D03*
D12*
X38411000Y-21515500D03*
D13*
X37611000Y-21515500D03*
D12*
X36011000Y-23315500D03*
D13*
X37611000Y-23315500D03*
X36811000Y-23315500D03*
D12*
X38411000Y-23315500D03*
X24394790Y-21642500D03*
D13*
X25194790Y-21642500D03*
D12*
X26794790Y-21642500D03*
D13*
X25994790Y-21642500D03*
D12*
X24394790Y-23442500D03*
D13*
X25994790Y-23442500D03*
X25194790Y-23442500D03*
D12*
X26794790Y-23442500D03*
D11*
X34301600Y-24910500D03*
X34301600Y-25560500D03*
X34301600Y-26210500D03*
X34301600Y-26860500D03*
X34301600Y-27510500D03*
X34301600Y-28160500D03*
X34301600Y-28810500D03*
X40201600Y-28810500D03*
X40201600Y-28160500D03*
X40201600Y-27510500D03*
X40201600Y-26860500D03*
X40201600Y-26210500D03*
X40201600Y-25560500D03*
X40201600Y-24910500D03*
X22505300Y-25037500D03*
X22505300Y-25687500D03*
X22505300Y-26337500D03*
X22505300Y-26987500D03*
X22505300Y-27637500D03*
X22505300Y-28287500D03*
X22505300Y-28937500D03*
X28405300Y-28937500D03*
X28405300Y-28287500D03*
X28405300Y-27637500D03*
X28405300Y-26987500D03*
X28405300Y-26337500D03*
X28405300Y-25687500D03*
X28405300Y-25037500D03*
D12*
X24200000Y-30532500D03*
D13*
X25000000Y-30532500D03*
D12*
X26600000Y-30532500D03*
D13*
X25800000Y-30532500D03*
D12*
X24200000Y-32332500D03*
D13*
X25800000Y-32332500D03*
X25000000Y-32332500D03*
D12*
X26600000Y-32332500D03*
D16*
G36*
X76877779Y-26831144D02*
G01*
X76900834Y-26834563D01*
X76923443Y-26840227D01*
X76945387Y-26848079D01*
X76966457Y-26858044D01*
X76986448Y-26870026D01*
X77005168Y-26883910D01*
X77022438Y-26899562D01*
X77038090Y-26916832D01*
X77051974Y-26935552D01*
X77063956Y-26955543D01*
X77073921Y-26976613D01*
X77081773Y-26998557D01*
X77087437Y-27021166D01*
X77090856Y-27044221D01*
X77092000Y-27067500D01*
X77092000Y-27542500D01*
X77090856Y-27565779D01*
X77087437Y-27588834D01*
X77081773Y-27611443D01*
X77073921Y-27633387D01*
X77063956Y-27654457D01*
X77051974Y-27674448D01*
X77038090Y-27693168D01*
X77022438Y-27710438D01*
X77005168Y-27726090D01*
X76986448Y-27739974D01*
X76966457Y-27751956D01*
X76945387Y-27761921D01*
X76923443Y-27769773D01*
X76900834Y-27775437D01*
X76877779Y-27778856D01*
X76854500Y-27780000D01*
X76279500Y-27780000D01*
X76256221Y-27778856D01*
X76233166Y-27775437D01*
X76210557Y-27769773D01*
X76188613Y-27761921D01*
X76167543Y-27751956D01*
X76147552Y-27739974D01*
X76128832Y-27726090D01*
X76111562Y-27710438D01*
X76095910Y-27693168D01*
X76082026Y-27674448D01*
X76070044Y-27654457D01*
X76060079Y-27633387D01*
X76052227Y-27611443D01*
X76046563Y-27588834D01*
X76043144Y-27565779D01*
X76042000Y-27542500D01*
X76042000Y-27067500D01*
X76043144Y-27044221D01*
X76046563Y-27021166D01*
X76052227Y-26998557D01*
X76060079Y-26976613D01*
X76070044Y-26955543D01*
X76082026Y-26935552D01*
X76095910Y-26916832D01*
X76111562Y-26899562D01*
X76128832Y-26883910D01*
X76147552Y-26870026D01*
X76167543Y-26858044D01*
X76188613Y-26848079D01*
X76210557Y-26840227D01*
X76233166Y-26834563D01*
X76256221Y-26831144D01*
X76279500Y-26830000D01*
X76854500Y-26830000D01*
X76877779Y-26831144D01*
X76877779Y-26831144D01*
G37*
D17*
X76567000Y-27305000D03*
D16*
G36*
X75127779Y-26831144D02*
G01*
X75150834Y-26834563D01*
X75173443Y-26840227D01*
X75195387Y-26848079D01*
X75216457Y-26858044D01*
X75236448Y-26870026D01*
X75255168Y-26883910D01*
X75272438Y-26899562D01*
X75288090Y-26916832D01*
X75301974Y-26935552D01*
X75313956Y-26955543D01*
X75323921Y-26976613D01*
X75331773Y-26998557D01*
X75337437Y-27021166D01*
X75340856Y-27044221D01*
X75342000Y-27067500D01*
X75342000Y-27542500D01*
X75340856Y-27565779D01*
X75337437Y-27588834D01*
X75331773Y-27611443D01*
X75323921Y-27633387D01*
X75313956Y-27654457D01*
X75301974Y-27674448D01*
X75288090Y-27693168D01*
X75272438Y-27710438D01*
X75255168Y-27726090D01*
X75236448Y-27739974D01*
X75216457Y-27751956D01*
X75195387Y-27761921D01*
X75173443Y-27769773D01*
X75150834Y-27775437D01*
X75127779Y-27778856D01*
X75104500Y-27780000D01*
X74529500Y-27780000D01*
X74506221Y-27778856D01*
X74483166Y-27775437D01*
X74460557Y-27769773D01*
X74438613Y-27761921D01*
X74417543Y-27751956D01*
X74397552Y-27739974D01*
X74378832Y-27726090D01*
X74361562Y-27710438D01*
X74345910Y-27693168D01*
X74332026Y-27674448D01*
X74320044Y-27654457D01*
X74310079Y-27633387D01*
X74302227Y-27611443D01*
X74296563Y-27588834D01*
X74293144Y-27565779D01*
X74292000Y-27542500D01*
X74292000Y-27067500D01*
X74293144Y-27044221D01*
X74296563Y-27021166D01*
X74302227Y-26998557D01*
X74310079Y-26976613D01*
X74320044Y-26955543D01*
X74332026Y-26935552D01*
X74345910Y-26916832D01*
X74361562Y-26899562D01*
X74378832Y-26883910D01*
X74397552Y-26870026D01*
X74417543Y-26858044D01*
X74438613Y-26848079D01*
X74460557Y-26840227D01*
X74483166Y-26834563D01*
X74506221Y-26831144D01*
X74529500Y-26830000D01*
X75104500Y-26830000D01*
X75127779Y-26831144D01*
X75127779Y-26831144D01*
G37*
D17*
X74817000Y-27305000D03*
D16*
G36*
X76877779Y-28355144D02*
G01*
X76900834Y-28358563D01*
X76923443Y-28364227D01*
X76945387Y-28372079D01*
X76966457Y-28382044D01*
X76986448Y-28394026D01*
X77005168Y-28407910D01*
X77022438Y-28423562D01*
X77038090Y-28440832D01*
X77051974Y-28459552D01*
X77063956Y-28479543D01*
X77073921Y-28500613D01*
X77081773Y-28522557D01*
X77087437Y-28545166D01*
X77090856Y-28568221D01*
X77092000Y-28591500D01*
X77092000Y-29066500D01*
X77090856Y-29089779D01*
X77087437Y-29112834D01*
X77081773Y-29135443D01*
X77073921Y-29157387D01*
X77063956Y-29178457D01*
X77051974Y-29198448D01*
X77038090Y-29217168D01*
X77022438Y-29234438D01*
X77005168Y-29250090D01*
X76986448Y-29263974D01*
X76966457Y-29275956D01*
X76945387Y-29285921D01*
X76923443Y-29293773D01*
X76900834Y-29299437D01*
X76877779Y-29302856D01*
X76854500Y-29304000D01*
X76279500Y-29304000D01*
X76256221Y-29302856D01*
X76233166Y-29299437D01*
X76210557Y-29293773D01*
X76188613Y-29285921D01*
X76167543Y-29275956D01*
X76147552Y-29263974D01*
X76128832Y-29250090D01*
X76111562Y-29234438D01*
X76095910Y-29217168D01*
X76082026Y-29198448D01*
X76070044Y-29178457D01*
X76060079Y-29157387D01*
X76052227Y-29135443D01*
X76046563Y-29112834D01*
X76043144Y-29089779D01*
X76042000Y-29066500D01*
X76042000Y-28591500D01*
X76043144Y-28568221D01*
X76046563Y-28545166D01*
X76052227Y-28522557D01*
X76060079Y-28500613D01*
X76070044Y-28479543D01*
X76082026Y-28459552D01*
X76095910Y-28440832D01*
X76111562Y-28423562D01*
X76128832Y-28407910D01*
X76147552Y-28394026D01*
X76167543Y-28382044D01*
X76188613Y-28372079D01*
X76210557Y-28364227D01*
X76233166Y-28358563D01*
X76256221Y-28355144D01*
X76279500Y-28354000D01*
X76854500Y-28354000D01*
X76877779Y-28355144D01*
X76877779Y-28355144D01*
G37*
D17*
X76567000Y-28829000D03*
D16*
G36*
X75127779Y-28355144D02*
G01*
X75150834Y-28358563D01*
X75173443Y-28364227D01*
X75195387Y-28372079D01*
X75216457Y-28382044D01*
X75236448Y-28394026D01*
X75255168Y-28407910D01*
X75272438Y-28423562D01*
X75288090Y-28440832D01*
X75301974Y-28459552D01*
X75313956Y-28479543D01*
X75323921Y-28500613D01*
X75331773Y-28522557D01*
X75337437Y-28545166D01*
X75340856Y-28568221D01*
X75342000Y-28591500D01*
X75342000Y-29066500D01*
X75340856Y-29089779D01*
X75337437Y-29112834D01*
X75331773Y-29135443D01*
X75323921Y-29157387D01*
X75313956Y-29178457D01*
X75301974Y-29198448D01*
X75288090Y-29217168D01*
X75272438Y-29234438D01*
X75255168Y-29250090D01*
X75236448Y-29263974D01*
X75216457Y-29275956D01*
X75195387Y-29285921D01*
X75173443Y-29293773D01*
X75150834Y-29299437D01*
X75127779Y-29302856D01*
X75104500Y-29304000D01*
X74529500Y-29304000D01*
X74506221Y-29302856D01*
X74483166Y-29299437D01*
X74460557Y-29293773D01*
X74438613Y-29285921D01*
X74417543Y-29275956D01*
X74397552Y-29263974D01*
X74378832Y-29250090D01*
X74361562Y-29234438D01*
X74345910Y-29217168D01*
X74332026Y-29198448D01*
X74320044Y-29178457D01*
X74310079Y-29157387D01*
X74302227Y-29135443D01*
X74296563Y-29112834D01*
X74293144Y-29089779D01*
X74292000Y-29066500D01*
X74292000Y-28591500D01*
X74293144Y-28568221D01*
X74296563Y-28545166D01*
X74302227Y-28522557D01*
X74310079Y-28500613D01*
X74320044Y-28479543D01*
X74332026Y-28459552D01*
X74345910Y-28440832D01*
X74361562Y-28423562D01*
X74378832Y-28407910D01*
X74397552Y-28394026D01*
X74417543Y-28382044D01*
X74438613Y-28372079D01*
X74460557Y-28364227D01*
X74483166Y-28358563D01*
X74506221Y-28355144D01*
X74529500Y-28354000D01*
X75104500Y-28354000D01*
X75127779Y-28355144D01*
X75127779Y-28355144D01*
G37*
D17*
X74817000Y-28829000D03*
D16*
G36*
X76877779Y-25307144D02*
G01*
X76900834Y-25310563D01*
X76923443Y-25316227D01*
X76945387Y-25324079D01*
X76966457Y-25334044D01*
X76986448Y-25346026D01*
X77005168Y-25359910D01*
X77022438Y-25375562D01*
X77038090Y-25392832D01*
X77051974Y-25411552D01*
X77063956Y-25431543D01*
X77073921Y-25452613D01*
X77081773Y-25474557D01*
X77087437Y-25497166D01*
X77090856Y-25520221D01*
X77092000Y-25543500D01*
X77092000Y-26018500D01*
X77090856Y-26041779D01*
X77087437Y-26064834D01*
X77081773Y-26087443D01*
X77073921Y-26109387D01*
X77063956Y-26130457D01*
X77051974Y-26150448D01*
X77038090Y-26169168D01*
X77022438Y-26186438D01*
X77005168Y-26202090D01*
X76986448Y-26215974D01*
X76966457Y-26227956D01*
X76945387Y-26237921D01*
X76923443Y-26245773D01*
X76900834Y-26251437D01*
X76877779Y-26254856D01*
X76854500Y-26256000D01*
X76279500Y-26256000D01*
X76256221Y-26254856D01*
X76233166Y-26251437D01*
X76210557Y-26245773D01*
X76188613Y-26237921D01*
X76167543Y-26227956D01*
X76147552Y-26215974D01*
X76128832Y-26202090D01*
X76111562Y-26186438D01*
X76095910Y-26169168D01*
X76082026Y-26150448D01*
X76070044Y-26130457D01*
X76060079Y-26109387D01*
X76052227Y-26087443D01*
X76046563Y-26064834D01*
X76043144Y-26041779D01*
X76042000Y-26018500D01*
X76042000Y-25543500D01*
X76043144Y-25520221D01*
X76046563Y-25497166D01*
X76052227Y-25474557D01*
X76060079Y-25452613D01*
X76070044Y-25431543D01*
X76082026Y-25411552D01*
X76095910Y-25392832D01*
X76111562Y-25375562D01*
X76128832Y-25359910D01*
X76147552Y-25346026D01*
X76167543Y-25334044D01*
X76188613Y-25324079D01*
X76210557Y-25316227D01*
X76233166Y-25310563D01*
X76256221Y-25307144D01*
X76279500Y-25306000D01*
X76854500Y-25306000D01*
X76877779Y-25307144D01*
X76877779Y-25307144D01*
G37*
D17*
X76567000Y-25781000D03*
D16*
G36*
X75127779Y-25307144D02*
G01*
X75150834Y-25310563D01*
X75173443Y-25316227D01*
X75195387Y-25324079D01*
X75216457Y-25334044D01*
X75236448Y-25346026D01*
X75255168Y-25359910D01*
X75272438Y-25375562D01*
X75288090Y-25392832D01*
X75301974Y-25411552D01*
X75313956Y-25431543D01*
X75323921Y-25452613D01*
X75331773Y-25474557D01*
X75337437Y-25497166D01*
X75340856Y-25520221D01*
X75342000Y-25543500D01*
X75342000Y-26018500D01*
X75340856Y-26041779D01*
X75337437Y-26064834D01*
X75331773Y-26087443D01*
X75323921Y-26109387D01*
X75313956Y-26130457D01*
X75301974Y-26150448D01*
X75288090Y-26169168D01*
X75272438Y-26186438D01*
X75255168Y-26202090D01*
X75236448Y-26215974D01*
X75216457Y-26227956D01*
X75195387Y-26237921D01*
X75173443Y-26245773D01*
X75150834Y-26251437D01*
X75127779Y-26254856D01*
X75104500Y-26256000D01*
X74529500Y-26256000D01*
X74506221Y-26254856D01*
X74483166Y-26251437D01*
X74460557Y-26245773D01*
X74438613Y-26237921D01*
X74417543Y-26227956D01*
X74397552Y-26215974D01*
X74378832Y-26202090D01*
X74361562Y-26186438D01*
X74345910Y-26169168D01*
X74332026Y-26150448D01*
X74320044Y-26130457D01*
X74310079Y-26109387D01*
X74302227Y-26087443D01*
X74296563Y-26064834D01*
X74293144Y-26041779D01*
X74292000Y-26018500D01*
X74292000Y-25543500D01*
X74293144Y-25520221D01*
X74296563Y-25497166D01*
X74302227Y-25474557D01*
X74310079Y-25452613D01*
X74320044Y-25431543D01*
X74332026Y-25411552D01*
X74345910Y-25392832D01*
X74361562Y-25375562D01*
X74378832Y-25359910D01*
X74397552Y-25346026D01*
X74417543Y-25334044D01*
X74438613Y-25324079D01*
X74460557Y-25316227D01*
X74483166Y-25310563D01*
X74506221Y-25307144D01*
X74529500Y-25306000D01*
X75104500Y-25306000D01*
X75127779Y-25307144D01*
X75127779Y-25307144D01*
G37*
D17*
X74817000Y-25781000D03*
D16*
G36*
X76877779Y-22259144D02*
G01*
X76900834Y-22262563D01*
X76923443Y-22268227D01*
X76945387Y-22276079D01*
X76966457Y-22286044D01*
X76986448Y-22298026D01*
X77005168Y-22311910D01*
X77022438Y-22327562D01*
X77038090Y-22344832D01*
X77051974Y-22363552D01*
X77063956Y-22383543D01*
X77073921Y-22404613D01*
X77081773Y-22426557D01*
X77087437Y-22449166D01*
X77090856Y-22472221D01*
X77092000Y-22495500D01*
X77092000Y-22970500D01*
X77090856Y-22993779D01*
X77087437Y-23016834D01*
X77081773Y-23039443D01*
X77073921Y-23061387D01*
X77063956Y-23082457D01*
X77051974Y-23102448D01*
X77038090Y-23121168D01*
X77022438Y-23138438D01*
X77005168Y-23154090D01*
X76986448Y-23167974D01*
X76966457Y-23179956D01*
X76945387Y-23189921D01*
X76923443Y-23197773D01*
X76900834Y-23203437D01*
X76877779Y-23206856D01*
X76854500Y-23208000D01*
X76279500Y-23208000D01*
X76256221Y-23206856D01*
X76233166Y-23203437D01*
X76210557Y-23197773D01*
X76188613Y-23189921D01*
X76167543Y-23179956D01*
X76147552Y-23167974D01*
X76128832Y-23154090D01*
X76111562Y-23138438D01*
X76095910Y-23121168D01*
X76082026Y-23102448D01*
X76070044Y-23082457D01*
X76060079Y-23061387D01*
X76052227Y-23039443D01*
X76046563Y-23016834D01*
X76043144Y-22993779D01*
X76042000Y-22970500D01*
X76042000Y-22495500D01*
X76043144Y-22472221D01*
X76046563Y-22449166D01*
X76052227Y-22426557D01*
X76060079Y-22404613D01*
X76070044Y-22383543D01*
X76082026Y-22363552D01*
X76095910Y-22344832D01*
X76111562Y-22327562D01*
X76128832Y-22311910D01*
X76147552Y-22298026D01*
X76167543Y-22286044D01*
X76188613Y-22276079D01*
X76210557Y-22268227D01*
X76233166Y-22262563D01*
X76256221Y-22259144D01*
X76279500Y-22258000D01*
X76854500Y-22258000D01*
X76877779Y-22259144D01*
X76877779Y-22259144D01*
G37*
D17*
X76567000Y-22733000D03*
D16*
G36*
X75127779Y-22259144D02*
G01*
X75150834Y-22262563D01*
X75173443Y-22268227D01*
X75195387Y-22276079D01*
X75216457Y-22286044D01*
X75236448Y-22298026D01*
X75255168Y-22311910D01*
X75272438Y-22327562D01*
X75288090Y-22344832D01*
X75301974Y-22363552D01*
X75313956Y-22383543D01*
X75323921Y-22404613D01*
X75331773Y-22426557D01*
X75337437Y-22449166D01*
X75340856Y-22472221D01*
X75342000Y-22495500D01*
X75342000Y-22970500D01*
X75340856Y-22993779D01*
X75337437Y-23016834D01*
X75331773Y-23039443D01*
X75323921Y-23061387D01*
X75313956Y-23082457D01*
X75301974Y-23102448D01*
X75288090Y-23121168D01*
X75272438Y-23138438D01*
X75255168Y-23154090D01*
X75236448Y-23167974D01*
X75216457Y-23179956D01*
X75195387Y-23189921D01*
X75173443Y-23197773D01*
X75150834Y-23203437D01*
X75127779Y-23206856D01*
X75104500Y-23208000D01*
X74529500Y-23208000D01*
X74506221Y-23206856D01*
X74483166Y-23203437D01*
X74460557Y-23197773D01*
X74438613Y-23189921D01*
X74417543Y-23179956D01*
X74397552Y-23167974D01*
X74378832Y-23154090D01*
X74361562Y-23138438D01*
X74345910Y-23121168D01*
X74332026Y-23102448D01*
X74320044Y-23082457D01*
X74310079Y-23061387D01*
X74302227Y-23039443D01*
X74296563Y-23016834D01*
X74293144Y-22993779D01*
X74292000Y-22970500D01*
X74292000Y-22495500D01*
X74293144Y-22472221D01*
X74296563Y-22449166D01*
X74302227Y-22426557D01*
X74310079Y-22404613D01*
X74320044Y-22383543D01*
X74332026Y-22363552D01*
X74345910Y-22344832D01*
X74361562Y-22327562D01*
X74378832Y-22311910D01*
X74397552Y-22298026D01*
X74417543Y-22286044D01*
X74438613Y-22276079D01*
X74460557Y-22268227D01*
X74483166Y-22262563D01*
X74506221Y-22259144D01*
X74529500Y-22258000D01*
X75104500Y-22258000D01*
X75127779Y-22259144D01*
X75127779Y-22259144D01*
G37*
D17*
X74817000Y-22733000D03*
D16*
G36*
X76877779Y-23783144D02*
G01*
X76900834Y-23786563D01*
X76923443Y-23792227D01*
X76945387Y-23800079D01*
X76966457Y-23810044D01*
X76986448Y-23822026D01*
X77005168Y-23835910D01*
X77022438Y-23851562D01*
X77038090Y-23868832D01*
X77051974Y-23887552D01*
X77063956Y-23907543D01*
X77073921Y-23928613D01*
X77081773Y-23950557D01*
X77087437Y-23973166D01*
X77090856Y-23996221D01*
X77092000Y-24019500D01*
X77092000Y-24494500D01*
X77090856Y-24517779D01*
X77087437Y-24540834D01*
X77081773Y-24563443D01*
X77073921Y-24585387D01*
X77063956Y-24606457D01*
X77051974Y-24626448D01*
X77038090Y-24645168D01*
X77022438Y-24662438D01*
X77005168Y-24678090D01*
X76986448Y-24691974D01*
X76966457Y-24703956D01*
X76945387Y-24713921D01*
X76923443Y-24721773D01*
X76900834Y-24727437D01*
X76877779Y-24730856D01*
X76854500Y-24732000D01*
X76279500Y-24732000D01*
X76256221Y-24730856D01*
X76233166Y-24727437D01*
X76210557Y-24721773D01*
X76188613Y-24713921D01*
X76167543Y-24703956D01*
X76147552Y-24691974D01*
X76128832Y-24678090D01*
X76111562Y-24662438D01*
X76095910Y-24645168D01*
X76082026Y-24626448D01*
X76070044Y-24606457D01*
X76060079Y-24585387D01*
X76052227Y-24563443D01*
X76046563Y-24540834D01*
X76043144Y-24517779D01*
X76042000Y-24494500D01*
X76042000Y-24019500D01*
X76043144Y-23996221D01*
X76046563Y-23973166D01*
X76052227Y-23950557D01*
X76060079Y-23928613D01*
X76070044Y-23907543D01*
X76082026Y-23887552D01*
X76095910Y-23868832D01*
X76111562Y-23851562D01*
X76128832Y-23835910D01*
X76147552Y-23822026D01*
X76167543Y-23810044D01*
X76188613Y-23800079D01*
X76210557Y-23792227D01*
X76233166Y-23786563D01*
X76256221Y-23783144D01*
X76279500Y-23782000D01*
X76854500Y-23782000D01*
X76877779Y-23783144D01*
X76877779Y-23783144D01*
G37*
D17*
X76567000Y-24257000D03*
D16*
G36*
X75127779Y-23783144D02*
G01*
X75150834Y-23786563D01*
X75173443Y-23792227D01*
X75195387Y-23800079D01*
X75216457Y-23810044D01*
X75236448Y-23822026D01*
X75255168Y-23835910D01*
X75272438Y-23851562D01*
X75288090Y-23868832D01*
X75301974Y-23887552D01*
X75313956Y-23907543D01*
X75323921Y-23928613D01*
X75331773Y-23950557D01*
X75337437Y-23973166D01*
X75340856Y-23996221D01*
X75342000Y-24019500D01*
X75342000Y-24494500D01*
X75340856Y-24517779D01*
X75337437Y-24540834D01*
X75331773Y-24563443D01*
X75323921Y-24585387D01*
X75313956Y-24606457D01*
X75301974Y-24626448D01*
X75288090Y-24645168D01*
X75272438Y-24662438D01*
X75255168Y-24678090D01*
X75236448Y-24691974D01*
X75216457Y-24703956D01*
X75195387Y-24713921D01*
X75173443Y-24721773D01*
X75150834Y-24727437D01*
X75127779Y-24730856D01*
X75104500Y-24732000D01*
X74529500Y-24732000D01*
X74506221Y-24730856D01*
X74483166Y-24727437D01*
X74460557Y-24721773D01*
X74438613Y-24713921D01*
X74417543Y-24703956D01*
X74397552Y-24691974D01*
X74378832Y-24678090D01*
X74361562Y-24662438D01*
X74345910Y-24645168D01*
X74332026Y-24626448D01*
X74320044Y-24606457D01*
X74310079Y-24585387D01*
X74302227Y-24563443D01*
X74296563Y-24540834D01*
X74293144Y-24517779D01*
X74292000Y-24494500D01*
X74292000Y-24019500D01*
X74293144Y-23996221D01*
X74296563Y-23973166D01*
X74302227Y-23950557D01*
X74310079Y-23928613D01*
X74320044Y-23907543D01*
X74332026Y-23887552D01*
X74345910Y-23868832D01*
X74361562Y-23851562D01*
X74378832Y-23835910D01*
X74397552Y-23822026D01*
X74417543Y-23810044D01*
X74438613Y-23800079D01*
X74460557Y-23792227D01*
X74483166Y-23786563D01*
X74506221Y-23783144D01*
X74529500Y-23782000D01*
X75104500Y-23782000D01*
X75127779Y-23783144D01*
X75127779Y-23783144D01*
G37*
D17*
X74817000Y-24257000D03*
D16*
G36*
X76877779Y-32927144D02*
G01*
X76900834Y-32930563D01*
X76923443Y-32936227D01*
X76945387Y-32944079D01*
X76966457Y-32954044D01*
X76986448Y-32966026D01*
X77005168Y-32979910D01*
X77022438Y-32995562D01*
X77038090Y-33012832D01*
X77051974Y-33031552D01*
X77063956Y-33051543D01*
X77073921Y-33072613D01*
X77081773Y-33094557D01*
X77087437Y-33117166D01*
X77090856Y-33140221D01*
X77092000Y-33163500D01*
X77092000Y-33638500D01*
X77090856Y-33661779D01*
X77087437Y-33684834D01*
X77081773Y-33707443D01*
X77073921Y-33729387D01*
X77063956Y-33750457D01*
X77051974Y-33770448D01*
X77038090Y-33789168D01*
X77022438Y-33806438D01*
X77005168Y-33822090D01*
X76986448Y-33835974D01*
X76966457Y-33847956D01*
X76945387Y-33857921D01*
X76923443Y-33865773D01*
X76900834Y-33871437D01*
X76877779Y-33874856D01*
X76854500Y-33876000D01*
X76279500Y-33876000D01*
X76256221Y-33874856D01*
X76233166Y-33871437D01*
X76210557Y-33865773D01*
X76188613Y-33857921D01*
X76167543Y-33847956D01*
X76147552Y-33835974D01*
X76128832Y-33822090D01*
X76111562Y-33806438D01*
X76095910Y-33789168D01*
X76082026Y-33770448D01*
X76070044Y-33750457D01*
X76060079Y-33729387D01*
X76052227Y-33707443D01*
X76046563Y-33684834D01*
X76043144Y-33661779D01*
X76042000Y-33638500D01*
X76042000Y-33163500D01*
X76043144Y-33140221D01*
X76046563Y-33117166D01*
X76052227Y-33094557D01*
X76060079Y-33072613D01*
X76070044Y-33051543D01*
X76082026Y-33031552D01*
X76095910Y-33012832D01*
X76111562Y-32995562D01*
X76128832Y-32979910D01*
X76147552Y-32966026D01*
X76167543Y-32954044D01*
X76188613Y-32944079D01*
X76210557Y-32936227D01*
X76233166Y-32930563D01*
X76256221Y-32927144D01*
X76279500Y-32926000D01*
X76854500Y-32926000D01*
X76877779Y-32927144D01*
X76877779Y-32927144D01*
G37*
D17*
X76567000Y-33401000D03*
D16*
G36*
X75127779Y-32927144D02*
G01*
X75150834Y-32930563D01*
X75173443Y-32936227D01*
X75195387Y-32944079D01*
X75216457Y-32954044D01*
X75236448Y-32966026D01*
X75255168Y-32979910D01*
X75272438Y-32995562D01*
X75288090Y-33012832D01*
X75301974Y-33031552D01*
X75313956Y-33051543D01*
X75323921Y-33072613D01*
X75331773Y-33094557D01*
X75337437Y-33117166D01*
X75340856Y-33140221D01*
X75342000Y-33163500D01*
X75342000Y-33638500D01*
X75340856Y-33661779D01*
X75337437Y-33684834D01*
X75331773Y-33707443D01*
X75323921Y-33729387D01*
X75313956Y-33750457D01*
X75301974Y-33770448D01*
X75288090Y-33789168D01*
X75272438Y-33806438D01*
X75255168Y-33822090D01*
X75236448Y-33835974D01*
X75216457Y-33847956D01*
X75195387Y-33857921D01*
X75173443Y-33865773D01*
X75150834Y-33871437D01*
X75127779Y-33874856D01*
X75104500Y-33876000D01*
X74529500Y-33876000D01*
X74506221Y-33874856D01*
X74483166Y-33871437D01*
X74460557Y-33865773D01*
X74438613Y-33857921D01*
X74417543Y-33847956D01*
X74397552Y-33835974D01*
X74378832Y-33822090D01*
X74361562Y-33806438D01*
X74345910Y-33789168D01*
X74332026Y-33770448D01*
X74320044Y-33750457D01*
X74310079Y-33729387D01*
X74302227Y-33707443D01*
X74296563Y-33684834D01*
X74293144Y-33661779D01*
X74292000Y-33638500D01*
X74292000Y-33163500D01*
X74293144Y-33140221D01*
X74296563Y-33117166D01*
X74302227Y-33094557D01*
X74310079Y-33072613D01*
X74320044Y-33051543D01*
X74332026Y-33031552D01*
X74345910Y-33012832D01*
X74361562Y-32995562D01*
X74378832Y-32979910D01*
X74397552Y-32966026D01*
X74417543Y-32954044D01*
X74438613Y-32944079D01*
X74460557Y-32936227D01*
X74483166Y-32930563D01*
X74506221Y-32927144D01*
X74529500Y-32926000D01*
X75104500Y-32926000D01*
X75127779Y-32927144D01*
X75127779Y-32927144D01*
G37*
D17*
X74817000Y-33401000D03*
D16*
G36*
X75127779Y-29879144D02*
G01*
X75150834Y-29882563D01*
X75173443Y-29888227D01*
X75195387Y-29896079D01*
X75216457Y-29906044D01*
X75236448Y-29918026D01*
X75255168Y-29931910D01*
X75272438Y-29947562D01*
X75288090Y-29964832D01*
X75301974Y-29983552D01*
X75313956Y-30003543D01*
X75323921Y-30024613D01*
X75331773Y-30046557D01*
X75337437Y-30069166D01*
X75340856Y-30092221D01*
X75342000Y-30115500D01*
X75342000Y-30590500D01*
X75340856Y-30613779D01*
X75337437Y-30636834D01*
X75331773Y-30659443D01*
X75323921Y-30681387D01*
X75313956Y-30702457D01*
X75301974Y-30722448D01*
X75288090Y-30741168D01*
X75272438Y-30758438D01*
X75255168Y-30774090D01*
X75236448Y-30787974D01*
X75216457Y-30799956D01*
X75195387Y-30809921D01*
X75173443Y-30817773D01*
X75150834Y-30823437D01*
X75127779Y-30826856D01*
X75104500Y-30828000D01*
X74529500Y-30828000D01*
X74506221Y-30826856D01*
X74483166Y-30823437D01*
X74460557Y-30817773D01*
X74438613Y-30809921D01*
X74417543Y-30799956D01*
X74397552Y-30787974D01*
X74378832Y-30774090D01*
X74361562Y-30758438D01*
X74345910Y-30741168D01*
X74332026Y-30722448D01*
X74320044Y-30702457D01*
X74310079Y-30681387D01*
X74302227Y-30659443D01*
X74296563Y-30636834D01*
X74293144Y-30613779D01*
X74292000Y-30590500D01*
X74292000Y-30115500D01*
X74293144Y-30092221D01*
X74296563Y-30069166D01*
X74302227Y-30046557D01*
X74310079Y-30024613D01*
X74320044Y-30003543D01*
X74332026Y-29983552D01*
X74345910Y-29964832D01*
X74361562Y-29947562D01*
X74378832Y-29931910D01*
X74397552Y-29918026D01*
X74417543Y-29906044D01*
X74438613Y-29896079D01*
X74460557Y-29888227D01*
X74483166Y-29882563D01*
X74506221Y-29879144D01*
X74529500Y-29878000D01*
X75104500Y-29878000D01*
X75127779Y-29879144D01*
X75127779Y-29879144D01*
G37*
D17*
X74817000Y-30353000D03*
D16*
G36*
X76877779Y-29879144D02*
G01*
X76900834Y-29882563D01*
X76923443Y-29888227D01*
X76945387Y-29896079D01*
X76966457Y-29906044D01*
X76986448Y-29918026D01*
X77005168Y-29931910D01*
X77022438Y-29947562D01*
X77038090Y-29964832D01*
X77051974Y-29983552D01*
X77063956Y-30003543D01*
X77073921Y-30024613D01*
X77081773Y-30046557D01*
X77087437Y-30069166D01*
X77090856Y-30092221D01*
X77092000Y-30115500D01*
X77092000Y-30590500D01*
X77090856Y-30613779D01*
X77087437Y-30636834D01*
X77081773Y-30659443D01*
X77073921Y-30681387D01*
X77063956Y-30702457D01*
X77051974Y-30722448D01*
X77038090Y-30741168D01*
X77022438Y-30758438D01*
X77005168Y-30774090D01*
X76986448Y-30787974D01*
X76966457Y-30799956D01*
X76945387Y-30809921D01*
X76923443Y-30817773D01*
X76900834Y-30823437D01*
X76877779Y-30826856D01*
X76854500Y-30828000D01*
X76279500Y-30828000D01*
X76256221Y-30826856D01*
X76233166Y-30823437D01*
X76210557Y-30817773D01*
X76188613Y-30809921D01*
X76167543Y-30799956D01*
X76147552Y-30787974D01*
X76128832Y-30774090D01*
X76111562Y-30758438D01*
X76095910Y-30741168D01*
X76082026Y-30722448D01*
X76070044Y-30702457D01*
X76060079Y-30681387D01*
X76052227Y-30659443D01*
X76046563Y-30636834D01*
X76043144Y-30613779D01*
X76042000Y-30590500D01*
X76042000Y-30115500D01*
X76043144Y-30092221D01*
X76046563Y-30069166D01*
X76052227Y-30046557D01*
X76060079Y-30024613D01*
X76070044Y-30003543D01*
X76082026Y-29983552D01*
X76095910Y-29964832D01*
X76111562Y-29947562D01*
X76128832Y-29931910D01*
X76147552Y-29918026D01*
X76167543Y-29906044D01*
X76188613Y-29896079D01*
X76210557Y-29888227D01*
X76233166Y-29882563D01*
X76256221Y-29879144D01*
X76279500Y-29878000D01*
X76854500Y-29878000D01*
X76877779Y-29879144D01*
X76877779Y-29879144D01*
G37*
D17*
X76567000Y-30353000D03*
D16*
G36*
X75127779Y-34451144D02*
G01*
X75150834Y-34454563D01*
X75173443Y-34460227D01*
X75195387Y-34468079D01*
X75216457Y-34478044D01*
X75236448Y-34490026D01*
X75255168Y-34503910D01*
X75272438Y-34519562D01*
X75288090Y-34536832D01*
X75301974Y-34555552D01*
X75313956Y-34575543D01*
X75323921Y-34596613D01*
X75331773Y-34618557D01*
X75337437Y-34641166D01*
X75340856Y-34664221D01*
X75342000Y-34687500D01*
X75342000Y-35162500D01*
X75340856Y-35185779D01*
X75337437Y-35208834D01*
X75331773Y-35231443D01*
X75323921Y-35253387D01*
X75313956Y-35274457D01*
X75301974Y-35294448D01*
X75288090Y-35313168D01*
X75272438Y-35330438D01*
X75255168Y-35346090D01*
X75236448Y-35359974D01*
X75216457Y-35371956D01*
X75195387Y-35381921D01*
X75173443Y-35389773D01*
X75150834Y-35395437D01*
X75127779Y-35398856D01*
X75104500Y-35400000D01*
X74529500Y-35400000D01*
X74506221Y-35398856D01*
X74483166Y-35395437D01*
X74460557Y-35389773D01*
X74438613Y-35381921D01*
X74417543Y-35371956D01*
X74397552Y-35359974D01*
X74378832Y-35346090D01*
X74361562Y-35330438D01*
X74345910Y-35313168D01*
X74332026Y-35294448D01*
X74320044Y-35274457D01*
X74310079Y-35253387D01*
X74302227Y-35231443D01*
X74296563Y-35208834D01*
X74293144Y-35185779D01*
X74292000Y-35162500D01*
X74292000Y-34687500D01*
X74293144Y-34664221D01*
X74296563Y-34641166D01*
X74302227Y-34618557D01*
X74310079Y-34596613D01*
X74320044Y-34575543D01*
X74332026Y-34555552D01*
X74345910Y-34536832D01*
X74361562Y-34519562D01*
X74378832Y-34503910D01*
X74397552Y-34490026D01*
X74417543Y-34478044D01*
X74438613Y-34468079D01*
X74460557Y-34460227D01*
X74483166Y-34454563D01*
X74506221Y-34451144D01*
X74529500Y-34450000D01*
X75104500Y-34450000D01*
X75127779Y-34451144D01*
X75127779Y-34451144D01*
G37*
D17*
X74817000Y-34925000D03*
D16*
G36*
X76877779Y-34451144D02*
G01*
X76900834Y-34454563D01*
X76923443Y-34460227D01*
X76945387Y-34468079D01*
X76966457Y-34478044D01*
X76986448Y-34490026D01*
X77005168Y-34503910D01*
X77022438Y-34519562D01*
X77038090Y-34536832D01*
X77051974Y-34555552D01*
X77063956Y-34575543D01*
X77073921Y-34596613D01*
X77081773Y-34618557D01*
X77087437Y-34641166D01*
X77090856Y-34664221D01*
X77092000Y-34687500D01*
X77092000Y-35162500D01*
X77090856Y-35185779D01*
X77087437Y-35208834D01*
X77081773Y-35231443D01*
X77073921Y-35253387D01*
X77063956Y-35274457D01*
X77051974Y-35294448D01*
X77038090Y-35313168D01*
X77022438Y-35330438D01*
X77005168Y-35346090D01*
X76986448Y-35359974D01*
X76966457Y-35371956D01*
X76945387Y-35381921D01*
X76923443Y-35389773D01*
X76900834Y-35395437D01*
X76877779Y-35398856D01*
X76854500Y-35400000D01*
X76279500Y-35400000D01*
X76256221Y-35398856D01*
X76233166Y-35395437D01*
X76210557Y-35389773D01*
X76188613Y-35381921D01*
X76167543Y-35371956D01*
X76147552Y-35359974D01*
X76128832Y-35346090D01*
X76111562Y-35330438D01*
X76095910Y-35313168D01*
X76082026Y-35294448D01*
X76070044Y-35274457D01*
X76060079Y-35253387D01*
X76052227Y-35231443D01*
X76046563Y-35208834D01*
X76043144Y-35185779D01*
X76042000Y-35162500D01*
X76042000Y-34687500D01*
X76043144Y-34664221D01*
X76046563Y-34641166D01*
X76052227Y-34618557D01*
X76060079Y-34596613D01*
X76070044Y-34575543D01*
X76082026Y-34555552D01*
X76095910Y-34536832D01*
X76111562Y-34519562D01*
X76128832Y-34503910D01*
X76147552Y-34490026D01*
X76167543Y-34478044D01*
X76188613Y-34468079D01*
X76210557Y-34460227D01*
X76233166Y-34454563D01*
X76256221Y-34451144D01*
X76279500Y-34450000D01*
X76854500Y-34450000D01*
X76877779Y-34451144D01*
X76877779Y-34451144D01*
G37*
D17*
X76567000Y-34925000D03*
D16*
G36*
X75127779Y-35975144D02*
G01*
X75150834Y-35978563D01*
X75173443Y-35984227D01*
X75195387Y-35992079D01*
X75216457Y-36002044D01*
X75236448Y-36014026D01*
X75255168Y-36027910D01*
X75272438Y-36043562D01*
X75288090Y-36060832D01*
X75301974Y-36079552D01*
X75313956Y-36099543D01*
X75323921Y-36120613D01*
X75331773Y-36142557D01*
X75337437Y-36165166D01*
X75340856Y-36188221D01*
X75342000Y-36211500D01*
X75342000Y-36686500D01*
X75340856Y-36709779D01*
X75337437Y-36732834D01*
X75331773Y-36755443D01*
X75323921Y-36777387D01*
X75313956Y-36798457D01*
X75301974Y-36818448D01*
X75288090Y-36837168D01*
X75272438Y-36854438D01*
X75255168Y-36870090D01*
X75236448Y-36883974D01*
X75216457Y-36895956D01*
X75195387Y-36905921D01*
X75173443Y-36913773D01*
X75150834Y-36919437D01*
X75127779Y-36922856D01*
X75104500Y-36924000D01*
X74529500Y-36924000D01*
X74506221Y-36922856D01*
X74483166Y-36919437D01*
X74460557Y-36913773D01*
X74438613Y-36905921D01*
X74417543Y-36895956D01*
X74397552Y-36883974D01*
X74378832Y-36870090D01*
X74361562Y-36854438D01*
X74345910Y-36837168D01*
X74332026Y-36818448D01*
X74320044Y-36798457D01*
X74310079Y-36777387D01*
X74302227Y-36755443D01*
X74296563Y-36732834D01*
X74293144Y-36709779D01*
X74292000Y-36686500D01*
X74292000Y-36211500D01*
X74293144Y-36188221D01*
X74296563Y-36165166D01*
X74302227Y-36142557D01*
X74310079Y-36120613D01*
X74320044Y-36099543D01*
X74332026Y-36079552D01*
X74345910Y-36060832D01*
X74361562Y-36043562D01*
X74378832Y-36027910D01*
X74397552Y-36014026D01*
X74417543Y-36002044D01*
X74438613Y-35992079D01*
X74460557Y-35984227D01*
X74483166Y-35978563D01*
X74506221Y-35975144D01*
X74529500Y-35974000D01*
X75104500Y-35974000D01*
X75127779Y-35975144D01*
X75127779Y-35975144D01*
G37*
D17*
X74817000Y-36449000D03*
D16*
G36*
X76877779Y-35975144D02*
G01*
X76900834Y-35978563D01*
X76923443Y-35984227D01*
X76945387Y-35992079D01*
X76966457Y-36002044D01*
X76986448Y-36014026D01*
X77005168Y-36027910D01*
X77022438Y-36043562D01*
X77038090Y-36060832D01*
X77051974Y-36079552D01*
X77063956Y-36099543D01*
X77073921Y-36120613D01*
X77081773Y-36142557D01*
X77087437Y-36165166D01*
X77090856Y-36188221D01*
X77092000Y-36211500D01*
X77092000Y-36686500D01*
X77090856Y-36709779D01*
X77087437Y-36732834D01*
X77081773Y-36755443D01*
X77073921Y-36777387D01*
X77063956Y-36798457D01*
X77051974Y-36818448D01*
X77038090Y-36837168D01*
X77022438Y-36854438D01*
X77005168Y-36870090D01*
X76986448Y-36883974D01*
X76966457Y-36895956D01*
X76945387Y-36905921D01*
X76923443Y-36913773D01*
X76900834Y-36919437D01*
X76877779Y-36922856D01*
X76854500Y-36924000D01*
X76279500Y-36924000D01*
X76256221Y-36922856D01*
X76233166Y-36919437D01*
X76210557Y-36913773D01*
X76188613Y-36905921D01*
X76167543Y-36895956D01*
X76147552Y-36883974D01*
X76128832Y-36870090D01*
X76111562Y-36854438D01*
X76095910Y-36837168D01*
X76082026Y-36818448D01*
X76070044Y-36798457D01*
X76060079Y-36777387D01*
X76052227Y-36755443D01*
X76046563Y-36732834D01*
X76043144Y-36709779D01*
X76042000Y-36686500D01*
X76042000Y-36211500D01*
X76043144Y-36188221D01*
X76046563Y-36165166D01*
X76052227Y-36142557D01*
X76060079Y-36120613D01*
X76070044Y-36099543D01*
X76082026Y-36079552D01*
X76095910Y-36060832D01*
X76111562Y-36043562D01*
X76128832Y-36027910D01*
X76147552Y-36014026D01*
X76167543Y-36002044D01*
X76188613Y-35992079D01*
X76210557Y-35984227D01*
X76233166Y-35978563D01*
X76256221Y-35975144D01*
X76279500Y-35974000D01*
X76854500Y-35974000D01*
X76877779Y-35975144D01*
X76877779Y-35975144D01*
G37*
D17*
X76567000Y-36449000D03*
D16*
G36*
X75113779Y-31403144D02*
G01*
X75136834Y-31406563D01*
X75159443Y-31412227D01*
X75181387Y-31420079D01*
X75202457Y-31430044D01*
X75222448Y-31442026D01*
X75241168Y-31455910D01*
X75258438Y-31471562D01*
X75274090Y-31488832D01*
X75287974Y-31507552D01*
X75299956Y-31527543D01*
X75309921Y-31548613D01*
X75317773Y-31570557D01*
X75323437Y-31593166D01*
X75326856Y-31616221D01*
X75328000Y-31639500D01*
X75328000Y-32114500D01*
X75326856Y-32137779D01*
X75323437Y-32160834D01*
X75317773Y-32183443D01*
X75309921Y-32205387D01*
X75299956Y-32226457D01*
X75287974Y-32246448D01*
X75274090Y-32265168D01*
X75258438Y-32282438D01*
X75241168Y-32298090D01*
X75222448Y-32311974D01*
X75202457Y-32323956D01*
X75181387Y-32333921D01*
X75159443Y-32341773D01*
X75136834Y-32347437D01*
X75113779Y-32350856D01*
X75090500Y-32352000D01*
X74515500Y-32352000D01*
X74492221Y-32350856D01*
X74469166Y-32347437D01*
X74446557Y-32341773D01*
X74424613Y-32333921D01*
X74403543Y-32323956D01*
X74383552Y-32311974D01*
X74364832Y-32298090D01*
X74347562Y-32282438D01*
X74331910Y-32265168D01*
X74318026Y-32246448D01*
X74306044Y-32226457D01*
X74296079Y-32205387D01*
X74288227Y-32183443D01*
X74282563Y-32160834D01*
X74279144Y-32137779D01*
X74278000Y-32114500D01*
X74278000Y-31639500D01*
X74279144Y-31616221D01*
X74282563Y-31593166D01*
X74288227Y-31570557D01*
X74296079Y-31548613D01*
X74306044Y-31527543D01*
X74318026Y-31507552D01*
X74331910Y-31488832D01*
X74347562Y-31471562D01*
X74364832Y-31455910D01*
X74383552Y-31442026D01*
X74403543Y-31430044D01*
X74424613Y-31420079D01*
X74446557Y-31412227D01*
X74469166Y-31406563D01*
X74492221Y-31403144D01*
X74515500Y-31402000D01*
X75090500Y-31402000D01*
X75113779Y-31403144D01*
X75113779Y-31403144D01*
G37*
D17*
X74803000Y-31877000D03*
D16*
G36*
X76863779Y-31403144D02*
G01*
X76886834Y-31406563D01*
X76909443Y-31412227D01*
X76931387Y-31420079D01*
X76952457Y-31430044D01*
X76972448Y-31442026D01*
X76991168Y-31455910D01*
X77008438Y-31471562D01*
X77024090Y-31488832D01*
X77037974Y-31507552D01*
X77049956Y-31527543D01*
X77059921Y-31548613D01*
X77067773Y-31570557D01*
X77073437Y-31593166D01*
X77076856Y-31616221D01*
X77078000Y-31639500D01*
X77078000Y-32114500D01*
X77076856Y-32137779D01*
X77073437Y-32160834D01*
X77067773Y-32183443D01*
X77059921Y-32205387D01*
X77049956Y-32226457D01*
X77037974Y-32246448D01*
X77024090Y-32265168D01*
X77008438Y-32282438D01*
X76991168Y-32298090D01*
X76972448Y-32311974D01*
X76952457Y-32323956D01*
X76931387Y-32333921D01*
X76909443Y-32341773D01*
X76886834Y-32347437D01*
X76863779Y-32350856D01*
X76840500Y-32352000D01*
X76265500Y-32352000D01*
X76242221Y-32350856D01*
X76219166Y-32347437D01*
X76196557Y-32341773D01*
X76174613Y-32333921D01*
X76153543Y-32323956D01*
X76133552Y-32311974D01*
X76114832Y-32298090D01*
X76097562Y-32282438D01*
X76081910Y-32265168D01*
X76068026Y-32246448D01*
X76056044Y-32226457D01*
X76046079Y-32205387D01*
X76038227Y-32183443D01*
X76032563Y-32160834D01*
X76029144Y-32137779D01*
X76028000Y-32114500D01*
X76028000Y-31639500D01*
X76029144Y-31616221D01*
X76032563Y-31593166D01*
X76038227Y-31570557D01*
X76046079Y-31548613D01*
X76056044Y-31527543D01*
X76068026Y-31507552D01*
X76081910Y-31488832D01*
X76097562Y-31471562D01*
X76114832Y-31455910D01*
X76133552Y-31442026D01*
X76153543Y-31430044D01*
X76174613Y-31420079D01*
X76196557Y-31412227D01*
X76219166Y-31406563D01*
X76242221Y-31403144D01*
X76265500Y-31402000D01*
X76840500Y-31402000D01*
X76863779Y-31403144D01*
X76863779Y-31403144D01*
G37*
D17*
X76553000Y-31877000D03*
D16*
G36*
X75127779Y-37499144D02*
G01*
X75150834Y-37502563D01*
X75173443Y-37508227D01*
X75195387Y-37516079D01*
X75216457Y-37526044D01*
X75236448Y-37538026D01*
X75255168Y-37551910D01*
X75272438Y-37567562D01*
X75288090Y-37584832D01*
X75301974Y-37603552D01*
X75313956Y-37623543D01*
X75323921Y-37644613D01*
X75331773Y-37666557D01*
X75337437Y-37689166D01*
X75340856Y-37712221D01*
X75342000Y-37735500D01*
X75342000Y-38210500D01*
X75340856Y-38233779D01*
X75337437Y-38256834D01*
X75331773Y-38279443D01*
X75323921Y-38301387D01*
X75313956Y-38322457D01*
X75301974Y-38342448D01*
X75288090Y-38361168D01*
X75272438Y-38378438D01*
X75255168Y-38394090D01*
X75236448Y-38407974D01*
X75216457Y-38419956D01*
X75195387Y-38429921D01*
X75173443Y-38437773D01*
X75150834Y-38443437D01*
X75127779Y-38446856D01*
X75104500Y-38448000D01*
X74529500Y-38448000D01*
X74506221Y-38446856D01*
X74483166Y-38443437D01*
X74460557Y-38437773D01*
X74438613Y-38429921D01*
X74417543Y-38419956D01*
X74397552Y-38407974D01*
X74378832Y-38394090D01*
X74361562Y-38378438D01*
X74345910Y-38361168D01*
X74332026Y-38342448D01*
X74320044Y-38322457D01*
X74310079Y-38301387D01*
X74302227Y-38279443D01*
X74296563Y-38256834D01*
X74293144Y-38233779D01*
X74292000Y-38210500D01*
X74292000Y-37735500D01*
X74293144Y-37712221D01*
X74296563Y-37689166D01*
X74302227Y-37666557D01*
X74310079Y-37644613D01*
X74320044Y-37623543D01*
X74332026Y-37603552D01*
X74345910Y-37584832D01*
X74361562Y-37567562D01*
X74378832Y-37551910D01*
X74397552Y-37538026D01*
X74417543Y-37526044D01*
X74438613Y-37516079D01*
X74460557Y-37508227D01*
X74483166Y-37502563D01*
X74506221Y-37499144D01*
X74529500Y-37498000D01*
X75104500Y-37498000D01*
X75127779Y-37499144D01*
X75127779Y-37499144D01*
G37*
D17*
X74817000Y-37973000D03*
D16*
G36*
X76877779Y-37499144D02*
G01*
X76900834Y-37502563D01*
X76923443Y-37508227D01*
X76945387Y-37516079D01*
X76966457Y-37526044D01*
X76986448Y-37538026D01*
X77005168Y-37551910D01*
X77022438Y-37567562D01*
X77038090Y-37584832D01*
X77051974Y-37603552D01*
X77063956Y-37623543D01*
X77073921Y-37644613D01*
X77081773Y-37666557D01*
X77087437Y-37689166D01*
X77090856Y-37712221D01*
X77092000Y-37735500D01*
X77092000Y-38210500D01*
X77090856Y-38233779D01*
X77087437Y-38256834D01*
X77081773Y-38279443D01*
X77073921Y-38301387D01*
X77063956Y-38322457D01*
X77051974Y-38342448D01*
X77038090Y-38361168D01*
X77022438Y-38378438D01*
X77005168Y-38394090D01*
X76986448Y-38407974D01*
X76966457Y-38419956D01*
X76945387Y-38429921D01*
X76923443Y-38437773D01*
X76900834Y-38443437D01*
X76877779Y-38446856D01*
X76854500Y-38448000D01*
X76279500Y-38448000D01*
X76256221Y-38446856D01*
X76233166Y-38443437D01*
X76210557Y-38437773D01*
X76188613Y-38429921D01*
X76167543Y-38419956D01*
X76147552Y-38407974D01*
X76128832Y-38394090D01*
X76111562Y-38378438D01*
X76095910Y-38361168D01*
X76082026Y-38342448D01*
X76070044Y-38322457D01*
X76060079Y-38301387D01*
X76052227Y-38279443D01*
X76046563Y-38256834D01*
X76043144Y-38233779D01*
X76042000Y-38210500D01*
X76042000Y-37735500D01*
X76043144Y-37712221D01*
X76046563Y-37689166D01*
X76052227Y-37666557D01*
X76060079Y-37644613D01*
X76070044Y-37623543D01*
X76082026Y-37603552D01*
X76095910Y-37584832D01*
X76111562Y-37567562D01*
X76128832Y-37551910D01*
X76147552Y-37538026D01*
X76167543Y-37526044D01*
X76188613Y-37516079D01*
X76210557Y-37508227D01*
X76233166Y-37502563D01*
X76256221Y-37499144D01*
X76279500Y-37498000D01*
X76854500Y-37498000D01*
X76877779Y-37499144D01*
X76877779Y-37499144D01*
G37*
D17*
X76567000Y-37973000D03*
D18*
X24257000Y-27305000D03*
X35750500Y-27114500D03*
X59817000Y-26924000D03*
D19*
X53848000Y-21336000D03*
X30861000Y-21717000D03*
X21209000Y-21463000D03*
X21209000Y-35687000D03*
D18*
X47371000Y-26924000D03*
X57404000Y-21082000D03*
X63500000Y-22098000D03*
X60948851Y-25157149D03*
X48929900Y-25238100D03*
X37159500Y-25070500D03*
X25190500Y-25391900D03*
X66548000Y-26924000D03*
D19*
X55118000Y-27686000D03*
X55118000Y-32829500D03*
X42926000Y-33845500D03*
X31115000Y-26987500D03*
X32893000Y-21463000D03*
X43180000Y-27051000D03*
X70421500Y-24701500D03*
X69215000Y-25082500D03*
X67564000Y-25082500D03*
X67500500Y-26670000D03*
X67627500Y-28638500D03*
X66738500Y-29718000D03*
X66992500Y-30607000D03*
X68008500Y-29781500D03*
X66738500Y-27876500D03*
X68008500Y-27686000D03*
X68326000Y-25717500D03*
X67056000Y-22098000D03*
X65341500Y-20828000D03*
X67373500Y-21082000D03*
X68961000Y-21399500D03*
X68326000Y-22796500D03*
X56261000Y-20764500D03*
X55499000Y-21463000D03*
X54864000Y-22225000D03*
X52260500Y-20764500D03*
X29718000Y-21209000D03*
X31242000Y-33528000D03*
X20701000Y-34290000D03*
X31432500Y-27813000D03*
D18*
X22669500Y-39433500D03*
X28638500Y-33845500D03*
X29146500Y-34353500D03*
X30480000Y-35750500D03*
X32575500Y-35877500D03*
X33528000Y-36385500D03*
X31877000Y-33972500D03*
X35052000Y-34036000D03*
X28511500Y-34480500D03*
X28003500Y-33972500D03*
X25146000Y-36131500D03*
X24638000Y-35623500D03*
X29781500Y-39370000D03*
X33274000Y-35750500D03*
X32575500Y-35115500D03*
X32194500Y-34607500D03*
X22923500Y-36576000D03*
X22860000Y-35814000D03*
X22352000Y-35306000D03*
X21844000Y-34798000D03*
X21971000Y-35877500D03*
X21145500Y-34925000D03*
X72263000Y-40830500D03*
X73787000Y-40957500D03*
X75565000Y-40894000D03*
X74866500Y-40830500D03*
X77089000Y-40830500D03*
X78549500Y-40830500D03*
X78740000Y-39243000D03*
X78105000Y-36322000D03*
X78168500Y-34798000D03*
X78295500Y-33528000D03*
X78295500Y-32067500D03*
X78168500Y-30480000D03*
X78295500Y-29019500D03*
X78295500Y-27813000D03*
X78232000Y-26733500D03*
X78295500Y-25654000D03*
X78168500Y-24574500D03*
X78232000Y-23558500D03*
X72961500Y-40767000D03*
X76200000Y-40576500D03*
X65659000Y-39370000D03*
X63182500Y-39370000D03*
X63373000Y-37020500D03*
X65786000Y-36957000D03*
X64833500Y-36639500D03*
X64071500Y-36512500D03*
X23558500Y-34480500D03*
X23876000Y-35179000D03*
X23812500Y-36004500D03*
X22479000Y-34163000D03*
X21717000Y-34163000D03*
X21336000Y-36322000D03*
X46765250Y-24037250D03*
X39188750Y-24139250D03*
X34741550Y-24059450D03*
X24032500Y-24418000D03*
X39014400Y-33883600D03*
X39420800Y-34594800D03*
X27025600Y-28651200D03*
X26111200Y-27635200D03*
X23887000Y-28691000D03*
X22492384Y-29705984D03*
X38709600Y-28549600D03*
X35494800Y-28564000D03*
X47345600Y-28600400D03*
X50495200Y-28549600D03*
X62788800Y-28752800D03*
X59624800Y-28564000D03*
X73152000Y-37084000D03*
X72847200Y-35712400D03*
X72644000Y-33782000D03*
X71323200Y-38303200D03*
X71272400Y-39014400D03*
X72034400Y-39014400D03*
X52070000Y-33083500D03*
X39817000Y-31811000D03*
X27051000Y-27051000D03*
X38671500Y-26987500D03*
X50736500Y-26860500D03*
X62484000Y-26924000D03*
X67373500Y-31877000D03*
X74041000Y-37973000D03*
X36684000Y-32766000D03*
X74041000Y-36449000D03*
X37484000Y-32766000D03*
X74041000Y-34925000D03*
X38284000Y-32836000D03*
X74041000Y-33401000D03*
X47695000Y-32823000D03*
X74041000Y-24257000D03*
X62278900Y-32766000D03*
X74041000Y-22733000D03*
X61468000Y-32766000D03*
X74041000Y-27305000D03*
X59887000Y-32823000D03*
X74041000Y-28829000D03*
X50095000Y-32709000D03*
X74041000Y-25781000D03*
X60687000Y-32757900D03*
X24077500Y-21642500D03*
X25194790Y-21026600D03*
X27383595Y-21765405D03*
X26018945Y-21002445D03*
X35507500Y-21515500D03*
X36811000Y-20847000D03*
X38777800Y-21547200D03*
X37611000Y-20809000D03*
X74041000Y-30353000D03*
X49295000Y-32747000D03*
X74041000Y-31877000D03*
X48495000Y-32785000D03*
X47225820Y-21579000D03*
X48467060Y-20938440D03*
X50589210Y-21579000D03*
X49351410Y-20903410D03*
X62633510Y-21463000D03*
X60500255Y-20779745D03*
X59290710Y-21452000D03*
X61436250Y-20796250D03*
X24462500Y-26337500D03*
X25000000Y-29916600D03*
X50095000Y-29789600D03*
X49295000Y-29699000D03*
X49735500Y-26210500D03*
X36322000Y-26162000D03*
X36684000Y-29789600D03*
X26600000Y-29915000D03*
X47695000Y-29775000D03*
X48495000Y-29737000D03*
X47957500Y-26210500D03*
X35884000Y-29775000D03*
X61737000Y-26147000D03*
X61487000Y-29762500D03*
X62287000Y-29788000D03*
X26035000Y-26543000D03*
X25800000Y-29953000D03*
X37797500Y-26210500D03*
X37484000Y-29789600D03*
X60687000Y-29726100D03*
X60388500Y-26225500D03*
X38284000Y-29789600D03*
X24200000Y-29902000D03*
X59887000Y-29775000D03*
D20*
X24257000Y-27305000D02*
X24257000Y-27305000D01*
X23939500Y-26987500D02*
X22505300Y-26987500D01*
X24257000Y-27305000D02*
X23939500Y-26987500D01*
X34301600Y-26860500D02*
X35496500Y-26860500D01*
X35496500Y-26860500D02*
X35687000Y-27051000D01*
X35687000Y-27051000D02*
X35750500Y-27114500D01*
X35750500Y-27114500D02*
X35814000Y-27178000D01*
X46081210Y-26860500D02*
X47307500Y-26860500D01*
X47307500Y-26860500D02*
X47371000Y-26924000D01*
X47371000Y-26924000D02*
X47371000Y-26924000D01*
X59817000Y-26924000D02*
X59817000Y-26924000D01*
X59690000Y-26797000D02*
X59817000Y-26924000D01*
X58285590Y-26797000D02*
X59690000Y-26797000D01*
X47371000Y-26924000D02*
X47371000Y-26924000D01*
D21*
X21336000Y-36322000D02*
X22352000Y-35306000D01*
X21336000Y-40640000D02*
X21336000Y-36322000D01*
X21336000Y-36322000D02*
X21336000Y-36322000D01*
D20*
X27051000Y-27051000D02*
X27051000Y-27051000D01*
X27114500Y-26987500D02*
X27051000Y-27051000D01*
X28405300Y-26987500D02*
X27114500Y-26987500D01*
X38671500Y-26987500D02*
X38608000Y-27051000D01*
X38798500Y-26860500D02*
X38671500Y-26987500D01*
X40201600Y-26860500D02*
X38798500Y-26860500D01*
X50609500Y-26860500D02*
X50736500Y-26860500D01*
X64185590Y-26797000D02*
X63244690Y-26797000D01*
X63244690Y-26797000D02*
X62611000Y-26797000D01*
X62611000Y-26797000D02*
X62484000Y-26924000D01*
X62484000Y-26924000D02*
X62484000Y-26924000D01*
D22*
X23876000Y-40640000D02*
X23876000Y-38100000D01*
D20*
X51981210Y-26860500D02*
X50736500Y-26860500D01*
X67373500Y-37782500D02*
X67056000Y-38100000D01*
X67373500Y-31877000D02*
X67373500Y-37782500D01*
X35884000Y-32205500D02*
X35884000Y-32696000D01*
X38266001Y-39790001D02*
X39116000Y-40640000D01*
X37686351Y-39210351D02*
X38266001Y-39790001D01*
X37686351Y-37178351D02*
X37686351Y-39210351D01*
X35884000Y-35376000D02*
X37686351Y-37178351D01*
X35884000Y-32696000D02*
X35884000Y-35376000D01*
X24200000Y-32948400D02*
X24200000Y-32332500D01*
X27686000Y-36434400D02*
X24200000Y-32948400D01*
X27686000Y-39370000D02*
X27686000Y-36434400D01*
X28956000Y-40640000D02*
X27686000Y-39370000D01*
D23*
X74817000Y-37973000D02*
X74041000Y-37973000D01*
D20*
X39116000Y-36601736D02*
X39116000Y-38100000D01*
X36684000Y-32205500D02*
X36684000Y-32658000D01*
X36684000Y-34169736D02*
X39116000Y-36601736D01*
X36684000Y-32658000D02*
X36684000Y-34169736D01*
D23*
X74817000Y-36449000D02*
X74041000Y-36449000D01*
D20*
X40806001Y-39790001D02*
X41656000Y-40640000D01*
X40545649Y-39529649D02*
X40806001Y-39790001D01*
X40545649Y-37510517D02*
X40545649Y-39529649D01*
X37484000Y-34448868D02*
X40545649Y-37510517D01*
X37484000Y-32205500D02*
X37484000Y-32620000D01*
X37484000Y-32620000D02*
X37484000Y-34448868D01*
D23*
X74817000Y-34925000D02*
X74041000Y-34925000D01*
D20*
X38284000Y-34728000D02*
X41656000Y-38100000D01*
X38284000Y-32205500D02*
X38284000Y-32836000D01*
X38284000Y-32836000D02*
X38284000Y-34728000D01*
D23*
X74817000Y-33401000D02*
X74041000Y-33401000D01*
D20*
X48426001Y-39790001D02*
X49276000Y-40640000D01*
X48165649Y-39529649D02*
X48426001Y-39790001D01*
X47695000Y-35503000D02*
X48165649Y-35973649D01*
X47695000Y-32205500D02*
X47695000Y-32823000D01*
X48165649Y-35973649D02*
X48165649Y-39529649D01*
X47695000Y-32823000D02*
X47695000Y-35503000D01*
D23*
X74817000Y-24257000D02*
X74041000Y-24257000D01*
D20*
X62287000Y-32142000D02*
X62287000Y-32757900D01*
X62278900Y-32766000D02*
X62278900Y-32766000D01*
X62278900Y-32766000D02*
X62287000Y-32757900D01*
D23*
X74817000Y-22733000D02*
X74041000Y-22733000D01*
D20*
X61487000Y-32757900D02*
X61478900Y-32766000D01*
X61487000Y-32142000D02*
X61487000Y-32757900D01*
X61478900Y-32766000D02*
X61468000Y-32766000D01*
X61468000Y-32766000D02*
X61468000Y-32766000D01*
D23*
X74817000Y-27305000D02*
X74041000Y-27305000D01*
D20*
X58586001Y-39790001D02*
X59436000Y-40640000D01*
X58325649Y-39529649D02*
X58586001Y-39790001D01*
X58325649Y-35908351D02*
X58325649Y-39529649D01*
X59887000Y-34347000D02*
X58325649Y-35908351D01*
X59887000Y-32142000D02*
X59887000Y-32823000D01*
X59887000Y-32823000D02*
X59887000Y-34347000D01*
D23*
X74817000Y-28829000D02*
X74041000Y-28829000D01*
D20*
X51816000Y-36322000D02*
X51816000Y-38100000D01*
X50095000Y-32205500D02*
X50095000Y-32709000D01*
X50095000Y-34601000D02*
X51816000Y-36322000D01*
X50095000Y-32709000D02*
X50095000Y-34601000D01*
D23*
X74817000Y-25781000D02*
X74041000Y-25781000D01*
D20*
X60687000Y-32757900D02*
X60687000Y-32757900D01*
X59436000Y-38100000D02*
X59436000Y-35560000D01*
X60687000Y-34309000D02*
X60687000Y-33763000D01*
X59436000Y-35560000D02*
X60687000Y-34309000D01*
X60687000Y-33763000D02*
X60687000Y-32757900D01*
X60687000Y-32142000D02*
X60687000Y-32757900D01*
X30646001Y-39790001D02*
X31496000Y-40640000D01*
X30385649Y-39529649D02*
X30646001Y-39790001D01*
X30385649Y-37886329D02*
X30385649Y-39529649D01*
X25800000Y-33300680D02*
X30385649Y-37886329D01*
X25800000Y-32332500D02*
X25800000Y-32874000D01*
X25800000Y-32874000D02*
X25800000Y-33300680D01*
X28956000Y-36977548D02*
X28956000Y-38100000D01*
X25000000Y-32332500D02*
X25000000Y-33021548D01*
X25000000Y-33021548D02*
X28956000Y-36977548D01*
X30575250Y-37179250D02*
X31496000Y-38100000D01*
X30199438Y-37179250D02*
X30575250Y-37179250D01*
X26600000Y-33579812D02*
X30199438Y-37179250D01*
X26600000Y-32332500D02*
X26600000Y-33579812D01*
X23446200Y-25037500D02*
X22505300Y-25037500D01*
X24215690Y-25037500D02*
X23446200Y-25037500D01*
X25194790Y-24058400D02*
X24215690Y-25037500D01*
X25194790Y-23442500D02*
X25194790Y-24058400D01*
X22505300Y-25687500D02*
X22505300Y-25037500D01*
X21564400Y-28287500D02*
X22505300Y-28287500D01*
X21519949Y-28243049D02*
X21564400Y-28287500D01*
X21519949Y-24604219D02*
X21519949Y-28243049D01*
X22681668Y-23442500D02*
X21519949Y-24604219D01*
X24394790Y-23442500D02*
X22681668Y-23442500D01*
X22505300Y-28937500D02*
X22505300Y-28287500D01*
X29346200Y-28287500D02*
X28405300Y-28287500D01*
X29390651Y-28243049D02*
X29346200Y-28287500D01*
X29390651Y-24604219D02*
X29390651Y-28243049D01*
X28228932Y-23442500D02*
X29390651Y-24604219D01*
X26794790Y-23442500D02*
X28228932Y-23442500D01*
X28405300Y-28937500D02*
X28405300Y-28287500D01*
X27464400Y-25037500D02*
X28405300Y-25037500D01*
X26973890Y-25037500D02*
X27464400Y-25037500D01*
X25994790Y-24058400D02*
X26973890Y-25037500D01*
X25994790Y-23442500D02*
X25994790Y-24058400D01*
X28405300Y-25687500D02*
X28405300Y-25037500D01*
X35242500Y-24910500D02*
X34301600Y-24910500D01*
X36811000Y-23931400D02*
X36811000Y-23315500D01*
X35831900Y-24910500D02*
X36811000Y-23931400D01*
X35451500Y-24910500D02*
X35831900Y-24910500D01*
X35451500Y-24910500D02*
X35242500Y-24910500D01*
X35593520Y-24910500D02*
X35451500Y-24910500D01*
X34301600Y-24910500D02*
X34301600Y-25560500D01*
X33360700Y-28160500D02*
X34301600Y-28160500D01*
X33316249Y-28116049D02*
X33360700Y-28160500D01*
X34301600Y-28160500D02*
X34301600Y-28810500D01*
X36011000Y-23315500D02*
X34027588Y-23315500D01*
X33316249Y-24026839D02*
X33316249Y-24743749D01*
X34027588Y-23315500D02*
X33316249Y-24026839D01*
X33316249Y-24743749D02*
X33316249Y-28116049D01*
X41142500Y-28160500D02*
X40201600Y-28160500D01*
X41186951Y-28116049D02*
X41142500Y-28160500D01*
X41186951Y-24477219D02*
X41186951Y-28116049D01*
X40025232Y-23315500D02*
X41186951Y-24477219D01*
X40025232Y-23315500D02*
X38411000Y-23315500D01*
X40201600Y-28160500D02*
X40201600Y-28810500D01*
X39260700Y-24910500D02*
X40201600Y-24910500D01*
X38590100Y-24910500D02*
X39260700Y-24910500D01*
X37611000Y-23931400D02*
X38590100Y-24910500D01*
X37611000Y-23315500D02*
X37611000Y-23931400D01*
X40201600Y-24910500D02*
X40201600Y-25560500D01*
X24394790Y-21642500D02*
X24077500Y-21642500D01*
X26416000Y-35786188D02*
X26416000Y-38100000D01*
X24077500Y-21642500D02*
X23928890Y-21642500D01*
X23928890Y-21642500D02*
X21151639Y-24419751D01*
X21151639Y-24419751D02*
X21151639Y-31400371D01*
X21151639Y-31400371D02*
X22466468Y-32715200D01*
X22466468Y-32715200D02*
X23345012Y-32715200D01*
X23345012Y-32715200D02*
X26416000Y-35786188D01*
X20783329Y-27260329D02*
X20783329Y-27432000D01*
X25194790Y-21642500D02*
X25194790Y-21026600D01*
X25209500Y-39433500D02*
X26416000Y-40640000D01*
X25209500Y-37465000D02*
X25209500Y-39433500D01*
X25971500Y-35862556D02*
X25971500Y-36703000D01*
X25971500Y-36703000D02*
X25209500Y-37465000D01*
X25194790Y-21026600D02*
X25194790Y-21026600D01*
X24897522Y-21026600D02*
X25194790Y-21026600D01*
X24853071Y-20982149D02*
X24897522Y-21026600D01*
X23467851Y-20982149D02*
X24853071Y-20982149D01*
X20783329Y-23666671D02*
X23467851Y-20982149D01*
X20783329Y-27260329D02*
X20783329Y-23666671D01*
X20783329Y-29051471D02*
X20783329Y-31552929D01*
X20783329Y-27260329D02*
X20783329Y-29051471D01*
X22344528Y-33114128D02*
X23223072Y-33114128D01*
X20783329Y-31552929D02*
X22344528Y-33114128D01*
X23223072Y-33114128D02*
X25971500Y-35862556D01*
X29758961Y-24140771D02*
X29758961Y-24451661D01*
X26794790Y-21642500D02*
X27260690Y-21642500D01*
X27260690Y-21642500D02*
X27383595Y-21765405D01*
X29758961Y-27345961D02*
X29758961Y-27559000D01*
X29758961Y-24451661D02*
X29758961Y-27345961D01*
X27383595Y-21765405D02*
X29758961Y-24140771D01*
X32766000Y-39370000D02*
X34036000Y-40640000D01*
X32766000Y-37726680D02*
X32766000Y-39370000D01*
X31333410Y-36294090D02*
X32766000Y-37726680D01*
X31333410Y-35651410D02*
X31333410Y-36294090D01*
X29758961Y-34076961D02*
X31333410Y-35651410D01*
X29758961Y-27345961D02*
X29758961Y-34076961D01*
X30127271Y-26952271D02*
X30127271Y-27178000D01*
X25994790Y-21026600D02*
X26018945Y-21002445D01*
X25994790Y-21642500D02*
X25994790Y-21026600D01*
X33186001Y-37250001D02*
X34036000Y-38100000D01*
X32810189Y-37250001D02*
X33186001Y-37250001D01*
X31732624Y-36172436D02*
X32810189Y-37250001D01*
X31732624Y-35433000D02*
X31732624Y-36172436D01*
X30127271Y-33827647D02*
X31732624Y-35433000D01*
X30127271Y-26952271D02*
X30127271Y-33827647D01*
X26316213Y-21002445D02*
X26018945Y-21002445D01*
X26336509Y-20982149D02*
X26316213Y-21002445D01*
X27429659Y-20982149D02*
X26336509Y-20982149D01*
X30127271Y-23679761D02*
X27429659Y-20982149D01*
X30127271Y-26952271D02*
X30127271Y-23679761D01*
X32947939Y-23874281D02*
X32947939Y-24324661D01*
X35772620Y-21515500D02*
X35507500Y-21515500D01*
X35306720Y-21515500D02*
X32947939Y-23874281D01*
X32947939Y-27105939D02*
X32947939Y-27305000D01*
X32947939Y-24324661D02*
X32947939Y-27105939D01*
X35507500Y-21515500D02*
X35306720Y-21515500D01*
X36576000Y-36897919D02*
X36576000Y-38100000D01*
X32947939Y-33269859D02*
X36576000Y-36897919D01*
X32947939Y-27105939D02*
X32947939Y-33269859D01*
X32579629Y-26602371D02*
X32579629Y-26924000D01*
X36811000Y-20847000D02*
X36811000Y-20847000D01*
X36811000Y-21515500D02*
X36811000Y-20847000D01*
X35726001Y-39790001D02*
X36576000Y-40640000D01*
X35465649Y-39529649D02*
X35726001Y-39790001D01*
X35465649Y-36735649D02*
X35465649Y-39529649D01*
X32579629Y-33849629D02*
X35465649Y-36735649D01*
X32579629Y-26602371D02*
X32579629Y-33849629D01*
X35346680Y-20847000D02*
X36811000Y-20847000D01*
X32579629Y-23614051D02*
X35346680Y-20847000D01*
X32579629Y-26602371D02*
X32579629Y-23614051D01*
X38746100Y-21515500D02*
X38777800Y-21547200D01*
X38746100Y-21515500D02*
X38411000Y-21515500D01*
X38777800Y-21547200D02*
X41555261Y-24324661D01*
X41555261Y-24324661D02*
X41555261Y-36221261D01*
X41555261Y-36221261D02*
X42926000Y-37592000D01*
X42926000Y-39370000D02*
X44196000Y-40640000D01*
X42926000Y-37592000D02*
X42926000Y-39370000D01*
X41923571Y-27291429D02*
X41923571Y-27432000D01*
X37611000Y-21515500D02*
X37611000Y-20809000D01*
X41923571Y-35827571D02*
X44196000Y-38100000D01*
X41923571Y-33287571D02*
X41923571Y-35827571D01*
X41923571Y-33287571D02*
X41923571Y-33528703D01*
X41923571Y-27291429D02*
X41923571Y-33287571D01*
X37611000Y-20809000D02*
X37611000Y-20809000D01*
X38868920Y-20809000D02*
X37611000Y-20809000D01*
X41923571Y-23863651D02*
X38868920Y-20809000D01*
X41923571Y-27291429D02*
X41923571Y-23863651D01*
X47022110Y-24910500D02*
X46081210Y-24910500D01*
X47576120Y-24910500D02*
X47022110Y-24910500D01*
X48491720Y-23994900D02*
X47576120Y-24910500D01*
X48491720Y-23379000D02*
X48491720Y-23994900D01*
X46081210Y-24910500D02*
X46081210Y-25560500D01*
X45140310Y-28160500D02*
X46081210Y-28160500D01*
X45095859Y-28116049D02*
X45140310Y-28160500D01*
X45095859Y-24477219D02*
X45095859Y-28116049D01*
X46194078Y-23379000D02*
X45095859Y-24477219D01*
X47691720Y-23379000D02*
X46194078Y-23379000D01*
X46081210Y-28160500D02*
X46081210Y-28810500D01*
X52922110Y-28160500D02*
X51981210Y-28160500D01*
X52966561Y-28116049D02*
X52922110Y-28160500D01*
X52966561Y-24477219D02*
X52966561Y-28116049D01*
X51868342Y-23379000D02*
X52966561Y-24477219D01*
X50091720Y-23379000D02*
X51868342Y-23379000D01*
X51981210Y-28160500D02*
X51981210Y-28810500D01*
X51040310Y-24910500D02*
X51981210Y-24910500D01*
X50207320Y-24910500D02*
X51040310Y-24910500D01*
X49291720Y-23994900D02*
X50207320Y-24910500D01*
X49291720Y-23379000D02*
X49291720Y-23994900D01*
X51981210Y-24910500D02*
X51981210Y-25560500D01*
D23*
X74817000Y-30353000D02*
X74041000Y-30353000D01*
D20*
X50705649Y-39529649D02*
X51816000Y-40640000D01*
X50705649Y-36227649D02*
X50705649Y-39529649D01*
X49295000Y-32205500D02*
X49295000Y-32747000D01*
X49295000Y-34817000D02*
X50705649Y-36227649D01*
X49295000Y-32747000D02*
X49295000Y-34817000D01*
D23*
X74803000Y-31877000D02*
X74041000Y-31877000D01*
D20*
X48495000Y-32205500D02*
X48495000Y-32785000D01*
X49276000Y-35814000D02*
X49276000Y-38100000D01*
X48495000Y-35033000D02*
X49276000Y-35814000D01*
X48495000Y-32785000D02*
X48495000Y-35033000D01*
X59226490Y-24847000D02*
X58285590Y-24847000D01*
X59577510Y-24847000D02*
X59226490Y-24847000D01*
X60556610Y-23867900D02*
X59577510Y-24847000D01*
X60556610Y-23252000D02*
X60556610Y-23867900D01*
X58285590Y-24847000D02*
X58285590Y-25478559D01*
X58285590Y-25478559D02*
X58285590Y-25497000D01*
X57344690Y-28097000D02*
X58285590Y-28097000D01*
X57300239Y-28052549D02*
X57344690Y-28097000D01*
X57300239Y-24413719D02*
X57300239Y-28052549D01*
X58461958Y-23252000D02*
X57300239Y-24413719D01*
X59756610Y-23252000D02*
X58461958Y-23252000D01*
X58285590Y-28747000D02*
X58285590Y-28097000D01*
X65126490Y-28097000D02*
X64185590Y-28097000D01*
X65170941Y-28052549D02*
X65126490Y-28097000D01*
X65170941Y-24413719D02*
X65170941Y-28052549D01*
X64009222Y-23252000D02*
X65170941Y-24413719D01*
X62156610Y-23252000D02*
X64009222Y-23252000D01*
X64185590Y-28747000D02*
X64185590Y-28097000D01*
X63244690Y-24847000D02*
X64185590Y-24847000D01*
X62335710Y-24847000D02*
X63244690Y-24847000D01*
X61356610Y-23867900D02*
X62335710Y-24847000D01*
X61356610Y-23252000D02*
X61356610Y-23867900D01*
X64185590Y-25497000D02*
X64185590Y-24847000D01*
X47691720Y-21579000D02*
X47225820Y-21579000D01*
X47225820Y-21579000D02*
X47225820Y-21579000D01*
X47225820Y-21579000D02*
X44727549Y-24077271D01*
X44727549Y-33297549D02*
X44727549Y-33512945D01*
X44727549Y-24077271D02*
X44727549Y-33297549D01*
X44727549Y-34889468D02*
X44727549Y-34520451D01*
X46736000Y-36897919D02*
X44727549Y-34889468D01*
X46736000Y-38100000D02*
X46736000Y-36897919D01*
X44727549Y-33297549D02*
X44727549Y-34520451D01*
X44359239Y-27268761D02*
X44359239Y-27432000D01*
X48491720Y-20963100D02*
X48491720Y-21579000D01*
X44359239Y-27268761D02*
X44359239Y-35977239D01*
X45886001Y-39790001D02*
X46736000Y-40640000D01*
X45625649Y-39529649D02*
X45886001Y-39790001D01*
X45625649Y-37243649D02*
X45625649Y-39529649D01*
X44359239Y-35977239D02*
X45625649Y-37243649D01*
X48435310Y-20906690D02*
X48467060Y-20938440D01*
X44359239Y-23966761D02*
X44359239Y-27268761D01*
X44359239Y-23616261D02*
X44359239Y-23966761D01*
X47068810Y-20906690D02*
X44359239Y-23616261D01*
X48435310Y-20906690D02*
X47068810Y-20906690D01*
X48467060Y-20938440D02*
X48491720Y-20963100D01*
X50589210Y-21579000D02*
X50589210Y-21579000D01*
X50091720Y-21579000D02*
X50589210Y-21579000D01*
X53334871Y-24324661D02*
X53334871Y-27813000D01*
X53334871Y-27813000D02*
X53334871Y-27940000D01*
X50589210Y-21579000D02*
X53334871Y-24324661D01*
X53334871Y-35057129D02*
X53334871Y-27813000D01*
X53245649Y-35146351D02*
X53334871Y-35057129D01*
X53245649Y-39529649D02*
X53245649Y-35146351D01*
X54356000Y-40640000D02*
X53245649Y-39529649D01*
X53703181Y-27449819D02*
X53703181Y-27559000D01*
X49291720Y-20963100D02*
X49351410Y-20903410D01*
X49291720Y-21579000D02*
X49291720Y-20963100D01*
X53703181Y-33418819D02*
X53703181Y-33637181D01*
X53703181Y-27449819D02*
X53703181Y-33418819D01*
X54356000Y-36322000D02*
X54356000Y-38100000D01*
X53703181Y-35669181D02*
X54356000Y-36322000D01*
X53703181Y-33418819D02*
X53703181Y-35669181D01*
X53703181Y-24528819D02*
X53703181Y-27449819D01*
X53703181Y-23863651D02*
X53703181Y-24528819D01*
X50742940Y-20903410D02*
X53703181Y-23863651D01*
X49351410Y-20903410D02*
X50742940Y-20903410D01*
X62622510Y-21452000D02*
X62633510Y-21463000D01*
X62156610Y-21452000D02*
X62622510Y-21452000D01*
X62633510Y-21463000D02*
X62633510Y-21463000D01*
X61126001Y-39790001D02*
X61976000Y-40640000D01*
X62633510Y-21463000D02*
X63754000Y-21463000D01*
X63754000Y-21463000D02*
X65539251Y-23248251D01*
X65539251Y-23248251D02*
X65539251Y-31996749D01*
X65539251Y-31996749D02*
X60865649Y-36670351D01*
X60865649Y-36670351D02*
X60865649Y-39529649D01*
X60865649Y-39529649D02*
X61126001Y-39790001D01*
X56563619Y-26797000D02*
X56563619Y-26543000D01*
X56563619Y-26464619D02*
X56563619Y-26797000D01*
X56563619Y-24178619D02*
X56563619Y-26464619D01*
X56563619Y-23349771D02*
X56563619Y-24178619D01*
X56563619Y-31828381D02*
X56563619Y-33098381D01*
X56563619Y-31828381D02*
X56563619Y-32192487D01*
X56563619Y-26464619D02*
X56563619Y-31828381D01*
X56046001Y-39790001D02*
X56896000Y-40640000D01*
X55785649Y-39529649D02*
X56046001Y-39790001D01*
X55785649Y-33876351D02*
X55785649Y-39529649D01*
X56563619Y-33098381D02*
X55785649Y-33876351D01*
X59133645Y-20779745D02*
X58752695Y-21160695D01*
X60500255Y-20779745D02*
X59133645Y-20779745D01*
X58752695Y-21160695D02*
X56563619Y-23349771D01*
X60556610Y-20836100D02*
X60500255Y-20779745D01*
X60556610Y-21452000D02*
X60556610Y-20836100D01*
X59756610Y-21452000D02*
X59290710Y-21452000D01*
X59290710Y-21452000D02*
X59290710Y-21452000D01*
X56931929Y-26761071D02*
X56931929Y-27178000D01*
X58982258Y-21452000D02*
X59290710Y-21452000D01*
X56931929Y-26761071D02*
X56931929Y-23502329D01*
X56931929Y-23502329D02*
X58982258Y-21452000D01*
X56931929Y-33250939D02*
X56931929Y-32476071D01*
X56896000Y-33286868D02*
X56931929Y-33250939D01*
X56896000Y-38100000D02*
X56896000Y-33286868D01*
X56931929Y-32476071D02*
X56931929Y-26761071D01*
X61356610Y-21452000D02*
X61356610Y-20836100D01*
X61356610Y-20836100D02*
X61468000Y-20724710D01*
X61468000Y-20724710D02*
X61468000Y-20701000D01*
X61976000Y-36080868D02*
X61976000Y-38100000D01*
X65913000Y-32143868D02*
X61976000Y-36080868D01*
X65913000Y-23101132D02*
X65913000Y-32143868D01*
X61440851Y-20791649D02*
X61436250Y-20796250D01*
X63603517Y-20791649D02*
X61440851Y-20791649D01*
X64173184Y-21361316D02*
X63603517Y-20791649D01*
X64173184Y-21361316D02*
X65913000Y-23101132D01*
X25000000Y-29916600D02*
X25000000Y-29916600D01*
X25000000Y-29864000D02*
X25000000Y-29916600D01*
D23*
X22505300Y-26337500D02*
X24462500Y-26337500D01*
D20*
X25000000Y-28810000D02*
X25000000Y-29864000D01*
X22505300Y-26337500D02*
X24559500Y-26337500D01*
X25000000Y-26778000D02*
X25000000Y-30532500D01*
X24559500Y-26337500D02*
X25000000Y-26778000D01*
X25000000Y-30532500D02*
X25000000Y-29916600D01*
X50095000Y-29789600D02*
X50095000Y-29789600D01*
X50095000Y-29789600D02*
X50095000Y-30405500D01*
X49908700Y-27510500D02*
X51981210Y-27510500D01*
X49580800Y-27838400D02*
X49908700Y-27510500D01*
X49580800Y-28574822D02*
X49580800Y-27838400D01*
X50058800Y-29789600D02*
X49855351Y-29586151D01*
X50095000Y-29789600D02*
X50058800Y-29789600D01*
X49855351Y-29586151D02*
X49855351Y-29430031D01*
X49855351Y-29430031D02*
X49663310Y-29237990D01*
X49663310Y-29237990D02*
X49663310Y-28657332D01*
X49663310Y-28657332D02*
X49580800Y-28574822D01*
X49295000Y-29789600D02*
X49295000Y-30405500D01*
X49295000Y-29699000D02*
X49295000Y-29789600D01*
X51981210Y-26210500D02*
X49735500Y-26210500D01*
X49295000Y-29699000D02*
X49295000Y-28809890D01*
X49295000Y-28809890D02*
X49085510Y-28600400D01*
X49085510Y-26860490D02*
X49735500Y-26210500D01*
X49085510Y-28600400D02*
X49085510Y-26860490D01*
X36684000Y-29789600D02*
X36684000Y-29789600D01*
X36684000Y-29789600D02*
X36684000Y-29789600D01*
X36684000Y-26524000D02*
X36322000Y-26162000D01*
X36684000Y-27540000D02*
X36684000Y-26524000D01*
X36684000Y-27540000D02*
X36684000Y-29789600D01*
X36273500Y-26210500D02*
X36322000Y-26162000D01*
X34301600Y-26210500D02*
X36273500Y-26210500D01*
X36684000Y-29789600D02*
X36684000Y-30405500D01*
X26600000Y-30532500D02*
X26600000Y-29915000D01*
X26212800Y-29527800D02*
X26600000Y-29915000D01*
X26212800Y-28634680D02*
X26212800Y-29527800D01*
X27209980Y-27637500D02*
X26212800Y-28634680D01*
X28405300Y-27637500D02*
X27209980Y-27637500D01*
X47695000Y-29789600D02*
X47695000Y-30405500D01*
X47695000Y-29775000D02*
X47695000Y-29789600D01*
X47695000Y-29775000D02*
X47994999Y-29475001D01*
X47994999Y-29475001D02*
X47994999Y-28814601D01*
X47994999Y-28814601D02*
X48260000Y-28549600D01*
X48260000Y-28549600D02*
X48260000Y-27787600D01*
X47982900Y-27510500D02*
X46081210Y-27510500D01*
X48260000Y-27787600D02*
X47982900Y-27510500D01*
X48495000Y-29789600D02*
X48495000Y-30405500D01*
X48495000Y-29737000D02*
X48495000Y-29789600D01*
X46081210Y-26210500D02*
X47957500Y-26210500D01*
X48495000Y-29737000D02*
X48495000Y-28924200D01*
X48495000Y-28924200D02*
X48717200Y-28702000D01*
X48717200Y-26970200D02*
X47957500Y-26210500D01*
X48717200Y-28702000D02*
X48717200Y-26970200D01*
X35884000Y-29789600D02*
X35884000Y-30405500D01*
X34301600Y-27510500D02*
X35242500Y-27510500D01*
X35884000Y-29775000D02*
X35884000Y-29789600D01*
X34301600Y-27510500D02*
X34301600Y-27570600D01*
X35242500Y-27510500D02*
X36315690Y-28583690D01*
X36315690Y-29343310D02*
X35884000Y-29775000D01*
X36315690Y-28583690D02*
X36315690Y-29343310D01*
X61737000Y-26147000D02*
X61737000Y-26147000D01*
X64185590Y-26147000D02*
X61737000Y-26147000D01*
X61487000Y-30342000D02*
X61487000Y-29762500D01*
X61737000Y-26147000D02*
X61277510Y-26606490D01*
X61277510Y-26606490D02*
X61277510Y-28600400D01*
X61487000Y-29338236D02*
X61487000Y-29762500D01*
X61487000Y-28809890D02*
X61487000Y-29338236D01*
X61277510Y-28600400D02*
X61487000Y-28809890D01*
X62287000Y-30342000D02*
X62287000Y-29788000D01*
X62287000Y-29788000D02*
X62287000Y-29363736D01*
X62287000Y-29363736D02*
X61855310Y-28932046D01*
X61855310Y-28932046D02*
X61855310Y-27666910D01*
X61855310Y-27666910D02*
X62037869Y-27484351D01*
X63207339Y-27484351D02*
X62037869Y-27484351D01*
X63244690Y-27447000D02*
X63207339Y-27484351D01*
X64185590Y-27447000D02*
X63244690Y-27447000D01*
X25800000Y-29916600D02*
X25800000Y-29916600D01*
X25800000Y-29916600D02*
X25800000Y-29953000D01*
X28405300Y-26337500D02*
X27353500Y-26337500D01*
X26240500Y-26337500D02*
X26035000Y-26543000D01*
X28405300Y-26337500D02*
X26240500Y-26337500D01*
X25800000Y-30532500D02*
X25800000Y-29953000D01*
X25368310Y-27209690D02*
X26035000Y-26543000D01*
X25368310Y-29097046D02*
X25368310Y-27209690D01*
X25800000Y-29953000D02*
X25800000Y-29528736D01*
X25800000Y-29528736D02*
X25368310Y-29097046D01*
X37484000Y-29789600D02*
X37484000Y-29789600D01*
X37484000Y-29789600D02*
X37484000Y-30405500D01*
X37484000Y-26524000D02*
X37484000Y-29789600D01*
X37797500Y-26210500D02*
X37797500Y-26210500D01*
X40201600Y-26210500D02*
X37797500Y-26210500D01*
X37797500Y-26210500D02*
X37484000Y-26524000D01*
X37484000Y-29789600D02*
X37484000Y-29789600D01*
X60687000Y-29726100D02*
X60687000Y-29726100D01*
X60687000Y-29726100D02*
X60687000Y-30342000D01*
X60310000Y-26147000D02*
X60388500Y-26225500D01*
X60388500Y-26225500D02*
X60687000Y-26524000D01*
X60310000Y-26147000D02*
X60687000Y-26524000D01*
X58285590Y-26147000D02*
X60310000Y-26147000D01*
X60388500Y-26225500D02*
X60909200Y-26746200D01*
X60909200Y-26746200D02*
X60909200Y-29057600D01*
X60687000Y-29279800D02*
X60687000Y-29726100D01*
X60909200Y-29057600D02*
X60687000Y-29279800D01*
X38284000Y-29789600D02*
X38284000Y-29789600D01*
X38284000Y-29789600D02*
X38284000Y-30405500D01*
X39260700Y-27510500D02*
X40201600Y-27510500D01*
X39223349Y-27547851D02*
X39260700Y-27510500D01*
X38288949Y-27547851D02*
X39223349Y-27547851D01*
X37852310Y-27984490D02*
X38288949Y-27547851D01*
X37852310Y-29357910D02*
X37852310Y-27984490D01*
X38284000Y-29789600D02*
X37852310Y-29357910D01*
X24200000Y-30532500D02*
X24200000Y-29902000D01*
X24631690Y-29470310D02*
X24200000Y-29902000D01*
X24631690Y-28509010D02*
X24631690Y-29470310D01*
X22505300Y-27637500D02*
X23760180Y-27637500D01*
X23760180Y-27637500D02*
X24631690Y-28509010D01*
X59887000Y-30342000D02*
X59887000Y-29775000D01*
X59226490Y-27447000D02*
X58285590Y-27447000D01*
X59263841Y-27484351D02*
X60145649Y-27484351D01*
X59226490Y-27447000D02*
X59263841Y-27484351D01*
X60145649Y-27484351D02*
X60540890Y-27879592D01*
X60540890Y-27879592D02*
X60540890Y-28702000D01*
X59887000Y-29350736D02*
X59887000Y-29775000D01*
X60535736Y-28702000D02*
X59887000Y-29350736D01*
X60540890Y-28702000D02*
X60535736Y-28702000D01*
D24*
G36*
X29896700Y-39505636D02*
G01*
X29894335Y-39529649D01*
X29896700Y-39553662D01*
X29896700Y-39553663D01*
X29903775Y-39625500D01*
X29924600Y-39694150D01*
X29931734Y-39717667D01*
X29977136Y-39802609D01*
X30022929Y-39858408D01*
X30022934Y-39858413D01*
X30038238Y-39877061D01*
X30056886Y-39892365D01*
X30348071Y-40183550D01*
X30282812Y-40398682D01*
X30259044Y-40640000D01*
X30282812Y-40881318D01*
X30353202Y-41113363D01*
X30467509Y-41327216D01*
X30621340Y-41514660D01*
X30657091Y-41544000D01*
X29794909Y-41544000D01*
X29830660Y-41514660D01*
X29984491Y-41327216D01*
X30098798Y-41113363D01*
X30169188Y-40881318D01*
X30192956Y-40640000D01*
X30169188Y-40398682D01*
X30098798Y-40166637D01*
X29984491Y-39952784D01*
X29830660Y-39765340D01*
X29643216Y-39611509D01*
X29429363Y-39497202D01*
X29197318Y-39426812D01*
X29016472Y-39409000D01*
X28895528Y-39409000D01*
X28714682Y-39426812D01*
X28499551Y-39492071D01*
X28174950Y-39167471D01*
X28174950Y-39051484D01*
X28268784Y-39128491D01*
X28482637Y-39242798D01*
X28714682Y-39313188D01*
X28895528Y-39331000D01*
X29016472Y-39331000D01*
X29197318Y-39313188D01*
X29429363Y-39242798D01*
X29643216Y-39128491D01*
X29830660Y-38974660D01*
X29896700Y-38894190D01*
X29896700Y-39505636D01*
X29896700Y-39505636D01*
G37*
X29896700Y-39505636D02*
X29894335Y-39529649D01*
X29896700Y-39553662D01*
X29896700Y-39553663D01*
X29903775Y-39625500D01*
X29924600Y-39694150D01*
X29931734Y-39717667D01*
X29977136Y-39802609D01*
X30022929Y-39858408D01*
X30022934Y-39858413D01*
X30038238Y-39877061D01*
X30056886Y-39892365D01*
X30348071Y-40183550D01*
X30282812Y-40398682D01*
X30259044Y-40640000D01*
X30282812Y-40881318D01*
X30353202Y-41113363D01*
X30467509Y-41327216D01*
X30621340Y-41514660D01*
X30657091Y-41544000D01*
X29794909Y-41544000D01*
X29830660Y-41514660D01*
X29984491Y-41327216D01*
X30098798Y-41113363D01*
X30169188Y-40881318D01*
X30192956Y-40640000D01*
X30169188Y-40398682D01*
X30098798Y-40166637D01*
X29984491Y-39952784D01*
X29830660Y-39765340D01*
X29643216Y-39611509D01*
X29429363Y-39497202D01*
X29197318Y-39426812D01*
X29016472Y-39409000D01*
X28895528Y-39409000D01*
X28714682Y-39426812D01*
X28499551Y-39492071D01*
X28174950Y-39167471D01*
X28174950Y-39051484D01*
X28268784Y-39128491D01*
X28482637Y-39242798D01*
X28714682Y-39313188D01*
X28895528Y-39331000D01*
X29016472Y-39331000D01*
X29197318Y-39313188D01*
X29429363Y-39242798D01*
X29643216Y-39128491D01*
X29830660Y-38974660D01*
X29896700Y-38894190D01*
X29896700Y-39505636D01*
G36*
X79544000Y-41544000D02*
G01*
X70434909Y-41544000D01*
X70470660Y-41514660D01*
X70624491Y-41327216D01*
X70738798Y-41113363D01*
X70809188Y-40881318D01*
X70832956Y-40640000D01*
X70809188Y-40398682D01*
X70738798Y-40166637D01*
X70624491Y-39952784D01*
X70470660Y-39765340D01*
X70283216Y-39611509D01*
X70069363Y-39497202D01*
X69837318Y-39426812D01*
X69656472Y-39409000D01*
X69535528Y-39409000D01*
X69354682Y-39426812D01*
X69122637Y-39497202D01*
X68908784Y-39611509D01*
X68721340Y-39765340D01*
X68567509Y-39952784D01*
X68453202Y-40166637D01*
X68382812Y-40398682D01*
X68359044Y-40640000D01*
X68382812Y-40881318D01*
X68453202Y-41113363D01*
X68567509Y-41327216D01*
X68721340Y-41514660D01*
X68757091Y-41544000D01*
X67894909Y-41544000D01*
X67930660Y-41514660D01*
X68084491Y-41327216D01*
X68198798Y-41113363D01*
X68269188Y-40881318D01*
X68292956Y-40640000D01*
X68269188Y-40398682D01*
X68198798Y-40166637D01*
X68084491Y-39952784D01*
X67930660Y-39765340D01*
X67743216Y-39611509D01*
X67529363Y-39497202D01*
X67297318Y-39426812D01*
X67116472Y-39409000D01*
X66995528Y-39409000D01*
X66814682Y-39426812D01*
X66582637Y-39497202D01*
X66368784Y-39611509D01*
X66181340Y-39765340D01*
X66027509Y-39952784D01*
X65914983Y-40163305D01*
X65860157Y-40008748D01*
X65711178Y-39758645D01*
X65516269Y-39542412D01*
X65285120Y-39370000D01*
X65516269Y-39197588D01*
X65711178Y-38981355D01*
X65860157Y-38731252D01*
X65914983Y-38576695D01*
X66027509Y-38787216D01*
X66181340Y-38974660D01*
X66368784Y-39128491D01*
X66582637Y-39242798D01*
X66814682Y-39313188D01*
X66995528Y-39331000D01*
X67116472Y-39331000D01*
X67297318Y-39313188D01*
X67529363Y-39242798D01*
X67743216Y-39128491D01*
X67930660Y-38974660D01*
X68084491Y-38787216D01*
X68198798Y-38573363D01*
X68269188Y-38341318D01*
X68292956Y-38100000D01*
X68359044Y-38100000D01*
X68382812Y-38341318D01*
X68453202Y-38573363D01*
X68567509Y-38787216D01*
X68721340Y-38974660D01*
X68908784Y-39128491D01*
X69122637Y-39242798D01*
X69354682Y-39313188D01*
X69535528Y-39331000D01*
X69656472Y-39331000D01*
X69837318Y-39313188D01*
X70069363Y-39242798D01*
X70283216Y-39128491D01*
X70470660Y-38974660D01*
X70624491Y-38787216D01*
X70738798Y-38573363D01*
X70809188Y-38341318D01*
X70832956Y-38100000D01*
X70809188Y-37858682D01*
X70738798Y-37626637D01*
X70624491Y-37412784D01*
X70470660Y-37225340D01*
X70283216Y-37071509D01*
X70069363Y-36957202D01*
X69837318Y-36886812D01*
X69656472Y-36869000D01*
X69535528Y-36869000D01*
X69354682Y-36886812D01*
X69122637Y-36957202D01*
X68908784Y-37071509D01*
X68721340Y-37225340D01*
X68567509Y-37412784D01*
X68453202Y-37626637D01*
X68382812Y-37858682D01*
X68359044Y-38100000D01*
X68292956Y-38100000D01*
X68269188Y-37858682D01*
X68198798Y-37626637D01*
X68084491Y-37412784D01*
X67930660Y-37225340D01*
X67862450Y-37169362D01*
X67862450Y-32351129D01*
X67902467Y-32311112D01*
X67976994Y-32199574D01*
X68028329Y-32075640D01*
X68054500Y-31944073D01*
X68054500Y-31809927D01*
X68028329Y-31678360D01*
X67976994Y-31554426D01*
X67902467Y-31442888D01*
X67807612Y-31348033D01*
X67696074Y-31273506D01*
X67572140Y-31222171D01*
X67440573Y-31196000D01*
X67306427Y-31196000D01*
X67174860Y-31222171D01*
X67050926Y-31273506D01*
X66939388Y-31348033D01*
X66844533Y-31442888D01*
X66770006Y-31554426D01*
X66718671Y-31678360D01*
X66692500Y-31809927D01*
X66692500Y-31944073D01*
X66718671Y-32075640D01*
X66770006Y-32199574D01*
X66844533Y-32311112D01*
X66884550Y-32351129D01*
X66884551Y-36879930D01*
X66814682Y-36886812D01*
X66582637Y-36957202D01*
X66368784Y-37071509D01*
X66181340Y-37225340D01*
X66027509Y-37412784D01*
X65914983Y-37623305D01*
X65860157Y-37468748D01*
X65711178Y-37218645D01*
X65516269Y-37002412D01*
X65282920Y-36828359D01*
X65020099Y-36703175D01*
X64872890Y-36658524D01*
X64643000Y-36779845D01*
X64643000Y-37973000D01*
X64663000Y-37973000D01*
X64663000Y-38227000D01*
X64643000Y-38227000D01*
X64643000Y-40513000D01*
X64663000Y-40513000D01*
X64663000Y-40767000D01*
X64643000Y-40767000D01*
X64643000Y-40787000D01*
X64389000Y-40787000D01*
X64389000Y-40767000D01*
X64369000Y-40767000D01*
X64369000Y-40513000D01*
X64389000Y-40513000D01*
X64389000Y-38227000D01*
X64369000Y-38227000D01*
X64369000Y-37973000D01*
X64389000Y-37973000D01*
X64389000Y-36779845D01*
X64159110Y-36658524D01*
X64011901Y-36703175D01*
X63749080Y-36828359D01*
X63515731Y-37002412D01*
X63320822Y-37218645D01*
X63171843Y-37468748D01*
X63117017Y-37623305D01*
X63004491Y-37412784D01*
X62850660Y-37225340D01*
X62663216Y-37071509D01*
X62464950Y-36965533D01*
X62464950Y-36283397D01*
X66241764Y-32506584D01*
X66260412Y-32491280D01*
X66275716Y-32472632D01*
X66275720Y-32472628D01*
X66321514Y-32416829D01*
X66366916Y-32331887D01*
X66375641Y-32303125D01*
X66394875Y-32239719D01*
X66401950Y-32167882D01*
X66401950Y-32167871D01*
X66404314Y-32143868D01*
X66401950Y-32119865D01*
X66401950Y-23125132D01*
X66404314Y-23101131D01*
X66401950Y-23077130D01*
X66401950Y-23077118D01*
X66394875Y-23005281D01*
X66366916Y-22913114D01*
X66338526Y-22860000D01*
X66321513Y-22828171D01*
X66275720Y-22772372D01*
X66275716Y-22772368D01*
X66260412Y-22753720D01*
X66241764Y-22738416D01*
X66169275Y-22665927D01*
X73360000Y-22665927D01*
X73360000Y-22800073D01*
X73386171Y-22931640D01*
X73437506Y-23055574D01*
X73512033Y-23167112D01*
X73606888Y-23261967D01*
X73718426Y-23336494D01*
X73842360Y-23387829D01*
X73973927Y-23414000D01*
X74096762Y-23414000D01*
X74184856Y-23486296D01*
X74201140Y-23495000D01*
X74184856Y-23503704D01*
X74096762Y-23576000D01*
X73973927Y-23576000D01*
X73842360Y-23602171D01*
X73718426Y-23653506D01*
X73606888Y-23728033D01*
X73512033Y-23822888D01*
X73437506Y-23934426D01*
X73386171Y-24058360D01*
X73360000Y-24189927D01*
X73360000Y-24324073D01*
X73386171Y-24455640D01*
X73437506Y-24579574D01*
X73512033Y-24691112D01*
X73606888Y-24785967D01*
X73718426Y-24860494D01*
X73842360Y-24911829D01*
X73973927Y-24938000D01*
X74096762Y-24938000D01*
X74184856Y-25010296D01*
X74201140Y-25019000D01*
X74184856Y-25027704D01*
X74096762Y-25100000D01*
X73973927Y-25100000D01*
X73842360Y-25126171D01*
X73718426Y-25177506D01*
X73606888Y-25252033D01*
X73512033Y-25346888D01*
X73437506Y-25458426D01*
X73386171Y-25582360D01*
X73360000Y-25713927D01*
X73360000Y-25848073D01*
X73386171Y-25979640D01*
X73437506Y-26103574D01*
X73512033Y-26215112D01*
X73606888Y-26309967D01*
X73718426Y-26384494D01*
X73842360Y-26435829D01*
X73973927Y-26462000D01*
X74096762Y-26462000D01*
X74184856Y-26534296D01*
X74201140Y-26543000D01*
X74184856Y-26551704D01*
X74096762Y-26624000D01*
X73973927Y-26624000D01*
X73842360Y-26650171D01*
X73718426Y-26701506D01*
X73606888Y-26776033D01*
X73512033Y-26870888D01*
X73437506Y-26982426D01*
X73386171Y-27106360D01*
X73360000Y-27237927D01*
X73360000Y-27372073D01*
X73386171Y-27503640D01*
X73437506Y-27627574D01*
X73512033Y-27739112D01*
X73606888Y-27833967D01*
X73718426Y-27908494D01*
X73842360Y-27959829D01*
X73973927Y-27986000D01*
X74096762Y-27986000D01*
X74184856Y-28058296D01*
X74201140Y-28067000D01*
X74184856Y-28075704D01*
X74096762Y-28148000D01*
X73973927Y-28148000D01*
X73842360Y-28174171D01*
X73718426Y-28225506D01*
X73606888Y-28300033D01*
X73512033Y-28394888D01*
X73437506Y-28506426D01*
X73386171Y-28630360D01*
X73360000Y-28761927D01*
X73360000Y-28896073D01*
X73386171Y-29027640D01*
X73437506Y-29151574D01*
X73512033Y-29263112D01*
X73606888Y-29357967D01*
X73718426Y-29432494D01*
X73842360Y-29483829D01*
X73973927Y-29510000D01*
X74096762Y-29510000D01*
X74184856Y-29582296D01*
X74201140Y-29591000D01*
X74184856Y-29599704D01*
X74096762Y-29672000D01*
X73973927Y-29672000D01*
X73842360Y-29698171D01*
X73718426Y-29749506D01*
X73606888Y-29824033D01*
X73512033Y-29918888D01*
X73437506Y-30030426D01*
X73386171Y-30154360D01*
X73360000Y-30285927D01*
X73360000Y-30420073D01*
X73386171Y-30551640D01*
X73437506Y-30675574D01*
X73512033Y-30787112D01*
X73606888Y-30881967D01*
X73718426Y-30956494D01*
X73842360Y-31007829D01*
X73973927Y-31034000D01*
X74096762Y-31034000D01*
X74184856Y-31106296D01*
X74194140Y-31111258D01*
X74170856Y-31123704D01*
X74082762Y-31196000D01*
X73973927Y-31196000D01*
X73842360Y-31222171D01*
X73718426Y-31273506D01*
X73606888Y-31348033D01*
X73512033Y-31442888D01*
X73437506Y-31554426D01*
X73386171Y-31678360D01*
X73360000Y-31809927D01*
X73360000Y-31944073D01*
X73386171Y-32075640D01*
X73437506Y-32199574D01*
X73512033Y-32311112D01*
X73606888Y-32405967D01*
X73718426Y-32480494D01*
X73842360Y-32531829D01*
X73973927Y-32558000D01*
X74082762Y-32558000D01*
X74170856Y-32630296D01*
X74194140Y-32642742D01*
X74184856Y-32647704D01*
X74096762Y-32720000D01*
X73973927Y-32720000D01*
X73842360Y-32746171D01*
X73718426Y-32797506D01*
X73606888Y-32872033D01*
X73512033Y-32966888D01*
X73437506Y-33078426D01*
X73386171Y-33202360D01*
X73360000Y-33333927D01*
X73360000Y-33468073D01*
X73386171Y-33599640D01*
X73437506Y-33723574D01*
X73512033Y-33835112D01*
X73606888Y-33929967D01*
X73718426Y-34004494D01*
X73842360Y-34055829D01*
X73973927Y-34082000D01*
X74096762Y-34082000D01*
X74184856Y-34154296D01*
X74201140Y-34163000D01*
X74184856Y-34171704D01*
X74096762Y-34244000D01*
X73973927Y-34244000D01*
X73842360Y-34270171D01*
X73718426Y-34321506D01*
X73606888Y-34396033D01*
X73512033Y-34490888D01*
X73437506Y-34602426D01*
X73386171Y-34726360D01*
X73360000Y-34857927D01*
X73360000Y-34992073D01*
X73386171Y-35123640D01*
X73437506Y-35247574D01*
X73512033Y-35359112D01*
X73606888Y-35453967D01*
X73718426Y-35528494D01*
X73842360Y-35579829D01*
X73973927Y-35606000D01*
X74096762Y-35606000D01*
X74184856Y-35678296D01*
X74201140Y-35687000D01*
X74184856Y-35695704D01*
X74096762Y-35768000D01*
X73973927Y-35768000D01*
X73842360Y-35794171D01*
X73718426Y-35845506D01*
X73606888Y-35920033D01*
X73512033Y-36014888D01*
X73437506Y-36126426D01*
X73386171Y-36250360D01*
X73360000Y-36381927D01*
X73360000Y-36516073D01*
X73386171Y-36647640D01*
X73437506Y-36771574D01*
X73512033Y-36883112D01*
X73606888Y-36977967D01*
X73718426Y-37052494D01*
X73842360Y-37103829D01*
X73973927Y-37130000D01*
X74096762Y-37130000D01*
X74184856Y-37202296D01*
X74201140Y-37211000D01*
X74184856Y-37219704D01*
X74096762Y-37292000D01*
X73973927Y-37292000D01*
X73842360Y-37318171D01*
X73718426Y-37369506D01*
X73606888Y-37444033D01*
X73512033Y-37538888D01*
X73437506Y-37650426D01*
X73386171Y-37774360D01*
X73360000Y-37905927D01*
X73360000Y-38040073D01*
X73386171Y-38171640D01*
X73437506Y-38295574D01*
X73512033Y-38407112D01*
X73606888Y-38501967D01*
X73718426Y-38576494D01*
X73842360Y-38627829D01*
X73973927Y-38654000D01*
X74096762Y-38654000D01*
X74184856Y-38726296D01*
X74292105Y-38783622D01*
X74408477Y-38818923D01*
X74529500Y-38830843D01*
X75104500Y-38830843D01*
X75225523Y-38818923D01*
X75341895Y-38783622D01*
X75449144Y-38726296D01*
X75464675Y-38713550D01*
X75479270Y-38748785D01*
X75548763Y-38852789D01*
X75637211Y-38941237D01*
X75741215Y-39010730D01*
X75856777Y-39058597D01*
X75979458Y-39083000D01*
X76281250Y-39083000D01*
X76440000Y-38924250D01*
X76440000Y-38100000D01*
X76694000Y-38100000D01*
X76694000Y-38924250D01*
X76852750Y-39083000D01*
X77154542Y-39083000D01*
X77277223Y-39058597D01*
X77392785Y-39010730D01*
X77496789Y-38941237D01*
X77585237Y-38852789D01*
X77654730Y-38748785D01*
X77702597Y-38633223D01*
X77727000Y-38510542D01*
X77727000Y-38258750D01*
X77568250Y-38100000D01*
X76694000Y-38100000D01*
X76440000Y-38100000D01*
X76420000Y-38100000D01*
X76420000Y-37846000D01*
X76440000Y-37846000D01*
X76440000Y-36576000D01*
X76694000Y-36576000D01*
X76694000Y-37846000D01*
X77568250Y-37846000D01*
X77727000Y-37687250D01*
X77727000Y-37435458D01*
X77702597Y-37312777D01*
X77660440Y-37211000D01*
X77702597Y-37109223D01*
X77727000Y-36986542D01*
X77727000Y-36734750D01*
X77568250Y-36576000D01*
X76694000Y-36576000D01*
X76440000Y-36576000D01*
X76420000Y-36576000D01*
X76420000Y-36322000D01*
X76440000Y-36322000D01*
X76440000Y-35052000D01*
X76694000Y-35052000D01*
X76694000Y-36322000D01*
X77568250Y-36322000D01*
X77727000Y-36163250D01*
X77727000Y-35911458D01*
X77702597Y-35788777D01*
X77660440Y-35687000D01*
X77702597Y-35585223D01*
X77727000Y-35462542D01*
X77727000Y-35210750D01*
X77568250Y-35052000D01*
X76694000Y-35052000D01*
X76440000Y-35052000D01*
X76420000Y-35052000D01*
X76420000Y-34798000D01*
X76440000Y-34798000D01*
X76440000Y-33528000D01*
X76694000Y-33528000D01*
X76694000Y-34798000D01*
X77568250Y-34798000D01*
X77727000Y-34639250D01*
X77727000Y-34387458D01*
X77702597Y-34264777D01*
X77660440Y-34163000D01*
X77702597Y-34061223D01*
X77727000Y-33938542D01*
X77727000Y-33686750D01*
X77568250Y-33528000D01*
X76694000Y-33528000D01*
X76440000Y-33528000D01*
X76420000Y-33528000D01*
X76420000Y-33274000D01*
X76440000Y-33274000D01*
X76440000Y-32449750D01*
X76426000Y-32435750D01*
X76426000Y-32004000D01*
X76680000Y-32004000D01*
X76680000Y-32828250D01*
X76694000Y-32842250D01*
X76694000Y-33274000D01*
X77568250Y-33274000D01*
X77727000Y-33115250D01*
X77727000Y-32863458D01*
X77702597Y-32740777D01*
X77654730Y-32625215D01*
X77653137Y-32622831D01*
X77688597Y-32537223D01*
X77713000Y-32414542D01*
X77713000Y-32162750D01*
X77554250Y-32004000D01*
X76680000Y-32004000D01*
X76426000Y-32004000D01*
X76406000Y-32004000D01*
X76406000Y-31750000D01*
X76426000Y-31750000D01*
X76426000Y-31318250D01*
X76440000Y-31304250D01*
X76440000Y-30925750D01*
X76680000Y-30925750D01*
X76680000Y-31750000D01*
X77554250Y-31750000D01*
X77713000Y-31591250D01*
X77713000Y-31339458D01*
X77688597Y-31216777D01*
X77653137Y-31131169D01*
X77654730Y-31128785D01*
X77702597Y-31013223D01*
X77727000Y-30890542D01*
X77727000Y-30638750D01*
X77568250Y-30480000D01*
X76694000Y-30480000D01*
X76694000Y-30911750D01*
X76680000Y-30925750D01*
X76440000Y-30925750D01*
X76440000Y-30480000D01*
X76420000Y-30480000D01*
X76420000Y-30226000D01*
X76440000Y-30226000D01*
X76440000Y-28956000D01*
X76694000Y-28956000D01*
X76694000Y-30226000D01*
X77568250Y-30226000D01*
X77727000Y-30067250D01*
X77727000Y-29815458D01*
X77702597Y-29692777D01*
X77660440Y-29591000D01*
X77702597Y-29489223D01*
X77727000Y-29366542D01*
X77727000Y-29114750D01*
X77568250Y-28956000D01*
X76694000Y-28956000D01*
X76440000Y-28956000D01*
X76420000Y-28956000D01*
X76420000Y-28702000D01*
X76440000Y-28702000D01*
X76440000Y-27432000D01*
X76694000Y-27432000D01*
X76694000Y-28702000D01*
X77568250Y-28702000D01*
X77727000Y-28543250D01*
X77727000Y-28291458D01*
X77702597Y-28168777D01*
X77660440Y-28067000D01*
X77702597Y-27965223D01*
X77727000Y-27842542D01*
X77727000Y-27590750D01*
X77568250Y-27432000D01*
X76694000Y-27432000D01*
X76440000Y-27432000D01*
X76420000Y-27432000D01*
X76420000Y-27178000D01*
X76440000Y-27178000D01*
X76440000Y-25908000D01*
X76694000Y-25908000D01*
X76694000Y-27178000D01*
X77568250Y-27178000D01*
X77727000Y-27019250D01*
X77727000Y-26767458D01*
X77702597Y-26644777D01*
X77660440Y-26543000D01*
X77702597Y-26441223D01*
X77727000Y-26318542D01*
X77727000Y-26066750D01*
X77568250Y-25908000D01*
X76694000Y-25908000D01*
X76440000Y-25908000D01*
X76420000Y-25908000D01*
X76420000Y-25654000D01*
X76440000Y-25654000D01*
X76440000Y-24384000D01*
X76694000Y-24384000D01*
X76694000Y-25654000D01*
X77568250Y-25654000D01*
X77727000Y-25495250D01*
X77727000Y-25243458D01*
X77702597Y-25120777D01*
X77660440Y-25019000D01*
X77702597Y-24917223D01*
X77727000Y-24794542D01*
X77727000Y-24542750D01*
X77568250Y-24384000D01*
X76694000Y-24384000D01*
X76440000Y-24384000D01*
X76420000Y-24384000D01*
X76420000Y-24130000D01*
X76440000Y-24130000D01*
X76440000Y-22860000D01*
X76694000Y-22860000D01*
X76694000Y-24130000D01*
X77568250Y-24130000D01*
X77727000Y-23971250D01*
X77727000Y-23719458D01*
X77702597Y-23596777D01*
X77660440Y-23495000D01*
X77702597Y-23393223D01*
X77727000Y-23270542D01*
X77727000Y-23018750D01*
X77568250Y-22860000D01*
X76694000Y-22860000D01*
X76440000Y-22860000D01*
X76420000Y-22860000D01*
X76420000Y-22606000D01*
X76440000Y-22606000D01*
X76440000Y-21781750D01*
X76694000Y-21781750D01*
X76694000Y-22606000D01*
X77568250Y-22606000D01*
X77727000Y-22447250D01*
X77727000Y-22195458D01*
X77702597Y-22072777D01*
X77654730Y-21957215D01*
X77585237Y-21853211D01*
X77496789Y-21764763D01*
X77392785Y-21695270D01*
X77277223Y-21647403D01*
X77154542Y-21623000D01*
X76852750Y-21623000D01*
X76694000Y-21781750D01*
X76440000Y-21781750D01*
X76281250Y-21623000D01*
X75979458Y-21623000D01*
X75856777Y-21647403D01*
X75741215Y-21695270D01*
X75637211Y-21764763D01*
X75548763Y-21853211D01*
X75479270Y-21957215D01*
X75464675Y-21992450D01*
X75449144Y-21979704D01*
X75341895Y-21922378D01*
X75225523Y-21887077D01*
X75104500Y-21875157D01*
X74529500Y-21875157D01*
X74408477Y-21887077D01*
X74292105Y-21922378D01*
X74184856Y-21979704D01*
X74096762Y-22052000D01*
X73973927Y-22052000D01*
X73842360Y-22078171D01*
X73718426Y-22129506D01*
X73606888Y-22204033D01*
X73512033Y-22298888D01*
X73437506Y-22410426D01*
X73386171Y-22534360D01*
X73360000Y-22665927D01*
X66169275Y-22665927D01*
X64535908Y-21032561D01*
X64535904Y-21032556D01*
X63966237Y-20462890D01*
X63960583Y-20456000D01*
X79544001Y-20456000D01*
X79544000Y-41544000D01*
X79544000Y-41544000D01*
G37*
X79544000Y-41544000D02*
X70434909Y-41544000D01*
X70470660Y-41514660D01*
X70624491Y-41327216D01*
X70738798Y-41113363D01*
X70809188Y-40881318D01*
X70832956Y-40640000D01*
X70809188Y-40398682D01*
X70738798Y-40166637D01*
X70624491Y-39952784D01*
X70470660Y-39765340D01*
X70283216Y-39611509D01*
X70069363Y-39497202D01*
X69837318Y-39426812D01*
X69656472Y-39409000D01*
X69535528Y-39409000D01*
X69354682Y-39426812D01*
X69122637Y-39497202D01*
X68908784Y-39611509D01*
X68721340Y-39765340D01*
X68567509Y-39952784D01*
X68453202Y-40166637D01*
X68382812Y-40398682D01*
X68359044Y-40640000D01*
X68382812Y-40881318D01*
X68453202Y-41113363D01*
X68567509Y-41327216D01*
X68721340Y-41514660D01*
X68757091Y-41544000D01*
X67894909Y-41544000D01*
X67930660Y-41514660D01*
X68084491Y-41327216D01*
X68198798Y-41113363D01*
X68269188Y-40881318D01*
X68292956Y-40640000D01*
X68269188Y-40398682D01*
X68198798Y-40166637D01*
X68084491Y-39952784D01*
X67930660Y-39765340D01*
X67743216Y-39611509D01*
X67529363Y-39497202D01*
X67297318Y-39426812D01*
X67116472Y-39409000D01*
X66995528Y-39409000D01*
X66814682Y-39426812D01*
X66582637Y-39497202D01*
X66368784Y-39611509D01*
X66181340Y-39765340D01*
X66027509Y-39952784D01*
X65914983Y-40163305D01*
X65860157Y-40008748D01*
X65711178Y-39758645D01*
X65516269Y-39542412D01*
X65285120Y-39370000D01*
X65516269Y-39197588D01*
X65711178Y-38981355D01*
X65860157Y-38731252D01*
X65914983Y-38576695D01*
X66027509Y-38787216D01*
X66181340Y-38974660D01*
X66368784Y-39128491D01*
X66582637Y-39242798D01*
X66814682Y-39313188D01*
X66995528Y-39331000D01*
X67116472Y-39331000D01*
X67297318Y-39313188D01*
X67529363Y-39242798D01*
X67743216Y-39128491D01*
X67930660Y-38974660D01*
X68084491Y-38787216D01*
X68198798Y-38573363D01*
X68269188Y-38341318D01*
X68292956Y-38100000D01*
X68359044Y-38100000D01*
X68382812Y-38341318D01*
X68453202Y-38573363D01*
X68567509Y-38787216D01*
X68721340Y-38974660D01*
X68908784Y-39128491D01*
X69122637Y-39242798D01*
X69354682Y-39313188D01*
X69535528Y-39331000D01*
X69656472Y-39331000D01*
X69837318Y-39313188D01*
X70069363Y-39242798D01*
X70283216Y-39128491D01*
X70470660Y-38974660D01*
X70624491Y-38787216D01*
X70738798Y-38573363D01*
X70809188Y-38341318D01*
X70832956Y-38100000D01*
X70809188Y-37858682D01*
X70738798Y-37626637D01*
X70624491Y-37412784D01*
X70470660Y-37225340D01*
X70283216Y-37071509D01*
X70069363Y-36957202D01*
X69837318Y-36886812D01*
X69656472Y-36869000D01*
X69535528Y-36869000D01*
X69354682Y-36886812D01*
X69122637Y-36957202D01*
X68908784Y-37071509D01*
X68721340Y-37225340D01*
X68567509Y-37412784D01*
X68453202Y-37626637D01*
X68382812Y-37858682D01*
X68359044Y-38100000D01*
X68292956Y-38100000D01*
X68269188Y-37858682D01*
X68198798Y-37626637D01*
X68084491Y-37412784D01*
X67930660Y-37225340D01*
X67862450Y-37169362D01*
X67862450Y-32351129D01*
X67902467Y-32311112D01*
X67976994Y-32199574D01*
X68028329Y-32075640D01*
X68054500Y-31944073D01*
X68054500Y-31809927D01*
X68028329Y-31678360D01*
X67976994Y-31554426D01*
X67902467Y-31442888D01*
X67807612Y-31348033D01*
X67696074Y-31273506D01*
X67572140Y-31222171D01*
X67440573Y-31196000D01*
X67306427Y-31196000D01*
X67174860Y-31222171D01*
X67050926Y-31273506D01*
X66939388Y-31348033D01*
X66844533Y-31442888D01*
X66770006Y-31554426D01*
X66718671Y-31678360D01*
X66692500Y-31809927D01*
X66692500Y-31944073D01*
X66718671Y-32075640D01*
X66770006Y-32199574D01*
X66844533Y-32311112D01*
X66884550Y-32351129D01*
X66884551Y-36879930D01*
X66814682Y-36886812D01*
X66582637Y-36957202D01*
X66368784Y-37071509D01*
X66181340Y-37225340D01*
X66027509Y-37412784D01*
X65914983Y-37623305D01*
X65860157Y-37468748D01*
X65711178Y-37218645D01*
X65516269Y-37002412D01*
X65282920Y-36828359D01*
X65020099Y-36703175D01*
X64872890Y-36658524D01*
X64643000Y-36779845D01*
X64643000Y-37973000D01*
X64663000Y-37973000D01*
X64663000Y-38227000D01*
X64643000Y-38227000D01*
X64643000Y-40513000D01*
X64663000Y-40513000D01*
X64663000Y-40767000D01*
X64643000Y-40767000D01*
X64643000Y-40787000D01*
X64389000Y-40787000D01*
X64389000Y-40767000D01*
X64369000Y-40767000D01*
X64369000Y-40513000D01*
X64389000Y-40513000D01*
X64389000Y-38227000D01*
X64369000Y-38227000D01*
X64369000Y-37973000D01*
X64389000Y-37973000D01*
X64389000Y-36779845D01*
X64159110Y-36658524D01*
X64011901Y-36703175D01*
X63749080Y-36828359D01*
X63515731Y-37002412D01*
X63320822Y-37218645D01*
X63171843Y-37468748D01*
X63117017Y-37623305D01*
X63004491Y-37412784D01*
X62850660Y-37225340D01*
X62663216Y-37071509D01*
X62464950Y-36965533D01*
X62464950Y-36283397D01*
X66241764Y-32506584D01*
X66260412Y-32491280D01*
X66275716Y-32472632D01*
X66275720Y-32472628D01*
X66321514Y-32416829D01*
X66366916Y-32331887D01*
X66375641Y-32303125D01*
X66394875Y-32239719D01*
X66401950Y-32167882D01*
X66401950Y-32167871D01*
X66404314Y-32143868D01*
X66401950Y-32119865D01*
X66401950Y-23125132D01*
X66404314Y-23101131D01*
X66401950Y-23077130D01*
X66401950Y-23077118D01*
X66394875Y-23005281D01*
X66366916Y-22913114D01*
X66338526Y-22860000D01*
X66321513Y-22828171D01*
X66275720Y-22772372D01*
X66275716Y-22772368D01*
X66260412Y-22753720D01*
X66241764Y-22738416D01*
X66169275Y-22665927D01*
X73360000Y-22665927D01*
X73360000Y-22800073D01*
X73386171Y-22931640D01*
X73437506Y-23055574D01*
X73512033Y-23167112D01*
X73606888Y-23261967D01*
X73718426Y-23336494D01*
X73842360Y-23387829D01*
X73973927Y-23414000D01*
X74096762Y-23414000D01*
X74184856Y-23486296D01*
X74201140Y-23495000D01*
X74184856Y-23503704D01*
X74096762Y-23576000D01*
X73973927Y-23576000D01*
X73842360Y-23602171D01*
X73718426Y-23653506D01*
X73606888Y-23728033D01*
X73512033Y-23822888D01*
X73437506Y-23934426D01*
X73386171Y-24058360D01*
X73360000Y-24189927D01*
X73360000Y-24324073D01*
X73386171Y-24455640D01*
X73437506Y-24579574D01*
X73512033Y-24691112D01*
X73606888Y-24785967D01*
X73718426Y-24860494D01*
X73842360Y-24911829D01*
X73973927Y-24938000D01*
X74096762Y-24938000D01*
X74184856Y-25010296D01*
X74201140Y-25019000D01*
X74184856Y-25027704D01*
X74096762Y-25100000D01*
X73973927Y-25100000D01*
X73842360Y-25126171D01*
X73718426Y-25177506D01*
X73606888Y-25252033D01*
X73512033Y-25346888D01*
X73437506Y-25458426D01*
X73386171Y-25582360D01*
X73360000Y-25713927D01*
X73360000Y-25848073D01*
X73386171Y-25979640D01*
X73437506Y-26103574D01*
X73512033Y-26215112D01*
X73606888Y-26309967D01*
X73718426Y-26384494D01*
X73842360Y-26435829D01*
X73973927Y-26462000D01*
X74096762Y-26462000D01*
X74184856Y-26534296D01*
X74201140Y-26543000D01*
X74184856Y-26551704D01*
X74096762Y-26624000D01*
X73973927Y-26624000D01*
X73842360Y-26650171D01*
X73718426Y-26701506D01*
X73606888Y-26776033D01*
X73512033Y-26870888D01*
X73437506Y-26982426D01*
X73386171Y-27106360D01*
X73360000Y-27237927D01*
X73360000Y-27372073D01*
X73386171Y-27503640D01*
X73437506Y-27627574D01*
X73512033Y-27739112D01*
X73606888Y-27833967D01*
X73718426Y-27908494D01*
X73842360Y-27959829D01*
X73973927Y-27986000D01*
X74096762Y-27986000D01*
X74184856Y-28058296D01*
X74201140Y-28067000D01*
X74184856Y-28075704D01*
X74096762Y-28148000D01*
X73973927Y-28148000D01*
X73842360Y-28174171D01*
X73718426Y-28225506D01*
X73606888Y-28300033D01*
X73512033Y-28394888D01*
X73437506Y-28506426D01*
X73386171Y-28630360D01*
X73360000Y-28761927D01*
X73360000Y-28896073D01*
X73386171Y-29027640D01*
X73437506Y-29151574D01*
X73512033Y-29263112D01*
X73606888Y-29357967D01*
X73718426Y-29432494D01*
X73842360Y-29483829D01*
X73973927Y-29510000D01*
X74096762Y-29510000D01*
X74184856Y-29582296D01*
X74201140Y-29591000D01*
X74184856Y-29599704D01*
X74096762Y-29672000D01*
X73973927Y-29672000D01*
X73842360Y-29698171D01*
X73718426Y-29749506D01*
X73606888Y-29824033D01*
X73512033Y-29918888D01*
X73437506Y-30030426D01*
X73386171Y-30154360D01*
X73360000Y-30285927D01*
X73360000Y-30420073D01*
X73386171Y-30551640D01*
X73437506Y-30675574D01*
X73512033Y-30787112D01*
X73606888Y-30881967D01*
X73718426Y-30956494D01*
X73842360Y-31007829D01*
X73973927Y-31034000D01*
X74096762Y-31034000D01*
X74184856Y-31106296D01*
X74194140Y-31111258D01*
X74170856Y-31123704D01*
X74082762Y-31196000D01*
X73973927Y-31196000D01*
X73842360Y-31222171D01*
X73718426Y-31273506D01*
X73606888Y-31348033D01*
X73512033Y-31442888D01*
X73437506Y-31554426D01*
X73386171Y-31678360D01*
X73360000Y-31809927D01*
X73360000Y-31944073D01*
X73386171Y-32075640D01*
X73437506Y-32199574D01*
X73512033Y-32311112D01*
X73606888Y-32405967D01*
X73718426Y-32480494D01*
X73842360Y-32531829D01*
X73973927Y-32558000D01*
X74082762Y-32558000D01*
X74170856Y-32630296D01*
X74194140Y-32642742D01*
X74184856Y-32647704D01*
X74096762Y-32720000D01*
X73973927Y-32720000D01*
X73842360Y-32746171D01*
X73718426Y-32797506D01*
X73606888Y-32872033D01*
X73512033Y-32966888D01*
X73437506Y-33078426D01*
X73386171Y-33202360D01*
X73360000Y-33333927D01*
X73360000Y-33468073D01*
X73386171Y-33599640D01*
X73437506Y-33723574D01*
X73512033Y-33835112D01*
X73606888Y-33929967D01*
X73718426Y-34004494D01*
X73842360Y-34055829D01*
X73973927Y-34082000D01*
X74096762Y-34082000D01*
X74184856Y-34154296D01*
X74201140Y-34163000D01*
X74184856Y-34171704D01*
X74096762Y-34244000D01*
X73973927Y-34244000D01*
X73842360Y-34270171D01*
X73718426Y-34321506D01*
X73606888Y-34396033D01*
X73512033Y-34490888D01*
X73437506Y-34602426D01*
X73386171Y-34726360D01*
X73360000Y-34857927D01*
X73360000Y-34992073D01*
X73386171Y-35123640D01*
X73437506Y-35247574D01*
X73512033Y-35359112D01*
X73606888Y-35453967D01*
X73718426Y-35528494D01*
X73842360Y-35579829D01*
X73973927Y-35606000D01*
X74096762Y-35606000D01*
X74184856Y-35678296D01*
X74201140Y-35687000D01*
X74184856Y-35695704D01*
X74096762Y-35768000D01*
X73973927Y-35768000D01*
X73842360Y-35794171D01*
X73718426Y-35845506D01*
X73606888Y-35920033D01*
X73512033Y-36014888D01*
X73437506Y-36126426D01*
X73386171Y-36250360D01*
X73360000Y-36381927D01*
X73360000Y-36516073D01*
X73386171Y-36647640D01*
X73437506Y-36771574D01*
X73512033Y-36883112D01*
X73606888Y-36977967D01*
X73718426Y-37052494D01*
X73842360Y-37103829D01*
X73973927Y-37130000D01*
X74096762Y-37130000D01*
X74184856Y-37202296D01*
X74201140Y-37211000D01*
X74184856Y-37219704D01*
X74096762Y-37292000D01*
X73973927Y-37292000D01*
X73842360Y-37318171D01*
X73718426Y-37369506D01*
X73606888Y-37444033D01*
X73512033Y-37538888D01*
X73437506Y-37650426D01*
X73386171Y-37774360D01*
X73360000Y-37905927D01*
X73360000Y-38040073D01*
X73386171Y-38171640D01*
X73437506Y-38295574D01*
X73512033Y-38407112D01*
X73606888Y-38501967D01*
X73718426Y-38576494D01*
X73842360Y-38627829D01*
X73973927Y-38654000D01*
X74096762Y-38654000D01*
X74184856Y-38726296D01*
X74292105Y-38783622D01*
X74408477Y-38818923D01*
X74529500Y-38830843D01*
X75104500Y-38830843D01*
X75225523Y-38818923D01*
X75341895Y-38783622D01*
X75449144Y-38726296D01*
X75464675Y-38713550D01*
X75479270Y-38748785D01*
X75548763Y-38852789D01*
X75637211Y-38941237D01*
X75741215Y-39010730D01*
X75856777Y-39058597D01*
X75979458Y-39083000D01*
X76281250Y-39083000D01*
X76440000Y-38924250D01*
X76440000Y-38100000D01*
X76694000Y-38100000D01*
X76694000Y-38924250D01*
X76852750Y-39083000D01*
X77154542Y-39083000D01*
X77277223Y-39058597D01*
X77392785Y-39010730D01*
X77496789Y-38941237D01*
X77585237Y-38852789D01*
X77654730Y-38748785D01*
X77702597Y-38633223D01*
X77727000Y-38510542D01*
X77727000Y-38258750D01*
X77568250Y-38100000D01*
X76694000Y-38100000D01*
X76440000Y-38100000D01*
X76420000Y-38100000D01*
X76420000Y-37846000D01*
X76440000Y-37846000D01*
X76440000Y-36576000D01*
X76694000Y-36576000D01*
X76694000Y-37846000D01*
X77568250Y-37846000D01*
X77727000Y-37687250D01*
X77727000Y-37435458D01*
X77702597Y-37312777D01*
X77660440Y-37211000D01*
X77702597Y-37109223D01*
X77727000Y-36986542D01*
X77727000Y-36734750D01*
X77568250Y-36576000D01*
X76694000Y-36576000D01*
X76440000Y-36576000D01*
X76420000Y-36576000D01*
X76420000Y-36322000D01*
X76440000Y-36322000D01*
X76440000Y-35052000D01*
X76694000Y-35052000D01*
X76694000Y-36322000D01*
X77568250Y-36322000D01*
X77727000Y-36163250D01*
X77727000Y-35911458D01*
X77702597Y-35788777D01*
X77660440Y-35687000D01*
X77702597Y-35585223D01*
X77727000Y-35462542D01*
X77727000Y-35210750D01*
X77568250Y-35052000D01*
X76694000Y-35052000D01*
X76440000Y-35052000D01*
X76420000Y-35052000D01*
X76420000Y-34798000D01*
X76440000Y-34798000D01*
X76440000Y-33528000D01*
X76694000Y-33528000D01*
X76694000Y-34798000D01*
X77568250Y-34798000D01*
X77727000Y-34639250D01*
X77727000Y-34387458D01*
X77702597Y-34264777D01*
X77660440Y-34163000D01*
X77702597Y-34061223D01*
X77727000Y-33938542D01*
X77727000Y-33686750D01*
X77568250Y-33528000D01*
X76694000Y-33528000D01*
X76440000Y-33528000D01*
X76420000Y-33528000D01*
X76420000Y-33274000D01*
X76440000Y-33274000D01*
X76440000Y-32449750D01*
X76426000Y-32435750D01*
X76426000Y-32004000D01*
X76680000Y-32004000D01*
X76680000Y-32828250D01*
X76694000Y-32842250D01*
X76694000Y-33274000D01*
X77568250Y-33274000D01*
X77727000Y-33115250D01*
X77727000Y-32863458D01*
X77702597Y-32740777D01*
X77654730Y-32625215D01*
X77653137Y-32622831D01*
X77688597Y-32537223D01*
X77713000Y-32414542D01*
X77713000Y-32162750D01*
X77554250Y-32004000D01*
X76680000Y-32004000D01*
X76426000Y-32004000D01*
X76406000Y-32004000D01*
X76406000Y-31750000D01*
X76426000Y-31750000D01*
X76426000Y-31318250D01*
X76440000Y-31304250D01*
X76440000Y-30925750D01*
X76680000Y-30925750D01*
X76680000Y-31750000D01*
X77554250Y-31750000D01*
X77713000Y-31591250D01*
X77713000Y-31339458D01*
X77688597Y-31216777D01*
X77653137Y-31131169D01*
X77654730Y-31128785D01*
X77702597Y-31013223D01*
X77727000Y-30890542D01*
X77727000Y-30638750D01*
X77568250Y-30480000D01*
X76694000Y-30480000D01*
X76694000Y-30911750D01*
X76680000Y-30925750D01*
X76440000Y-30925750D01*
X76440000Y-30480000D01*
X76420000Y-30480000D01*
X76420000Y-30226000D01*
X76440000Y-30226000D01*
X76440000Y-28956000D01*
X76694000Y-28956000D01*
X76694000Y-30226000D01*
X77568250Y-30226000D01*
X77727000Y-30067250D01*
X77727000Y-29815458D01*
X77702597Y-29692777D01*
X77660440Y-29591000D01*
X77702597Y-29489223D01*
X77727000Y-29366542D01*
X77727000Y-29114750D01*
X77568250Y-28956000D01*
X76694000Y-28956000D01*
X76440000Y-28956000D01*
X76420000Y-28956000D01*
X76420000Y-28702000D01*
X76440000Y-28702000D01*
X76440000Y-27432000D01*
X76694000Y-27432000D01*
X76694000Y-28702000D01*
X77568250Y-28702000D01*
X77727000Y-28543250D01*
X77727000Y-28291458D01*
X77702597Y-28168777D01*
X77660440Y-28067000D01*
X77702597Y-27965223D01*
X77727000Y-27842542D01*
X77727000Y-27590750D01*
X77568250Y-27432000D01*
X76694000Y-27432000D01*
X76440000Y-27432000D01*
X76420000Y-27432000D01*
X76420000Y-27178000D01*
X76440000Y-27178000D01*
X76440000Y-25908000D01*
X76694000Y-25908000D01*
X76694000Y-27178000D01*
X77568250Y-27178000D01*
X77727000Y-27019250D01*
X77727000Y-26767458D01*
X77702597Y-26644777D01*
X77660440Y-26543000D01*
X77702597Y-26441223D01*
X77727000Y-26318542D01*
X77727000Y-26066750D01*
X77568250Y-25908000D01*
X76694000Y-25908000D01*
X76440000Y-25908000D01*
X76420000Y-25908000D01*
X76420000Y-25654000D01*
X76440000Y-25654000D01*
X76440000Y-24384000D01*
X76694000Y-24384000D01*
X76694000Y-25654000D01*
X77568250Y-25654000D01*
X77727000Y-25495250D01*
X77727000Y-25243458D01*
X77702597Y-25120777D01*
X77660440Y-25019000D01*
X77702597Y-24917223D01*
X77727000Y-24794542D01*
X77727000Y-24542750D01*
X77568250Y-24384000D01*
X76694000Y-24384000D01*
X76440000Y-24384000D01*
X76420000Y-24384000D01*
X76420000Y-24130000D01*
X76440000Y-24130000D01*
X76440000Y-22860000D01*
X76694000Y-22860000D01*
X76694000Y-24130000D01*
X77568250Y-24130000D01*
X77727000Y-23971250D01*
X77727000Y-23719458D01*
X77702597Y-23596777D01*
X77660440Y-23495000D01*
X77702597Y-23393223D01*
X77727000Y-23270542D01*
X77727000Y-23018750D01*
X77568250Y-22860000D01*
X76694000Y-22860000D01*
X76440000Y-22860000D01*
X76420000Y-22860000D01*
X76420000Y-22606000D01*
X76440000Y-22606000D01*
X76440000Y-21781750D01*
X76694000Y-21781750D01*
X76694000Y-22606000D01*
X77568250Y-22606000D01*
X77727000Y-22447250D01*
X77727000Y-22195458D01*
X77702597Y-22072777D01*
X77654730Y-21957215D01*
X77585237Y-21853211D01*
X77496789Y-21764763D01*
X77392785Y-21695270D01*
X77277223Y-21647403D01*
X77154542Y-21623000D01*
X76852750Y-21623000D01*
X76694000Y-21781750D01*
X76440000Y-21781750D01*
X76281250Y-21623000D01*
X75979458Y-21623000D01*
X75856777Y-21647403D01*
X75741215Y-21695270D01*
X75637211Y-21764763D01*
X75548763Y-21853211D01*
X75479270Y-21957215D01*
X75464675Y-21992450D01*
X75449144Y-21979704D01*
X75341895Y-21922378D01*
X75225523Y-21887077D01*
X75104500Y-21875157D01*
X74529500Y-21875157D01*
X74408477Y-21887077D01*
X74292105Y-21922378D01*
X74184856Y-21979704D01*
X74096762Y-22052000D01*
X73973927Y-22052000D01*
X73842360Y-22078171D01*
X73718426Y-22129506D01*
X73606888Y-22204033D01*
X73512033Y-22298888D01*
X73437506Y-22410426D01*
X73386171Y-22534360D01*
X73360000Y-22665927D01*
X66169275Y-22665927D01*
X64535908Y-21032561D01*
X64535904Y-21032556D01*
X63966237Y-20462890D01*
X63960583Y-20456000D01*
X79544001Y-20456000D01*
X79544000Y-41544000D01*
G36*
X21981812Y-33442892D02*
G01*
X21997116Y-33461540D01*
X22015764Y-33476844D01*
X22015768Y-33476848D01*
X22071567Y-33522642D01*
X22156509Y-33568044D01*
X22174957Y-33573640D01*
X22248677Y-33596003D01*
X22320514Y-33603078D01*
X22320525Y-33603078D01*
X22344528Y-33605442D01*
X22368531Y-33603078D01*
X23020543Y-33603078D01*
X25482550Y-36065086D01*
X25482551Y-36500469D01*
X24880741Y-37102280D01*
X24862088Y-37117588D01*
X24800987Y-37192040D01*
X24770358Y-37249342D01*
X24750660Y-37225340D01*
X24563216Y-37071509D01*
X24349363Y-36957202D01*
X24117318Y-36886812D01*
X23936472Y-36869000D01*
X23815528Y-36869000D01*
X23634682Y-36886812D01*
X23402637Y-36957202D01*
X23188784Y-37071509D01*
X23001340Y-37225340D01*
X22847509Y-37412784D01*
X22821000Y-37462379D01*
X22821000Y-37187458D01*
X22796597Y-37064777D01*
X22748730Y-36949215D01*
X22679237Y-36845211D01*
X22590789Y-36756763D01*
X22486785Y-36687270D01*
X22371223Y-36639403D01*
X22248542Y-36615000D01*
X21621750Y-36615000D01*
X21463000Y-36773750D01*
X21463000Y-37973000D01*
X21483000Y-37973000D01*
X21483000Y-38227000D01*
X21463000Y-38227000D01*
X21463000Y-40513000D01*
X21483000Y-40513000D01*
X21483000Y-40767000D01*
X21463000Y-40767000D01*
X21463000Y-40787000D01*
X21209000Y-40787000D01*
X21209000Y-40767000D01*
X21189000Y-40767000D01*
X21189000Y-40513000D01*
X21209000Y-40513000D01*
X21209000Y-38227000D01*
X21189000Y-38227000D01*
X21189000Y-37973000D01*
X21209000Y-37973000D01*
X21209000Y-36773750D01*
X21050250Y-36615000D01*
X20456000Y-36615000D01*
X20456000Y-31917079D01*
X21981812Y-33442892D01*
X21981812Y-33442892D01*
G37*
X21981812Y-33442892D02*
X21997116Y-33461540D01*
X22015764Y-33476844D01*
X22015768Y-33476848D01*
X22071567Y-33522642D01*
X22156509Y-33568044D01*
X22174957Y-33573640D01*
X22248677Y-33596003D01*
X22320514Y-33603078D01*
X22320525Y-33603078D01*
X22344528Y-33605442D01*
X22368531Y-33603078D01*
X23020543Y-33603078D01*
X25482550Y-36065086D01*
X25482551Y-36500469D01*
X24880741Y-37102280D01*
X24862088Y-37117588D01*
X24800987Y-37192040D01*
X24770358Y-37249342D01*
X24750660Y-37225340D01*
X24563216Y-37071509D01*
X24349363Y-36957202D01*
X24117318Y-36886812D01*
X23936472Y-36869000D01*
X23815528Y-36869000D01*
X23634682Y-36886812D01*
X23402637Y-36957202D01*
X23188784Y-37071509D01*
X23001340Y-37225340D01*
X22847509Y-37412784D01*
X22821000Y-37462379D01*
X22821000Y-37187458D01*
X22796597Y-37064777D01*
X22748730Y-36949215D01*
X22679237Y-36845211D01*
X22590789Y-36756763D01*
X22486785Y-36687270D01*
X22371223Y-36639403D01*
X22248542Y-36615000D01*
X21621750Y-36615000D01*
X21463000Y-36773750D01*
X21463000Y-37973000D01*
X21483000Y-37973000D01*
X21483000Y-38227000D01*
X21463000Y-38227000D01*
X21463000Y-40513000D01*
X21483000Y-40513000D01*
X21483000Y-40767000D01*
X21463000Y-40767000D01*
X21463000Y-40787000D01*
X21209000Y-40787000D01*
X21209000Y-40767000D01*
X21189000Y-40767000D01*
X21189000Y-40513000D01*
X21209000Y-40513000D01*
X21209000Y-38227000D01*
X21189000Y-38227000D01*
X21189000Y-37973000D01*
X21209000Y-37973000D01*
X21209000Y-36773750D01*
X21050250Y-36615000D01*
X20456000Y-36615000D01*
X20456000Y-31917079D01*
X21981812Y-33442892D01*
G36*
X22847509Y-38787216D02*
G01*
X22961601Y-38926237D01*
X22961600Y-39813763D01*
X22847509Y-39952784D01*
X22734983Y-40163305D01*
X22680157Y-40008748D01*
X22531178Y-39758645D01*
X22355483Y-39563728D01*
X22371223Y-39560597D01*
X22486785Y-39512730D01*
X22590789Y-39443237D01*
X22679237Y-39354789D01*
X22748730Y-39250785D01*
X22796597Y-39135223D01*
X22821000Y-39012542D01*
X22821000Y-38737621D01*
X22847509Y-38787216D01*
X22847509Y-38787216D01*
G37*
X22847509Y-38787216D02*
X22961601Y-38926237D01*
X22961600Y-39813763D01*
X22847509Y-39952784D01*
X22734983Y-40163305D01*
X22680157Y-40008748D01*
X22531178Y-39758645D01*
X22355483Y-39563728D01*
X22371223Y-39560597D01*
X22486785Y-39512730D01*
X22590789Y-39443237D01*
X22679237Y-39354789D01*
X22748730Y-39250785D01*
X22796597Y-39135223D01*
X22821000Y-39012542D01*
X22821000Y-38737621D01*
X22847509Y-38787216D01*
G36*
X63171843Y-38731252D02*
G01*
X63320822Y-38981355D01*
X63515731Y-39197588D01*
X63746880Y-39370000D01*
X63515731Y-39542412D01*
X63320822Y-39758645D01*
X63171843Y-40008748D01*
X63117017Y-40163305D01*
X63004491Y-39952784D01*
X62850660Y-39765340D01*
X62663216Y-39611509D01*
X62449363Y-39497202D01*
X62217318Y-39426812D01*
X62036472Y-39409000D01*
X61915528Y-39409000D01*
X61734682Y-39426812D01*
X61519550Y-39492071D01*
X61354599Y-39327120D01*
X61354599Y-39163670D01*
X61502637Y-39242798D01*
X61734682Y-39313188D01*
X61915528Y-39331000D01*
X62036472Y-39331000D01*
X62217318Y-39313188D01*
X62449363Y-39242798D01*
X62663216Y-39128491D01*
X62850660Y-38974660D01*
X63004491Y-38787216D01*
X63117017Y-38576695D01*
X63171843Y-38731252D01*
X63171843Y-38731252D01*
G37*
X63171843Y-38731252D02*
X63320822Y-38981355D01*
X63515731Y-39197588D01*
X63746880Y-39370000D01*
X63515731Y-39542412D01*
X63320822Y-39758645D01*
X63171843Y-40008748D01*
X63117017Y-40163305D01*
X63004491Y-39952784D01*
X62850660Y-39765340D01*
X62663216Y-39611509D01*
X62449363Y-39497202D01*
X62217318Y-39426812D01*
X62036472Y-39409000D01*
X61915528Y-39409000D01*
X61734682Y-39426812D01*
X61519550Y-39492071D01*
X61354599Y-39327120D01*
X61354599Y-39163670D01*
X61502637Y-39242798D01*
X61734682Y-39313188D01*
X61915528Y-39331000D01*
X62036472Y-39331000D01*
X62217318Y-39313188D01*
X62449363Y-39242798D01*
X62663216Y-39128491D01*
X62850660Y-38974660D01*
X63004491Y-38787216D01*
X63117017Y-38576695D01*
X63171843Y-38731252D01*
G36*
X47771050Y-28347071D02*
G01*
X47666236Y-28451885D01*
X47647588Y-28467189D01*
X47632284Y-28485837D01*
X47632279Y-28485842D01*
X47586486Y-28541641D01*
X47555915Y-28598836D01*
X47541084Y-28626583D01*
X47513125Y-28718750D01*
X47506691Y-28784075D01*
X47503685Y-28814601D01*
X47506050Y-28838614D01*
X47506050Y-29118244D01*
X47496360Y-29120171D01*
X47372426Y-29171506D01*
X47260888Y-29246033D01*
X47166033Y-29340888D01*
X47091506Y-29452426D01*
X47040171Y-29576360D01*
X47014000Y-29707927D01*
X47014000Y-29842073D01*
X47040171Y-29973640D01*
X47062157Y-30026719D01*
X47062157Y-30805500D01*
X47069513Y-30880189D01*
X47091299Y-30952008D01*
X47126678Y-31018196D01*
X47174289Y-31076211D01*
X47232304Y-31123822D01*
X47298492Y-31159201D01*
X47370311Y-31180987D01*
X47445000Y-31188343D01*
X47945000Y-31188343D01*
X48019689Y-31180987D01*
X48091508Y-31159201D01*
X48120000Y-31143971D01*
X48148492Y-31159201D01*
X48220311Y-31180987D01*
X48295000Y-31188343D01*
X48695000Y-31188343D01*
X48769689Y-31180987D01*
X48841508Y-31159201D01*
X48895000Y-31130608D01*
X48948492Y-31159201D01*
X49020311Y-31180987D01*
X49095000Y-31188343D01*
X49495000Y-31188343D01*
X49569689Y-31180987D01*
X49641508Y-31159201D01*
X49670000Y-31143971D01*
X49698492Y-31159201D01*
X49770311Y-31180987D01*
X49845000Y-31188343D01*
X50345000Y-31188343D01*
X50419689Y-31180987D01*
X50491508Y-31159201D01*
X50557696Y-31123822D01*
X50615711Y-31076211D01*
X50663322Y-31018196D01*
X50698701Y-30952008D01*
X50720487Y-30880189D01*
X50727843Y-30805500D01*
X50727843Y-30041319D01*
X50749829Y-29988240D01*
X50776000Y-29856673D01*
X50776000Y-29722527D01*
X50749829Y-29590960D01*
X50698494Y-29467026D01*
X50623967Y-29355488D01*
X50529112Y-29260633D01*
X50417574Y-29186106D01*
X50293640Y-29134771D01*
X50236183Y-29123342D01*
X50202763Y-29082619D01*
X50184110Y-29067311D01*
X50152260Y-29035461D01*
X50152260Y-28681335D01*
X50154624Y-28657332D01*
X50152260Y-28633329D01*
X50152260Y-28633318D01*
X50145185Y-28561481D01*
X50117226Y-28469314D01*
X50115649Y-28466364D01*
X50071824Y-28384372D01*
X50069750Y-28381845D01*
X50069750Y-28040929D01*
X50111229Y-27999450D01*
X50873367Y-27999450D01*
X50873367Y-28385500D01*
X50880723Y-28460189D01*
X50888401Y-28485500D01*
X50880723Y-28510811D01*
X50873367Y-28585500D01*
X50873367Y-29035500D01*
X50880723Y-29110189D01*
X50902509Y-29182008D01*
X50937888Y-29248196D01*
X50985499Y-29306211D01*
X51043514Y-29353822D01*
X51109702Y-29389201D01*
X51181521Y-29410987D01*
X51256210Y-29418343D01*
X52706210Y-29418343D01*
X52780899Y-29410987D01*
X52845922Y-29391263D01*
X52845921Y-34862686D01*
X52837136Y-34873391D01*
X52797037Y-34948412D01*
X52791734Y-34958333D01*
X52763775Y-35050500D01*
X52760319Y-35085588D01*
X52754335Y-35146351D01*
X52756700Y-35170364D01*
X52756700Y-37305810D01*
X52690660Y-37225340D01*
X52503216Y-37071509D01*
X52304950Y-36965533D01*
X52304950Y-36346011D01*
X52307315Y-36322000D01*
X52303325Y-36281487D01*
X52297875Y-36226149D01*
X52269916Y-36133982D01*
X52262368Y-36119861D01*
X52224514Y-36049040D01*
X52178720Y-35993240D01*
X52178716Y-35993236D01*
X52163412Y-35974588D01*
X52144764Y-35959284D01*
X50583950Y-34398471D01*
X50583950Y-33183129D01*
X50623967Y-33143112D01*
X50698494Y-33031574D01*
X50749829Y-32907640D01*
X50776000Y-32776073D01*
X50776000Y-32641927D01*
X50749829Y-32510360D01*
X50727843Y-32457281D01*
X50727843Y-31805500D01*
X50720487Y-31730811D01*
X50698701Y-31658992D01*
X50663322Y-31592804D01*
X50615711Y-31534789D01*
X50557696Y-31487178D01*
X50491508Y-31451799D01*
X50419689Y-31430013D01*
X50345000Y-31422657D01*
X49845000Y-31422657D01*
X49770311Y-31430013D01*
X49698492Y-31451799D01*
X49670000Y-31467029D01*
X49641508Y-31451799D01*
X49569689Y-31430013D01*
X49495000Y-31422657D01*
X49095000Y-31422657D01*
X49020311Y-31430013D01*
X48948492Y-31451799D01*
X48895000Y-31480392D01*
X48841508Y-31451799D01*
X48769689Y-31430013D01*
X48695000Y-31422657D01*
X48295000Y-31422657D01*
X48220311Y-31430013D01*
X48148492Y-31451799D01*
X48120000Y-31467029D01*
X48091508Y-31451799D01*
X48019689Y-31430013D01*
X47945000Y-31422657D01*
X47445000Y-31422657D01*
X47370311Y-31430013D01*
X47298492Y-31451799D01*
X47232304Y-31487178D01*
X47174289Y-31534789D01*
X47126678Y-31592804D01*
X47091299Y-31658992D01*
X47069513Y-31730811D01*
X47062157Y-31805500D01*
X47062157Y-32571281D01*
X47040171Y-32624360D01*
X47014000Y-32755927D01*
X47014000Y-32890073D01*
X47040171Y-33021640D01*
X47091506Y-33145574D01*
X47166033Y-33257112D01*
X47206050Y-33297129D01*
X47206051Y-35478987D01*
X47203686Y-35503000D01*
X47206051Y-35527013D01*
X47206051Y-35527014D01*
X47213126Y-35598851D01*
X47236086Y-35674538D01*
X47241085Y-35691018D01*
X47286487Y-35775960D01*
X47332280Y-35831759D01*
X47332285Y-35831764D01*
X47347589Y-35850412D01*
X47366236Y-35865716D01*
X47676699Y-36176179D01*
X47676699Y-37305809D01*
X47610660Y-37225340D01*
X47423216Y-37071509D01*
X47224950Y-36965533D01*
X47224950Y-36921930D01*
X47227315Y-36897919D01*
X47223876Y-36863000D01*
X47217875Y-36802068D01*
X47192665Y-36718963D01*
X47189916Y-36709900D01*
X47144514Y-36624959D01*
X47098720Y-36569159D01*
X47098716Y-36569155D01*
X47083412Y-36550507D01*
X47064764Y-36535203D01*
X45216499Y-34686939D01*
X45216499Y-29391263D01*
X45281521Y-29410987D01*
X45356210Y-29418343D01*
X46806210Y-29418343D01*
X46880899Y-29410987D01*
X46952718Y-29389201D01*
X47018906Y-29353822D01*
X47076921Y-29306211D01*
X47124532Y-29248196D01*
X47159911Y-29182008D01*
X47181697Y-29110189D01*
X47189053Y-29035500D01*
X47189053Y-28585500D01*
X47181697Y-28510811D01*
X47174019Y-28485500D01*
X47181697Y-28460189D01*
X47189053Y-28385500D01*
X47189053Y-27999450D01*
X47771051Y-27999450D01*
X47771050Y-28347071D01*
X47771050Y-28347071D01*
G37*
X47771050Y-28347071D02*
X47666236Y-28451885D01*
X47647588Y-28467189D01*
X47632284Y-28485837D01*
X47632279Y-28485842D01*
X47586486Y-28541641D01*
X47555915Y-28598836D01*
X47541084Y-28626583D01*
X47513125Y-28718750D01*
X47506691Y-28784075D01*
X47503685Y-28814601D01*
X47506050Y-28838614D01*
X47506050Y-29118244D01*
X47496360Y-29120171D01*
X47372426Y-29171506D01*
X47260888Y-29246033D01*
X47166033Y-29340888D01*
X47091506Y-29452426D01*
X47040171Y-29576360D01*
X47014000Y-29707927D01*
X47014000Y-29842073D01*
X47040171Y-29973640D01*
X47062157Y-30026719D01*
X47062157Y-30805500D01*
X47069513Y-30880189D01*
X47091299Y-30952008D01*
X47126678Y-31018196D01*
X47174289Y-31076211D01*
X47232304Y-31123822D01*
X47298492Y-31159201D01*
X47370311Y-31180987D01*
X47445000Y-31188343D01*
X47945000Y-31188343D01*
X48019689Y-31180987D01*
X48091508Y-31159201D01*
X48120000Y-31143971D01*
X48148492Y-31159201D01*
X48220311Y-31180987D01*
X48295000Y-31188343D01*
X48695000Y-31188343D01*
X48769689Y-31180987D01*
X48841508Y-31159201D01*
X48895000Y-31130608D01*
X48948492Y-31159201D01*
X49020311Y-31180987D01*
X49095000Y-31188343D01*
X49495000Y-31188343D01*
X49569689Y-31180987D01*
X49641508Y-31159201D01*
X49670000Y-31143971D01*
X49698492Y-31159201D01*
X49770311Y-31180987D01*
X49845000Y-31188343D01*
X50345000Y-31188343D01*
X50419689Y-31180987D01*
X50491508Y-31159201D01*
X50557696Y-31123822D01*
X50615711Y-31076211D01*
X50663322Y-31018196D01*
X50698701Y-30952008D01*
X50720487Y-30880189D01*
X50727843Y-30805500D01*
X50727843Y-30041319D01*
X50749829Y-29988240D01*
X50776000Y-29856673D01*
X50776000Y-29722527D01*
X50749829Y-29590960D01*
X50698494Y-29467026D01*
X50623967Y-29355488D01*
X50529112Y-29260633D01*
X50417574Y-29186106D01*
X50293640Y-29134771D01*
X50236183Y-29123342D01*
X50202763Y-29082619D01*
X50184110Y-29067311D01*
X50152260Y-29035461D01*
X50152260Y-28681335D01*
X50154624Y-28657332D01*
X50152260Y-28633329D01*
X50152260Y-28633318D01*
X50145185Y-28561481D01*
X50117226Y-28469314D01*
X50115649Y-28466364D01*
X50071824Y-28384372D01*
X50069750Y-28381845D01*
X50069750Y-28040929D01*
X50111229Y-27999450D01*
X50873367Y-27999450D01*
X50873367Y-28385500D01*
X50880723Y-28460189D01*
X50888401Y-28485500D01*
X50880723Y-28510811D01*
X50873367Y-28585500D01*
X50873367Y-29035500D01*
X50880723Y-29110189D01*
X50902509Y-29182008D01*
X50937888Y-29248196D01*
X50985499Y-29306211D01*
X51043514Y-29353822D01*
X51109702Y-29389201D01*
X51181521Y-29410987D01*
X51256210Y-29418343D01*
X52706210Y-29418343D01*
X52780899Y-29410987D01*
X52845922Y-29391263D01*
X52845921Y-34862686D01*
X52837136Y-34873391D01*
X52797037Y-34948412D01*
X52791734Y-34958333D01*
X52763775Y-35050500D01*
X52760319Y-35085588D01*
X52754335Y-35146351D01*
X52756700Y-35170364D01*
X52756700Y-37305810D01*
X52690660Y-37225340D01*
X52503216Y-37071509D01*
X52304950Y-36965533D01*
X52304950Y-36346011D01*
X52307315Y-36322000D01*
X52303325Y-36281487D01*
X52297875Y-36226149D01*
X52269916Y-36133982D01*
X52262368Y-36119861D01*
X52224514Y-36049040D01*
X52178720Y-35993240D01*
X52178716Y-35993236D01*
X52163412Y-35974588D01*
X52144764Y-35959284D01*
X50583950Y-34398471D01*
X50583950Y-33183129D01*
X50623967Y-33143112D01*
X50698494Y-33031574D01*
X50749829Y-32907640D01*
X50776000Y-32776073D01*
X50776000Y-32641927D01*
X50749829Y-32510360D01*
X50727843Y-32457281D01*
X50727843Y-31805500D01*
X50720487Y-31730811D01*
X50698701Y-31658992D01*
X50663322Y-31592804D01*
X50615711Y-31534789D01*
X50557696Y-31487178D01*
X50491508Y-31451799D01*
X50419689Y-31430013D01*
X50345000Y-31422657D01*
X49845000Y-31422657D01*
X49770311Y-31430013D01*
X49698492Y-31451799D01*
X49670000Y-31467029D01*
X49641508Y-31451799D01*
X49569689Y-31430013D01*
X49495000Y-31422657D01*
X49095000Y-31422657D01*
X49020311Y-31430013D01*
X48948492Y-31451799D01*
X48895000Y-31480392D01*
X48841508Y-31451799D01*
X48769689Y-31430013D01*
X48695000Y-31422657D01*
X48295000Y-31422657D01*
X48220311Y-31430013D01*
X48148492Y-31451799D01*
X48120000Y-31467029D01*
X48091508Y-31451799D01*
X48019689Y-31430013D01*
X47945000Y-31422657D01*
X47445000Y-31422657D01*
X47370311Y-31430013D01*
X47298492Y-31451799D01*
X47232304Y-31487178D01*
X47174289Y-31534789D01*
X47126678Y-31592804D01*
X47091299Y-31658992D01*
X47069513Y-31730811D01*
X47062157Y-31805500D01*
X47062157Y-32571281D01*
X47040171Y-32624360D01*
X47014000Y-32755927D01*
X47014000Y-32890073D01*
X47040171Y-33021640D01*
X47091506Y-33145574D01*
X47166033Y-33257112D01*
X47206050Y-33297129D01*
X47206051Y-35478987D01*
X47203686Y-35503000D01*
X47206051Y-35527013D01*
X47206051Y-35527014D01*
X47213126Y-35598851D01*
X47236086Y-35674538D01*
X47241085Y-35691018D01*
X47286487Y-35775960D01*
X47332280Y-35831759D01*
X47332285Y-35831764D01*
X47347589Y-35850412D01*
X47366236Y-35865716D01*
X47676699Y-36176179D01*
X47676699Y-37305809D01*
X47610660Y-37225340D01*
X47423216Y-37071509D01*
X47224950Y-36965533D01*
X47224950Y-36921930D01*
X47227315Y-36897919D01*
X47223876Y-36863000D01*
X47217875Y-36802068D01*
X47192665Y-36718963D01*
X47189916Y-36709900D01*
X47144514Y-36624959D01*
X47098720Y-36569159D01*
X47098716Y-36569155D01*
X47083412Y-36550507D01*
X47064764Y-36535203D01*
X45216499Y-34686939D01*
X45216499Y-29391263D01*
X45281521Y-29410987D01*
X45356210Y-29418343D01*
X46806210Y-29418343D01*
X46880899Y-29410987D01*
X46952718Y-29389201D01*
X47018906Y-29353822D01*
X47076921Y-29306211D01*
X47124532Y-29248196D01*
X47159911Y-29182008D01*
X47181697Y-29110189D01*
X47189053Y-29035500D01*
X47189053Y-28585500D01*
X47181697Y-28510811D01*
X47174019Y-28485500D01*
X47181697Y-28460189D01*
X47189053Y-28385500D01*
X47189053Y-27999450D01*
X47771051Y-27999450D01*
X47771050Y-28347071D01*
G36*
X58423940Y-20797971D02*
G01*
X58423935Y-20797975D01*
X56234860Y-22987051D01*
X56216207Y-23002359D01*
X56155106Y-23076811D01*
X56109703Y-23161754D01*
X56081744Y-23253921D01*
X56074669Y-23325758D01*
X56074669Y-23325768D01*
X56072305Y-23349771D01*
X56074669Y-23373775D01*
X56074670Y-24154596D01*
X56074669Y-24154606D01*
X56074670Y-26440596D01*
X56074669Y-26440606D01*
X56074670Y-31804358D01*
X56074669Y-31804368D01*
X56074670Y-32895850D01*
X55456890Y-33513631D01*
X55438237Y-33528939D01*
X55377136Y-33603391D01*
X55331733Y-33688334D01*
X55303774Y-33780501D01*
X55296699Y-33852338D01*
X55296699Y-33852348D01*
X55294335Y-33876351D01*
X55296699Y-33900354D01*
X55296700Y-37305810D01*
X55230660Y-37225340D01*
X55043216Y-37071509D01*
X54844950Y-36965533D01*
X54844950Y-36346000D01*
X54847314Y-36321999D01*
X54844950Y-36297998D01*
X54844950Y-36297986D01*
X54837875Y-36226149D01*
X54809916Y-36133982D01*
X54774120Y-36067013D01*
X54764513Y-36049039D01*
X54718719Y-35993240D01*
X54703412Y-35974588D01*
X54684759Y-35959280D01*
X54192131Y-35466652D01*
X54192131Y-23887654D01*
X54194495Y-23863651D01*
X54192131Y-23839648D01*
X54192131Y-23839637D01*
X54185056Y-23767800D01*
X54157097Y-23675633D01*
X54132982Y-23630518D01*
X54111694Y-23590690D01*
X54065901Y-23534891D01*
X54065897Y-23534887D01*
X54050593Y-23516239D01*
X54031945Y-23500935D01*
X51105660Y-20574651D01*
X51090352Y-20555998D01*
X51015900Y-20494897D01*
X50943130Y-20456000D01*
X58765910Y-20456000D01*
X58423940Y-20797971D01*
X58423940Y-20797971D01*
G37*
X58423940Y-20797971D02*
X58423935Y-20797975D01*
X56234860Y-22987051D01*
X56216207Y-23002359D01*
X56155106Y-23076811D01*
X56109703Y-23161754D01*
X56081744Y-23253921D01*
X56074669Y-23325758D01*
X56074669Y-23325768D01*
X56072305Y-23349771D01*
X56074669Y-23373775D01*
X56074670Y-24154596D01*
X56074669Y-24154606D01*
X56074670Y-26440596D01*
X56074669Y-26440606D01*
X56074670Y-31804358D01*
X56074669Y-31804368D01*
X56074670Y-32895850D01*
X55456890Y-33513631D01*
X55438237Y-33528939D01*
X55377136Y-33603391D01*
X55331733Y-33688334D01*
X55303774Y-33780501D01*
X55296699Y-33852338D01*
X55296699Y-33852348D01*
X55294335Y-33876351D01*
X55296699Y-33900354D01*
X55296700Y-37305810D01*
X55230660Y-37225340D01*
X55043216Y-37071509D01*
X54844950Y-36965533D01*
X54844950Y-36346000D01*
X54847314Y-36321999D01*
X54844950Y-36297998D01*
X54844950Y-36297986D01*
X54837875Y-36226149D01*
X54809916Y-36133982D01*
X54774120Y-36067013D01*
X54764513Y-36049039D01*
X54718719Y-35993240D01*
X54703412Y-35974588D01*
X54684759Y-35959280D01*
X54192131Y-35466652D01*
X54192131Y-23887654D01*
X54194495Y-23863651D01*
X54192131Y-23839648D01*
X54192131Y-23839637D01*
X54185056Y-23767800D01*
X54157097Y-23675633D01*
X54132982Y-23630518D01*
X54111694Y-23590690D01*
X54065901Y-23534891D01*
X54065897Y-23534887D01*
X54050593Y-23516239D01*
X54031945Y-23500935D01*
X51105660Y-20574651D01*
X51090352Y-20555998D01*
X51015900Y-20494897D01*
X50943130Y-20456000D01*
X58765910Y-20456000D01*
X58423940Y-20797971D01*
G36*
X35017920Y-20484280D02*
G01*
X35017916Y-20484284D01*
X34999268Y-20499588D01*
X34983964Y-20518236D01*
X32250866Y-23251335D01*
X32232218Y-23266639D01*
X32216914Y-23285287D01*
X32216909Y-23285292D01*
X32171116Y-23341091D01*
X32133708Y-23411077D01*
X32125714Y-23426033D01*
X32097755Y-23518200D01*
X32090835Y-23588460D01*
X32088315Y-23614051D01*
X32090680Y-23638064D01*
X32090679Y-26578357D01*
X32090679Y-26578358D01*
X32090680Y-33825616D01*
X32088315Y-33849629D01*
X32090680Y-33873642D01*
X32090680Y-33873643D01*
X32097755Y-33945480D01*
X32112763Y-33994953D01*
X32125714Y-34037647D01*
X32171116Y-34122589D01*
X32216909Y-34178388D01*
X32216914Y-34178393D01*
X32232218Y-34197041D01*
X32250866Y-34212345D01*
X34976699Y-36938179D01*
X34976699Y-37305809D01*
X34910660Y-37225340D01*
X34723216Y-37071509D01*
X34509363Y-36957202D01*
X34277318Y-36886812D01*
X34096472Y-36869000D01*
X33975528Y-36869000D01*
X33794682Y-36886812D01*
X33579550Y-36952071D01*
X33548720Y-36921241D01*
X33533413Y-36902589D01*
X33458961Y-36841488D01*
X33374019Y-36796085D01*
X33281852Y-36768126D01*
X33210015Y-36761051D01*
X33210004Y-36761051D01*
X33186001Y-36758687D01*
X33161998Y-36761051D01*
X33012719Y-36761051D01*
X32221574Y-35969907D01*
X32221574Y-35457003D01*
X32223938Y-35433000D01*
X32221574Y-35408997D01*
X32221574Y-35408986D01*
X32214499Y-35337149D01*
X32186540Y-35244982D01*
X32161157Y-35197494D01*
X32141137Y-35160039D01*
X32095344Y-35104240D01*
X32095340Y-35104236D01*
X32080036Y-35085588D01*
X32061388Y-35070284D01*
X30616221Y-33625118D01*
X30616221Y-23703761D01*
X30618585Y-23679760D01*
X30616221Y-23655759D01*
X30616221Y-23655747D01*
X30609146Y-23583910D01*
X30581187Y-23491743D01*
X30554866Y-23442500D01*
X30535784Y-23406800D01*
X30493261Y-23354987D01*
X30474683Y-23332349D01*
X30456030Y-23317041D01*
X27792379Y-20653390D01*
X27777071Y-20634737D01*
X27702619Y-20573636D01*
X27617677Y-20528233D01*
X27525510Y-20500274D01*
X27453673Y-20493199D01*
X27453662Y-20493199D01*
X27429659Y-20490835D01*
X27405656Y-20493199D01*
X26472778Y-20493199D01*
X26453057Y-20473478D01*
X26426899Y-20456000D01*
X35052379Y-20456000D01*
X35017920Y-20484280D01*
X35017920Y-20484280D01*
G37*
X35017920Y-20484280D02*
X35017916Y-20484284D01*
X34999268Y-20499588D01*
X34983964Y-20518236D01*
X32250866Y-23251335D01*
X32232218Y-23266639D01*
X32216914Y-23285287D01*
X32216909Y-23285292D01*
X32171116Y-23341091D01*
X32133708Y-23411077D01*
X32125714Y-23426033D01*
X32097755Y-23518200D01*
X32090835Y-23588460D01*
X32088315Y-23614051D01*
X32090680Y-23638064D01*
X32090679Y-26578357D01*
X32090679Y-26578358D01*
X32090680Y-33825616D01*
X32088315Y-33849629D01*
X32090680Y-33873642D01*
X32090680Y-33873643D01*
X32097755Y-33945480D01*
X32112763Y-33994953D01*
X32125714Y-34037647D01*
X32171116Y-34122589D01*
X32216909Y-34178388D01*
X32216914Y-34178393D01*
X32232218Y-34197041D01*
X32250866Y-34212345D01*
X34976699Y-36938179D01*
X34976699Y-37305809D01*
X34910660Y-37225340D01*
X34723216Y-37071509D01*
X34509363Y-36957202D01*
X34277318Y-36886812D01*
X34096472Y-36869000D01*
X33975528Y-36869000D01*
X33794682Y-36886812D01*
X33579550Y-36952071D01*
X33548720Y-36921241D01*
X33533413Y-36902589D01*
X33458961Y-36841488D01*
X33374019Y-36796085D01*
X33281852Y-36768126D01*
X33210015Y-36761051D01*
X33210004Y-36761051D01*
X33186001Y-36758687D01*
X33161998Y-36761051D01*
X33012719Y-36761051D01*
X32221574Y-35969907D01*
X32221574Y-35457003D01*
X32223938Y-35433000D01*
X32221574Y-35408997D01*
X32221574Y-35408986D01*
X32214499Y-35337149D01*
X32186540Y-35244982D01*
X32161157Y-35197494D01*
X32141137Y-35160039D01*
X32095344Y-35104240D01*
X32095340Y-35104236D01*
X32080036Y-35085588D01*
X32061388Y-35070284D01*
X30616221Y-33625118D01*
X30616221Y-23703761D01*
X30618585Y-23679760D01*
X30616221Y-23655759D01*
X30616221Y-23655747D01*
X30609146Y-23583910D01*
X30581187Y-23491743D01*
X30554866Y-23442500D01*
X30535784Y-23406800D01*
X30493261Y-23354987D01*
X30474683Y-23332349D01*
X30456030Y-23317041D01*
X27792379Y-20653390D01*
X27777071Y-20634737D01*
X27702619Y-20573636D01*
X27617677Y-20528233D01*
X27525510Y-20500274D01*
X27453673Y-20493199D01*
X27453662Y-20493199D01*
X27429659Y-20490835D01*
X27405656Y-20493199D01*
X26472778Y-20493199D01*
X26453057Y-20473478D01*
X26426899Y-20456000D01*
X35052379Y-20456000D01*
X35017920Y-20484280D01*
G36*
X60051940Y-28082122D02*
G01*
X60051941Y-28494315D01*
X59558241Y-28988016D01*
X59539588Y-29003324D01*
X59478487Y-29077776D01*
X59433084Y-29162719D01*
X59405125Y-29254886D01*
X59400874Y-29298047D01*
X59358033Y-29340888D01*
X59283506Y-29452426D01*
X59232171Y-29576360D01*
X59206000Y-29707927D01*
X59206000Y-29842073D01*
X59232171Y-29973640D01*
X59254157Y-30026719D01*
X59254157Y-30742000D01*
X59261513Y-30816689D01*
X59283299Y-30888508D01*
X59318678Y-30954696D01*
X59366289Y-31012711D01*
X59424304Y-31060322D01*
X59490492Y-31095701D01*
X59562311Y-31117487D01*
X59637000Y-31124843D01*
X60137000Y-31124843D01*
X60211689Y-31117487D01*
X60283508Y-31095701D01*
X60312000Y-31080471D01*
X60340492Y-31095701D01*
X60412311Y-31117487D01*
X60487000Y-31124843D01*
X60887000Y-31124843D01*
X60961689Y-31117487D01*
X61033508Y-31095701D01*
X61087000Y-31067108D01*
X61140492Y-31095701D01*
X61212311Y-31117487D01*
X61287000Y-31124843D01*
X61687000Y-31124843D01*
X61761689Y-31117487D01*
X61833508Y-31095701D01*
X61862000Y-31080471D01*
X61890492Y-31095701D01*
X61962311Y-31117487D01*
X62037000Y-31124843D01*
X62537000Y-31124843D01*
X62611689Y-31117487D01*
X62683508Y-31095701D01*
X62749696Y-31060322D01*
X62807711Y-31012711D01*
X62855322Y-30954696D01*
X62890701Y-30888508D01*
X62912487Y-30816689D01*
X62919843Y-30742000D01*
X62919843Y-30039719D01*
X62941829Y-29986640D01*
X62968000Y-29855073D01*
X62968000Y-29720927D01*
X62941829Y-29589360D01*
X62890494Y-29465426D01*
X62815967Y-29353888D01*
X62773126Y-29311047D01*
X62768875Y-29267886D01*
X62740916Y-29175718D01*
X62721400Y-29139206D01*
X62695514Y-29090775D01*
X62649720Y-29034976D01*
X62649716Y-29034972D01*
X62634412Y-29016324D01*
X62615764Y-29001020D01*
X62344260Y-28729517D01*
X62344260Y-27973301D01*
X63077747Y-27973301D01*
X63077747Y-28322000D01*
X63085103Y-28396689D01*
X63092781Y-28422000D01*
X63085103Y-28447311D01*
X63077747Y-28522000D01*
X63077747Y-28972000D01*
X63085103Y-29046689D01*
X63106889Y-29118508D01*
X63142268Y-29184696D01*
X63189879Y-29242711D01*
X63247894Y-29290322D01*
X63314082Y-29325701D01*
X63385901Y-29347487D01*
X63460590Y-29354843D01*
X64910590Y-29354843D01*
X64985279Y-29347487D01*
X65050302Y-29327763D01*
X65050302Y-31794218D01*
X60536890Y-36307631D01*
X60518237Y-36322939D01*
X60457136Y-36397391D01*
X60411733Y-36482334D01*
X60383774Y-36574501D01*
X60376699Y-36646338D01*
X60376699Y-36646348D01*
X60374335Y-36670351D01*
X60376699Y-36694354D01*
X60376699Y-37305809D01*
X60310660Y-37225340D01*
X60123216Y-37071509D01*
X59924950Y-36965533D01*
X59924950Y-35762529D01*
X61015764Y-34671716D01*
X61034412Y-34656412D01*
X61049716Y-34637764D01*
X61049720Y-34637760D01*
X61095513Y-34581961D01*
X61139023Y-34500559D01*
X61140916Y-34497018D01*
X61168875Y-34404851D01*
X61175950Y-34333014D01*
X61175950Y-34333004D01*
X61178314Y-34309001D01*
X61175950Y-34284998D01*
X61175950Y-33382137D01*
X61269360Y-33420829D01*
X61400927Y-33447000D01*
X61535073Y-33447000D01*
X61666640Y-33420829D01*
X61790574Y-33369494D01*
X61873450Y-33314118D01*
X61956326Y-33369494D01*
X62080260Y-33420829D01*
X62211827Y-33447000D01*
X62345973Y-33447000D01*
X62477540Y-33420829D01*
X62601474Y-33369494D01*
X62713012Y-33294967D01*
X62807867Y-33200112D01*
X62882394Y-33088574D01*
X62933729Y-32964640D01*
X62959900Y-32833073D01*
X62959900Y-32698927D01*
X62933729Y-32567360D01*
X62919843Y-32533836D01*
X62919843Y-31742000D01*
X62912487Y-31667311D01*
X62890701Y-31595492D01*
X62855322Y-31529304D01*
X62807711Y-31471289D01*
X62749696Y-31423678D01*
X62683508Y-31388299D01*
X62611689Y-31366513D01*
X62537000Y-31359157D01*
X62037000Y-31359157D01*
X61962311Y-31366513D01*
X61890492Y-31388299D01*
X61862000Y-31403529D01*
X61833508Y-31388299D01*
X61761689Y-31366513D01*
X61687000Y-31359157D01*
X61287000Y-31359157D01*
X61212311Y-31366513D01*
X61140492Y-31388299D01*
X61087000Y-31416892D01*
X61033508Y-31388299D01*
X60961689Y-31366513D01*
X60887000Y-31359157D01*
X60487000Y-31359157D01*
X60412311Y-31366513D01*
X60340492Y-31388299D01*
X60312000Y-31403529D01*
X60283508Y-31388299D01*
X60211689Y-31366513D01*
X60137000Y-31359157D01*
X59637000Y-31359157D01*
X59562311Y-31366513D01*
X59490492Y-31388299D01*
X59424304Y-31423678D01*
X59366289Y-31471289D01*
X59318678Y-31529304D01*
X59283299Y-31595492D01*
X59261513Y-31667311D01*
X59254157Y-31742000D01*
X59254157Y-32542000D01*
X59256487Y-32565656D01*
X59232171Y-32624360D01*
X59206000Y-32755927D01*
X59206000Y-32890073D01*
X59232171Y-33021640D01*
X59283506Y-33145574D01*
X59358033Y-33257112D01*
X59398050Y-33297129D01*
X59398051Y-34144469D01*
X57996890Y-35545631D01*
X57978237Y-35560939D01*
X57917136Y-35635391D01*
X57871733Y-35720334D01*
X57843774Y-35812501D01*
X57836699Y-35884338D01*
X57836699Y-35884348D01*
X57834335Y-35908351D01*
X57836699Y-35932354D01*
X57836699Y-37305809D01*
X57770660Y-37225340D01*
X57583216Y-37071509D01*
X57384950Y-36965533D01*
X57384950Y-33440631D01*
X57385845Y-33438957D01*
X57413804Y-33346790D01*
X57420879Y-33274953D01*
X57420879Y-33274940D01*
X57423243Y-33250940D01*
X57420879Y-33226939D01*
X57420879Y-29327763D01*
X57485901Y-29347487D01*
X57560590Y-29354843D01*
X59010590Y-29354843D01*
X59085279Y-29347487D01*
X59157098Y-29325701D01*
X59223286Y-29290322D01*
X59281301Y-29242711D01*
X59328912Y-29184696D01*
X59364291Y-29118508D01*
X59386077Y-29046689D01*
X59393433Y-28972000D01*
X59393433Y-28522000D01*
X59386077Y-28447311D01*
X59378399Y-28422000D01*
X59386077Y-28396689D01*
X59393433Y-28322000D01*
X59393433Y-27973301D01*
X59943120Y-27973301D01*
X60051940Y-28082122D01*
X60051940Y-28082122D01*
G37*
X60051940Y-28082122D02*
X60051941Y-28494315D01*
X59558241Y-28988016D01*
X59539588Y-29003324D01*
X59478487Y-29077776D01*
X59433084Y-29162719D01*
X59405125Y-29254886D01*
X59400874Y-29298047D01*
X59358033Y-29340888D01*
X59283506Y-29452426D01*
X59232171Y-29576360D01*
X59206000Y-29707927D01*
X59206000Y-29842073D01*
X59232171Y-29973640D01*
X59254157Y-30026719D01*
X59254157Y-30742000D01*
X59261513Y-30816689D01*
X59283299Y-30888508D01*
X59318678Y-30954696D01*
X59366289Y-31012711D01*
X59424304Y-31060322D01*
X59490492Y-31095701D01*
X59562311Y-31117487D01*
X59637000Y-31124843D01*
X60137000Y-31124843D01*
X60211689Y-31117487D01*
X60283508Y-31095701D01*
X60312000Y-31080471D01*
X60340492Y-31095701D01*
X60412311Y-31117487D01*
X60487000Y-31124843D01*
X60887000Y-31124843D01*
X60961689Y-31117487D01*
X61033508Y-31095701D01*
X61087000Y-31067108D01*
X61140492Y-31095701D01*
X61212311Y-31117487D01*
X61287000Y-31124843D01*
X61687000Y-31124843D01*
X61761689Y-31117487D01*
X61833508Y-31095701D01*
X61862000Y-31080471D01*
X61890492Y-31095701D01*
X61962311Y-31117487D01*
X62037000Y-31124843D01*
X62537000Y-31124843D01*
X62611689Y-31117487D01*
X62683508Y-31095701D01*
X62749696Y-31060322D01*
X62807711Y-31012711D01*
X62855322Y-30954696D01*
X62890701Y-30888508D01*
X62912487Y-30816689D01*
X62919843Y-30742000D01*
X62919843Y-30039719D01*
X62941829Y-29986640D01*
X62968000Y-29855073D01*
X62968000Y-29720927D01*
X62941829Y-29589360D01*
X62890494Y-29465426D01*
X62815967Y-29353888D01*
X62773126Y-29311047D01*
X62768875Y-29267886D01*
X62740916Y-29175718D01*
X62721400Y-29139206D01*
X62695514Y-29090775D01*
X62649720Y-29034976D01*
X62649716Y-29034972D01*
X62634412Y-29016324D01*
X62615764Y-29001020D01*
X62344260Y-28729517D01*
X62344260Y-27973301D01*
X63077747Y-27973301D01*
X63077747Y-28322000D01*
X63085103Y-28396689D01*
X63092781Y-28422000D01*
X63085103Y-28447311D01*
X63077747Y-28522000D01*
X63077747Y-28972000D01*
X63085103Y-29046689D01*
X63106889Y-29118508D01*
X63142268Y-29184696D01*
X63189879Y-29242711D01*
X63247894Y-29290322D01*
X63314082Y-29325701D01*
X63385901Y-29347487D01*
X63460590Y-29354843D01*
X64910590Y-29354843D01*
X64985279Y-29347487D01*
X65050302Y-29327763D01*
X65050302Y-31794218D01*
X60536890Y-36307631D01*
X60518237Y-36322939D01*
X60457136Y-36397391D01*
X60411733Y-36482334D01*
X60383774Y-36574501D01*
X60376699Y-36646338D01*
X60376699Y-36646348D01*
X60374335Y-36670351D01*
X60376699Y-36694354D01*
X60376699Y-37305809D01*
X60310660Y-37225340D01*
X60123216Y-37071509D01*
X59924950Y-36965533D01*
X59924950Y-35762529D01*
X61015764Y-34671716D01*
X61034412Y-34656412D01*
X61049716Y-34637764D01*
X61049720Y-34637760D01*
X61095513Y-34581961D01*
X61139023Y-34500559D01*
X61140916Y-34497018D01*
X61168875Y-34404851D01*
X61175950Y-34333014D01*
X61175950Y-34333004D01*
X61178314Y-34309001D01*
X61175950Y-34284998D01*
X61175950Y-33382137D01*
X61269360Y-33420829D01*
X61400927Y-33447000D01*
X61535073Y-33447000D01*
X61666640Y-33420829D01*
X61790574Y-33369494D01*
X61873450Y-33314118D01*
X61956326Y-33369494D01*
X62080260Y-33420829D01*
X62211827Y-33447000D01*
X62345973Y-33447000D01*
X62477540Y-33420829D01*
X62601474Y-33369494D01*
X62713012Y-33294967D01*
X62807867Y-33200112D01*
X62882394Y-33088574D01*
X62933729Y-32964640D01*
X62959900Y-32833073D01*
X62959900Y-32698927D01*
X62933729Y-32567360D01*
X62919843Y-32533836D01*
X62919843Y-31742000D01*
X62912487Y-31667311D01*
X62890701Y-31595492D01*
X62855322Y-31529304D01*
X62807711Y-31471289D01*
X62749696Y-31423678D01*
X62683508Y-31388299D01*
X62611689Y-31366513D01*
X62537000Y-31359157D01*
X62037000Y-31359157D01*
X61962311Y-31366513D01*
X61890492Y-31388299D01*
X61862000Y-31403529D01*
X61833508Y-31388299D01*
X61761689Y-31366513D01*
X61687000Y-31359157D01*
X61287000Y-31359157D01*
X61212311Y-31366513D01*
X61140492Y-31388299D01*
X61087000Y-31416892D01*
X61033508Y-31388299D01*
X60961689Y-31366513D01*
X60887000Y-31359157D01*
X60487000Y-31359157D01*
X60412311Y-31366513D01*
X60340492Y-31388299D01*
X60312000Y-31403529D01*
X60283508Y-31388299D01*
X60211689Y-31366513D01*
X60137000Y-31359157D01*
X59637000Y-31359157D01*
X59562311Y-31366513D01*
X59490492Y-31388299D01*
X59424304Y-31423678D01*
X59366289Y-31471289D01*
X59318678Y-31529304D01*
X59283299Y-31595492D01*
X59261513Y-31667311D01*
X59254157Y-31742000D01*
X59254157Y-32542000D01*
X59256487Y-32565656D01*
X59232171Y-32624360D01*
X59206000Y-32755927D01*
X59206000Y-32890073D01*
X59232171Y-33021640D01*
X59283506Y-33145574D01*
X59358033Y-33257112D01*
X59398050Y-33297129D01*
X59398051Y-34144469D01*
X57996890Y-35545631D01*
X57978237Y-35560939D01*
X57917136Y-35635391D01*
X57871733Y-35720334D01*
X57843774Y-35812501D01*
X57836699Y-35884338D01*
X57836699Y-35884348D01*
X57834335Y-35908351D01*
X57836699Y-35932354D01*
X57836699Y-37305809D01*
X57770660Y-37225340D01*
X57583216Y-37071509D01*
X57384950Y-36965533D01*
X57384950Y-33440631D01*
X57385845Y-33438957D01*
X57413804Y-33346790D01*
X57420879Y-33274953D01*
X57420879Y-33274940D01*
X57423243Y-33250940D01*
X57420879Y-33226939D01*
X57420879Y-29327763D01*
X57485901Y-29347487D01*
X57560590Y-29354843D01*
X59010590Y-29354843D01*
X59085279Y-29347487D01*
X59157098Y-29325701D01*
X59223286Y-29290322D01*
X59281301Y-29242711D01*
X59328912Y-29184696D01*
X59364291Y-29118508D01*
X59386077Y-29046689D01*
X59393433Y-28972000D01*
X59393433Y-28522000D01*
X59386077Y-28447311D01*
X59378399Y-28422000D01*
X59386077Y-28396689D01*
X59393433Y-28322000D01*
X59393433Y-27973301D01*
X59943120Y-27973301D01*
X60051940Y-28082122D01*
G36*
X46853259Y-20467491D02*
G01*
X46795849Y-20498177D01*
X46740050Y-20543970D01*
X46740046Y-20543974D01*
X46721398Y-20559278D01*
X46706094Y-20577926D01*
X44030480Y-23253541D01*
X44011827Y-23268849D01*
X43950726Y-23343301D01*
X43905323Y-23428244D01*
X43877364Y-23520411D01*
X43870289Y-23592248D01*
X43870289Y-23592258D01*
X43867925Y-23616261D01*
X43870289Y-23640264D01*
X43870289Y-23942748D01*
X43870290Y-27244738D01*
X43870289Y-27244748D01*
X43870290Y-35953226D01*
X43867925Y-35977239D01*
X43870290Y-36001252D01*
X43870290Y-36001253D01*
X43877365Y-36073090D01*
X43900365Y-36148908D01*
X43905324Y-36165257D01*
X43950726Y-36250199D01*
X43996519Y-36305998D01*
X43996524Y-36306003D01*
X44011828Y-36324651D01*
X44030476Y-36339955D01*
X44638300Y-36947779D01*
X44437318Y-36886812D01*
X44256472Y-36869000D01*
X44135528Y-36869000D01*
X43954682Y-36886812D01*
X43739551Y-36952071D01*
X42412521Y-35625042D01*
X42412521Y-23887654D01*
X42414885Y-23863651D01*
X42412521Y-23839648D01*
X42412521Y-23839637D01*
X42405446Y-23767800D01*
X42377487Y-23675633D01*
X42353373Y-23630519D01*
X42332085Y-23590690D01*
X42286291Y-23534891D01*
X42286287Y-23534887D01*
X42270983Y-23516239D01*
X42252335Y-23500935D01*
X39231640Y-20480241D01*
X39216332Y-20461588D01*
X39209523Y-20456000D01*
X46874757Y-20456000D01*
X46853259Y-20467491D01*
X46853259Y-20467491D01*
G37*
X46853259Y-20467491D02*
X46795849Y-20498177D01*
X46740050Y-20543970D01*
X46740046Y-20543974D01*
X46721398Y-20559278D01*
X46706094Y-20577926D01*
X44030480Y-23253541D01*
X44011827Y-23268849D01*
X43950726Y-23343301D01*
X43905323Y-23428244D01*
X43877364Y-23520411D01*
X43870289Y-23592248D01*
X43870289Y-23592258D01*
X43867925Y-23616261D01*
X43870289Y-23640264D01*
X43870289Y-23942748D01*
X43870290Y-27244738D01*
X43870289Y-27244748D01*
X43870290Y-35953226D01*
X43867925Y-35977239D01*
X43870290Y-36001252D01*
X43870290Y-36001253D01*
X43877365Y-36073090D01*
X43900365Y-36148908D01*
X43905324Y-36165257D01*
X43950726Y-36250199D01*
X43996519Y-36305998D01*
X43996524Y-36306003D01*
X44011828Y-36324651D01*
X44030476Y-36339955D01*
X44638300Y-36947779D01*
X44437318Y-36886812D01*
X44256472Y-36869000D01*
X44135528Y-36869000D01*
X43954682Y-36886812D01*
X43739551Y-36952071D01*
X42412521Y-35625042D01*
X42412521Y-23887654D01*
X42414885Y-23863651D01*
X42412521Y-23839648D01*
X42412521Y-23839637D01*
X42405446Y-23767800D01*
X42377487Y-23675633D01*
X42353373Y-23630519D01*
X42332085Y-23590690D01*
X42286291Y-23534891D01*
X42286287Y-23534887D01*
X42270983Y-23516239D01*
X42252335Y-23500935D01*
X39231640Y-20480241D01*
X39216332Y-20461588D01*
X39209523Y-20456000D01*
X46874757Y-20456000D01*
X46853259Y-20467491D01*
G36*
X24142740Y-28711540D02*
G01*
X24142741Y-29221000D01*
X24132927Y-29221000D01*
X24001360Y-29247171D01*
X23877426Y-29298506D01*
X23765888Y-29373033D01*
X23671033Y-29467888D01*
X23596506Y-29579426D01*
X23545171Y-29703360D01*
X23519000Y-29834927D01*
X23519000Y-29969073D01*
X23545171Y-30100640D01*
X23567157Y-30153719D01*
X23567157Y-30932500D01*
X23574513Y-31007189D01*
X23596299Y-31079008D01*
X23631678Y-31145196D01*
X23679289Y-31203211D01*
X23737304Y-31250822D01*
X23803492Y-31286201D01*
X23875311Y-31307987D01*
X23950000Y-31315343D01*
X24450000Y-31315343D01*
X24524689Y-31307987D01*
X24596508Y-31286201D01*
X24625000Y-31270971D01*
X24653492Y-31286201D01*
X24725311Y-31307987D01*
X24800000Y-31315343D01*
X25200000Y-31315343D01*
X25274689Y-31307987D01*
X25346508Y-31286201D01*
X25400000Y-31257608D01*
X25453492Y-31286201D01*
X25525311Y-31307987D01*
X25600000Y-31315343D01*
X26000000Y-31315343D01*
X26074689Y-31307987D01*
X26146508Y-31286201D01*
X26175000Y-31270971D01*
X26203492Y-31286201D01*
X26275311Y-31307987D01*
X26350000Y-31315343D01*
X26850000Y-31315343D01*
X26924689Y-31307987D01*
X26996508Y-31286201D01*
X27062696Y-31250822D01*
X27120711Y-31203211D01*
X27168322Y-31145196D01*
X27203701Y-31079008D01*
X27225487Y-31007189D01*
X27232843Y-30932500D01*
X27232843Y-30166719D01*
X27254829Y-30113640D01*
X27281000Y-29982073D01*
X27281000Y-29847927D01*
X27254829Y-29716360D01*
X27203494Y-29592426D01*
X27128967Y-29480888D01*
X27034112Y-29386033D01*
X26922574Y-29311506D01*
X26798640Y-29260171D01*
X26701750Y-29240898D01*
X26701750Y-28837209D01*
X27297457Y-28241502D01*
X27297457Y-28512500D01*
X27304813Y-28587189D01*
X27312491Y-28612500D01*
X27304813Y-28637811D01*
X27297457Y-28712500D01*
X27297457Y-29162500D01*
X27304813Y-29237189D01*
X27326599Y-29309008D01*
X27361978Y-29375196D01*
X27409589Y-29433211D01*
X27467604Y-29480822D01*
X27533792Y-29516201D01*
X27605611Y-29537987D01*
X27680300Y-29545343D01*
X29130300Y-29545343D01*
X29204989Y-29537987D01*
X29270011Y-29518263D01*
X29270012Y-34052948D01*
X29267647Y-34076961D01*
X29270012Y-34100974D01*
X29270012Y-34100975D01*
X29277087Y-34172812D01*
X29283439Y-34193750D01*
X29305046Y-34264979D01*
X29350448Y-34349921D01*
X29396241Y-34405720D01*
X29396246Y-34405725D01*
X29411550Y-34424373D01*
X29430198Y-34439677D01*
X30844460Y-35853940D01*
X30844461Y-36270077D01*
X30842096Y-36294090D01*
X30844461Y-36318103D01*
X30844461Y-36318104D01*
X30851536Y-36389941D01*
X30867810Y-36443588D01*
X30879495Y-36482108D01*
X30924897Y-36567050D01*
X30970690Y-36622849D01*
X30970695Y-36622854D01*
X30985999Y-36641502D01*
X31004647Y-36656806D01*
X31239314Y-36891474D01*
X31039550Y-36952071D01*
X30937969Y-36850490D01*
X30922662Y-36831838D01*
X30848210Y-36770737D01*
X30763268Y-36725334D01*
X30671101Y-36697375D01*
X30599264Y-36690300D01*
X30599253Y-36690300D01*
X30575250Y-36687936D01*
X30551247Y-36690300D01*
X30401968Y-36690300D01*
X27088950Y-33377283D01*
X27088950Y-33029276D01*
X27120711Y-33003211D01*
X27168322Y-32945196D01*
X27203701Y-32879008D01*
X27225487Y-32807189D01*
X27232843Y-32732500D01*
X27232843Y-31932500D01*
X27225487Y-31857811D01*
X27203701Y-31785992D01*
X27168322Y-31719804D01*
X27120711Y-31661789D01*
X27062696Y-31614178D01*
X26996508Y-31578799D01*
X26924689Y-31557013D01*
X26850000Y-31549657D01*
X26350000Y-31549657D01*
X26275311Y-31557013D01*
X26203492Y-31578799D01*
X26175000Y-31594029D01*
X26146508Y-31578799D01*
X26074689Y-31557013D01*
X26000000Y-31549657D01*
X25600000Y-31549657D01*
X25525311Y-31557013D01*
X25453492Y-31578799D01*
X25400000Y-31607392D01*
X25346508Y-31578799D01*
X25274689Y-31557013D01*
X25200000Y-31549657D01*
X24800000Y-31549657D01*
X24725311Y-31557013D01*
X24653492Y-31578799D01*
X24625000Y-31594029D01*
X24596508Y-31578799D01*
X24524689Y-31557013D01*
X24450000Y-31549657D01*
X23950000Y-31549657D01*
X23875311Y-31557013D01*
X23803492Y-31578799D01*
X23737304Y-31614178D01*
X23679289Y-31661789D01*
X23631678Y-31719804D01*
X23596299Y-31785992D01*
X23574513Y-31857811D01*
X23567157Y-31932500D01*
X23567157Y-32279525D01*
X23533030Y-32261284D01*
X23440863Y-32233325D01*
X23369026Y-32226250D01*
X23369015Y-32226250D01*
X23345012Y-32223886D01*
X23321009Y-32226250D01*
X22668998Y-32226250D01*
X21640589Y-31197842D01*
X21640589Y-29518263D01*
X21705611Y-29537987D01*
X21780300Y-29545343D01*
X23230300Y-29545343D01*
X23304989Y-29537987D01*
X23376808Y-29516201D01*
X23442996Y-29480822D01*
X23501011Y-29433211D01*
X23548622Y-29375196D01*
X23584001Y-29309008D01*
X23605787Y-29237189D01*
X23613143Y-29162500D01*
X23613143Y-28712500D01*
X23605787Y-28637811D01*
X23598109Y-28612500D01*
X23605787Y-28587189D01*
X23613143Y-28512500D01*
X23613143Y-28181942D01*
X24142740Y-28711540D01*
X24142740Y-28711540D01*
G37*
X24142740Y-28711540D02*
X24142741Y-29221000D01*
X24132927Y-29221000D01*
X24001360Y-29247171D01*
X23877426Y-29298506D01*
X23765888Y-29373033D01*
X23671033Y-29467888D01*
X23596506Y-29579426D01*
X23545171Y-29703360D01*
X23519000Y-29834927D01*
X23519000Y-29969073D01*
X23545171Y-30100640D01*
X23567157Y-30153719D01*
X23567157Y-30932500D01*
X23574513Y-31007189D01*
X23596299Y-31079008D01*
X23631678Y-31145196D01*
X23679289Y-31203211D01*
X23737304Y-31250822D01*
X23803492Y-31286201D01*
X23875311Y-31307987D01*
X23950000Y-31315343D01*
X24450000Y-31315343D01*
X24524689Y-31307987D01*
X24596508Y-31286201D01*
X24625000Y-31270971D01*
X24653492Y-31286201D01*
X24725311Y-31307987D01*
X24800000Y-31315343D01*
X25200000Y-31315343D01*
X25274689Y-31307987D01*
X25346508Y-31286201D01*
X25400000Y-31257608D01*
X25453492Y-31286201D01*
X25525311Y-31307987D01*
X25600000Y-31315343D01*
X26000000Y-31315343D01*
X26074689Y-31307987D01*
X26146508Y-31286201D01*
X26175000Y-31270971D01*
X26203492Y-31286201D01*
X26275311Y-31307987D01*
X26350000Y-31315343D01*
X26850000Y-31315343D01*
X26924689Y-31307987D01*
X26996508Y-31286201D01*
X27062696Y-31250822D01*
X27120711Y-31203211D01*
X27168322Y-31145196D01*
X27203701Y-31079008D01*
X27225487Y-31007189D01*
X27232843Y-30932500D01*
X27232843Y-30166719D01*
X27254829Y-30113640D01*
X27281000Y-29982073D01*
X27281000Y-29847927D01*
X27254829Y-29716360D01*
X27203494Y-29592426D01*
X27128967Y-29480888D01*
X27034112Y-29386033D01*
X26922574Y-29311506D01*
X26798640Y-29260171D01*
X26701750Y-29240898D01*
X26701750Y-28837209D01*
X27297457Y-28241502D01*
X27297457Y-28512500D01*
X27304813Y-28587189D01*
X27312491Y-28612500D01*
X27304813Y-28637811D01*
X27297457Y-28712500D01*
X27297457Y-29162500D01*
X27304813Y-29237189D01*
X27326599Y-29309008D01*
X27361978Y-29375196D01*
X27409589Y-29433211D01*
X27467604Y-29480822D01*
X27533792Y-29516201D01*
X27605611Y-29537987D01*
X27680300Y-29545343D01*
X29130300Y-29545343D01*
X29204989Y-29537987D01*
X29270011Y-29518263D01*
X29270012Y-34052948D01*
X29267647Y-34076961D01*
X29270012Y-34100974D01*
X29270012Y-34100975D01*
X29277087Y-34172812D01*
X29283439Y-34193750D01*
X29305046Y-34264979D01*
X29350448Y-34349921D01*
X29396241Y-34405720D01*
X29396246Y-34405725D01*
X29411550Y-34424373D01*
X29430198Y-34439677D01*
X30844460Y-35853940D01*
X30844461Y-36270077D01*
X30842096Y-36294090D01*
X30844461Y-36318103D01*
X30844461Y-36318104D01*
X30851536Y-36389941D01*
X30867810Y-36443588D01*
X30879495Y-36482108D01*
X30924897Y-36567050D01*
X30970690Y-36622849D01*
X30970695Y-36622854D01*
X30985999Y-36641502D01*
X31004647Y-36656806D01*
X31239314Y-36891474D01*
X31039550Y-36952071D01*
X30937969Y-36850490D01*
X30922662Y-36831838D01*
X30848210Y-36770737D01*
X30763268Y-36725334D01*
X30671101Y-36697375D01*
X30599264Y-36690300D01*
X30599253Y-36690300D01*
X30575250Y-36687936D01*
X30551247Y-36690300D01*
X30401968Y-36690300D01*
X27088950Y-33377283D01*
X27088950Y-33029276D01*
X27120711Y-33003211D01*
X27168322Y-32945196D01*
X27203701Y-32879008D01*
X27225487Y-32807189D01*
X27232843Y-32732500D01*
X27232843Y-31932500D01*
X27225487Y-31857811D01*
X27203701Y-31785992D01*
X27168322Y-31719804D01*
X27120711Y-31661789D01*
X27062696Y-31614178D01*
X26996508Y-31578799D01*
X26924689Y-31557013D01*
X26850000Y-31549657D01*
X26350000Y-31549657D01*
X26275311Y-31557013D01*
X26203492Y-31578799D01*
X26175000Y-31594029D01*
X26146508Y-31578799D01*
X26074689Y-31557013D01*
X26000000Y-31549657D01*
X25600000Y-31549657D01*
X25525311Y-31557013D01*
X25453492Y-31578799D01*
X25400000Y-31607392D01*
X25346508Y-31578799D01*
X25274689Y-31557013D01*
X25200000Y-31549657D01*
X24800000Y-31549657D01*
X24725311Y-31557013D01*
X24653492Y-31578799D01*
X24625000Y-31594029D01*
X24596508Y-31578799D01*
X24524689Y-31557013D01*
X24450000Y-31549657D01*
X23950000Y-31549657D01*
X23875311Y-31557013D01*
X23803492Y-31578799D01*
X23737304Y-31614178D01*
X23679289Y-31661789D01*
X23631678Y-31719804D01*
X23596299Y-31785992D01*
X23574513Y-31857811D01*
X23567157Y-31932500D01*
X23567157Y-32279525D01*
X23533030Y-32261284D01*
X23440863Y-32233325D01*
X23369026Y-32226250D01*
X23369015Y-32226250D01*
X23345012Y-32223886D01*
X23321009Y-32226250D01*
X22668998Y-32226250D01*
X21640589Y-31197842D01*
X21640589Y-29518263D01*
X21705611Y-29537987D01*
X21780300Y-29545343D01*
X23230300Y-29545343D01*
X23304989Y-29537987D01*
X23376808Y-29516201D01*
X23442996Y-29480822D01*
X23501011Y-29433211D01*
X23548622Y-29375196D01*
X23584001Y-29309008D01*
X23605787Y-29237189D01*
X23613143Y-29162500D01*
X23613143Y-28712500D01*
X23605787Y-28637811D01*
X23598109Y-28612500D01*
X23605787Y-28587189D01*
X23613143Y-28512500D01*
X23613143Y-28181942D01*
X24142740Y-28711540D01*
G36*
X39093757Y-28385500D02*
G01*
X39101113Y-28460189D01*
X39108791Y-28485500D01*
X39101113Y-28510811D01*
X39093757Y-28585500D01*
X39093757Y-29035500D01*
X39101113Y-29110189D01*
X39122899Y-29182008D01*
X39158278Y-29248196D01*
X39205889Y-29306211D01*
X39263904Y-29353822D01*
X39330092Y-29389201D01*
X39401911Y-29410987D01*
X39476600Y-29418343D01*
X40926600Y-29418343D01*
X41001289Y-29410987D01*
X41066311Y-29391263D01*
X41066312Y-36197248D01*
X41063947Y-36221261D01*
X41066312Y-36245274D01*
X41066312Y-36245275D01*
X41073387Y-36317112D01*
X41095480Y-36389941D01*
X41101346Y-36409279D01*
X41146748Y-36494221D01*
X41192541Y-36550020D01*
X41192546Y-36550025D01*
X41207850Y-36568673D01*
X41226498Y-36583977D01*
X41519053Y-36876532D01*
X41414682Y-36886812D01*
X41199551Y-36952071D01*
X38772950Y-34525471D01*
X38772950Y-33310129D01*
X38812967Y-33270112D01*
X38887494Y-33158574D01*
X38938829Y-33034640D01*
X38965000Y-32903073D01*
X38965000Y-32768927D01*
X38938829Y-32637360D01*
X38916843Y-32584281D01*
X38916843Y-31805500D01*
X38909487Y-31730811D01*
X38887701Y-31658992D01*
X38852322Y-31592804D01*
X38804711Y-31534789D01*
X38746696Y-31487178D01*
X38680508Y-31451799D01*
X38608689Y-31430013D01*
X38534000Y-31422657D01*
X38034000Y-31422657D01*
X37959311Y-31430013D01*
X37887492Y-31451799D01*
X37859000Y-31467029D01*
X37830508Y-31451799D01*
X37758689Y-31430013D01*
X37684000Y-31422657D01*
X37284000Y-31422657D01*
X37209311Y-31430013D01*
X37137492Y-31451799D01*
X37084000Y-31480392D01*
X37030508Y-31451799D01*
X36958689Y-31430013D01*
X36884000Y-31422657D01*
X36484000Y-31422657D01*
X36409311Y-31430013D01*
X36337492Y-31451799D01*
X36309000Y-31467029D01*
X36280508Y-31451799D01*
X36208689Y-31430013D01*
X36134000Y-31422657D01*
X35634000Y-31422657D01*
X35559311Y-31430013D01*
X35487492Y-31451799D01*
X35421304Y-31487178D01*
X35363289Y-31534789D01*
X35315678Y-31592804D01*
X35280299Y-31658992D01*
X35258513Y-31730811D01*
X35251157Y-31805500D01*
X35251157Y-32605500D01*
X35258513Y-32680189D01*
X35280299Y-32752008D01*
X35315678Y-32818196D01*
X35363289Y-32876211D01*
X35395050Y-32902276D01*
X35395051Y-35025491D01*
X33436889Y-33067330D01*
X33436889Y-29391263D01*
X33501911Y-29410987D01*
X33576600Y-29418343D01*
X35026600Y-29418343D01*
X35101289Y-29410987D01*
X35173108Y-29389201D01*
X35239296Y-29353822D01*
X35297311Y-29306211D01*
X35344922Y-29248196D01*
X35380301Y-29182008D01*
X35402087Y-29110189D01*
X35409443Y-29035500D01*
X35409443Y-28585500D01*
X35402087Y-28510811D01*
X35394409Y-28485500D01*
X35402087Y-28460189D01*
X35409443Y-28385500D01*
X35409443Y-28368922D01*
X35826740Y-28786220D01*
X35826741Y-29094000D01*
X35816927Y-29094000D01*
X35685360Y-29120171D01*
X35561426Y-29171506D01*
X35449888Y-29246033D01*
X35355033Y-29340888D01*
X35280506Y-29452426D01*
X35229171Y-29576360D01*
X35203000Y-29707927D01*
X35203000Y-29842073D01*
X35229171Y-29973640D01*
X35251157Y-30026719D01*
X35251157Y-30805500D01*
X35258513Y-30880189D01*
X35280299Y-30952008D01*
X35315678Y-31018196D01*
X35363289Y-31076211D01*
X35421304Y-31123822D01*
X35487492Y-31159201D01*
X35559311Y-31180987D01*
X35634000Y-31188343D01*
X36134000Y-31188343D01*
X36208689Y-31180987D01*
X36280508Y-31159201D01*
X36309000Y-31143971D01*
X36337492Y-31159201D01*
X36409311Y-31180987D01*
X36484000Y-31188343D01*
X36884000Y-31188343D01*
X36958689Y-31180987D01*
X37030508Y-31159201D01*
X37084000Y-31130608D01*
X37137492Y-31159201D01*
X37209311Y-31180987D01*
X37284000Y-31188343D01*
X37684000Y-31188343D01*
X37758689Y-31180987D01*
X37830508Y-31159201D01*
X37859000Y-31143971D01*
X37887492Y-31159201D01*
X37959311Y-31180987D01*
X38034000Y-31188343D01*
X38534000Y-31188343D01*
X38608689Y-31180987D01*
X38680508Y-31159201D01*
X38746696Y-31123822D01*
X38804711Y-31076211D01*
X38852322Y-31018196D01*
X38887701Y-30952008D01*
X38909487Y-30880189D01*
X38916843Y-30805500D01*
X38916843Y-30041319D01*
X38938829Y-29988240D01*
X38965000Y-29856673D01*
X38965000Y-29722527D01*
X38938829Y-29590960D01*
X38887494Y-29467026D01*
X38812967Y-29355488D01*
X38718112Y-29260633D01*
X38606574Y-29186106D01*
X38482640Y-29134771D01*
X38351073Y-29108600D01*
X38341260Y-29108600D01*
X38341260Y-28187019D01*
X38491479Y-28036801D01*
X39093757Y-28036801D01*
X39093757Y-28385500D01*
X39093757Y-28385500D01*
G37*
X39093757Y-28385500D02*
X39101113Y-28460189D01*
X39108791Y-28485500D01*
X39101113Y-28510811D01*
X39093757Y-28585500D01*
X39093757Y-29035500D01*
X39101113Y-29110189D01*
X39122899Y-29182008D01*
X39158278Y-29248196D01*
X39205889Y-29306211D01*
X39263904Y-29353822D01*
X39330092Y-29389201D01*
X39401911Y-29410987D01*
X39476600Y-29418343D01*
X40926600Y-29418343D01*
X41001289Y-29410987D01*
X41066311Y-29391263D01*
X41066312Y-36197248D01*
X41063947Y-36221261D01*
X41066312Y-36245274D01*
X41066312Y-36245275D01*
X41073387Y-36317112D01*
X41095480Y-36389941D01*
X41101346Y-36409279D01*
X41146748Y-36494221D01*
X41192541Y-36550020D01*
X41192546Y-36550025D01*
X41207850Y-36568673D01*
X41226498Y-36583977D01*
X41519053Y-36876532D01*
X41414682Y-36886812D01*
X41199551Y-36952071D01*
X38772950Y-34525471D01*
X38772950Y-33310129D01*
X38812967Y-33270112D01*
X38887494Y-33158574D01*
X38938829Y-33034640D01*
X38965000Y-32903073D01*
X38965000Y-32768927D01*
X38938829Y-32637360D01*
X38916843Y-32584281D01*
X38916843Y-31805500D01*
X38909487Y-31730811D01*
X38887701Y-31658992D01*
X38852322Y-31592804D01*
X38804711Y-31534789D01*
X38746696Y-31487178D01*
X38680508Y-31451799D01*
X38608689Y-31430013D01*
X38534000Y-31422657D01*
X38034000Y-31422657D01*
X37959311Y-31430013D01*
X37887492Y-31451799D01*
X37859000Y-31467029D01*
X37830508Y-31451799D01*
X37758689Y-31430013D01*
X37684000Y-31422657D01*
X37284000Y-31422657D01*
X37209311Y-31430013D01*
X37137492Y-31451799D01*
X37084000Y-31480392D01*
X37030508Y-31451799D01*
X36958689Y-31430013D01*
X36884000Y-31422657D01*
X36484000Y-31422657D01*
X36409311Y-31430013D01*
X36337492Y-31451799D01*
X36309000Y-31467029D01*
X36280508Y-31451799D01*
X36208689Y-31430013D01*
X36134000Y-31422657D01*
X35634000Y-31422657D01*
X35559311Y-31430013D01*
X35487492Y-31451799D01*
X35421304Y-31487178D01*
X35363289Y-31534789D01*
X35315678Y-31592804D01*
X35280299Y-31658992D01*
X35258513Y-31730811D01*
X35251157Y-31805500D01*
X35251157Y-32605500D01*
X35258513Y-32680189D01*
X35280299Y-32752008D01*
X35315678Y-32818196D01*
X35363289Y-32876211D01*
X35395050Y-32902276D01*
X35395051Y-35025491D01*
X33436889Y-33067330D01*
X33436889Y-29391263D01*
X33501911Y-29410987D01*
X33576600Y-29418343D01*
X35026600Y-29418343D01*
X35101289Y-29410987D01*
X35173108Y-29389201D01*
X35239296Y-29353822D01*
X35297311Y-29306211D01*
X35344922Y-29248196D01*
X35380301Y-29182008D01*
X35402087Y-29110189D01*
X35409443Y-29035500D01*
X35409443Y-28585500D01*
X35402087Y-28510811D01*
X35394409Y-28485500D01*
X35402087Y-28460189D01*
X35409443Y-28385500D01*
X35409443Y-28368922D01*
X35826740Y-28786220D01*
X35826741Y-29094000D01*
X35816927Y-29094000D01*
X35685360Y-29120171D01*
X35561426Y-29171506D01*
X35449888Y-29246033D01*
X35355033Y-29340888D01*
X35280506Y-29452426D01*
X35229171Y-29576360D01*
X35203000Y-29707927D01*
X35203000Y-29842073D01*
X35229171Y-29973640D01*
X35251157Y-30026719D01*
X35251157Y-30805500D01*
X35258513Y-30880189D01*
X35280299Y-30952008D01*
X35315678Y-31018196D01*
X35363289Y-31076211D01*
X35421304Y-31123822D01*
X35487492Y-31159201D01*
X35559311Y-31180987D01*
X35634000Y-31188343D01*
X36134000Y-31188343D01*
X36208689Y-31180987D01*
X36280508Y-31159201D01*
X36309000Y-31143971D01*
X36337492Y-31159201D01*
X36409311Y-31180987D01*
X36484000Y-31188343D01*
X36884000Y-31188343D01*
X36958689Y-31180987D01*
X37030508Y-31159201D01*
X37084000Y-31130608D01*
X37137492Y-31159201D01*
X37209311Y-31180987D01*
X37284000Y-31188343D01*
X37684000Y-31188343D01*
X37758689Y-31180987D01*
X37830508Y-31159201D01*
X37859000Y-31143971D01*
X37887492Y-31159201D01*
X37959311Y-31180987D01*
X38034000Y-31188343D01*
X38534000Y-31188343D01*
X38608689Y-31180987D01*
X38680508Y-31159201D01*
X38746696Y-31123822D01*
X38804711Y-31076211D01*
X38852322Y-31018196D01*
X38887701Y-30952008D01*
X38909487Y-30880189D01*
X38916843Y-30805500D01*
X38916843Y-30041319D01*
X38938829Y-29988240D01*
X38965000Y-29856673D01*
X38965000Y-29722527D01*
X38938829Y-29590960D01*
X38887494Y-29467026D01*
X38812967Y-29355488D01*
X38718112Y-29260633D01*
X38606574Y-29186106D01*
X38482640Y-29134771D01*
X38351073Y-29108600D01*
X38341260Y-29108600D01*
X38341260Y-28187019D01*
X38491479Y-28036801D01*
X39093757Y-28036801D01*
X39093757Y-28385500D01*
G36*
X26396171Y-27249640D02*
G01*
X26447506Y-27373574D01*
X26522033Y-27485112D01*
X26596461Y-27559540D01*
X25884041Y-28271960D01*
X25865388Y-28287268D01*
X25857260Y-28297172D01*
X25857260Y-27412219D01*
X26045479Y-27224000D01*
X26102073Y-27224000D01*
X26233640Y-27197829D01*
X26357574Y-27146494D01*
X26373532Y-27135831D01*
X26396171Y-27249640D01*
X26396171Y-27249640D01*
G37*
X26396171Y-27249640D02*
X26447506Y-27373574D01*
X26522033Y-27485112D01*
X26596461Y-27559540D01*
X25884041Y-28271960D01*
X25865388Y-28287268D01*
X25857260Y-28297172D01*
X25857260Y-27412219D01*
X26045479Y-27224000D01*
X26102073Y-27224000D01*
X26233640Y-27197829D01*
X26357574Y-27146494D01*
X26373532Y-27135831D01*
X26396171Y-27249640D01*
G36*
X35999426Y-26765494D02*
G01*
X36123360Y-26816829D01*
X36195051Y-26831090D01*
X36195050Y-27515986D01*
X36195050Y-27771571D01*
X35646655Y-27223176D01*
X35661600Y-27148042D01*
X35661600Y-27131750D01*
X35502850Y-26973000D01*
X35246390Y-26973000D01*
X35239296Y-26967178D01*
X35173108Y-26931799D01*
X35101289Y-26910013D01*
X35026600Y-26902657D01*
X34154600Y-26902657D01*
X34154600Y-26818343D01*
X35026600Y-26818343D01*
X35101289Y-26810987D01*
X35173108Y-26789201D01*
X35239296Y-26753822D01*
X35246390Y-26748000D01*
X35502850Y-26748000D01*
X35551400Y-26699450D01*
X35900584Y-26699450D01*
X35999426Y-26765494D01*
X35999426Y-26765494D01*
G37*
X35999426Y-26765494D02*
X36123360Y-26816829D01*
X36195051Y-26831090D01*
X36195050Y-27515986D01*
X36195050Y-27771571D01*
X35646655Y-27223176D01*
X35661600Y-27148042D01*
X35661600Y-27131750D01*
X35502850Y-26973000D01*
X35246390Y-26973000D01*
X35239296Y-26967178D01*
X35173108Y-26931799D01*
X35101289Y-26910013D01*
X35026600Y-26902657D01*
X34154600Y-26902657D01*
X34154600Y-26818343D01*
X35026600Y-26818343D01*
X35101289Y-26810987D01*
X35173108Y-26789201D01*
X35239296Y-26753822D01*
X35246390Y-26748000D01*
X35502850Y-26748000D01*
X35551400Y-26699450D01*
X35900584Y-26699450D01*
X35999426Y-26765494D01*
G36*
X24028388Y-26866467D02*
G01*
X24139926Y-26940994D01*
X24263860Y-26992329D01*
X24395427Y-27018500D01*
X24511050Y-27018500D01*
X24511050Y-27696891D01*
X24122900Y-27308741D01*
X24107592Y-27290088D01*
X24033140Y-27228987D01*
X23948198Y-27183584D01*
X23856031Y-27155625D01*
X23784194Y-27148550D01*
X23784183Y-27148550D01*
X23760180Y-27146186D01*
X23753403Y-27146853D01*
X23706550Y-27100000D01*
X23450090Y-27100000D01*
X23442996Y-27094178D01*
X23376808Y-27058799D01*
X23304989Y-27037013D01*
X23230300Y-27029657D01*
X22358300Y-27029657D01*
X22358300Y-26945343D01*
X23230300Y-26945343D01*
X23304989Y-26937987D01*
X23376808Y-26916201D01*
X23442996Y-26880822D01*
X23450090Y-26875000D01*
X23706550Y-26875000D01*
X23755100Y-26826450D01*
X23988371Y-26826450D01*
X24028388Y-26866467D01*
X24028388Y-26866467D01*
G37*
X24028388Y-26866467D02*
X24139926Y-26940994D01*
X24263860Y-26992329D01*
X24395427Y-27018500D01*
X24511050Y-27018500D01*
X24511050Y-27696891D01*
X24122900Y-27308741D01*
X24107592Y-27290088D01*
X24033140Y-27228987D01*
X23948198Y-27183584D01*
X23856031Y-27155625D01*
X23784194Y-27148550D01*
X23784183Y-27148550D01*
X23760180Y-27146186D01*
X23753403Y-27146853D01*
X23706550Y-27100000D01*
X23450090Y-27100000D01*
X23442996Y-27094178D01*
X23376808Y-27058799D01*
X23304989Y-27037013D01*
X23230300Y-27029657D01*
X22358300Y-27029657D01*
X22358300Y-26945343D01*
X23230300Y-26945343D01*
X23304989Y-26937987D01*
X23376808Y-26916201D01*
X23442996Y-26880822D01*
X23450090Y-26875000D01*
X23706550Y-26875000D01*
X23755100Y-26826450D01*
X23988371Y-26826450D01*
X24028388Y-26866467D01*
G36*
X59859533Y-26659612D02*
G01*
X59954388Y-26754467D01*
X60065926Y-26828994D01*
X60189860Y-26880329D01*
X60321427Y-26906500D01*
X60378020Y-26906500D01*
X60420250Y-26948730D01*
X60420250Y-27077185D01*
X60418609Y-27075838D01*
X60333667Y-27030435D01*
X60241500Y-27002476D01*
X60169663Y-26995401D01*
X60169652Y-26995401D01*
X60145649Y-26993037D01*
X60121646Y-26995401D01*
X59572741Y-26995401D01*
X59486840Y-26909500D01*
X59230380Y-26909500D01*
X59223286Y-26903678D01*
X59157098Y-26868299D01*
X59085279Y-26846513D01*
X59010590Y-26839157D01*
X58138590Y-26839157D01*
X58138590Y-26754843D01*
X59010590Y-26754843D01*
X59085279Y-26747487D01*
X59157098Y-26725701D01*
X59223286Y-26690322D01*
X59230380Y-26684500D01*
X59486840Y-26684500D01*
X59535390Y-26635950D01*
X59843723Y-26635950D01*
X59859533Y-26659612D01*
X59859533Y-26659612D01*
G37*
X59859533Y-26659612D02*
X59954388Y-26754467D01*
X60065926Y-26828994D01*
X60189860Y-26880329D01*
X60321427Y-26906500D01*
X60378020Y-26906500D01*
X60420250Y-26948730D01*
X60420250Y-27077185D01*
X60418609Y-27075838D01*
X60333667Y-27030435D01*
X60241500Y-27002476D01*
X60169663Y-26995401D01*
X60169652Y-26995401D01*
X60145649Y-26993037D01*
X60121646Y-26995401D01*
X59572741Y-26995401D01*
X59486840Y-26909500D01*
X59230380Y-26909500D01*
X59223286Y-26903678D01*
X59157098Y-26868299D01*
X59085279Y-26846513D01*
X59010590Y-26839157D01*
X58138590Y-26839157D01*
X58138590Y-26754843D01*
X59010590Y-26754843D01*
X59085279Y-26747487D01*
X59157098Y-26725701D01*
X59223286Y-26690322D01*
X59230380Y-26684500D01*
X59486840Y-26684500D01*
X59535390Y-26635950D01*
X59843723Y-26635950D01*
X59859533Y-26659612D01*
G36*
X47523388Y-26739467D02*
G01*
X47634926Y-26813994D01*
X47758860Y-26865329D01*
X47890427Y-26891500D01*
X47947021Y-26891500D01*
X48086494Y-27030974D01*
X48078751Y-27028625D01*
X48006914Y-27021550D01*
X48006903Y-27021550D01*
X47982900Y-27019186D01*
X47958897Y-27021550D01*
X47331010Y-27021550D01*
X47282460Y-26973000D01*
X47026000Y-26973000D01*
X47018906Y-26967178D01*
X46952718Y-26931799D01*
X46880899Y-26910013D01*
X46806210Y-26902657D01*
X45934210Y-26902657D01*
X45934210Y-26818343D01*
X46806210Y-26818343D01*
X46880899Y-26810987D01*
X46952718Y-26789201D01*
X47018906Y-26753822D01*
X47026000Y-26748000D01*
X47282460Y-26748000D01*
X47331010Y-26699450D01*
X47483371Y-26699450D01*
X47523388Y-26739467D01*
X47523388Y-26739467D01*
G37*
X47523388Y-26739467D02*
X47634926Y-26813994D01*
X47758860Y-26865329D01*
X47890427Y-26891500D01*
X47947021Y-26891500D01*
X48086494Y-27030974D01*
X48078751Y-27028625D01*
X48006914Y-27021550D01*
X48006903Y-27021550D01*
X47982900Y-27019186D01*
X47958897Y-27021550D01*
X47331010Y-27021550D01*
X47282460Y-26973000D01*
X47026000Y-26973000D01*
X47018906Y-26967178D01*
X46952718Y-26931799D01*
X46880899Y-26910013D01*
X46806210Y-26902657D01*
X45934210Y-26902657D01*
X45934210Y-26818343D01*
X46806210Y-26818343D01*
X46880899Y-26810987D01*
X46952718Y-26789201D01*
X47018906Y-26753822D01*
X47026000Y-26748000D01*
X47282460Y-26748000D01*
X47331010Y-26699450D01*
X47483371Y-26699450D01*
X47523388Y-26739467D01*
G36*
X25632070Y-24387159D02*
G01*
X25632075Y-24387164D01*
X25647379Y-24405812D01*
X25666027Y-24421116D01*
X26611170Y-25366259D01*
X26626478Y-25384912D01*
X26645130Y-25400219D01*
X26700929Y-25446013D01*
X26746332Y-25470281D01*
X26785872Y-25491416D01*
X26878039Y-25519375D01*
X26949876Y-25526450D01*
X26949888Y-25526450D01*
X26973889Y-25528814D01*
X26997890Y-25526450D01*
X27297457Y-25526450D01*
X27297457Y-25848550D01*
X26264503Y-25848550D01*
X26240500Y-25846186D01*
X26216497Y-25848550D01*
X26216486Y-25848550D01*
X26144649Y-25855625D01*
X26115095Y-25864590D01*
X26102073Y-25862000D01*
X25967927Y-25862000D01*
X25836360Y-25888171D01*
X25712426Y-25939506D01*
X25600888Y-26014033D01*
X25506033Y-26108888D01*
X25431506Y-26220426D01*
X25380171Y-26344360D01*
X25359974Y-26445895D01*
X25347412Y-26430588D01*
X25328764Y-26415284D01*
X25133467Y-26219987D01*
X25117329Y-26138860D01*
X25065994Y-26014926D01*
X24991467Y-25903388D01*
X24896612Y-25808533D01*
X24785074Y-25734006D01*
X24661140Y-25682671D01*
X24529573Y-25656500D01*
X24395427Y-25656500D01*
X24263860Y-25682671D01*
X24139926Y-25734006D01*
X24028388Y-25808533D01*
X23988371Y-25848550D01*
X23613143Y-25848550D01*
X23613143Y-25526450D01*
X24191687Y-25526450D01*
X24215690Y-25528814D01*
X24239693Y-25526450D01*
X24239704Y-25526450D01*
X24311541Y-25519375D01*
X24403708Y-25491416D01*
X24488650Y-25446013D01*
X24563102Y-25384912D01*
X24578410Y-25366259D01*
X25523549Y-24421120D01*
X25542202Y-24405812D01*
X25581399Y-24358050D01*
X25594790Y-24341734D01*
X25632070Y-24387159D01*
X25632070Y-24387159D01*
G37*
X25632070Y-24387159D02*
X25632075Y-24387164D01*
X25647379Y-24405812D01*
X25666027Y-24421116D01*
X26611170Y-25366259D01*
X26626478Y-25384912D01*
X26645130Y-25400219D01*
X26700929Y-25446013D01*
X26746332Y-25470281D01*
X26785872Y-25491416D01*
X26878039Y-25519375D01*
X26949876Y-25526450D01*
X26949888Y-25526450D01*
X26973889Y-25528814D01*
X26997890Y-25526450D01*
X27297457Y-25526450D01*
X27297457Y-25848550D01*
X26264503Y-25848550D01*
X26240500Y-25846186D01*
X26216497Y-25848550D01*
X26216486Y-25848550D01*
X26144649Y-25855625D01*
X26115095Y-25864590D01*
X26102073Y-25862000D01*
X25967927Y-25862000D01*
X25836360Y-25888171D01*
X25712426Y-25939506D01*
X25600888Y-26014033D01*
X25506033Y-26108888D01*
X25431506Y-26220426D01*
X25380171Y-26344360D01*
X25359974Y-26445895D01*
X25347412Y-26430588D01*
X25328764Y-26415284D01*
X25133467Y-26219987D01*
X25117329Y-26138860D01*
X25065994Y-26014926D01*
X24991467Y-25903388D01*
X24896612Y-25808533D01*
X24785074Y-25734006D01*
X24661140Y-25682671D01*
X24529573Y-25656500D01*
X24395427Y-25656500D01*
X24263860Y-25682671D01*
X24139926Y-25734006D01*
X24028388Y-25808533D01*
X23988371Y-25848550D01*
X23613143Y-25848550D01*
X23613143Y-25526450D01*
X24191687Y-25526450D01*
X24215690Y-25528814D01*
X24239693Y-25526450D01*
X24239704Y-25526450D01*
X24311541Y-25519375D01*
X24403708Y-25491416D01*
X24488650Y-25446013D01*
X24563102Y-25384912D01*
X24578410Y-25366259D01*
X25523549Y-24421120D01*
X25542202Y-24405812D01*
X25581399Y-24358050D01*
X25594790Y-24341734D01*
X25632070Y-24387159D01*
G36*
X48929000Y-24323659D02*
G01*
X48929005Y-24323664D01*
X48944309Y-24342312D01*
X48962957Y-24357616D01*
X49844604Y-25239264D01*
X49859908Y-25257912D01*
X49878556Y-25273216D01*
X49878560Y-25273220D01*
X49934359Y-25319014D01*
X49999531Y-25353848D01*
X50019302Y-25364416D01*
X50111469Y-25392375D01*
X50183306Y-25399450D01*
X50183317Y-25399450D01*
X50207320Y-25401814D01*
X50231323Y-25399450D01*
X50873367Y-25399450D01*
X50873367Y-25721550D01*
X50209629Y-25721550D01*
X50169612Y-25681533D01*
X50058074Y-25607006D01*
X49934140Y-25555671D01*
X49802573Y-25529500D01*
X49668427Y-25529500D01*
X49536860Y-25555671D01*
X49412926Y-25607006D01*
X49301388Y-25681533D01*
X49206533Y-25776388D01*
X49132006Y-25887926D01*
X49080671Y-26011860D01*
X49054500Y-26143427D01*
X49054500Y-26200021D01*
X48846500Y-26408021D01*
X48638500Y-26200021D01*
X48638500Y-26143427D01*
X48612329Y-26011860D01*
X48560994Y-25887926D01*
X48486467Y-25776388D01*
X48391612Y-25681533D01*
X48280074Y-25607006D01*
X48156140Y-25555671D01*
X48024573Y-25529500D01*
X47890427Y-25529500D01*
X47758860Y-25555671D01*
X47634926Y-25607006D01*
X47523388Y-25681533D01*
X47483371Y-25721550D01*
X47189053Y-25721550D01*
X47189053Y-25399450D01*
X47552117Y-25399450D01*
X47576120Y-25401814D01*
X47600123Y-25399450D01*
X47600134Y-25399450D01*
X47671971Y-25392375D01*
X47764138Y-25364416D01*
X47849080Y-25319013D01*
X47923532Y-25257912D01*
X47938840Y-25239259D01*
X48820484Y-24357616D01*
X48839132Y-24342312D01*
X48854436Y-24323664D01*
X48854440Y-24323660D01*
X48891721Y-24278234D01*
X48929000Y-24323659D01*
X48929000Y-24323659D01*
G37*
X48929000Y-24323659D02*
X48929005Y-24323664D01*
X48944309Y-24342312D01*
X48962957Y-24357616D01*
X49844604Y-25239264D01*
X49859908Y-25257912D01*
X49878556Y-25273216D01*
X49878560Y-25273220D01*
X49934359Y-25319014D01*
X49999531Y-25353848D01*
X50019302Y-25364416D01*
X50111469Y-25392375D01*
X50183306Y-25399450D01*
X50183317Y-25399450D01*
X50207320Y-25401814D01*
X50231323Y-25399450D01*
X50873367Y-25399450D01*
X50873367Y-25721550D01*
X50209629Y-25721550D01*
X50169612Y-25681533D01*
X50058074Y-25607006D01*
X49934140Y-25555671D01*
X49802573Y-25529500D01*
X49668427Y-25529500D01*
X49536860Y-25555671D01*
X49412926Y-25607006D01*
X49301388Y-25681533D01*
X49206533Y-25776388D01*
X49132006Y-25887926D01*
X49080671Y-26011860D01*
X49054500Y-26143427D01*
X49054500Y-26200021D01*
X48846500Y-26408021D01*
X48638500Y-26200021D01*
X48638500Y-26143427D01*
X48612329Y-26011860D01*
X48560994Y-25887926D01*
X48486467Y-25776388D01*
X48391612Y-25681533D01*
X48280074Y-25607006D01*
X48156140Y-25555671D01*
X48024573Y-25529500D01*
X47890427Y-25529500D01*
X47758860Y-25555671D01*
X47634926Y-25607006D01*
X47523388Y-25681533D01*
X47483371Y-25721550D01*
X47189053Y-25721550D01*
X47189053Y-25399450D01*
X47552117Y-25399450D01*
X47576120Y-25401814D01*
X47600123Y-25399450D01*
X47600134Y-25399450D01*
X47671971Y-25392375D01*
X47764138Y-25364416D01*
X47849080Y-25319013D01*
X47923532Y-25257912D01*
X47938840Y-25239259D01*
X48820484Y-24357616D01*
X48839132Y-24342312D01*
X48854436Y-24323664D01*
X48854440Y-24323660D01*
X48891721Y-24278234D01*
X48929000Y-24323659D01*
G36*
X37248280Y-24260159D02*
G01*
X37248285Y-24260164D01*
X37263589Y-24278812D01*
X37282237Y-24294116D01*
X38227380Y-25239259D01*
X38242688Y-25257912D01*
X38261340Y-25273219D01*
X38317139Y-25319013D01*
X38351144Y-25337189D01*
X38402082Y-25364416D01*
X38494249Y-25392375D01*
X38566086Y-25399450D01*
X38566098Y-25399450D01*
X38590099Y-25401814D01*
X38614100Y-25399450D01*
X39093757Y-25399450D01*
X39093757Y-25721550D01*
X38271629Y-25721550D01*
X38231612Y-25681533D01*
X38120074Y-25607006D01*
X37996140Y-25555671D01*
X37864573Y-25529500D01*
X37730427Y-25529500D01*
X37598860Y-25555671D01*
X37474926Y-25607006D01*
X37363388Y-25681533D01*
X37268533Y-25776388D01*
X37194006Y-25887926D01*
X37142671Y-26011860D01*
X37116500Y-26143427D01*
X37116500Y-26201065D01*
X37084000Y-26240666D01*
X37046720Y-26195240D01*
X37046716Y-26195236D01*
X37031412Y-26176588D01*
X37012764Y-26161284D01*
X37003000Y-26151520D01*
X37003000Y-26094927D01*
X36976829Y-25963360D01*
X36925494Y-25839426D01*
X36850967Y-25727888D01*
X36756112Y-25633033D01*
X36644574Y-25558506D01*
X36520640Y-25507171D01*
X36389073Y-25481000D01*
X36254927Y-25481000D01*
X36123360Y-25507171D01*
X35999426Y-25558506D01*
X35887888Y-25633033D01*
X35799371Y-25721550D01*
X35409443Y-25721550D01*
X35409443Y-25399450D01*
X35807897Y-25399450D01*
X35831900Y-25401814D01*
X35855903Y-25399450D01*
X35855914Y-25399450D01*
X35927751Y-25392375D01*
X36019918Y-25364416D01*
X36104860Y-25319013D01*
X36179312Y-25257912D01*
X36194620Y-25239259D01*
X37139759Y-24294120D01*
X37158412Y-24278812D01*
X37199447Y-24228811D01*
X37211000Y-24214734D01*
X37248280Y-24260159D01*
X37248280Y-24260159D01*
G37*
X37248280Y-24260159D02*
X37248285Y-24260164D01*
X37263589Y-24278812D01*
X37282237Y-24294116D01*
X38227380Y-25239259D01*
X38242688Y-25257912D01*
X38261340Y-25273219D01*
X38317139Y-25319013D01*
X38351144Y-25337189D01*
X38402082Y-25364416D01*
X38494249Y-25392375D01*
X38566086Y-25399450D01*
X38566098Y-25399450D01*
X38590099Y-25401814D01*
X38614100Y-25399450D01*
X39093757Y-25399450D01*
X39093757Y-25721550D01*
X38271629Y-25721550D01*
X38231612Y-25681533D01*
X38120074Y-25607006D01*
X37996140Y-25555671D01*
X37864573Y-25529500D01*
X37730427Y-25529500D01*
X37598860Y-25555671D01*
X37474926Y-25607006D01*
X37363388Y-25681533D01*
X37268533Y-25776388D01*
X37194006Y-25887926D01*
X37142671Y-26011860D01*
X37116500Y-26143427D01*
X37116500Y-26201065D01*
X37084000Y-26240666D01*
X37046720Y-26195240D01*
X37046716Y-26195236D01*
X37031412Y-26176588D01*
X37012764Y-26161284D01*
X37003000Y-26151520D01*
X37003000Y-26094927D01*
X36976829Y-25963360D01*
X36925494Y-25839426D01*
X36850967Y-25727888D01*
X36756112Y-25633033D01*
X36644574Y-25558506D01*
X36520640Y-25507171D01*
X36389073Y-25481000D01*
X36254927Y-25481000D01*
X36123360Y-25507171D01*
X35999426Y-25558506D01*
X35887888Y-25633033D01*
X35799371Y-25721550D01*
X35409443Y-25721550D01*
X35409443Y-25399450D01*
X35807897Y-25399450D01*
X35831900Y-25401814D01*
X35855903Y-25399450D01*
X35855914Y-25399450D01*
X35927751Y-25392375D01*
X36019918Y-25364416D01*
X36104860Y-25319013D01*
X36179312Y-25257912D01*
X36194620Y-25239259D01*
X37139759Y-24294120D01*
X37158412Y-24278812D01*
X37199447Y-24228811D01*
X37211000Y-24214734D01*
X37248280Y-24260159D01*
G36*
X60993890Y-24196659D02*
G01*
X60993895Y-24196664D01*
X61009199Y-24215312D01*
X61027847Y-24230616D01*
X61972990Y-25175759D01*
X61988298Y-25194412D01*
X62017659Y-25218508D01*
X62062749Y-25255513D01*
X62095875Y-25273219D01*
X62147692Y-25300916D01*
X62239859Y-25328875D01*
X62311696Y-25335950D01*
X62311708Y-25335950D01*
X62335709Y-25338314D01*
X62359710Y-25335950D01*
X63077747Y-25335950D01*
X63077747Y-25658050D01*
X62211129Y-25658050D01*
X62171112Y-25618033D01*
X62059574Y-25543506D01*
X61935640Y-25492171D01*
X61804073Y-25466000D01*
X61669927Y-25466000D01*
X61538360Y-25492171D01*
X61414426Y-25543506D01*
X61302888Y-25618033D01*
X61208033Y-25712888D01*
X61133506Y-25824426D01*
X61082171Y-25948360D01*
X61056000Y-26079927D01*
X61056000Y-26090560D01*
X61043329Y-26026860D01*
X60991994Y-25902926D01*
X60917467Y-25791388D01*
X60822612Y-25696533D01*
X60711074Y-25622006D01*
X60587140Y-25570671D01*
X60455573Y-25544500D01*
X60321427Y-25544500D01*
X60189860Y-25570671D01*
X60065926Y-25622006D01*
X60011982Y-25658050D01*
X59393433Y-25658050D01*
X59393433Y-25335950D01*
X59553507Y-25335950D01*
X59577510Y-25338314D01*
X59601513Y-25335950D01*
X59601524Y-25335950D01*
X59673361Y-25328875D01*
X59765528Y-25300916D01*
X59850470Y-25255513D01*
X59924922Y-25194412D01*
X59940230Y-25175759D01*
X60885369Y-24230620D01*
X60904022Y-24215312D01*
X60940326Y-24171075D01*
X60956610Y-24151234D01*
X60993890Y-24196659D01*
X60993890Y-24196659D01*
G37*
X60993890Y-24196659D02*
X60993895Y-24196664D01*
X61009199Y-24215312D01*
X61027847Y-24230616D01*
X61972990Y-25175759D01*
X61988298Y-25194412D01*
X62017659Y-25218508D01*
X62062749Y-25255513D01*
X62095875Y-25273219D01*
X62147692Y-25300916D01*
X62239859Y-25328875D01*
X62311696Y-25335950D01*
X62311708Y-25335950D01*
X62335709Y-25338314D01*
X62359710Y-25335950D01*
X63077747Y-25335950D01*
X63077747Y-25658050D01*
X62211129Y-25658050D01*
X62171112Y-25618033D01*
X62059574Y-25543506D01*
X61935640Y-25492171D01*
X61804073Y-25466000D01*
X61669927Y-25466000D01*
X61538360Y-25492171D01*
X61414426Y-25543506D01*
X61302888Y-25618033D01*
X61208033Y-25712888D01*
X61133506Y-25824426D01*
X61082171Y-25948360D01*
X61056000Y-26079927D01*
X61056000Y-26090560D01*
X61043329Y-26026860D01*
X60991994Y-25902926D01*
X60917467Y-25791388D01*
X60822612Y-25696533D01*
X60711074Y-25622006D01*
X60587140Y-25570671D01*
X60455573Y-25544500D01*
X60321427Y-25544500D01*
X60189860Y-25570671D01*
X60065926Y-25622006D01*
X60011982Y-25658050D01*
X59393433Y-25658050D01*
X59393433Y-25335950D01*
X59553507Y-25335950D01*
X59577510Y-25338314D01*
X59601513Y-25335950D01*
X59601524Y-25335950D01*
X59673361Y-25328875D01*
X59765528Y-25300916D01*
X59850470Y-25255513D01*
X59924922Y-25194412D01*
X59940230Y-25175759D01*
X60885369Y-24230620D01*
X60904022Y-24215312D01*
X60940326Y-24171075D01*
X60956610Y-24151234D01*
X60993890Y-24196659D01*
G36*
X23791089Y-23989008D02*
G01*
X23826468Y-24055196D01*
X23874079Y-24113211D01*
X23932094Y-24160822D01*
X23998282Y-24196201D01*
X24070101Y-24217987D01*
X24144790Y-24225343D01*
X24336368Y-24225343D01*
X24013161Y-24548550D01*
X23506560Y-24548550D01*
X23501011Y-24541789D01*
X23442996Y-24494178D01*
X23376808Y-24458799D01*
X23304989Y-24437013D01*
X23230300Y-24429657D01*
X22385990Y-24429657D01*
X22884198Y-23931450D01*
X23773629Y-23931450D01*
X23791089Y-23989008D01*
X23791089Y-23989008D01*
G37*
X23791089Y-23989008D02*
X23826468Y-24055196D01*
X23874079Y-24113211D01*
X23932094Y-24160822D01*
X23998282Y-24196201D01*
X24070101Y-24217987D01*
X24144790Y-24225343D01*
X24336368Y-24225343D01*
X24013161Y-24548550D01*
X23506560Y-24548550D01*
X23501011Y-24541789D01*
X23442996Y-24494178D01*
X23376808Y-24458799D01*
X23304989Y-24437013D01*
X23230300Y-24429657D01*
X22385990Y-24429657D01*
X22884198Y-23931450D01*
X23773629Y-23931450D01*
X23791089Y-23989008D01*
G36*
X47088019Y-23925508D02*
G01*
X47123398Y-23991696D01*
X47171009Y-24049711D01*
X47229024Y-24097322D01*
X47295212Y-24132701D01*
X47367031Y-24154487D01*
X47441720Y-24161843D01*
X47633298Y-24161843D01*
X47373591Y-24421550D01*
X47082470Y-24421550D01*
X47076921Y-24414789D01*
X47018906Y-24367178D01*
X46952718Y-24331799D01*
X46880899Y-24310013D01*
X46806210Y-24302657D01*
X45961900Y-24302657D01*
X46396608Y-23867950D01*
X47070559Y-23867950D01*
X47088019Y-23925508D01*
X47088019Y-23925508D01*
G37*
X47088019Y-23925508D02*
X47123398Y-23991696D01*
X47171009Y-24049711D01*
X47229024Y-24097322D01*
X47295212Y-24132701D01*
X47367031Y-24154487D01*
X47441720Y-24161843D01*
X47633298Y-24161843D01*
X47373591Y-24421550D01*
X47082470Y-24421550D01*
X47076921Y-24414789D01*
X47018906Y-24367178D01*
X46952718Y-24331799D01*
X46880899Y-24310013D01*
X46806210Y-24302657D01*
X45961900Y-24302657D01*
X46396608Y-23867950D01*
X47070559Y-23867950D01*
X47088019Y-23925508D01*
G36*
X40320909Y-24302657D02*
G01*
X39476600Y-24302657D01*
X39401911Y-24310013D01*
X39330092Y-24331799D01*
X39263904Y-24367178D01*
X39205889Y-24414789D01*
X39200340Y-24421550D01*
X38792629Y-24421550D01*
X38469422Y-24098343D01*
X38661000Y-24098343D01*
X38735689Y-24090987D01*
X38807508Y-24069201D01*
X38873696Y-24033822D01*
X38931711Y-23986211D01*
X38979322Y-23928196D01*
X39014701Y-23862008D01*
X39032161Y-23804450D01*
X39822703Y-23804450D01*
X40320909Y-24302657D01*
X40320909Y-24302657D01*
G37*
X40320909Y-24302657D02*
X39476600Y-24302657D01*
X39401911Y-24310013D01*
X39330092Y-24331799D01*
X39263904Y-24367178D01*
X39205889Y-24414789D01*
X39200340Y-24421550D01*
X38792629Y-24421550D01*
X38469422Y-24098343D01*
X38661000Y-24098343D01*
X38735689Y-24090987D01*
X38807508Y-24069201D01*
X38873696Y-24033822D01*
X38931711Y-23986211D01*
X38979322Y-23928196D01*
X39014701Y-23862008D01*
X39032161Y-23804450D01*
X39822703Y-23804450D01*
X40320909Y-24302657D01*
G36*
X35407299Y-23862008D02*
G01*
X35442678Y-23928196D01*
X35490289Y-23986211D01*
X35548304Y-24033822D01*
X35614492Y-24069201D01*
X35686311Y-24090987D01*
X35761000Y-24098343D01*
X35952578Y-24098343D01*
X35629371Y-24421550D01*
X35302860Y-24421550D01*
X35297311Y-24414789D01*
X35239296Y-24367178D01*
X35173108Y-24331799D01*
X35101289Y-24310013D01*
X35026600Y-24302657D01*
X33805199Y-24302657D01*
X33805199Y-24229368D01*
X34230118Y-23804450D01*
X35389839Y-23804450D01*
X35407299Y-23862008D01*
X35407299Y-23862008D01*
G37*
X35407299Y-23862008D02*
X35442678Y-23928196D01*
X35490289Y-23986211D01*
X35548304Y-24033822D01*
X35614492Y-24069201D01*
X35686311Y-24090987D01*
X35761000Y-24098343D01*
X35952578Y-24098343D01*
X35629371Y-24421550D01*
X35302860Y-24421550D01*
X35297311Y-24414789D01*
X35239296Y-24367178D01*
X35173108Y-24331799D01*
X35101289Y-24310013D01*
X35026600Y-24302657D01*
X33805199Y-24302657D01*
X33805199Y-24229368D01*
X34230118Y-23804450D01*
X35389839Y-23804450D01*
X35407299Y-23862008D01*
G36*
X65050301Y-23450781D02*
G01*
X65050301Y-23601599D01*
X64371942Y-22923241D01*
X64356634Y-22904588D01*
X64282182Y-22843487D01*
X64197240Y-22798084D01*
X64105073Y-22770125D01*
X64033236Y-22763050D01*
X64033225Y-22763050D01*
X64009222Y-22760686D01*
X63985219Y-22763050D01*
X62777771Y-22763050D01*
X62760311Y-22705492D01*
X62724932Y-22639304D01*
X62677321Y-22581289D01*
X62619306Y-22533678D01*
X62553118Y-22498299D01*
X62481299Y-22476513D01*
X62406610Y-22469157D01*
X61906610Y-22469157D01*
X61831921Y-22476513D01*
X61760102Y-22498299D01*
X61731610Y-22513529D01*
X61703118Y-22498299D01*
X61631299Y-22476513D01*
X61556610Y-22469157D01*
X61156610Y-22469157D01*
X61081921Y-22476513D01*
X61010102Y-22498299D01*
X60956610Y-22526892D01*
X60903118Y-22498299D01*
X60831299Y-22476513D01*
X60756610Y-22469157D01*
X60356610Y-22469157D01*
X60281921Y-22476513D01*
X60210102Y-22498299D01*
X60181610Y-22513529D01*
X60153118Y-22498299D01*
X60081299Y-22476513D01*
X60006610Y-22469157D01*
X59506610Y-22469157D01*
X59431921Y-22476513D01*
X59360102Y-22498299D01*
X59293914Y-22533678D01*
X59235899Y-22581289D01*
X59188288Y-22639304D01*
X59152909Y-22705492D01*
X59135449Y-22763050D01*
X58485961Y-22763050D01*
X58461958Y-22760686D01*
X58437955Y-22763050D01*
X58437944Y-22763050D01*
X58366107Y-22770125D01*
X58351043Y-22774695D01*
X59040337Y-22085401D01*
X59092070Y-22106829D01*
X59223637Y-22133000D01*
X59248436Y-22133000D01*
X59293914Y-22170322D01*
X59360102Y-22205701D01*
X59431921Y-22227487D01*
X59506610Y-22234843D01*
X60006610Y-22234843D01*
X60081299Y-22227487D01*
X60153118Y-22205701D01*
X60181610Y-22190471D01*
X60210102Y-22205701D01*
X60281921Y-22227487D01*
X60356610Y-22234843D01*
X60756610Y-22234843D01*
X60831299Y-22227487D01*
X60903118Y-22205701D01*
X60956610Y-22177108D01*
X61010102Y-22205701D01*
X61081921Y-22227487D01*
X61156610Y-22234843D01*
X61556610Y-22234843D01*
X61631299Y-22227487D01*
X61703118Y-22205701D01*
X61731610Y-22190471D01*
X61760102Y-22205701D01*
X61831921Y-22227487D01*
X61906610Y-22234843D01*
X62406610Y-22234843D01*
X62481299Y-22227487D01*
X62553118Y-22205701D01*
X62619306Y-22170322D01*
X62651380Y-22144000D01*
X62700583Y-22144000D01*
X62832150Y-22117829D01*
X62956084Y-22066494D01*
X63067622Y-21991967D01*
X63107639Y-21951950D01*
X63551471Y-21951950D01*
X65050301Y-23450781D01*
X65050301Y-23450781D01*
G37*
X65050301Y-23450781D02*
X65050301Y-23601599D01*
X64371942Y-22923241D01*
X64356634Y-22904588D01*
X64282182Y-22843487D01*
X64197240Y-22798084D01*
X64105073Y-22770125D01*
X64033236Y-22763050D01*
X64033225Y-22763050D01*
X64009222Y-22760686D01*
X63985219Y-22763050D01*
X62777771Y-22763050D01*
X62760311Y-22705492D01*
X62724932Y-22639304D01*
X62677321Y-22581289D01*
X62619306Y-22533678D01*
X62553118Y-22498299D01*
X62481299Y-22476513D01*
X62406610Y-22469157D01*
X61906610Y-22469157D01*
X61831921Y-22476513D01*
X61760102Y-22498299D01*
X61731610Y-22513529D01*
X61703118Y-22498299D01*
X61631299Y-22476513D01*
X61556610Y-22469157D01*
X61156610Y-22469157D01*
X61081921Y-22476513D01*
X61010102Y-22498299D01*
X60956610Y-22526892D01*
X60903118Y-22498299D01*
X60831299Y-22476513D01*
X60756610Y-22469157D01*
X60356610Y-22469157D01*
X60281921Y-22476513D01*
X60210102Y-22498299D01*
X60181610Y-22513529D01*
X60153118Y-22498299D01*
X60081299Y-22476513D01*
X60006610Y-22469157D01*
X59506610Y-22469157D01*
X59431921Y-22476513D01*
X59360102Y-22498299D01*
X59293914Y-22533678D01*
X59235899Y-22581289D01*
X59188288Y-22639304D01*
X59152909Y-22705492D01*
X59135449Y-22763050D01*
X58485961Y-22763050D01*
X58461958Y-22760686D01*
X58437955Y-22763050D01*
X58437944Y-22763050D01*
X58366107Y-22770125D01*
X58351043Y-22774695D01*
X59040337Y-22085401D01*
X59092070Y-22106829D01*
X59223637Y-22133000D01*
X59248436Y-22133000D01*
X59293914Y-22170322D01*
X59360102Y-22205701D01*
X59431921Y-22227487D01*
X59506610Y-22234843D01*
X60006610Y-22234843D01*
X60081299Y-22227487D01*
X60153118Y-22205701D01*
X60181610Y-22190471D01*
X60210102Y-22205701D01*
X60281921Y-22227487D01*
X60356610Y-22234843D01*
X60756610Y-22234843D01*
X60831299Y-22227487D01*
X60903118Y-22205701D01*
X60956610Y-22177108D01*
X61010102Y-22205701D01*
X61081921Y-22227487D01*
X61156610Y-22234843D01*
X61556610Y-22234843D01*
X61631299Y-22227487D01*
X61703118Y-22205701D01*
X61731610Y-22190471D01*
X61760102Y-22205701D01*
X61831921Y-22227487D01*
X61906610Y-22234843D01*
X62406610Y-22234843D01*
X62481299Y-22227487D01*
X62553118Y-22205701D01*
X62619306Y-22170322D01*
X62651380Y-22144000D01*
X62700583Y-22144000D01*
X62832150Y-22117829D01*
X62956084Y-22066494D01*
X63067622Y-21991967D01*
X63107639Y-21951950D01*
X63551471Y-21951950D01*
X65050301Y-23450781D01*
G36*
X24767314Y-20493199D02*
G01*
X23491851Y-20493199D01*
X23467850Y-20490835D01*
X23443849Y-20493199D01*
X23443837Y-20493199D01*
X23372000Y-20500274D01*
X23279833Y-20528233D01*
X23256528Y-20540690D01*
X23194890Y-20573636D01*
X23139091Y-20619429D01*
X23139087Y-20619433D01*
X23120439Y-20634737D01*
X23105135Y-20653385D01*
X20456000Y-23302521D01*
X20456000Y-20456000D01*
X24822986Y-20456000D01*
X24767314Y-20493199D01*
X24767314Y-20493199D01*
G37*
X24767314Y-20493199D02*
X23491851Y-20493199D01*
X23467850Y-20490835D01*
X23443849Y-20493199D01*
X23443837Y-20493199D01*
X23372000Y-20500274D01*
X23279833Y-20528233D01*
X23256528Y-20540690D01*
X23194890Y-20573636D01*
X23139091Y-20619429D01*
X23139087Y-20619433D01*
X23120439Y-20634737D01*
X23105135Y-20653385D01*
X20456000Y-23302521D01*
X20456000Y-20456000D01*
X24822986Y-20456000D01*
X24767314Y-20493199D01*
M02*
