M48
; DRILL file {KiCad (5.1.0-rc2-21-g16b3c80a7)} date 5/25/2019 4:35:44 PM
; FORMAT={-:-/ absolute / inch / decimal}
; #@! TF.CreationDate,2019-05-25T16:35:44+02:00
; #@! TF.GenerationSoftware,Kicad,Pcbnew,(5.1.0-rc2-21-g16b3c80a7)
; #@! TF.FileFunction,Plated,1,2,PTH
FMAT,2
INCH
T1C0.0118
T2C0.0171
T3C0.0394
%
G90
G05
T1
X0.8325Y-1.375
X0.84Y-1.43
X0.855Y-1.345
X0.86Y-1.37
X0.865Y-1.4125
X0.88Y-1.39
X0.885Y-1.345
X0.8855Y-1.1695
X0.8925Y-1.5525
X0.9Y-1.41
X0.9025Y-1.44
X0.9275Y-1.3575
X0.9375Y-1.4175
X0.94Y-1.385
X0.9404Y-1.1296
X0.9462Y-0.9613
X0.9479Y-0.8521
X0.9528Y-1.1772
X0.955Y-1.075
X0.9631Y-1.0369
X0.97Y-1.4025
X0.9843Y-1.1778
X0.99Y-1.4225
X0.9918Y-0.9997
X0.9919Y-0.8278
X1.0157Y-1.1793
X1.0244Y-0.8269
X1.025Y-1.045
X1.028Y-1.088
X1.0472Y-1.1778
X1.064Y-1.128
X1.065Y-1.065
X1.0781Y-0.8569
X1.1025Y-1.3375
X1.1225Y-1.3575
X1.1275Y-1.3325
X1.1475Y-1.3525
X1.1725Y-1.55
X1.2Y-1.4075
X1.255Y-1.3375
X1.2675Y-1.3625
X1.2825Y-1.3825
X1.2825Y-1.4125
X1.31Y-1.4075
X1.32Y-1.4325
X1.3678Y-0.9472
X1.38Y-1.34
X1.3974Y-1.1246
X1.3979Y-0.8471
X1.4075Y-1.0675
X1.4128Y-1.1722
X1.43Y-1.03
X1.4443Y-1.1728
X1.4443Y-1.29
X1.4493Y-0.8207
X1.463Y-0.987
X1.4757Y-1.1728
X1.4757Y-1.29
X1.4807Y-0.8193
X1.4881Y-1.0319
X1.5072Y-1.1728
X1.5072Y-1.2928
X1.5225Y-1.0625
X1.524Y-1.124
X1.5267Y-0.8483
X1.536Y-1.334
X1.5429Y-0.9504
X1.552Y-1.362
X1.5676Y-1.2524
X1.8412Y-0.9463
X1.8593Y-0.8496
X1.864Y-1.126
X1.865Y-1.06
X1.8778Y-1.1722
X1.8778Y-1.2922
X1.8881Y-1.0319
X1.9082Y-0.8243
X1.9093Y-1.1707
X1.9093Y-1.2907
X1.9264Y-0.9936
X1.9407Y-1.1693
X1.9407Y-1.2893
X1.943Y-0.823
X1.9581Y-1.0319
X1.9722Y-1.1728
X1.9722Y-1.2878
X1.988Y-1.124
X1.9917Y-0.8496
X1.9975Y-1.0575
X2.05Y-1.3025
X2.26Y-0.83
X2.3343Y-0.8446
X2.3474Y-1.1246
X2.355Y-1.06
X2.3578Y-1.1722
X2.3578Y-1.2922
X2.3775Y-1.0325
X2.3819Y-0.8181
X2.3893Y-1.1703
X2.3893Y-1.2897
X2.3996Y-0.9904
X2.4187Y-0.8187
X2.42Y-1.29
X2.4207Y-1.1718
X2.4306Y-1.0294
X2.4519Y-1.29
X2.4522Y-1.1728
X2.46Y-1.06
X2.4659Y-0.845
X2.472Y-1.132
X2.4875Y-1.55
X2.495Y-1.4575
X2.5Y-0.87
X2.5225Y-1.4375
X2.5525Y-1.4425
X2.585Y-1.55
X2.59Y-1.455
X2.62Y-1.06
X2.6525Y-1.255
X2.806Y-1.536
X2.808Y-1.508
X2.836Y-1.536
X2.845Y-1.6075
X2.86Y-1.33
X2.868Y-1.406
X2.8725Y-1.605
X2.88Y-1.46
X2.905Y-1.6125
X2.915Y-0.895
X2.915Y-0.955
X2.915Y-1.015
X2.915Y-1.075
X2.915Y-1.135
X2.915Y-1.195
X2.915Y-1.255
X2.915Y-1.315
X2.915Y-1.375
X2.915Y-1.435
X2.915Y-1.495
X2.9475Y-1.6075
X2.975Y-1.61
X3.0Y-1.5975
X3.035Y-1.6075
X3.075Y-1.43
X3.0775Y-0.9675
X3.0775Y-1.2
X3.0775Y-1.37
X3.08Y-0.9275
X3.08Y-1.0525
X3.0825Y-1.01
X3.0825Y-1.095
X3.0825Y-1.1425
X3.0825Y-1.2625
X3.0825Y-1.32
X3.0925Y-1.6075
X3.1Y-1.545
T2
X0.815Y-1.35
X0.835Y-0.845
X0.835Y-1.405
X1.17Y-0.835
X1.215Y-0.855
X1.225Y-1.0625
X1.23Y-1.32
X1.2375Y-1.095
X1.295Y-0.845
X1.69Y-1.3325
X1.7Y-1.065
X2.0575Y-0.8175
X2.12Y-0.84
X2.16Y-0.875
X2.17Y-1.09
X2.17Y-1.2925
X2.185Y-0.845
X2.215Y-0.8175
X2.5725Y-0.82
X2.6275Y-1.0975
X2.6275Y-1.17
X2.6375Y-1.205
X2.64Y-0.87
X2.6525Y-0.83
X2.6575Y-1.05
X2.66Y-0.9875
X2.6625Y-1.1275
X2.6775Y-1.09
X2.6775Y-1.1725
X2.69Y-0.8975
X2.69Y-1.0125
X2.715Y-0.8425
X2.725Y-0.9875
X2.7725Y-0.9725
T3
X0.84Y-1.5
X0.84Y-1.6
X0.94Y-1.5
X0.94Y-1.6
X1.04Y-1.5
X1.04Y-1.6
X1.14Y-1.5
X1.14Y-1.6
X1.24Y-1.5
X1.24Y-1.6
X1.34Y-1.5
X1.34Y-1.6
X1.44Y-1.5
X1.44Y-1.6
X1.54Y-1.5
X1.54Y-1.6
X1.64Y-1.5
X1.64Y-1.6
X1.74Y-1.5
X1.74Y-1.6
X1.84Y-1.5
X1.84Y-1.6
X1.94Y-1.5
X1.94Y-1.6
X2.04Y-1.5
X2.04Y-1.6
X2.14Y-1.5
X2.14Y-1.6
X2.24Y-1.5
X2.24Y-1.6
X2.34Y-1.5
X2.34Y-1.6
X2.44Y-1.5
X2.44Y-1.6
X2.54Y-1.5
X2.54Y-1.6
X2.64Y-1.5
X2.64Y-1.6
X2.74Y-1.5
X2.74Y-1.6
T0
M30
