G04 #@! TF.GenerationSoftware,KiCad,Pcbnew,(5.1.0-rc2-21-g16b3c80a7)*
G04 #@! TF.CreationDate,2019-05-25T16:35:41+02:00*
G04 #@! TF.ProjectId,Analog_Input_Module,416e616c-6f67-45f4-996e-7075745f4d6f,R2.1*
G04 #@! TF.SameCoordinates,Original*
G04 #@! TF.FileFunction,Paste,Bot*
G04 #@! TF.FilePolarity,Positive*
%FSLAX46Y46*%
G04 Gerber Fmt 4.6, Leading zero omitted, Abs format (unit mm)*
G04 Created by KiCad (PCBNEW (5.1.0-rc2-21-g16b3c80a7)) date 2019-05-25 16:35:41*
%MOMM*%
%LPD*%
G04 APERTURE LIST*
%ADD10C,0.150000*%
%ADD11R,1.450000X0.450000*%
%ADD12R,0.500000X0.800000*%
%ADD13R,0.400000X0.800000*%
%ADD14C,0.100000*%
%ADD15C,0.950000*%
G04 APERTURE END LIST*
D10*
X80000000Y-42000000D02*
X80000000Y-20000000D01*
X80000000Y-20000000D02*
X20000000Y-20000000D01*
X80000000Y-42000000D02*
X20000000Y-42000000D01*
X20000000Y-20000000D02*
X20000000Y-42000000D01*
D11*
X58285590Y-24847000D03*
X58285590Y-25497000D03*
X58285590Y-26147000D03*
X58285590Y-26797000D03*
X58285590Y-27447000D03*
X58285590Y-28097000D03*
X58285590Y-28747000D03*
X64185590Y-28747000D03*
X64185590Y-28097000D03*
X64185590Y-27447000D03*
X64185590Y-26797000D03*
X64185590Y-26147000D03*
X64185590Y-25497000D03*
X64185590Y-24847000D03*
D12*
X35884000Y-30405500D03*
D13*
X36684000Y-30405500D03*
D12*
X38284000Y-30405500D03*
D13*
X37484000Y-30405500D03*
D12*
X35884000Y-32205500D03*
D13*
X37484000Y-32205500D03*
X36684000Y-32205500D03*
D12*
X38284000Y-32205500D03*
X59756610Y-21452000D03*
D13*
X60556610Y-21452000D03*
D12*
X62156610Y-21452000D03*
D13*
X61356610Y-21452000D03*
D12*
X59756610Y-23252000D03*
D13*
X61356610Y-23252000D03*
X60556610Y-23252000D03*
D12*
X62156610Y-23252000D03*
X47691720Y-21579000D03*
D13*
X48491720Y-21579000D03*
D12*
X50091720Y-21579000D03*
D13*
X49291720Y-21579000D03*
D12*
X47691720Y-23379000D03*
D13*
X49291720Y-23379000D03*
X48491720Y-23379000D03*
D12*
X50091720Y-23379000D03*
X59887000Y-30342000D03*
D13*
X60687000Y-30342000D03*
D12*
X62287000Y-30342000D03*
D13*
X61487000Y-30342000D03*
D12*
X59887000Y-32142000D03*
D13*
X61487000Y-32142000D03*
X60687000Y-32142000D03*
D12*
X62287000Y-32142000D03*
X47695000Y-30405500D03*
D13*
X48495000Y-30405500D03*
D12*
X50095000Y-30405500D03*
D13*
X49295000Y-30405500D03*
D12*
X47695000Y-32205500D03*
D13*
X49295000Y-32205500D03*
X48495000Y-32205500D03*
D12*
X50095000Y-32205500D03*
D11*
X46081210Y-24910500D03*
X46081210Y-25560500D03*
X46081210Y-26210500D03*
X46081210Y-26860500D03*
X46081210Y-27510500D03*
X46081210Y-28160500D03*
X46081210Y-28810500D03*
X51981210Y-28810500D03*
X51981210Y-28160500D03*
X51981210Y-27510500D03*
X51981210Y-26860500D03*
X51981210Y-26210500D03*
X51981210Y-25560500D03*
X51981210Y-24910500D03*
D12*
X36011000Y-21515500D03*
D13*
X36811000Y-21515500D03*
D12*
X38411000Y-21515500D03*
D13*
X37611000Y-21515500D03*
D12*
X36011000Y-23315500D03*
D13*
X37611000Y-23315500D03*
X36811000Y-23315500D03*
D12*
X38411000Y-23315500D03*
X24394790Y-21642500D03*
D13*
X25194790Y-21642500D03*
D12*
X26794790Y-21642500D03*
D13*
X25994790Y-21642500D03*
D12*
X24394790Y-23442500D03*
D13*
X25994790Y-23442500D03*
X25194790Y-23442500D03*
D12*
X26794790Y-23442500D03*
D11*
X34301600Y-24910500D03*
X34301600Y-25560500D03*
X34301600Y-26210500D03*
X34301600Y-26860500D03*
X34301600Y-27510500D03*
X34301600Y-28160500D03*
X34301600Y-28810500D03*
X40201600Y-28810500D03*
X40201600Y-28160500D03*
X40201600Y-27510500D03*
X40201600Y-26860500D03*
X40201600Y-26210500D03*
X40201600Y-25560500D03*
X40201600Y-24910500D03*
X22505300Y-25037500D03*
X22505300Y-25687500D03*
X22505300Y-26337500D03*
X22505300Y-26987500D03*
X22505300Y-27637500D03*
X22505300Y-28287500D03*
X22505300Y-28937500D03*
X28405300Y-28937500D03*
X28405300Y-28287500D03*
X28405300Y-27637500D03*
X28405300Y-26987500D03*
X28405300Y-26337500D03*
X28405300Y-25687500D03*
X28405300Y-25037500D03*
D12*
X24200000Y-30532500D03*
D13*
X25000000Y-30532500D03*
D12*
X26600000Y-30532500D03*
D13*
X25800000Y-30532500D03*
D12*
X24200000Y-32332500D03*
D13*
X25800000Y-32332500D03*
X25000000Y-32332500D03*
D12*
X26600000Y-32332500D03*
D14*
G36*
X76877779Y-26831144D02*
G01*
X76900834Y-26834563D01*
X76923443Y-26840227D01*
X76945387Y-26848079D01*
X76966457Y-26858044D01*
X76986448Y-26870026D01*
X77005168Y-26883910D01*
X77022438Y-26899562D01*
X77038090Y-26916832D01*
X77051974Y-26935552D01*
X77063956Y-26955543D01*
X77073921Y-26976613D01*
X77081773Y-26998557D01*
X77087437Y-27021166D01*
X77090856Y-27044221D01*
X77092000Y-27067500D01*
X77092000Y-27542500D01*
X77090856Y-27565779D01*
X77087437Y-27588834D01*
X77081773Y-27611443D01*
X77073921Y-27633387D01*
X77063956Y-27654457D01*
X77051974Y-27674448D01*
X77038090Y-27693168D01*
X77022438Y-27710438D01*
X77005168Y-27726090D01*
X76986448Y-27739974D01*
X76966457Y-27751956D01*
X76945387Y-27761921D01*
X76923443Y-27769773D01*
X76900834Y-27775437D01*
X76877779Y-27778856D01*
X76854500Y-27780000D01*
X76279500Y-27780000D01*
X76256221Y-27778856D01*
X76233166Y-27775437D01*
X76210557Y-27769773D01*
X76188613Y-27761921D01*
X76167543Y-27751956D01*
X76147552Y-27739974D01*
X76128832Y-27726090D01*
X76111562Y-27710438D01*
X76095910Y-27693168D01*
X76082026Y-27674448D01*
X76070044Y-27654457D01*
X76060079Y-27633387D01*
X76052227Y-27611443D01*
X76046563Y-27588834D01*
X76043144Y-27565779D01*
X76042000Y-27542500D01*
X76042000Y-27067500D01*
X76043144Y-27044221D01*
X76046563Y-27021166D01*
X76052227Y-26998557D01*
X76060079Y-26976613D01*
X76070044Y-26955543D01*
X76082026Y-26935552D01*
X76095910Y-26916832D01*
X76111562Y-26899562D01*
X76128832Y-26883910D01*
X76147552Y-26870026D01*
X76167543Y-26858044D01*
X76188613Y-26848079D01*
X76210557Y-26840227D01*
X76233166Y-26834563D01*
X76256221Y-26831144D01*
X76279500Y-26830000D01*
X76854500Y-26830000D01*
X76877779Y-26831144D01*
X76877779Y-26831144D01*
G37*
D15*
X76567000Y-27305000D03*
D14*
G36*
X75127779Y-26831144D02*
G01*
X75150834Y-26834563D01*
X75173443Y-26840227D01*
X75195387Y-26848079D01*
X75216457Y-26858044D01*
X75236448Y-26870026D01*
X75255168Y-26883910D01*
X75272438Y-26899562D01*
X75288090Y-26916832D01*
X75301974Y-26935552D01*
X75313956Y-26955543D01*
X75323921Y-26976613D01*
X75331773Y-26998557D01*
X75337437Y-27021166D01*
X75340856Y-27044221D01*
X75342000Y-27067500D01*
X75342000Y-27542500D01*
X75340856Y-27565779D01*
X75337437Y-27588834D01*
X75331773Y-27611443D01*
X75323921Y-27633387D01*
X75313956Y-27654457D01*
X75301974Y-27674448D01*
X75288090Y-27693168D01*
X75272438Y-27710438D01*
X75255168Y-27726090D01*
X75236448Y-27739974D01*
X75216457Y-27751956D01*
X75195387Y-27761921D01*
X75173443Y-27769773D01*
X75150834Y-27775437D01*
X75127779Y-27778856D01*
X75104500Y-27780000D01*
X74529500Y-27780000D01*
X74506221Y-27778856D01*
X74483166Y-27775437D01*
X74460557Y-27769773D01*
X74438613Y-27761921D01*
X74417543Y-27751956D01*
X74397552Y-27739974D01*
X74378832Y-27726090D01*
X74361562Y-27710438D01*
X74345910Y-27693168D01*
X74332026Y-27674448D01*
X74320044Y-27654457D01*
X74310079Y-27633387D01*
X74302227Y-27611443D01*
X74296563Y-27588834D01*
X74293144Y-27565779D01*
X74292000Y-27542500D01*
X74292000Y-27067500D01*
X74293144Y-27044221D01*
X74296563Y-27021166D01*
X74302227Y-26998557D01*
X74310079Y-26976613D01*
X74320044Y-26955543D01*
X74332026Y-26935552D01*
X74345910Y-26916832D01*
X74361562Y-26899562D01*
X74378832Y-26883910D01*
X74397552Y-26870026D01*
X74417543Y-26858044D01*
X74438613Y-26848079D01*
X74460557Y-26840227D01*
X74483166Y-26834563D01*
X74506221Y-26831144D01*
X74529500Y-26830000D01*
X75104500Y-26830000D01*
X75127779Y-26831144D01*
X75127779Y-26831144D01*
G37*
D15*
X74817000Y-27305000D03*
D14*
G36*
X76877779Y-28355144D02*
G01*
X76900834Y-28358563D01*
X76923443Y-28364227D01*
X76945387Y-28372079D01*
X76966457Y-28382044D01*
X76986448Y-28394026D01*
X77005168Y-28407910D01*
X77022438Y-28423562D01*
X77038090Y-28440832D01*
X77051974Y-28459552D01*
X77063956Y-28479543D01*
X77073921Y-28500613D01*
X77081773Y-28522557D01*
X77087437Y-28545166D01*
X77090856Y-28568221D01*
X77092000Y-28591500D01*
X77092000Y-29066500D01*
X77090856Y-29089779D01*
X77087437Y-29112834D01*
X77081773Y-29135443D01*
X77073921Y-29157387D01*
X77063956Y-29178457D01*
X77051974Y-29198448D01*
X77038090Y-29217168D01*
X77022438Y-29234438D01*
X77005168Y-29250090D01*
X76986448Y-29263974D01*
X76966457Y-29275956D01*
X76945387Y-29285921D01*
X76923443Y-29293773D01*
X76900834Y-29299437D01*
X76877779Y-29302856D01*
X76854500Y-29304000D01*
X76279500Y-29304000D01*
X76256221Y-29302856D01*
X76233166Y-29299437D01*
X76210557Y-29293773D01*
X76188613Y-29285921D01*
X76167543Y-29275956D01*
X76147552Y-29263974D01*
X76128832Y-29250090D01*
X76111562Y-29234438D01*
X76095910Y-29217168D01*
X76082026Y-29198448D01*
X76070044Y-29178457D01*
X76060079Y-29157387D01*
X76052227Y-29135443D01*
X76046563Y-29112834D01*
X76043144Y-29089779D01*
X76042000Y-29066500D01*
X76042000Y-28591500D01*
X76043144Y-28568221D01*
X76046563Y-28545166D01*
X76052227Y-28522557D01*
X76060079Y-28500613D01*
X76070044Y-28479543D01*
X76082026Y-28459552D01*
X76095910Y-28440832D01*
X76111562Y-28423562D01*
X76128832Y-28407910D01*
X76147552Y-28394026D01*
X76167543Y-28382044D01*
X76188613Y-28372079D01*
X76210557Y-28364227D01*
X76233166Y-28358563D01*
X76256221Y-28355144D01*
X76279500Y-28354000D01*
X76854500Y-28354000D01*
X76877779Y-28355144D01*
X76877779Y-28355144D01*
G37*
D15*
X76567000Y-28829000D03*
D14*
G36*
X75127779Y-28355144D02*
G01*
X75150834Y-28358563D01*
X75173443Y-28364227D01*
X75195387Y-28372079D01*
X75216457Y-28382044D01*
X75236448Y-28394026D01*
X75255168Y-28407910D01*
X75272438Y-28423562D01*
X75288090Y-28440832D01*
X75301974Y-28459552D01*
X75313956Y-28479543D01*
X75323921Y-28500613D01*
X75331773Y-28522557D01*
X75337437Y-28545166D01*
X75340856Y-28568221D01*
X75342000Y-28591500D01*
X75342000Y-29066500D01*
X75340856Y-29089779D01*
X75337437Y-29112834D01*
X75331773Y-29135443D01*
X75323921Y-29157387D01*
X75313956Y-29178457D01*
X75301974Y-29198448D01*
X75288090Y-29217168D01*
X75272438Y-29234438D01*
X75255168Y-29250090D01*
X75236448Y-29263974D01*
X75216457Y-29275956D01*
X75195387Y-29285921D01*
X75173443Y-29293773D01*
X75150834Y-29299437D01*
X75127779Y-29302856D01*
X75104500Y-29304000D01*
X74529500Y-29304000D01*
X74506221Y-29302856D01*
X74483166Y-29299437D01*
X74460557Y-29293773D01*
X74438613Y-29285921D01*
X74417543Y-29275956D01*
X74397552Y-29263974D01*
X74378832Y-29250090D01*
X74361562Y-29234438D01*
X74345910Y-29217168D01*
X74332026Y-29198448D01*
X74320044Y-29178457D01*
X74310079Y-29157387D01*
X74302227Y-29135443D01*
X74296563Y-29112834D01*
X74293144Y-29089779D01*
X74292000Y-29066500D01*
X74292000Y-28591500D01*
X74293144Y-28568221D01*
X74296563Y-28545166D01*
X74302227Y-28522557D01*
X74310079Y-28500613D01*
X74320044Y-28479543D01*
X74332026Y-28459552D01*
X74345910Y-28440832D01*
X74361562Y-28423562D01*
X74378832Y-28407910D01*
X74397552Y-28394026D01*
X74417543Y-28382044D01*
X74438613Y-28372079D01*
X74460557Y-28364227D01*
X74483166Y-28358563D01*
X74506221Y-28355144D01*
X74529500Y-28354000D01*
X75104500Y-28354000D01*
X75127779Y-28355144D01*
X75127779Y-28355144D01*
G37*
D15*
X74817000Y-28829000D03*
D14*
G36*
X76877779Y-25307144D02*
G01*
X76900834Y-25310563D01*
X76923443Y-25316227D01*
X76945387Y-25324079D01*
X76966457Y-25334044D01*
X76986448Y-25346026D01*
X77005168Y-25359910D01*
X77022438Y-25375562D01*
X77038090Y-25392832D01*
X77051974Y-25411552D01*
X77063956Y-25431543D01*
X77073921Y-25452613D01*
X77081773Y-25474557D01*
X77087437Y-25497166D01*
X77090856Y-25520221D01*
X77092000Y-25543500D01*
X77092000Y-26018500D01*
X77090856Y-26041779D01*
X77087437Y-26064834D01*
X77081773Y-26087443D01*
X77073921Y-26109387D01*
X77063956Y-26130457D01*
X77051974Y-26150448D01*
X77038090Y-26169168D01*
X77022438Y-26186438D01*
X77005168Y-26202090D01*
X76986448Y-26215974D01*
X76966457Y-26227956D01*
X76945387Y-26237921D01*
X76923443Y-26245773D01*
X76900834Y-26251437D01*
X76877779Y-26254856D01*
X76854500Y-26256000D01*
X76279500Y-26256000D01*
X76256221Y-26254856D01*
X76233166Y-26251437D01*
X76210557Y-26245773D01*
X76188613Y-26237921D01*
X76167543Y-26227956D01*
X76147552Y-26215974D01*
X76128832Y-26202090D01*
X76111562Y-26186438D01*
X76095910Y-26169168D01*
X76082026Y-26150448D01*
X76070044Y-26130457D01*
X76060079Y-26109387D01*
X76052227Y-26087443D01*
X76046563Y-26064834D01*
X76043144Y-26041779D01*
X76042000Y-26018500D01*
X76042000Y-25543500D01*
X76043144Y-25520221D01*
X76046563Y-25497166D01*
X76052227Y-25474557D01*
X76060079Y-25452613D01*
X76070044Y-25431543D01*
X76082026Y-25411552D01*
X76095910Y-25392832D01*
X76111562Y-25375562D01*
X76128832Y-25359910D01*
X76147552Y-25346026D01*
X76167543Y-25334044D01*
X76188613Y-25324079D01*
X76210557Y-25316227D01*
X76233166Y-25310563D01*
X76256221Y-25307144D01*
X76279500Y-25306000D01*
X76854500Y-25306000D01*
X76877779Y-25307144D01*
X76877779Y-25307144D01*
G37*
D15*
X76567000Y-25781000D03*
D14*
G36*
X75127779Y-25307144D02*
G01*
X75150834Y-25310563D01*
X75173443Y-25316227D01*
X75195387Y-25324079D01*
X75216457Y-25334044D01*
X75236448Y-25346026D01*
X75255168Y-25359910D01*
X75272438Y-25375562D01*
X75288090Y-25392832D01*
X75301974Y-25411552D01*
X75313956Y-25431543D01*
X75323921Y-25452613D01*
X75331773Y-25474557D01*
X75337437Y-25497166D01*
X75340856Y-25520221D01*
X75342000Y-25543500D01*
X75342000Y-26018500D01*
X75340856Y-26041779D01*
X75337437Y-26064834D01*
X75331773Y-26087443D01*
X75323921Y-26109387D01*
X75313956Y-26130457D01*
X75301974Y-26150448D01*
X75288090Y-26169168D01*
X75272438Y-26186438D01*
X75255168Y-26202090D01*
X75236448Y-26215974D01*
X75216457Y-26227956D01*
X75195387Y-26237921D01*
X75173443Y-26245773D01*
X75150834Y-26251437D01*
X75127779Y-26254856D01*
X75104500Y-26256000D01*
X74529500Y-26256000D01*
X74506221Y-26254856D01*
X74483166Y-26251437D01*
X74460557Y-26245773D01*
X74438613Y-26237921D01*
X74417543Y-26227956D01*
X74397552Y-26215974D01*
X74378832Y-26202090D01*
X74361562Y-26186438D01*
X74345910Y-26169168D01*
X74332026Y-26150448D01*
X74320044Y-26130457D01*
X74310079Y-26109387D01*
X74302227Y-26087443D01*
X74296563Y-26064834D01*
X74293144Y-26041779D01*
X74292000Y-26018500D01*
X74292000Y-25543500D01*
X74293144Y-25520221D01*
X74296563Y-25497166D01*
X74302227Y-25474557D01*
X74310079Y-25452613D01*
X74320044Y-25431543D01*
X74332026Y-25411552D01*
X74345910Y-25392832D01*
X74361562Y-25375562D01*
X74378832Y-25359910D01*
X74397552Y-25346026D01*
X74417543Y-25334044D01*
X74438613Y-25324079D01*
X74460557Y-25316227D01*
X74483166Y-25310563D01*
X74506221Y-25307144D01*
X74529500Y-25306000D01*
X75104500Y-25306000D01*
X75127779Y-25307144D01*
X75127779Y-25307144D01*
G37*
D15*
X74817000Y-25781000D03*
D14*
G36*
X76877779Y-22259144D02*
G01*
X76900834Y-22262563D01*
X76923443Y-22268227D01*
X76945387Y-22276079D01*
X76966457Y-22286044D01*
X76986448Y-22298026D01*
X77005168Y-22311910D01*
X77022438Y-22327562D01*
X77038090Y-22344832D01*
X77051974Y-22363552D01*
X77063956Y-22383543D01*
X77073921Y-22404613D01*
X77081773Y-22426557D01*
X77087437Y-22449166D01*
X77090856Y-22472221D01*
X77092000Y-22495500D01*
X77092000Y-22970500D01*
X77090856Y-22993779D01*
X77087437Y-23016834D01*
X77081773Y-23039443D01*
X77073921Y-23061387D01*
X77063956Y-23082457D01*
X77051974Y-23102448D01*
X77038090Y-23121168D01*
X77022438Y-23138438D01*
X77005168Y-23154090D01*
X76986448Y-23167974D01*
X76966457Y-23179956D01*
X76945387Y-23189921D01*
X76923443Y-23197773D01*
X76900834Y-23203437D01*
X76877779Y-23206856D01*
X76854500Y-23208000D01*
X76279500Y-23208000D01*
X76256221Y-23206856D01*
X76233166Y-23203437D01*
X76210557Y-23197773D01*
X76188613Y-23189921D01*
X76167543Y-23179956D01*
X76147552Y-23167974D01*
X76128832Y-23154090D01*
X76111562Y-23138438D01*
X76095910Y-23121168D01*
X76082026Y-23102448D01*
X76070044Y-23082457D01*
X76060079Y-23061387D01*
X76052227Y-23039443D01*
X76046563Y-23016834D01*
X76043144Y-22993779D01*
X76042000Y-22970500D01*
X76042000Y-22495500D01*
X76043144Y-22472221D01*
X76046563Y-22449166D01*
X76052227Y-22426557D01*
X76060079Y-22404613D01*
X76070044Y-22383543D01*
X76082026Y-22363552D01*
X76095910Y-22344832D01*
X76111562Y-22327562D01*
X76128832Y-22311910D01*
X76147552Y-22298026D01*
X76167543Y-22286044D01*
X76188613Y-22276079D01*
X76210557Y-22268227D01*
X76233166Y-22262563D01*
X76256221Y-22259144D01*
X76279500Y-22258000D01*
X76854500Y-22258000D01*
X76877779Y-22259144D01*
X76877779Y-22259144D01*
G37*
D15*
X76567000Y-22733000D03*
D14*
G36*
X75127779Y-22259144D02*
G01*
X75150834Y-22262563D01*
X75173443Y-22268227D01*
X75195387Y-22276079D01*
X75216457Y-22286044D01*
X75236448Y-22298026D01*
X75255168Y-22311910D01*
X75272438Y-22327562D01*
X75288090Y-22344832D01*
X75301974Y-22363552D01*
X75313956Y-22383543D01*
X75323921Y-22404613D01*
X75331773Y-22426557D01*
X75337437Y-22449166D01*
X75340856Y-22472221D01*
X75342000Y-22495500D01*
X75342000Y-22970500D01*
X75340856Y-22993779D01*
X75337437Y-23016834D01*
X75331773Y-23039443D01*
X75323921Y-23061387D01*
X75313956Y-23082457D01*
X75301974Y-23102448D01*
X75288090Y-23121168D01*
X75272438Y-23138438D01*
X75255168Y-23154090D01*
X75236448Y-23167974D01*
X75216457Y-23179956D01*
X75195387Y-23189921D01*
X75173443Y-23197773D01*
X75150834Y-23203437D01*
X75127779Y-23206856D01*
X75104500Y-23208000D01*
X74529500Y-23208000D01*
X74506221Y-23206856D01*
X74483166Y-23203437D01*
X74460557Y-23197773D01*
X74438613Y-23189921D01*
X74417543Y-23179956D01*
X74397552Y-23167974D01*
X74378832Y-23154090D01*
X74361562Y-23138438D01*
X74345910Y-23121168D01*
X74332026Y-23102448D01*
X74320044Y-23082457D01*
X74310079Y-23061387D01*
X74302227Y-23039443D01*
X74296563Y-23016834D01*
X74293144Y-22993779D01*
X74292000Y-22970500D01*
X74292000Y-22495500D01*
X74293144Y-22472221D01*
X74296563Y-22449166D01*
X74302227Y-22426557D01*
X74310079Y-22404613D01*
X74320044Y-22383543D01*
X74332026Y-22363552D01*
X74345910Y-22344832D01*
X74361562Y-22327562D01*
X74378832Y-22311910D01*
X74397552Y-22298026D01*
X74417543Y-22286044D01*
X74438613Y-22276079D01*
X74460557Y-22268227D01*
X74483166Y-22262563D01*
X74506221Y-22259144D01*
X74529500Y-22258000D01*
X75104500Y-22258000D01*
X75127779Y-22259144D01*
X75127779Y-22259144D01*
G37*
D15*
X74817000Y-22733000D03*
D14*
G36*
X76877779Y-23783144D02*
G01*
X76900834Y-23786563D01*
X76923443Y-23792227D01*
X76945387Y-23800079D01*
X76966457Y-23810044D01*
X76986448Y-23822026D01*
X77005168Y-23835910D01*
X77022438Y-23851562D01*
X77038090Y-23868832D01*
X77051974Y-23887552D01*
X77063956Y-23907543D01*
X77073921Y-23928613D01*
X77081773Y-23950557D01*
X77087437Y-23973166D01*
X77090856Y-23996221D01*
X77092000Y-24019500D01*
X77092000Y-24494500D01*
X77090856Y-24517779D01*
X77087437Y-24540834D01*
X77081773Y-24563443D01*
X77073921Y-24585387D01*
X77063956Y-24606457D01*
X77051974Y-24626448D01*
X77038090Y-24645168D01*
X77022438Y-24662438D01*
X77005168Y-24678090D01*
X76986448Y-24691974D01*
X76966457Y-24703956D01*
X76945387Y-24713921D01*
X76923443Y-24721773D01*
X76900834Y-24727437D01*
X76877779Y-24730856D01*
X76854500Y-24732000D01*
X76279500Y-24732000D01*
X76256221Y-24730856D01*
X76233166Y-24727437D01*
X76210557Y-24721773D01*
X76188613Y-24713921D01*
X76167543Y-24703956D01*
X76147552Y-24691974D01*
X76128832Y-24678090D01*
X76111562Y-24662438D01*
X76095910Y-24645168D01*
X76082026Y-24626448D01*
X76070044Y-24606457D01*
X76060079Y-24585387D01*
X76052227Y-24563443D01*
X76046563Y-24540834D01*
X76043144Y-24517779D01*
X76042000Y-24494500D01*
X76042000Y-24019500D01*
X76043144Y-23996221D01*
X76046563Y-23973166D01*
X76052227Y-23950557D01*
X76060079Y-23928613D01*
X76070044Y-23907543D01*
X76082026Y-23887552D01*
X76095910Y-23868832D01*
X76111562Y-23851562D01*
X76128832Y-23835910D01*
X76147552Y-23822026D01*
X76167543Y-23810044D01*
X76188613Y-23800079D01*
X76210557Y-23792227D01*
X76233166Y-23786563D01*
X76256221Y-23783144D01*
X76279500Y-23782000D01*
X76854500Y-23782000D01*
X76877779Y-23783144D01*
X76877779Y-23783144D01*
G37*
D15*
X76567000Y-24257000D03*
D14*
G36*
X75127779Y-23783144D02*
G01*
X75150834Y-23786563D01*
X75173443Y-23792227D01*
X75195387Y-23800079D01*
X75216457Y-23810044D01*
X75236448Y-23822026D01*
X75255168Y-23835910D01*
X75272438Y-23851562D01*
X75288090Y-23868832D01*
X75301974Y-23887552D01*
X75313956Y-23907543D01*
X75323921Y-23928613D01*
X75331773Y-23950557D01*
X75337437Y-23973166D01*
X75340856Y-23996221D01*
X75342000Y-24019500D01*
X75342000Y-24494500D01*
X75340856Y-24517779D01*
X75337437Y-24540834D01*
X75331773Y-24563443D01*
X75323921Y-24585387D01*
X75313956Y-24606457D01*
X75301974Y-24626448D01*
X75288090Y-24645168D01*
X75272438Y-24662438D01*
X75255168Y-24678090D01*
X75236448Y-24691974D01*
X75216457Y-24703956D01*
X75195387Y-24713921D01*
X75173443Y-24721773D01*
X75150834Y-24727437D01*
X75127779Y-24730856D01*
X75104500Y-24732000D01*
X74529500Y-24732000D01*
X74506221Y-24730856D01*
X74483166Y-24727437D01*
X74460557Y-24721773D01*
X74438613Y-24713921D01*
X74417543Y-24703956D01*
X74397552Y-24691974D01*
X74378832Y-24678090D01*
X74361562Y-24662438D01*
X74345910Y-24645168D01*
X74332026Y-24626448D01*
X74320044Y-24606457D01*
X74310079Y-24585387D01*
X74302227Y-24563443D01*
X74296563Y-24540834D01*
X74293144Y-24517779D01*
X74292000Y-24494500D01*
X74292000Y-24019500D01*
X74293144Y-23996221D01*
X74296563Y-23973166D01*
X74302227Y-23950557D01*
X74310079Y-23928613D01*
X74320044Y-23907543D01*
X74332026Y-23887552D01*
X74345910Y-23868832D01*
X74361562Y-23851562D01*
X74378832Y-23835910D01*
X74397552Y-23822026D01*
X74417543Y-23810044D01*
X74438613Y-23800079D01*
X74460557Y-23792227D01*
X74483166Y-23786563D01*
X74506221Y-23783144D01*
X74529500Y-23782000D01*
X75104500Y-23782000D01*
X75127779Y-23783144D01*
X75127779Y-23783144D01*
G37*
D15*
X74817000Y-24257000D03*
D14*
G36*
X76877779Y-32927144D02*
G01*
X76900834Y-32930563D01*
X76923443Y-32936227D01*
X76945387Y-32944079D01*
X76966457Y-32954044D01*
X76986448Y-32966026D01*
X77005168Y-32979910D01*
X77022438Y-32995562D01*
X77038090Y-33012832D01*
X77051974Y-33031552D01*
X77063956Y-33051543D01*
X77073921Y-33072613D01*
X77081773Y-33094557D01*
X77087437Y-33117166D01*
X77090856Y-33140221D01*
X77092000Y-33163500D01*
X77092000Y-33638500D01*
X77090856Y-33661779D01*
X77087437Y-33684834D01*
X77081773Y-33707443D01*
X77073921Y-33729387D01*
X77063956Y-33750457D01*
X77051974Y-33770448D01*
X77038090Y-33789168D01*
X77022438Y-33806438D01*
X77005168Y-33822090D01*
X76986448Y-33835974D01*
X76966457Y-33847956D01*
X76945387Y-33857921D01*
X76923443Y-33865773D01*
X76900834Y-33871437D01*
X76877779Y-33874856D01*
X76854500Y-33876000D01*
X76279500Y-33876000D01*
X76256221Y-33874856D01*
X76233166Y-33871437D01*
X76210557Y-33865773D01*
X76188613Y-33857921D01*
X76167543Y-33847956D01*
X76147552Y-33835974D01*
X76128832Y-33822090D01*
X76111562Y-33806438D01*
X76095910Y-33789168D01*
X76082026Y-33770448D01*
X76070044Y-33750457D01*
X76060079Y-33729387D01*
X76052227Y-33707443D01*
X76046563Y-33684834D01*
X76043144Y-33661779D01*
X76042000Y-33638500D01*
X76042000Y-33163500D01*
X76043144Y-33140221D01*
X76046563Y-33117166D01*
X76052227Y-33094557D01*
X76060079Y-33072613D01*
X76070044Y-33051543D01*
X76082026Y-33031552D01*
X76095910Y-33012832D01*
X76111562Y-32995562D01*
X76128832Y-32979910D01*
X76147552Y-32966026D01*
X76167543Y-32954044D01*
X76188613Y-32944079D01*
X76210557Y-32936227D01*
X76233166Y-32930563D01*
X76256221Y-32927144D01*
X76279500Y-32926000D01*
X76854500Y-32926000D01*
X76877779Y-32927144D01*
X76877779Y-32927144D01*
G37*
D15*
X76567000Y-33401000D03*
D14*
G36*
X75127779Y-32927144D02*
G01*
X75150834Y-32930563D01*
X75173443Y-32936227D01*
X75195387Y-32944079D01*
X75216457Y-32954044D01*
X75236448Y-32966026D01*
X75255168Y-32979910D01*
X75272438Y-32995562D01*
X75288090Y-33012832D01*
X75301974Y-33031552D01*
X75313956Y-33051543D01*
X75323921Y-33072613D01*
X75331773Y-33094557D01*
X75337437Y-33117166D01*
X75340856Y-33140221D01*
X75342000Y-33163500D01*
X75342000Y-33638500D01*
X75340856Y-33661779D01*
X75337437Y-33684834D01*
X75331773Y-33707443D01*
X75323921Y-33729387D01*
X75313956Y-33750457D01*
X75301974Y-33770448D01*
X75288090Y-33789168D01*
X75272438Y-33806438D01*
X75255168Y-33822090D01*
X75236448Y-33835974D01*
X75216457Y-33847956D01*
X75195387Y-33857921D01*
X75173443Y-33865773D01*
X75150834Y-33871437D01*
X75127779Y-33874856D01*
X75104500Y-33876000D01*
X74529500Y-33876000D01*
X74506221Y-33874856D01*
X74483166Y-33871437D01*
X74460557Y-33865773D01*
X74438613Y-33857921D01*
X74417543Y-33847956D01*
X74397552Y-33835974D01*
X74378832Y-33822090D01*
X74361562Y-33806438D01*
X74345910Y-33789168D01*
X74332026Y-33770448D01*
X74320044Y-33750457D01*
X74310079Y-33729387D01*
X74302227Y-33707443D01*
X74296563Y-33684834D01*
X74293144Y-33661779D01*
X74292000Y-33638500D01*
X74292000Y-33163500D01*
X74293144Y-33140221D01*
X74296563Y-33117166D01*
X74302227Y-33094557D01*
X74310079Y-33072613D01*
X74320044Y-33051543D01*
X74332026Y-33031552D01*
X74345910Y-33012832D01*
X74361562Y-32995562D01*
X74378832Y-32979910D01*
X74397552Y-32966026D01*
X74417543Y-32954044D01*
X74438613Y-32944079D01*
X74460557Y-32936227D01*
X74483166Y-32930563D01*
X74506221Y-32927144D01*
X74529500Y-32926000D01*
X75104500Y-32926000D01*
X75127779Y-32927144D01*
X75127779Y-32927144D01*
G37*
D15*
X74817000Y-33401000D03*
D14*
G36*
X75127779Y-29879144D02*
G01*
X75150834Y-29882563D01*
X75173443Y-29888227D01*
X75195387Y-29896079D01*
X75216457Y-29906044D01*
X75236448Y-29918026D01*
X75255168Y-29931910D01*
X75272438Y-29947562D01*
X75288090Y-29964832D01*
X75301974Y-29983552D01*
X75313956Y-30003543D01*
X75323921Y-30024613D01*
X75331773Y-30046557D01*
X75337437Y-30069166D01*
X75340856Y-30092221D01*
X75342000Y-30115500D01*
X75342000Y-30590500D01*
X75340856Y-30613779D01*
X75337437Y-30636834D01*
X75331773Y-30659443D01*
X75323921Y-30681387D01*
X75313956Y-30702457D01*
X75301974Y-30722448D01*
X75288090Y-30741168D01*
X75272438Y-30758438D01*
X75255168Y-30774090D01*
X75236448Y-30787974D01*
X75216457Y-30799956D01*
X75195387Y-30809921D01*
X75173443Y-30817773D01*
X75150834Y-30823437D01*
X75127779Y-30826856D01*
X75104500Y-30828000D01*
X74529500Y-30828000D01*
X74506221Y-30826856D01*
X74483166Y-30823437D01*
X74460557Y-30817773D01*
X74438613Y-30809921D01*
X74417543Y-30799956D01*
X74397552Y-30787974D01*
X74378832Y-30774090D01*
X74361562Y-30758438D01*
X74345910Y-30741168D01*
X74332026Y-30722448D01*
X74320044Y-30702457D01*
X74310079Y-30681387D01*
X74302227Y-30659443D01*
X74296563Y-30636834D01*
X74293144Y-30613779D01*
X74292000Y-30590500D01*
X74292000Y-30115500D01*
X74293144Y-30092221D01*
X74296563Y-30069166D01*
X74302227Y-30046557D01*
X74310079Y-30024613D01*
X74320044Y-30003543D01*
X74332026Y-29983552D01*
X74345910Y-29964832D01*
X74361562Y-29947562D01*
X74378832Y-29931910D01*
X74397552Y-29918026D01*
X74417543Y-29906044D01*
X74438613Y-29896079D01*
X74460557Y-29888227D01*
X74483166Y-29882563D01*
X74506221Y-29879144D01*
X74529500Y-29878000D01*
X75104500Y-29878000D01*
X75127779Y-29879144D01*
X75127779Y-29879144D01*
G37*
D15*
X74817000Y-30353000D03*
D14*
G36*
X76877779Y-29879144D02*
G01*
X76900834Y-29882563D01*
X76923443Y-29888227D01*
X76945387Y-29896079D01*
X76966457Y-29906044D01*
X76986448Y-29918026D01*
X77005168Y-29931910D01*
X77022438Y-29947562D01*
X77038090Y-29964832D01*
X77051974Y-29983552D01*
X77063956Y-30003543D01*
X77073921Y-30024613D01*
X77081773Y-30046557D01*
X77087437Y-30069166D01*
X77090856Y-30092221D01*
X77092000Y-30115500D01*
X77092000Y-30590500D01*
X77090856Y-30613779D01*
X77087437Y-30636834D01*
X77081773Y-30659443D01*
X77073921Y-30681387D01*
X77063956Y-30702457D01*
X77051974Y-30722448D01*
X77038090Y-30741168D01*
X77022438Y-30758438D01*
X77005168Y-30774090D01*
X76986448Y-30787974D01*
X76966457Y-30799956D01*
X76945387Y-30809921D01*
X76923443Y-30817773D01*
X76900834Y-30823437D01*
X76877779Y-30826856D01*
X76854500Y-30828000D01*
X76279500Y-30828000D01*
X76256221Y-30826856D01*
X76233166Y-30823437D01*
X76210557Y-30817773D01*
X76188613Y-30809921D01*
X76167543Y-30799956D01*
X76147552Y-30787974D01*
X76128832Y-30774090D01*
X76111562Y-30758438D01*
X76095910Y-30741168D01*
X76082026Y-30722448D01*
X76070044Y-30702457D01*
X76060079Y-30681387D01*
X76052227Y-30659443D01*
X76046563Y-30636834D01*
X76043144Y-30613779D01*
X76042000Y-30590500D01*
X76042000Y-30115500D01*
X76043144Y-30092221D01*
X76046563Y-30069166D01*
X76052227Y-30046557D01*
X76060079Y-30024613D01*
X76070044Y-30003543D01*
X76082026Y-29983552D01*
X76095910Y-29964832D01*
X76111562Y-29947562D01*
X76128832Y-29931910D01*
X76147552Y-29918026D01*
X76167543Y-29906044D01*
X76188613Y-29896079D01*
X76210557Y-29888227D01*
X76233166Y-29882563D01*
X76256221Y-29879144D01*
X76279500Y-29878000D01*
X76854500Y-29878000D01*
X76877779Y-29879144D01*
X76877779Y-29879144D01*
G37*
D15*
X76567000Y-30353000D03*
D14*
G36*
X75127779Y-34451144D02*
G01*
X75150834Y-34454563D01*
X75173443Y-34460227D01*
X75195387Y-34468079D01*
X75216457Y-34478044D01*
X75236448Y-34490026D01*
X75255168Y-34503910D01*
X75272438Y-34519562D01*
X75288090Y-34536832D01*
X75301974Y-34555552D01*
X75313956Y-34575543D01*
X75323921Y-34596613D01*
X75331773Y-34618557D01*
X75337437Y-34641166D01*
X75340856Y-34664221D01*
X75342000Y-34687500D01*
X75342000Y-35162500D01*
X75340856Y-35185779D01*
X75337437Y-35208834D01*
X75331773Y-35231443D01*
X75323921Y-35253387D01*
X75313956Y-35274457D01*
X75301974Y-35294448D01*
X75288090Y-35313168D01*
X75272438Y-35330438D01*
X75255168Y-35346090D01*
X75236448Y-35359974D01*
X75216457Y-35371956D01*
X75195387Y-35381921D01*
X75173443Y-35389773D01*
X75150834Y-35395437D01*
X75127779Y-35398856D01*
X75104500Y-35400000D01*
X74529500Y-35400000D01*
X74506221Y-35398856D01*
X74483166Y-35395437D01*
X74460557Y-35389773D01*
X74438613Y-35381921D01*
X74417543Y-35371956D01*
X74397552Y-35359974D01*
X74378832Y-35346090D01*
X74361562Y-35330438D01*
X74345910Y-35313168D01*
X74332026Y-35294448D01*
X74320044Y-35274457D01*
X74310079Y-35253387D01*
X74302227Y-35231443D01*
X74296563Y-35208834D01*
X74293144Y-35185779D01*
X74292000Y-35162500D01*
X74292000Y-34687500D01*
X74293144Y-34664221D01*
X74296563Y-34641166D01*
X74302227Y-34618557D01*
X74310079Y-34596613D01*
X74320044Y-34575543D01*
X74332026Y-34555552D01*
X74345910Y-34536832D01*
X74361562Y-34519562D01*
X74378832Y-34503910D01*
X74397552Y-34490026D01*
X74417543Y-34478044D01*
X74438613Y-34468079D01*
X74460557Y-34460227D01*
X74483166Y-34454563D01*
X74506221Y-34451144D01*
X74529500Y-34450000D01*
X75104500Y-34450000D01*
X75127779Y-34451144D01*
X75127779Y-34451144D01*
G37*
D15*
X74817000Y-34925000D03*
D14*
G36*
X76877779Y-34451144D02*
G01*
X76900834Y-34454563D01*
X76923443Y-34460227D01*
X76945387Y-34468079D01*
X76966457Y-34478044D01*
X76986448Y-34490026D01*
X77005168Y-34503910D01*
X77022438Y-34519562D01*
X77038090Y-34536832D01*
X77051974Y-34555552D01*
X77063956Y-34575543D01*
X77073921Y-34596613D01*
X77081773Y-34618557D01*
X77087437Y-34641166D01*
X77090856Y-34664221D01*
X77092000Y-34687500D01*
X77092000Y-35162500D01*
X77090856Y-35185779D01*
X77087437Y-35208834D01*
X77081773Y-35231443D01*
X77073921Y-35253387D01*
X77063956Y-35274457D01*
X77051974Y-35294448D01*
X77038090Y-35313168D01*
X77022438Y-35330438D01*
X77005168Y-35346090D01*
X76986448Y-35359974D01*
X76966457Y-35371956D01*
X76945387Y-35381921D01*
X76923443Y-35389773D01*
X76900834Y-35395437D01*
X76877779Y-35398856D01*
X76854500Y-35400000D01*
X76279500Y-35400000D01*
X76256221Y-35398856D01*
X76233166Y-35395437D01*
X76210557Y-35389773D01*
X76188613Y-35381921D01*
X76167543Y-35371956D01*
X76147552Y-35359974D01*
X76128832Y-35346090D01*
X76111562Y-35330438D01*
X76095910Y-35313168D01*
X76082026Y-35294448D01*
X76070044Y-35274457D01*
X76060079Y-35253387D01*
X76052227Y-35231443D01*
X76046563Y-35208834D01*
X76043144Y-35185779D01*
X76042000Y-35162500D01*
X76042000Y-34687500D01*
X76043144Y-34664221D01*
X76046563Y-34641166D01*
X76052227Y-34618557D01*
X76060079Y-34596613D01*
X76070044Y-34575543D01*
X76082026Y-34555552D01*
X76095910Y-34536832D01*
X76111562Y-34519562D01*
X76128832Y-34503910D01*
X76147552Y-34490026D01*
X76167543Y-34478044D01*
X76188613Y-34468079D01*
X76210557Y-34460227D01*
X76233166Y-34454563D01*
X76256221Y-34451144D01*
X76279500Y-34450000D01*
X76854500Y-34450000D01*
X76877779Y-34451144D01*
X76877779Y-34451144D01*
G37*
D15*
X76567000Y-34925000D03*
D14*
G36*
X75127779Y-35975144D02*
G01*
X75150834Y-35978563D01*
X75173443Y-35984227D01*
X75195387Y-35992079D01*
X75216457Y-36002044D01*
X75236448Y-36014026D01*
X75255168Y-36027910D01*
X75272438Y-36043562D01*
X75288090Y-36060832D01*
X75301974Y-36079552D01*
X75313956Y-36099543D01*
X75323921Y-36120613D01*
X75331773Y-36142557D01*
X75337437Y-36165166D01*
X75340856Y-36188221D01*
X75342000Y-36211500D01*
X75342000Y-36686500D01*
X75340856Y-36709779D01*
X75337437Y-36732834D01*
X75331773Y-36755443D01*
X75323921Y-36777387D01*
X75313956Y-36798457D01*
X75301974Y-36818448D01*
X75288090Y-36837168D01*
X75272438Y-36854438D01*
X75255168Y-36870090D01*
X75236448Y-36883974D01*
X75216457Y-36895956D01*
X75195387Y-36905921D01*
X75173443Y-36913773D01*
X75150834Y-36919437D01*
X75127779Y-36922856D01*
X75104500Y-36924000D01*
X74529500Y-36924000D01*
X74506221Y-36922856D01*
X74483166Y-36919437D01*
X74460557Y-36913773D01*
X74438613Y-36905921D01*
X74417543Y-36895956D01*
X74397552Y-36883974D01*
X74378832Y-36870090D01*
X74361562Y-36854438D01*
X74345910Y-36837168D01*
X74332026Y-36818448D01*
X74320044Y-36798457D01*
X74310079Y-36777387D01*
X74302227Y-36755443D01*
X74296563Y-36732834D01*
X74293144Y-36709779D01*
X74292000Y-36686500D01*
X74292000Y-36211500D01*
X74293144Y-36188221D01*
X74296563Y-36165166D01*
X74302227Y-36142557D01*
X74310079Y-36120613D01*
X74320044Y-36099543D01*
X74332026Y-36079552D01*
X74345910Y-36060832D01*
X74361562Y-36043562D01*
X74378832Y-36027910D01*
X74397552Y-36014026D01*
X74417543Y-36002044D01*
X74438613Y-35992079D01*
X74460557Y-35984227D01*
X74483166Y-35978563D01*
X74506221Y-35975144D01*
X74529500Y-35974000D01*
X75104500Y-35974000D01*
X75127779Y-35975144D01*
X75127779Y-35975144D01*
G37*
D15*
X74817000Y-36449000D03*
D14*
G36*
X76877779Y-35975144D02*
G01*
X76900834Y-35978563D01*
X76923443Y-35984227D01*
X76945387Y-35992079D01*
X76966457Y-36002044D01*
X76986448Y-36014026D01*
X77005168Y-36027910D01*
X77022438Y-36043562D01*
X77038090Y-36060832D01*
X77051974Y-36079552D01*
X77063956Y-36099543D01*
X77073921Y-36120613D01*
X77081773Y-36142557D01*
X77087437Y-36165166D01*
X77090856Y-36188221D01*
X77092000Y-36211500D01*
X77092000Y-36686500D01*
X77090856Y-36709779D01*
X77087437Y-36732834D01*
X77081773Y-36755443D01*
X77073921Y-36777387D01*
X77063956Y-36798457D01*
X77051974Y-36818448D01*
X77038090Y-36837168D01*
X77022438Y-36854438D01*
X77005168Y-36870090D01*
X76986448Y-36883974D01*
X76966457Y-36895956D01*
X76945387Y-36905921D01*
X76923443Y-36913773D01*
X76900834Y-36919437D01*
X76877779Y-36922856D01*
X76854500Y-36924000D01*
X76279500Y-36924000D01*
X76256221Y-36922856D01*
X76233166Y-36919437D01*
X76210557Y-36913773D01*
X76188613Y-36905921D01*
X76167543Y-36895956D01*
X76147552Y-36883974D01*
X76128832Y-36870090D01*
X76111562Y-36854438D01*
X76095910Y-36837168D01*
X76082026Y-36818448D01*
X76070044Y-36798457D01*
X76060079Y-36777387D01*
X76052227Y-36755443D01*
X76046563Y-36732834D01*
X76043144Y-36709779D01*
X76042000Y-36686500D01*
X76042000Y-36211500D01*
X76043144Y-36188221D01*
X76046563Y-36165166D01*
X76052227Y-36142557D01*
X76060079Y-36120613D01*
X76070044Y-36099543D01*
X76082026Y-36079552D01*
X76095910Y-36060832D01*
X76111562Y-36043562D01*
X76128832Y-36027910D01*
X76147552Y-36014026D01*
X76167543Y-36002044D01*
X76188613Y-35992079D01*
X76210557Y-35984227D01*
X76233166Y-35978563D01*
X76256221Y-35975144D01*
X76279500Y-35974000D01*
X76854500Y-35974000D01*
X76877779Y-35975144D01*
X76877779Y-35975144D01*
G37*
D15*
X76567000Y-36449000D03*
D14*
G36*
X75113779Y-31403144D02*
G01*
X75136834Y-31406563D01*
X75159443Y-31412227D01*
X75181387Y-31420079D01*
X75202457Y-31430044D01*
X75222448Y-31442026D01*
X75241168Y-31455910D01*
X75258438Y-31471562D01*
X75274090Y-31488832D01*
X75287974Y-31507552D01*
X75299956Y-31527543D01*
X75309921Y-31548613D01*
X75317773Y-31570557D01*
X75323437Y-31593166D01*
X75326856Y-31616221D01*
X75328000Y-31639500D01*
X75328000Y-32114500D01*
X75326856Y-32137779D01*
X75323437Y-32160834D01*
X75317773Y-32183443D01*
X75309921Y-32205387D01*
X75299956Y-32226457D01*
X75287974Y-32246448D01*
X75274090Y-32265168D01*
X75258438Y-32282438D01*
X75241168Y-32298090D01*
X75222448Y-32311974D01*
X75202457Y-32323956D01*
X75181387Y-32333921D01*
X75159443Y-32341773D01*
X75136834Y-32347437D01*
X75113779Y-32350856D01*
X75090500Y-32352000D01*
X74515500Y-32352000D01*
X74492221Y-32350856D01*
X74469166Y-32347437D01*
X74446557Y-32341773D01*
X74424613Y-32333921D01*
X74403543Y-32323956D01*
X74383552Y-32311974D01*
X74364832Y-32298090D01*
X74347562Y-32282438D01*
X74331910Y-32265168D01*
X74318026Y-32246448D01*
X74306044Y-32226457D01*
X74296079Y-32205387D01*
X74288227Y-32183443D01*
X74282563Y-32160834D01*
X74279144Y-32137779D01*
X74278000Y-32114500D01*
X74278000Y-31639500D01*
X74279144Y-31616221D01*
X74282563Y-31593166D01*
X74288227Y-31570557D01*
X74296079Y-31548613D01*
X74306044Y-31527543D01*
X74318026Y-31507552D01*
X74331910Y-31488832D01*
X74347562Y-31471562D01*
X74364832Y-31455910D01*
X74383552Y-31442026D01*
X74403543Y-31430044D01*
X74424613Y-31420079D01*
X74446557Y-31412227D01*
X74469166Y-31406563D01*
X74492221Y-31403144D01*
X74515500Y-31402000D01*
X75090500Y-31402000D01*
X75113779Y-31403144D01*
X75113779Y-31403144D01*
G37*
D15*
X74803000Y-31877000D03*
D14*
G36*
X76863779Y-31403144D02*
G01*
X76886834Y-31406563D01*
X76909443Y-31412227D01*
X76931387Y-31420079D01*
X76952457Y-31430044D01*
X76972448Y-31442026D01*
X76991168Y-31455910D01*
X77008438Y-31471562D01*
X77024090Y-31488832D01*
X77037974Y-31507552D01*
X77049956Y-31527543D01*
X77059921Y-31548613D01*
X77067773Y-31570557D01*
X77073437Y-31593166D01*
X77076856Y-31616221D01*
X77078000Y-31639500D01*
X77078000Y-32114500D01*
X77076856Y-32137779D01*
X77073437Y-32160834D01*
X77067773Y-32183443D01*
X77059921Y-32205387D01*
X77049956Y-32226457D01*
X77037974Y-32246448D01*
X77024090Y-32265168D01*
X77008438Y-32282438D01*
X76991168Y-32298090D01*
X76972448Y-32311974D01*
X76952457Y-32323956D01*
X76931387Y-32333921D01*
X76909443Y-32341773D01*
X76886834Y-32347437D01*
X76863779Y-32350856D01*
X76840500Y-32352000D01*
X76265500Y-32352000D01*
X76242221Y-32350856D01*
X76219166Y-32347437D01*
X76196557Y-32341773D01*
X76174613Y-32333921D01*
X76153543Y-32323956D01*
X76133552Y-32311974D01*
X76114832Y-32298090D01*
X76097562Y-32282438D01*
X76081910Y-32265168D01*
X76068026Y-32246448D01*
X76056044Y-32226457D01*
X76046079Y-32205387D01*
X76038227Y-32183443D01*
X76032563Y-32160834D01*
X76029144Y-32137779D01*
X76028000Y-32114500D01*
X76028000Y-31639500D01*
X76029144Y-31616221D01*
X76032563Y-31593166D01*
X76038227Y-31570557D01*
X76046079Y-31548613D01*
X76056044Y-31527543D01*
X76068026Y-31507552D01*
X76081910Y-31488832D01*
X76097562Y-31471562D01*
X76114832Y-31455910D01*
X76133552Y-31442026D01*
X76153543Y-31430044D01*
X76174613Y-31420079D01*
X76196557Y-31412227D01*
X76219166Y-31406563D01*
X76242221Y-31403144D01*
X76265500Y-31402000D01*
X76840500Y-31402000D01*
X76863779Y-31403144D01*
X76863779Y-31403144D01*
G37*
D15*
X76553000Y-31877000D03*
D14*
G36*
X75127779Y-37499144D02*
G01*
X75150834Y-37502563D01*
X75173443Y-37508227D01*
X75195387Y-37516079D01*
X75216457Y-37526044D01*
X75236448Y-37538026D01*
X75255168Y-37551910D01*
X75272438Y-37567562D01*
X75288090Y-37584832D01*
X75301974Y-37603552D01*
X75313956Y-37623543D01*
X75323921Y-37644613D01*
X75331773Y-37666557D01*
X75337437Y-37689166D01*
X75340856Y-37712221D01*
X75342000Y-37735500D01*
X75342000Y-38210500D01*
X75340856Y-38233779D01*
X75337437Y-38256834D01*
X75331773Y-38279443D01*
X75323921Y-38301387D01*
X75313956Y-38322457D01*
X75301974Y-38342448D01*
X75288090Y-38361168D01*
X75272438Y-38378438D01*
X75255168Y-38394090D01*
X75236448Y-38407974D01*
X75216457Y-38419956D01*
X75195387Y-38429921D01*
X75173443Y-38437773D01*
X75150834Y-38443437D01*
X75127779Y-38446856D01*
X75104500Y-38448000D01*
X74529500Y-38448000D01*
X74506221Y-38446856D01*
X74483166Y-38443437D01*
X74460557Y-38437773D01*
X74438613Y-38429921D01*
X74417543Y-38419956D01*
X74397552Y-38407974D01*
X74378832Y-38394090D01*
X74361562Y-38378438D01*
X74345910Y-38361168D01*
X74332026Y-38342448D01*
X74320044Y-38322457D01*
X74310079Y-38301387D01*
X74302227Y-38279443D01*
X74296563Y-38256834D01*
X74293144Y-38233779D01*
X74292000Y-38210500D01*
X74292000Y-37735500D01*
X74293144Y-37712221D01*
X74296563Y-37689166D01*
X74302227Y-37666557D01*
X74310079Y-37644613D01*
X74320044Y-37623543D01*
X74332026Y-37603552D01*
X74345910Y-37584832D01*
X74361562Y-37567562D01*
X74378832Y-37551910D01*
X74397552Y-37538026D01*
X74417543Y-37526044D01*
X74438613Y-37516079D01*
X74460557Y-37508227D01*
X74483166Y-37502563D01*
X74506221Y-37499144D01*
X74529500Y-37498000D01*
X75104500Y-37498000D01*
X75127779Y-37499144D01*
X75127779Y-37499144D01*
G37*
D15*
X74817000Y-37973000D03*
D14*
G36*
X76877779Y-37499144D02*
G01*
X76900834Y-37502563D01*
X76923443Y-37508227D01*
X76945387Y-37516079D01*
X76966457Y-37526044D01*
X76986448Y-37538026D01*
X77005168Y-37551910D01*
X77022438Y-37567562D01*
X77038090Y-37584832D01*
X77051974Y-37603552D01*
X77063956Y-37623543D01*
X77073921Y-37644613D01*
X77081773Y-37666557D01*
X77087437Y-37689166D01*
X77090856Y-37712221D01*
X77092000Y-37735500D01*
X77092000Y-38210500D01*
X77090856Y-38233779D01*
X77087437Y-38256834D01*
X77081773Y-38279443D01*
X77073921Y-38301387D01*
X77063956Y-38322457D01*
X77051974Y-38342448D01*
X77038090Y-38361168D01*
X77022438Y-38378438D01*
X77005168Y-38394090D01*
X76986448Y-38407974D01*
X76966457Y-38419956D01*
X76945387Y-38429921D01*
X76923443Y-38437773D01*
X76900834Y-38443437D01*
X76877779Y-38446856D01*
X76854500Y-38448000D01*
X76279500Y-38448000D01*
X76256221Y-38446856D01*
X76233166Y-38443437D01*
X76210557Y-38437773D01*
X76188613Y-38429921D01*
X76167543Y-38419956D01*
X76147552Y-38407974D01*
X76128832Y-38394090D01*
X76111562Y-38378438D01*
X76095910Y-38361168D01*
X76082026Y-38342448D01*
X76070044Y-38322457D01*
X76060079Y-38301387D01*
X76052227Y-38279443D01*
X76046563Y-38256834D01*
X76043144Y-38233779D01*
X76042000Y-38210500D01*
X76042000Y-37735500D01*
X76043144Y-37712221D01*
X76046563Y-37689166D01*
X76052227Y-37666557D01*
X76060079Y-37644613D01*
X76070044Y-37623543D01*
X76082026Y-37603552D01*
X76095910Y-37584832D01*
X76111562Y-37567562D01*
X76128832Y-37551910D01*
X76147552Y-37538026D01*
X76167543Y-37526044D01*
X76188613Y-37516079D01*
X76210557Y-37508227D01*
X76233166Y-37502563D01*
X76256221Y-37499144D01*
X76279500Y-37498000D01*
X76854500Y-37498000D01*
X76877779Y-37499144D01*
X76877779Y-37499144D01*
G37*
D15*
X76567000Y-37973000D03*
M02*
