G04 #@! TF.GenerationSoftware,KiCad,Pcbnew,(5.1.0-rc2-21-g16b3c80a7)*
G04 #@! TF.CreationDate,2019-05-25T16:35:41+02:00*
G04 #@! TF.ProjectId,Analog_Input_Module,416e616c-6f67-45f4-996e-7075745f4d6f,R2.1*
G04 #@! TF.SameCoordinates,Original*
G04 #@! TF.FileFunction,Other,User*
%FSLAX46Y46*%
G04 Gerber Fmt 4.6, Leading zero omitted, Abs format (unit mm)*
G04 Created by KiCad (PCBNEW (5.1.0-rc2-21-g16b3c80a7)) date 2019-05-25 16:35:41*
%MOMM*%
%LPD*%
G04 APERTURE LIST*
%ADD10C,0.150000*%
%ADD11C,0.050000*%
G04 APERTURE END LIST*
D10*
X80000000Y-42000000D02*
X80000000Y-20000000D01*
X80000000Y-20000000D02*
X20000000Y-20000000D01*
X80000000Y-42000000D02*
X20000000Y-42000000D01*
X20000000Y-20000000D02*
X20000000Y-42000000D01*
D11*
X65185590Y-29597000D02*
X57285590Y-29597000D01*
X65185590Y-23997000D02*
X57285590Y-23997000D01*
X57285590Y-23997000D02*
X57285590Y-29597000D01*
X65185590Y-23997000D02*
X65185590Y-29597000D01*
X35234000Y-29755500D02*
X35234000Y-32855500D01*
X35234000Y-29755500D02*
X38934000Y-29755500D01*
X38934000Y-32855500D02*
X35234000Y-32855500D01*
X38934000Y-32855500D02*
X38934000Y-29755500D01*
X59106610Y-20802000D02*
X59106610Y-23902000D01*
X59106610Y-20802000D02*
X62806610Y-20802000D01*
X62806610Y-23902000D02*
X59106610Y-23902000D01*
X62806610Y-23902000D02*
X62806610Y-20802000D01*
X47041720Y-20929000D02*
X47041720Y-24029000D01*
X47041720Y-20929000D02*
X50741720Y-20929000D01*
X50741720Y-24029000D02*
X47041720Y-24029000D01*
X50741720Y-24029000D02*
X50741720Y-20929000D01*
X59237000Y-29692000D02*
X59237000Y-32792000D01*
X59237000Y-29692000D02*
X62937000Y-29692000D01*
X62937000Y-32792000D02*
X59237000Y-32792000D01*
X62937000Y-32792000D02*
X62937000Y-29692000D01*
X47045000Y-29755500D02*
X47045000Y-32855500D01*
X47045000Y-29755500D02*
X50745000Y-29755500D01*
X50745000Y-32855500D02*
X47045000Y-32855500D01*
X50745000Y-32855500D02*
X50745000Y-29755500D01*
X52981210Y-29660500D02*
X45081210Y-29660500D01*
X52981210Y-24060500D02*
X45081210Y-24060500D01*
X45081210Y-24060500D02*
X45081210Y-29660500D01*
X52981210Y-24060500D02*
X52981210Y-29660500D01*
X35361000Y-20865500D02*
X35361000Y-23965500D01*
X35361000Y-20865500D02*
X39061000Y-20865500D01*
X39061000Y-23965500D02*
X35361000Y-23965500D01*
X39061000Y-23965500D02*
X39061000Y-20865500D01*
X23744790Y-20992500D02*
X23744790Y-24092500D01*
X23744790Y-20992500D02*
X27444790Y-20992500D01*
X27444790Y-24092500D02*
X23744790Y-24092500D01*
X27444790Y-24092500D02*
X27444790Y-20992500D01*
X41201600Y-29660500D02*
X33301600Y-29660500D01*
X41201600Y-24060500D02*
X33301600Y-24060500D01*
X33301600Y-24060500D02*
X33301600Y-29660500D01*
X41201600Y-24060500D02*
X41201600Y-29660500D01*
X29405300Y-29787500D02*
X21505300Y-29787500D01*
X29405300Y-24187500D02*
X21505300Y-24187500D01*
X21505300Y-24187500D02*
X21505300Y-29787500D01*
X29405300Y-24187500D02*
X29405300Y-29787500D01*
X23550000Y-29882500D02*
X23550000Y-32982500D01*
X23550000Y-29882500D02*
X27250000Y-29882500D01*
X27250000Y-32982500D02*
X23550000Y-32982500D01*
X27250000Y-32982500D02*
X27250000Y-29882500D01*
X77342000Y-26575000D02*
X74042000Y-26575000D01*
X77342000Y-28035000D02*
X77342000Y-26575000D01*
X74042000Y-28035000D02*
X77342000Y-28035000D01*
X74042000Y-26575000D02*
X74042000Y-28035000D01*
X77342000Y-28099000D02*
X74042000Y-28099000D01*
X77342000Y-29559000D02*
X77342000Y-28099000D01*
X74042000Y-29559000D02*
X77342000Y-29559000D01*
X74042000Y-28099000D02*
X74042000Y-29559000D01*
X77342000Y-25051000D02*
X74042000Y-25051000D01*
X77342000Y-26511000D02*
X77342000Y-25051000D01*
X74042000Y-26511000D02*
X77342000Y-26511000D01*
X74042000Y-25051000D02*
X74042000Y-26511000D01*
X77342000Y-22003000D02*
X74042000Y-22003000D01*
X77342000Y-23463000D02*
X77342000Y-22003000D01*
X74042000Y-23463000D02*
X77342000Y-23463000D01*
X74042000Y-22003000D02*
X74042000Y-23463000D01*
X77342000Y-23527000D02*
X74042000Y-23527000D01*
X77342000Y-24987000D02*
X77342000Y-23527000D01*
X74042000Y-24987000D02*
X77342000Y-24987000D01*
X74042000Y-23527000D02*
X74042000Y-24987000D01*
X77342000Y-32671000D02*
X74042000Y-32671000D01*
X77342000Y-34131000D02*
X77342000Y-32671000D01*
X74042000Y-34131000D02*
X77342000Y-34131000D01*
X74042000Y-32671000D02*
X74042000Y-34131000D01*
X74042000Y-29623000D02*
X74042000Y-31083000D01*
X74042000Y-31083000D02*
X77342000Y-31083000D01*
X77342000Y-31083000D02*
X77342000Y-29623000D01*
X77342000Y-29623000D02*
X74042000Y-29623000D01*
X74042000Y-34195000D02*
X74042000Y-35655000D01*
X74042000Y-35655000D02*
X77342000Y-35655000D01*
X77342000Y-35655000D02*
X77342000Y-34195000D01*
X77342000Y-34195000D02*
X74042000Y-34195000D01*
X74042000Y-35719000D02*
X74042000Y-37179000D01*
X74042000Y-37179000D02*
X77342000Y-37179000D01*
X77342000Y-37179000D02*
X77342000Y-35719000D01*
X77342000Y-35719000D02*
X74042000Y-35719000D01*
X74028000Y-31147000D02*
X74028000Y-32607000D01*
X74028000Y-32607000D02*
X77328000Y-32607000D01*
X77328000Y-32607000D02*
X77328000Y-31147000D01*
X77328000Y-31147000D02*
X74028000Y-31147000D01*
X74042000Y-37243000D02*
X74042000Y-38703000D01*
X74042000Y-38703000D02*
X77342000Y-38703000D01*
X77342000Y-38703000D02*
X77342000Y-37243000D01*
X77342000Y-37243000D02*
X74042000Y-37243000D01*
M02*
