G04 #@! TF.GenerationSoftware,KiCad,Pcbnew,(5.1.0-rc2-21-g16b3c80a7)*
G04 #@! TF.CreationDate,2019-05-25T16:35:41+02:00*
G04 #@! TF.ProjectId,Analog_Input_Module,416e616c-6f67-45f4-996e-7075745f4d6f,R2.1*
G04 #@! TF.SameCoordinates,Original*
G04 #@! TF.FileFunction,Legend,Top*
G04 #@! TF.FilePolarity,Positive*
%FSLAX46Y46*%
G04 Gerber Fmt 4.6, Leading zero omitted, Abs format (unit mm)*
G04 Created by KiCad (PCBNEW (5.1.0-rc2-21-g16b3c80a7)) date 2019-05-25 16:35:41*
%MOMM*%
%LPD*%
G04 APERTURE LIST*
%ADD10C,0.250000*%
%ADD11C,0.150000*%
%ADD12C,0.130000*%
%ADD13C,0.100000*%
G04 APERTURE END LIST*
D10*
X68326000Y-36004500D02*
X68326000Y-36703000D01*
D11*
X22283452Y-21443904D02*
X21826309Y-21443904D01*
X22054880Y-21443904D02*
X22054880Y-20643904D01*
X21978690Y-20758190D01*
X21902500Y-20834380D01*
X21826309Y-20872476D01*
X22969166Y-20643904D02*
X22816785Y-20643904D01*
X22740595Y-20682000D01*
X22702500Y-20720095D01*
X22626309Y-20834380D01*
X22588214Y-20986761D01*
X22588214Y-21291523D01*
X22626309Y-21367714D01*
X22664404Y-21405809D01*
X22740595Y-21443904D01*
X22892976Y-21443904D01*
X22969166Y-21405809D01*
X23007261Y-21367714D01*
X23045357Y-21291523D01*
X23045357Y-21101047D01*
X23007261Y-21024857D01*
X22969166Y-20986761D01*
X22892976Y-20948666D01*
X22740595Y-20948666D01*
X22664404Y-20986761D01*
X22626309Y-21024857D01*
X22588214Y-21101047D01*
X24454880Y-21367714D02*
X24416785Y-21405809D01*
X24302500Y-21443904D01*
X24226309Y-21443904D01*
X24112023Y-21405809D01*
X24035833Y-21329619D01*
X23997738Y-21253428D01*
X23959642Y-21101047D01*
X23959642Y-20986761D01*
X23997738Y-20834380D01*
X24035833Y-20758190D01*
X24112023Y-20682000D01*
X24226309Y-20643904D01*
X24302500Y-20643904D01*
X24416785Y-20682000D01*
X24454880Y-20720095D01*
X24797738Y-21443904D02*
X24797738Y-20643904D01*
X24797738Y-21024857D02*
X25254880Y-21024857D01*
X25254880Y-21443904D02*
X25254880Y-20643904D01*
X25597738Y-21215333D02*
X25978690Y-21215333D01*
X25521547Y-21443904D02*
X25788214Y-20643904D01*
X26054880Y-21443904D01*
X26321547Y-21443904D02*
X26321547Y-20643904D01*
X26778690Y-21443904D01*
X26778690Y-20643904D01*
X27159642Y-21443904D02*
X27159642Y-20643904D01*
X27616785Y-21443904D01*
X27616785Y-20643904D01*
X27997738Y-21024857D02*
X28264404Y-21024857D01*
X28378690Y-21443904D02*
X27997738Y-21443904D01*
X27997738Y-20643904D01*
X28378690Y-20643904D01*
X29102500Y-21443904D02*
X28721547Y-21443904D01*
X28721547Y-20643904D01*
X29940595Y-21215333D02*
X30321547Y-21215333D01*
X29864404Y-21443904D02*
X30131071Y-20643904D01*
X30397738Y-21443904D01*
X30664404Y-21443904D02*
X30664404Y-20643904D01*
X31121547Y-21443904D01*
X31121547Y-20643904D01*
X31464404Y-21215333D02*
X31845357Y-21215333D01*
X31388214Y-21443904D02*
X31654880Y-20643904D01*
X31921547Y-21443904D01*
X32569166Y-21443904D02*
X32188214Y-21443904D01*
X32188214Y-20643904D01*
X32988214Y-20643904D02*
X33140595Y-20643904D01*
X33216785Y-20682000D01*
X33292976Y-20758190D01*
X33331071Y-20910571D01*
X33331071Y-21177238D01*
X33292976Y-21329619D01*
X33216785Y-21405809D01*
X33140595Y-21443904D01*
X32988214Y-21443904D01*
X32912023Y-21405809D01*
X32835833Y-21329619D01*
X32797738Y-21177238D01*
X32797738Y-20910571D01*
X32835833Y-20758190D01*
X32912023Y-20682000D01*
X32988214Y-20643904D01*
X34092976Y-20682000D02*
X34016785Y-20643904D01*
X33902500Y-20643904D01*
X33788214Y-20682000D01*
X33712023Y-20758190D01*
X33673928Y-20834380D01*
X33635833Y-20986761D01*
X33635833Y-21101047D01*
X33673928Y-21253428D01*
X33712023Y-21329619D01*
X33788214Y-21405809D01*
X33902500Y-21443904D01*
X33978690Y-21443904D01*
X34092976Y-21405809D01*
X34131071Y-21367714D01*
X34131071Y-21101047D01*
X33978690Y-21101047D01*
X35083452Y-21443904D02*
X35083452Y-20643904D01*
X35464404Y-21443904D02*
X35464404Y-20643904D01*
X35921547Y-21443904D01*
X35921547Y-20643904D01*
X36302500Y-21443904D02*
X36302500Y-20643904D01*
X36607261Y-20643904D01*
X36683452Y-20682000D01*
X36721547Y-20720095D01*
X36759642Y-20796285D01*
X36759642Y-20910571D01*
X36721547Y-20986761D01*
X36683452Y-21024857D01*
X36607261Y-21062952D01*
X36302500Y-21062952D01*
X37102500Y-20643904D02*
X37102500Y-21291523D01*
X37140595Y-21367714D01*
X37178690Y-21405809D01*
X37254880Y-21443904D01*
X37407261Y-21443904D01*
X37483452Y-21405809D01*
X37521547Y-21367714D01*
X37559642Y-21291523D01*
X37559642Y-20643904D01*
X37826309Y-20643904D02*
X38283452Y-20643904D01*
X38054880Y-21443904D02*
X38054880Y-20643904D01*
X39159642Y-21443904D02*
X39159642Y-20643904D01*
X39426309Y-21215333D01*
X39692976Y-20643904D01*
X39692976Y-21443904D01*
X40226309Y-20643904D02*
X40378690Y-20643904D01*
X40454880Y-20682000D01*
X40531071Y-20758190D01*
X40569166Y-20910571D01*
X40569166Y-21177238D01*
X40531071Y-21329619D01*
X40454880Y-21405809D01*
X40378690Y-21443904D01*
X40226309Y-21443904D01*
X40150119Y-21405809D01*
X40073928Y-21329619D01*
X40035833Y-21177238D01*
X40035833Y-20910571D01*
X40073928Y-20758190D01*
X40150119Y-20682000D01*
X40226309Y-20643904D01*
X40912023Y-21443904D02*
X40912023Y-20643904D01*
X41102500Y-20643904D01*
X41216785Y-20682000D01*
X41292976Y-20758190D01*
X41331071Y-20834380D01*
X41369166Y-20986761D01*
X41369166Y-21101047D01*
X41331071Y-21253428D01*
X41292976Y-21329619D01*
X41216785Y-21405809D01*
X41102500Y-21443904D01*
X40912023Y-21443904D01*
X41712023Y-20643904D02*
X41712023Y-21291523D01*
X41750119Y-21367714D01*
X41788214Y-21405809D01*
X41864404Y-21443904D01*
X42016785Y-21443904D01*
X42092976Y-21405809D01*
X42131071Y-21367714D01*
X42169166Y-21291523D01*
X42169166Y-20643904D01*
X42931071Y-21443904D02*
X42550119Y-21443904D01*
X42550119Y-20643904D01*
X43197738Y-21024857D02*
X43464404Y-21024857D01*
X43578690Y-21443904D02*
X43197738Y-21443904D01*
X43197738Y-20643904D01*
X43578690Y-20643904D01*
D12*
X73008666Y-40956666D02*
X73008666Y-40490000D01*
X73008666Y-40623333D02*
X73042000Y-40556666D01*
X73075333Y-40523333D01*
X73142000Y-40490000D01*
X73208666Y-40490000D01*
X73742000Y-40490000D02*
X73742000Y-40956666D01*
X73442000Y-40490000D02*
X73442000Y-40856666D01*
X73475333Y-40923333D01*
X73542000Y-40956666D01*
X73642000Y-40956666D01*
X73708666Y-40923333D01*
X73742000Y-40890000D01*
X74042000Y-40923333D02*
X74108666Y-40956666D01*
X74242000Y-40956666D01*
X74308666Y-40923333D01*
X74342000Y-40856666D01*
X74342000Y-40823333D01*
X74308666Y-40756666D01*
X74242000Y-40723333D01*
X74142000Y-40723333D01*
X74075333Y-40690000D01*
X74042000Y-40623333D01*
X74042000Y-40590000D01*
X74075333Y-40523333D01*
X74142000Y-40490000D01*
X74242000Y-40490000D01*
X74308666Y-40523333D01*
X74908666Y-40923333D02*
X74842000Y-40956666D01*
X74708666Y-40956666D01*
X74642000Y-40923333D01*
X74608666Y-40856666D01*
X74608666Y-40590000D01*
X74642000Y-40523333D01*
X74708666Y-40490000D01*
X74842000Y-40490000D01*
X74908666Y-40523333D01*
X74942000Y-40590000D01*
X74942000Y-40656666D01*
X74608666Y-40723333D01*
X75142000Y-40490000D02*
X75408666Y-40490000D01*
X75242000Y-40956666D02*
X75242000Y-40356666D01*
X75275333Y-40290000D01*
X75342000Y-40256666D01*
X75408666Y-40256666D01*
X75642000Y-40956666D02*
X75642000Y-40490000D01*
X75642000Y-40256666D02*
X75608666Y-40290000D01*
X75642000Y-40323333D01*
X75675333Y-40290000D01*
X75642000Y-40256666D01*
X75642000Y-40323333D01*
X76442000Y-40490000D02*
X76608666Y-40956666D01*
X76775333Y-40490000D01*
X77175333Y-40256666D02*
X77242000Y-40256666D01*
X77308666Y-40290000D01*
X77342000Y-40323333D01*
X77375333Y-40390000D01*
X77408666Y-40523333D01*
X77408666Y-40690000D01*
X77375333Y-40823333D01*
X77342000Y-40890000D01*
X77308666Y-40923333D01*
X77242000Y-40956666D01*
X77175333Y-40956666D01*
X77108666Y-40923333D01*
X77075333Y-40890000D01*
X77042000Y-40823333D01*
X77008666Y-40690000D01*
X77008666Y-40523333D01*
X77042000Y-40390000D01*
X77075333Y-40323333D01*
X77108666Y-40290000D01*
X77175333Y-40256666D01*
X77708666Y-40890000D02*
X77742000Y-40923333D01*
X77708666Y-40956666D01*
X77675333Y-40923333D01*
X77708666Y-40890000D01*
X77708666Y-40956666D01*
X78408666Y-40956666D02*
X78008666Y-40956666D01*
X78208666Y-40956666D02*
X78208666Y-40256666D01*
X78142000Y-40356666D01*
X78075333Y-40423333D01*
X78008666Y-40456666D01*
D13*
X70596333Y-22459190D02*
X70763000Y-22959190D01*
X70929666Y-22459190D01*
X71096333Y-22768714D02*
X71477285Y-22768714D01*
X71882047Y-22697285D02*
X71953476Y-22721095D01*
X71977285Y-22744904D01*
X72001095Y-22792523D01*
X72001095Y-22863952D01*
X71977285Y-22911571D01*
X71953476Y-22935380D01*
X71905857Y-22959190D01*
X71715380Y-22959190D01*
X71715380Y-22459190D01*
X71882047Y-22459190D01*
X71929666Y-22483000D01*
X71953476Y-22506809D01*
X71977285Y-22554428D01*
X71977285Y-22602047D01*
X71953476Y-22649666D01*
X71929666Y-22673476D01*
X71882047Y-22697285D01*
X71715380Y-22697285D01*
X72429666Y-22959190D02*
X72429666Y-22697285D01*
X72405857Y-22649666D01*
X72358238Y-22625857D01*
X72263000Y-22625857D01*
X72215380Y-22649666D01*
X72429666Y-22935380D02*
X72382047Y-22959190D01*
X72263000Y-22959190D01*
X72215380Y-22935380D01*
X72191571Y-22887761D01*
X72191571Y-22840142D01*
X72215380Y-22792523D01*
X72263000Y-22768714D01*
X72382047Y-22768714D01*
X72429666Y-22744904D01*
X72596333Y-22625857D02*
X72786809Y-22625857D01*
X72667761Y-22459190D02*
X72667761Y-22887761D01*
X72691571Y-22935380D01*
X72739190Y-22959190D01*
X72786809Y-22959190D01*
X72834428Y-23006809D02*
X73215380Y-23006809D01*
X73334428Y-22959190D02*
X73334428Y-22459190D01*
X73572523Y-22959190D02*
X73572523Y-22459190D01*
X73858238Y-22959190D01*
X73858238Y-22459190D01*
X71116166Y-24046690D02*
X71282833Y-24546690D01*
X71449500Y-24046690D01*
X71616166Y-24356214D02*
X71997119Y-24356214D01*
X72520928Y-24546690D02*
X72354261Y-24308595D01*
X72235214Y-24546690D02*
X72235214Y-24046690D01*
X72425690Y-24046690D01*
X72473309Y-24070500D01*
X72497119Y-24094309D01*
X72520928Y-24141928D01*
X72520928Y-24213357D01*
X72497119Y-24260976D01*
X72473309Y-24284785D01*
X72425690Y-24308595D01*
X72235214Y-24308595D01*
X72925690Y-24522880D02*
X72878071Y-24546690D01*
X72782833Y-24546690D01*
X72735214Y-24522880D01*
X72711404Y-24475261D01*
X72711404Y-24284785D01*
X72735214Y-24237166D01*
X72782833Y-24213357D01*
X72878071Y-24213357D01*
X72925690Y-24237166D01*
X72949500Y-24284785D01*
X72949500Y-24332404D01*
X72711404Y-24380023D01*
X73092357Y-24213357D02*
X73282833Y-24213357D01*
X73163785Y-24546690D02*
X73163785Y-24118119D01*
X73187595Y-24070500D01*
X73235214Y-24046690D01*
X73282833Y-24046690D01*
X66833761Y-35095690D02*
X66595666Y-35095690D01*
X66571857Y-35333785D01*
X66595666Y-35309976D01*
X66643285Y-35286166D01*
X66762333Y-35286166D01*
X66809952Y-35309976D01*
X66833761Y-35333785D01*
X66857571Y-35381404D01*
X66857571Y-35500452D01*
X66833761Y-35548071D01*
X66809952Y-35571880D01*
X66762333Y-35595690D01*
X66643285Y-35595690D01*
X66595666Y-35571880D01*
X66571857Y-35548071D01*
X67000428Y-35095690D02*
X67167095Y-35595690D01*
X67333761Y-35095690D01*
X64135047Y-35183000D02*
X64087428Y-35159190D01*
X64016000Y-35159190D01*
X63944571Y-35183000D01*
X63896952Y-35230619D01*
X63873142Y-35278238D01*
X63849333Y-35373476D01*
X63849333Y-35444904D01*
X63873142Y-35540142D01*
X63896952Y-35587761D01*
X63944571Y-35635380D01*
X64016000Y-35659190D01*
X64063619Y-35659190D01*
X64135047Y-35635380D01*
X64158857Y-35611571D01*
X64158857Y-35444904D01*
X64063619Y-35444904D01*
X64373142Y-35659190D02*
X64373142Y-35159190D01*
X64658857Y-35659190D01*
X64658857Y-35159190D01*
X64896952Y-35659190D02*
X64896952Y-35159190D01*
X65016000Y-35159190D01*
X65087428Y-35183000D01*
X65135047Y-35230619D01*
X65158857Y-35278238D01*
X65182666Y-35373476D01*
X65182666Y-35444904D01*
X65158857Y-35540142D01*
X65135047Y-35587761D01*
X65087428Y-35635380D01*
X65016000Y-35659190D01*
X64896952Y-35659190D01*
X23780761Y-35159190D02*
X23542666Y-35159190D01*
X23518857Y-35397285D01*
X23542666Y-35373476D01*
X23590285Y-35349666D01*
X23709333Y-35349666D01*
X23756952Y-35373476D01*
X23780761Y-35397285D01*
X23804571Y-35444904D01*
X23804571Y-35563952D01*
X23780761Y-35611571D01*
X23756952Y-35635380D01*
X23709333Y-35659190D01*
X23590285Y-35659190D01*
X23542666Y-35635380D01*
X23518857Y-35611571D01*
X23947428Y-35159190D02*
X24114095Y-35659190D01*
X24280761Y-35159190D01*
X20955047Y-35183000D02*
X20907428Y-35159190D01*
X20836000Y-35159190D01*
X20764571Y-35183000D01*
X20716952Y-35230619D01*
X20693142Y-35278238D01*
X20669333Y-35373476D01*
X20669333Y-35444904D01*
X20693142Y-35540142D01*
X20716952Y-35587761D01*
X20764571Y-35635380D01*
X20836000Y-35659190D01*
X20883619Y-35659190D01*
X20955047Y-35635380D01*
X20978857Y-35611571D01*
X20978857Y-35444904D01*
X20883619Y-35444904D01*
X21193142Y-35659190D02*
X21193142Y-35159190D01*
X21478857Y-35659190D01*
X21478857Y-35159190D01*
X21716952Y-35659190D02*
X21716952Y-35159190D01*
X21836000Y-35159190D01*
X21907428Y-35183000D01*
X21955047Y-35230619D01*
X21978857Y-35278238D01*
X22002666Y-35373476D01*
X22002666Y-35444904D01*
X21978857Y-35540142D01*
X21955047Y-35587761D01*
X21907428Y-35635380D01*
X21836000Y-35659190D01*
X21716952Y-35659190D01*
X21082047Y-35945000D02*
X21034428Y-35921190D01*
X20963000Y-35921190D01*
X20891571Y-35945000D01*
X20843952Y-35992619D01*
X20820142Y-36040238D01*
X20796333Y-36135476D01*
X20796333Y-36206904D01*
X20820142Y-36302142D01*
X20843952Y-36349761D01*
X20891571Y-36397380D01*
X20963000Y-36421190D01*
X21010619Y-36421190D01*
X21082047Y-36397380D01*
X21105857Y-36373571D01*
X21105857Y-36206904D01*
X21010619Y-36206904D01*
X21320142Y-36421190D02*
X21320142Y-35921190D01*
X21605857Y-36421190D01*
X21605857Y-35921190D01*
X21843952Y-36421190D02*
X21843952Y-35921190D01*
X21963000Y-35921190D01*
X22034428Y-35945000D01*
X22082047Y-35992619D01*
X22105857Y-36040238D01*
X22129666Y-36135476D01*
X22129666Y-36206904D01*
X22105857Y-36302142D01*
X22082047Y-36349761D01*
X22034428Y-36397380D01*
X21963000Y-36421190D01*
X21843952Y-36421190D01*
X23780761Y-35921190D02*
X23542666Y-35921190D01*
X23518857Y-36159285D01*
X23542666Y-36135476D01*
X23590285Y-36111666D01*
X23709333Y-36111666D01*
X23756952Y-36135476D01*
X23780761Y-36159285D01*
X23804571Y-36206904D01*
X23804571Y-36325952D01*
X23780761Y-36373571D01*
X23756952Y-36397380D01*
X23709333Y-36421190D01*
X23590285Y-36421190D01*
X23542666Y-36397380D01*
X23518857Y-36373571D01*
X23947428Y-35921190D02*
X24114095Y-36421190D01*
X24280761Y-35921190D01*
X25558857Y-35516333D02*
X25796952Y-35516333D01*
X25511238Y-35659190D02*
X25677904Y-35159190D01*
X25844571Y-35659190D01*
X26011238Y-35659190D02*
X26011238Y-35159190D01*
X26130285Y-35159190D01*
X26201714Y-35183000D01*
X26249333Y-35230619D01*
X26273142Y-35278238D01*
X26296952Y-35373476D01*
X26296952Y-35444904D01*
X26273142Y-35540142D01*
X26249333Y-35587761D01*
X26201714Y-35635380D01*
X26130285Y-35659190D01*
X26011238Y-35659190D01*
X26796952Y-35611571D02*
X26773142Y-35635380D01*
X26701714Y-35659190D01*
X26654095Y-35659190D01*
X26582666Y-35635380D01*
X26535047Y-35587761D01*
X26511238Y-35540142D01*
X26487428Y-35444904D01*
X26487428Y-35373476D01*
X26511238Y-35278238D01*
X26535047Y-35230619D01*
X26582666Y-35183000D01*
X26654095Y-35159190D01*
X26701714Y-35159190D01*
X26773142Y-35183000D01*
X26796952Y-35206809D01*
X27225523Y-35325857D02*
X27225523Y-35659190D01*
X27106476Y-35135380D02*
X26987428Y-35492523D01*
X27296952Y-35492523D01*
X25558857Y-36278333D02*
X25796952Y-36278333D01*
X25511238Y-36421190D02*
X25677904Y-35921190D01*
X25844571Y-36421190D01*
X26011238Y-36421190D02*
X26011238Y-35921190D01*
X26130285Y-35921190D01*
X26201714Y-35945000D01*
X26249333Y-35992619D01*
X26273142Y-36040238D01*
X26296952Y-36135476D01*
X26296952Y-36206904D01*
X26273142Y-36302142D01*
X26249333Y-36349761D01*
X26201714Y-36397380D01*
X26130285Y-36421190D01*
X26011238Y-36421190D01*
X26796952Y-36373571D02*
X26773142Y-36397380D01*
X26701714Y-36421190D01*
X26654095Y-36421190D01*
X26582666Y-36397380D01*
X26535047Y-36349761D01*
X26511238Y-36302142D01*
X26487428Y-36206904D01*
X26487428Y-36135476D01*
X26511238Y-36040238D01*
X26535047Y-35992619D01*
X26582666Y-35945000D01*
X26654095Y-35921190D01*
X26701714Y-35921190D01*
X26773142Y-35945000D01*
X26796952Y-35968809D01*
X26963619Y-35921190D02*
X27273142Y-35921190D01*
X27106476Y-36111666D01*
X27177904Y-36111666D01*
X27225523Y-36135476D01*
X27249333Y-36159285D01*
X27273142Y-36206904D01*
X27273142Y-36325952D01*
X27249333Y-36373571D01*
X27225523Y-36397380D01*
X27177904Y-36421190D01*
X27035047Y-36421190D01*
X26987428Y-36397380D01*
X26963619Y-36373571D01*
X28209952Y-35516333D02*
X28448047Y-35516333D01*
X28162333Y-35659190D02*
X28329000Y-35159190D01*
X28495666Y-35659190D01*
X28662333Y-35659190D02*
X28662333Y-35159190D01*
X28948047Y-35659190D01*
X28948047Y-35159190D01*
X29138523Y-35159190D02*
X29448047Y-35159190D01*
X29281380Y-35349666D01*
X29352809Y-35349666D01*
X29400428Y-35373476D01*
X29424238Y-35397285D01*
X29448047Y-35444904D01*
X29448047Y-35563952D01*
X29424238Y-35611571D01*
X29400428Y-35635380D01*
X29352809Y-35659190D01*
X29209952Y-35659190D01*
X29162333Y-35635380D01*
X29138523Y-35611571D01*
X28336952Y-36278333D02*
X28575047Y-36278333D01*
X28289333Y-36421190D02*
X28456000Y-35921190D01*
X28622666Y-36421190D01*
X28789333Y-36421190D02*
X28789333Y-35921190D01*
X29075047Y-36421190D01*
X29075047Y-35921190D01*
X29527428Y-36087857D02*
X29527428Y-36421190D01*
X29408380Y-35897380D02*
X29289333Y-36254523D01*
X29598857Y-36254523D01*
X30876952Y-35516333D02*
X31115047Y-35516333D01*
X30829333Y-35659190D02*
X30996000Y-35159190D01*
X31162666Y-35659190D01*
X31329333Y-35659190D02*
X31329333Y-35159190D01*
X31615047Y-35659190D01*
X31615047Y-35159190D01*
X32115047Y-35659190D02*
X31829333Y-35659190D01*
X31972190Y-35659190D02*
X31972190Y-35159190D01*
X31924571Y-35230619D01*
X31876952Y-35278238D01*
X31829333Y-35302047D01*
X30876952Y-36278333D02*
X31115047Y-36278333D01*
X30829333Y-36421190D02*
X30996000Y-35921190D01*
X31162666Y-36421190D01*
X31329333Y-36421190D02*
X31329333Y-35921190D01*
X31615047Y-36421190D01*
X31615047Y-35921190D01*
X31829333Y-35968809D02*
X31853142Y-35945000D01*
X31900761Y-35921190D01*
X32019809Y-35921190D01*
X32067428Y-35945000D01*
X32091238Y-35968809D01*
X32115047Y-36016428D01*
X32115047Y-36064047D01*
X32091238Y-36135476D01*
X31805523Y-36421190D01*
X32115047Y-36421190D01*
X33305857Y-35516333D02*
X33543952Y-35516333D01*
X33258238Y-35659190D02*
X33424904Y-35159190D01*
X33591571Y-35659190D01*
X33758238Y-35659190D02*
X33758238Y-35159190D01*
X33877285Y-35159190D01*
X33948714Y-35183000D01*
X33996333Y-35230619D01*
X34020142Y-35278238D01*
X34043952Y-35373476D01*
X34043952Y-35444904D01*
X34020142Y-35540142D01*
X33996333Y-35587761D01*
X33948714Y-35635380D01*
X33877285Y-35659190D01*
X33758238Y-35659190D01*
X34543952Y-35611571D02*
X34520142Y-35635380D01*
X34448714Y-35659190D01*
X34401095Y-35659190D01*
X34329666Y-35635380D01*
X34282047Y-35587761D01*
X34258238Y-35540142D01*
X34234428Y-35444904D01*
X34234428Y-35373476D01*
X34258238Y-35278238D01*
X34282047Y-35230619D01*
X34329666Y-35183000D01*
X34401095Y-35159190D01*
X34448714Y-35159190D01*
X34520142Y-35183000D01*
X34543952Y-35206809D01*
X34734428Y-35206809D02*
X34758238Y-35183000D01*
X34805857Y-35159190D01*
X34924904Y-35159190D01*
X34972523Y-35183000D01*
X34996333Y-35206809D01*
X35020142Y-35254428D01*
X35020142Y-35302047D01*
X34996333Y-35373476D01*
X34710619Y-35659190D01*
X35020142Y-35659190D01*
X33305857Y-36278333D02*
X33543952Y-36278333D01*
X33258238Y-36421190D02*
X33424904Y-35921190D01*
X33591571Y-36421190D01*
X33758238Y-36421190D02*
X33758238Y-35921190D01*
X33877285Y-35921190D01*
X33948714Y-35945000D01*
X33996333Y-35992619D01*
X34020142Y-36040238D01*
X34043952Y-36135476D01*
X34043952Y-36206904D01*
X34020142Y-36302142D01*
X33996333Y-36349761D01*
X33948714Y-36397380D01*
X33877285Y-36421190D01*
X33758238Y-36421190D01*
X34543952Y-36373571D02*
X34520142Y-36397380D01*
X34448714Y-36421190D01*
X34401095Y-36421190D01*
X34329666Y-36397380D01*
X34282047Y-36349761D01*
X34258238Y-36302142D01*
X34234428Y-36206904D01*
X34234428Y-36135476D01*
X34258238Y-36040238D01*
X34282047Y-35992619D01*
X34329666Y-35945000D01*
X34401095Y-35921190D01*
X34448714Y-35921190D01*
X34520142Y-35945000D01*
X34543952Y-35968809D01*
X35020142Y-36421190D02*
X34734428Y-36421190D01*
X34877285Y-36421190D02*
X34877285Y-35921190D01*
X34829666Y-35992619D01*
X34782047Y-36040238D01*
X34734428Y-36064047D01*
X35718857Y-36278333D02*
X35956952Y-36278333D01*
X35671238Y-36421190D02*
X35837904Y-35921190D01*
X36004571Y-36421190D01*
X36171238Y-36421190D02*
X36171238Y-35921190D01*
X36290285Y-35921190D01*
X36361714Y-35945000D01*
X36409333Y-35992619D01*
X36433142Y-36040238D01*
X36456952Y-36135476D01*
X36456952Y-36206904D01*
X36433142Y-36302142D01*
X36409333Y-36349761D01*
X36361714Y-36397380D01*
X36290285Y-36421190D01*
X36171238Y-36421190D01*
X36956952Y-36373571D02*
X36933142Y-36397380D01*
X36861714Y-36421190D01*
X36814095Y-36421190D01*
X36742666Y-36397380D01*
X36695047Y-36349761D01*
X36671238Y-36302142D01*
X36647428Y-36206904D01*
X36647428Y-36135476D01*
X36671238Y-36040238D01*
X36695047Y-35992619D01*
X36742666Y-35945000D01*
X36814095Y-35921190D01*
X36861714Y-35921190D01*
X36933142Y-35945000D01*
X36956952Y-35968809D01*
X37123619Y-35921190D02*
X37456952Y-35921190D01*
X37242666Y-36421190D01*
X35718857Y-35516333D02*
X35956952Y-35516333D01*
X35671238Y-35659190D02*
X35837904Y-35159190D01*
X36004571Y-35659190D01*
X36171238Y-35659190D02*
X36171238Y-35159190D01*
X36290285Y-35159190D01*
X36361714Y-35183000D01*
X36409333Y-35230619D01*
X36433142Y-35278238D01*
X36456952Y-35373476D01*
X36456952Y-35444904D01*
X36433142Y-35540142D01*
X36409333Y-35587761D01*
X36361714Y-35635380D01*
X36290285Y-35659190D01*
X36171238Y-35659190D01*
X36956952Y-35611571D02*
X36933142Y-35635380D01*
X36861714Y-35659190D01*
X36814095Y-35659190D01*
X36742666Y-35635380D01*
X36695047Y-35587761D01*
X36671238Y-35540142D01*
X36647428Y-35444904D01*
X36647428Y-35373476D01*
X36671238Y-35278238D01*
X36695047Y-35230619D01*
X36742666Y-35183000D01*
X36814095Y-35159190D01*
X36861714Y-35159190D01*
X36933142Y-35183000D01*
X36956952Y-35206809D01*
X37242666Y-35373476D02*
X37195047Y-35349666D01*
X37171238Y-35325857D01*
X37147428Y-35278238D01*
X37147428Y-35254428D01*
X37171238Y-35206809D01*
X37195047Y-35183000D01*
X37242666Y-35159190D01*
X37337904Y-35159190D01*
X37385523Y-35183000D01*
X37409333Y-35206809D01*
X37433142Y-35254428D01*
X37433142Y-35278238D01*
X37409333Y-35325857D01*
X37385523Y-35349666D01*
X37337904Y-35373476D01*
X37242666Y-35373476D01*
X37195047Y-35397285D01*
X37171238Y-35421095D01*
X37147428Y-35468714D01*
X37147428Y-35563952D01*
X37171238Y-35611571D01*
X37195047Y-35635380D01*
X37242666Y-35659190D01*
X37337904Y-35659190D01*
X37385523Y-35635380D01*
X37409333Y-35611571D01*
X37433142Y-35563952D01*
X37433142Y-35468714D01*
X37409333Y-35421095D01*
X37385523Y-35397285D01*
X37337904Y-35373476D01*
X38369952Y-36278333D02*
X38608047Y-36278333D01*
X38322333Y-36421190D02*
X38489000Y-35921190D01*
X38655666Y-36421190D01*
X38822333Y-36421190D02*
X38822333Y-35921190D01*
X39108047Y-36421190D01*
X39108047Y-35921190D01*
X39417571Y-36135476D02*
X39369952Y-36111666D01*
X39346142Y-36087857D01*
X39322333Y-36040238D01*
X39322333Y-36016428D01*
X39346142Y-35968809D01*
X39369952Y-35945000D01*
X39417571Y-35921190D01*
X39512809Y-35921190D01*
X39560428Y-35945000D01*
X39584238Y-35968809D01*
X39608047Y-36016428D01*
X39608047Y-36040238D01*
X39584238Y-36087857D01*
X39560428Y-36111666D01*
X39512809Y-36135476D01*
X39417571Y-36135476D01*
X39369952Y-36159285D01*
X39346142Y-36183095D01*
X39322333Y-36230714D01*
X39322333Y-36325952D01*
X39346142Y-36373571D01*
X39369952Y-36397380D01*
X39417571Y-36421190D01*
X39512809Y-36421190D01*
X39560428Y-36397380D01*
X39584238Y-36373571D01*
X39608047Y-36325952D01*
X39608047Y-36230714D01*
X39584238Y-36183095D01*
X39560428Y-36159285D01*
X39512809Y-36135476D01*
X38369952Y-35516333D02*
X38608047Y-35516333D01*
X38322333Y-35659190D02*
X38489000Y-35159190D01*
X38655666Y-35659190D01*
X38822333Y-35659190D02*
X38822333Y-35159190D01*
X39108047Y-35659190D01*
X39108047Y-35159190D01*
X39298523Y-35159190D02*
X39631857Y-35159190D01*
X39417571Y-35659190D01*
X41036952Y-35516333D02*
X41275047Y-35516333D01*
X40989333Y-35659190D02*
X41156000Y-35159190D01*
X41322666Y-35659190D01*
X41489333Y-35659190D02*
X41489333Y-35159190D01*
X41775047Y-35659190D01*
X41775047Y-35159190D01*
X42251238Y-35159190D02*
X42013142Y-35159190D01*
X41989333Y-35397285D01*
X42013142Y-35373476D01*
X42060761Y-35349666D01*
X42179809Y-35349666D01*
X42227428Y-35373476D01*
X42251238Y-35397285D01*
X42275047Y-35444904D01*
X42275047Y-35563952D01*
X42251238Y-35611571D01*
X42227428Y-35635380D01*
X42179809Y-35659190D01*
X42060761Y-35659190D01*
X42013142Y-35635380D01*
X41989333Y-35611571D01*
X41036952Y-36278333D02*
X41275047Y-36278333D01*
X40989333Y-36421190D02*
X41156000Y-35921190D01*
X41322666Y-36421190D01*
X41489333Y-36421190D02*
X41489333Y-35921190D01*
X41775047Y-36421190D01*
X41775047Y-35921190D01*
X42227428Y-35921190D02*
X42132190Y-35921190D01*
X42084571Y-35945000D01*
X42060761Y-35968809D01*
X42013142Y-36040238D01*
X41989333Y-36135476D01*
X41989333Y-36325952D01*
X42013142Y-36373571D01*
X42036952Y-36397380D01*
X42084571Y-36421190D01*
X42179809Y-36421190D01*
X42227428Y-36397380D01*
X42251238Y-36373571D01*
X42275047Y-36325952D01*
X42275047Y-36206904D01*
X42251238Y-36159285D01*
X42227428Y-36135476D01*
X42179809Y-36111666D01*
X42084571Y-36111666D01*
X42036952Y-36135476D01*
X42013142Y-36159285D01*
X41989333Y-36206904D01*
X43338857Y-35516333D02*
X43576952Y-35516333D01*
X43291238Y-35659190D02*
X43457904Y-35159190D01*
X43624571Y-35659190D01*
X43791238Y-35659190D02*
X43791238Y-35159190D01*
X43910285Y-35159190D01*
X43981714Y-35183000D01*
X44029333Y-35230619D01*
X44053142Y-35278238D01*
X44076952Y-35373476D01*
X44076952Y-35444904D01*
X44053142Y-35540142D01*
X44029333Y-35587761D01*
X43981714Y-35635380D01*
X43910285Y-35659190D01*
X43791238Y-35659190D01*
X44576952Y-35611571D02*
X44553142Y-35635380D01*
X44481714Y-35659190D01*
X44434095Y-35659190D01*
X44362666Y-35635380D01*
X44315047Y-35587761D01*
X44291238Y-35540142D01*
X44267428Y-35444904D01*
X44267428Y-35373476D01*
X44291238Y-35278238D01*
X44315047Y-35230619D01*
X44362666Y-35183000D01*
X44434095Y-35159190D01*
X44481714Y-35159190D01*
X44553142Y-35183000D01*
X44576952Y-35206809D01*
X45005523Y-35159190D02*
X44910285Y-35159190D01*
X44862666Y-35183000D01*
X44838857Y-35206809D01*
X44791238Y-35278238D01*
X44767428Y-35373476D01*
X44767428Y-35563952D01*
X44791238Y-35611571D01*
X44815047Y-35635380D01*
X44862666Y-35659190D01*
X44957904Y-35659190D01*
X45005523Y-35635380D01*
X45029333Y-35611571D01*
X45053142Y-35563952D01*
X45053142Y-35444904D01*
X45029333Y-35397285D01*
X45005523Y-35373476D01*
X44957904Y-35349666D01*
X44862666Y-35349666D01*
X44815047Y-35373476D01*
X44791238Y-35397285D01*
X44767428Y-35444904D01*
X43338857Y-36278333D02*
X43576952Y-36278333D01*
X43291238Y-36421190D02*
X43457904Y-35921190D01*
X43624571Y-36421190D01*
X43791238Y-36421190D02*
X43791238Y-35921190D01*
X43910285Y-35921190D01*
X43981714Y-35945000D01*
X44029333Y-35992619D01*
X44053142Y-36040238D01*
X44076952Y-36135476D01*
X44076952Y-36206904D01*
X44053142Y-36302142D01*
X44029333Y-36349761D01*
X43981714Y-36397380D01*
X43910285Y-36421190D01*
X43791238Y-36421190D01*
X44576952Y-36373571D02*
X44553142Y-36397380D01*
X44481714Y-36421190D01*
X44434095Y-36421190D01*
X44362666Y-36397380D01*
X44315047Y-36349761D01*
X44291238Y-36302142D01*
X44267428Y-36206904D01*
X44267428Y-36135476D01*
X44291238Y-36040238D01*
X44315047Y-35992619D01*
X44362666Y-35945000D01*
X44434095Y-35921190D01*
X44481714Y-35921190D01*
X44553142Y-35945000D01*
X44576952Y-35968809D01*
X45029333Y-35921190D02*
X44791238Y-35921190D01*
X44767428Y-36159285D01*
X44791238Y-36135476D01*
X44838857Y-36111666D01*
X44957904Y-36111666D01*
X45005523Y-36135476D01*
X45029333Y-36159285D01*
X45053142Y-36206904D01*
X45053142Y-36325952D01*
X45029333Y-36373571D01*
X45005523Y-36397380D01*
X44957904Y-36421190D01*
X44838857Y-36421190D01*
X44791238Y-36397380D01*
X44767428Y-36373571D01*
X45640761Y-35516333D02*
X45878857Y-35516333D01*
X45593142Y-35659190D02*
X45759809Y-35159190D01*
X45926476Y-35659190D01*
X46093142Y-35659190D02*
X46093142Y-35159190D01*
X46212190Y-35159190D01*
X46283619Y-35183000D01*
X46331238Y-35230619D01*
X46355047Y-35278238D01*
X46378857Y-35373476D01*
X46378857Y-35444904D01*
X46355047Y-35540142D01*
X46331238Y-35587761D01*
X46283619Y-35635380D01*
X46212190Y-35659190D01*
X46093142Y-35659190D01*
X46878857Y-35611571D02*
X46855047Y-35635380D01*
X46783619Y-35659190D01*
X46736000Y-35659190D01*
X46664571Y-35635380D01*
X46616952Y-35587761D01*
X46593142Y-35540142D01*
X46569333Y-35444904D01*
X46569333Y-35373476D01*
X46593142Y-35278238D01*
X46616952Y-35230619D01*
X46664571Y-35183000D01*
X46736000Y-35159190D01*
X46783619Y-35159190D01*
X46855047Y-35183000D01*
X46878857Y-35206809D01*
X47355047Y-35659190D02*
X47069333Y-35659190D01*
X47212190Y-35659190D02*
X47212190Y-35159190D01*
X47164571Y-35230619D01*
X47116952Y-35278238D01*
X47069333Y-35302047D01*
X47545523Y-35206809D02*
X47569333Y-35183000D01*
X47616952Y-35159190D01*
X47736000Y-35159190D01*
X47783619Y-35183000D01*
X47807428Y-35206809D01*
X47831238Y-35254428D01*
X47831238Y-35302047D01*
X47807428Y-35373476D01*
X47521714Y-35659190D01*
X47831238Y-35659190D01*
X45640761Y-36278333D02*
X45878857Y-36278333D01*
X45593142Y-36421190D02*
X45759809Y-35921190D01*
X45926476Y-36421190D01*
X46093142Y-36421190D02*
X46093142Y-35921190D01*
X46212190Y-35921190D01*
X46283619Y-35945000D01*
X46331238Y-35992619D01*
X46355047Y-36040238D01*
X46378857Y-36135476D01*
X46378857Y-36206904D01*
X46355047Y-36302142D01*
X46331238Y-36349761D01*
X46283619Y-36397380D01*
X46212190Y-36421190D01*
X46093142Y-36421190D01*
X46878857Y-36373571D02*
X46855047Y-36397380D01*
X46783619Y-36421190D01*
X46736000Y-36421190D01*
X46664571Y-36397380D01*
X46616952Y-36349761D01*
X46593142Y-36302142D01*
X46569333Y-36206904D01*
X46569333Y-36135476D01*
X46593142Y-36040238D01*
X46616952Y-35992619D01*
X46664571Y-35945000D01*
X46736000Y-35921190D01*
X46783619Y-35921190D01*
X46855047Y-35945000D01*
X46878857Y-35968809D01*
X47355047Y-36421190D02*
X47069333Y-36421190D01*
X47212190Y-36421190D02*
X47212190Y-35921190D01*
X47164571Y-35992619D01*
X47116952Y-36040238D01*
X47069333Y-36064047D01*
X47831238Y-36421190D02*
X47545523Y-36421190D01*
X47688380Y-36421190D02*
X47688380Y-35921190D01*
X47640761Y-35992619D01*
X47593142Y-36040238D01*
X47545523Y-36064047D01*
X48418857Y-35516333D02*
X48656952Y-35516333D01*
X48371238Y-35659190D02*
X48537904Y-35159190D01*
X48704571Y-35659190D01*
X48871238Y-35659190D02*
X48871238Y-35159190D01*
X49156952Y-35659190D01*
X49156952Y-35159190D01*
X49656952Y-35659190D02*
X49371238Y-35659190D01*
X49514095Y-35659190D02*
X49514095Y-35159190D01*
X49466476Y-35230619D01*
X49418857Y-35278238D01*
X49371238Y-35302047D01*
X50133142Y-35659190D02*
X49847428Y-35659190D01*
X49990285Y-35659190D02*
X49990285Y-35159190D01*
X49942666Y-35230619D01*
X49895047Y-35278238D01*
X49847428Y-35302047D01*
X48418857Y-36278333D02*
X48656952Y-36278333D01*
X48371238Y-36421190D02*
X48537904Y-35921190D01*
X48704571Y-36421190D01*
X48871238Y-36421190D02*
X48871238Y-35921190D01*
X49156952Y-36421190D01*
X49156952Y-35921190D01*
X49656952Y-36421190D02*
X49371238Y-36421190D01*
X49514095Y-36421190D02*
X49514095Y-35921190D01*
X49466476Y-35992619D01*
X49418857Y-36040238D01*
X49371238Y-36064047D01*
X49847428Y-35968809D02*
X49871238Y-35945000D01*
X49918857Y-35921190D01*
X50037904Y-35921190D01*
X50085523Y-35945000D01*
X50109333Y-35968809D01*
X50133142Y-36016428D01*
X50133142Y-36064047D01*
X50109333Y-36135476D01*
X49823619Y-36421190D01*
X50133142Y-36421190D01*
X51069952Y-35516333D02*
X51308047Y-35516333D01*
X51022333Y-35659190D02*
X51189000Y-35159190D01*
X51355666Y-35659190D01*
X51522333Y-35659190D02*
X51522333Y-35159190D01*
X51808047Y-35659190D01*
X51808047Y-35159190D01*
X52069952Y-35659190D02*
X52165190Y-35659190D01*
X52212809Y-35635380D01*
X52236619Y-35611571D01*
X52284238Y-35540142D01*
X52308047Y-35444904D01*
X52308047Y-35254428D01*
X52284238Y-35206809D01*
X52260428Y-35183000D01*
X52212809Y-35159190D01*
X52117571Y-35159190D01*
X52069952Y-35183000D01*
X52046142Y-35206809D01*
X52022333Y-35254428D01*
X52022333Y-35373476D01*
X52046142Y-35421095D01*
X52069952Y-35444904D01*
X52117571Y-35468714D01*
X52212809Y-35468714D01*
X52260428Y-35444904D01*
X52284238Y-35421095D01*
X52308047Y-35373476D01*
X50958857Y-36278333D02*
X51196952Y-36278333D01*
X50911238Y-36421190D02*
X51077904Y-35921190D01*
X51244571Y-36421190D01*
X51411238Y-36421190D02*
X51411238Y-35921190D01*
X51696952Y-36421190D01*
X51696952Y-35921190D01*
X52196952Y-36421190D02*
X51911238Y-36421190D01*
X52054095Y-36421190D02*
X52054095Y-35921190D01*
X52006476Y-35992619D01*
X51958857Y-36040238D01*
X51911238Y-36064047D01*
X52506476Y-35921190D02*
X52554095Y-35921190D01*
X52601714Y-35945000D01*
X52625523Y-35968809D01*
X52649333Y-36016428D01*
X52673142Y-36111666D01*
X52673142Y-36230714D01*
X52649333Y-36325952D01*
X52625523Y-36373571D01*
X52601714Y-36397380D01*
X52554095Y-36421190D01*
X52506476Y-36421190D01*
X52458857Y-36397380D01*
X52435047Y-36373571D01*
X52411238Y-36325952D01*
X52387428Y-36230714D01*
X52387428Y-36111666D01*
X52411238Y-36016428D01*
X52435047Y-35968809D01*
X52458857Y-35945000D01*
X52506476Y-35921190D01*
X53371857Y-36278333D02*
X53609952Y-36278333D01*
X53324238Y-36421190D02*
X53490904Y-35921190D01*
X53657571Y-36421190D01*
X53824238Y-36421190D02*
X53824238Y-35921190D01*
X53943285Y-35921190D01*
X54014714Y-35945000D01*
X54062333Y-35992619D01*
X54086142Y-36040238D01*
X54109952Y-36135476D01*
X54109952Y-36206904D01*
X54086142Y-36302142D01*
X54062333Y-36349761D01*
X54014714Y-36397380D01*
X53943285Y-36421190D01*
X53824238Y-36421190D01*
X54609952Y-36373571D02*
X54586142Y-36397380D01*
X54514714Y-36421190D01*
X54467095Y-36421190D01*
X54395666Y-36397380D01*
X54348047Y-36349761D01*
X54324238Y-36302142D01*
X54300428Y-36206904D01*
X54300428Y-36135476D01*
X54324238Y-36040238D01*
X54348047Y-35992619D01*
X54395666Y-35945000D01*
X54467095Y-35921190D01*
X54514714Y-35921190D01*
X54586142Y-35945000D01*
X54609952Y-35968809D01*
X54848047Y-36421190D02*
X54943285Y-36421190D01*
X54990904Y-36397380D01*
X55014714Y-36373571D01*
X55062333Y-36302142D01*
X55086142Y-36206904D01*
X55086142Y-36016428D01*
X55062333Y-35968809D01*
X55038523Y-35945000D01*
X54990904Y-35921190D01*
X54895666Y-35921190D01*
X54848047Y-35945000D01*
X54824238Y-35968809D01*
X54800428Y-36016428D01*
X54800428Y-36135476D01*
X54824238Y-36183095D01*
X54848047Y-36206904D01*
X54895666Y-36230714D01*
X54990904Y-36230714D01*
X55038523Y-36206904D01*
X55062333Y-36183095D01*
X55086142Y-36135476D01*
X53133761Y-35516333D02*
X53371857Y-35516333D01*
X53086142Y-35659190D02*
X53252809Y-35159190D01*
X53419476Y-35659190D01*
X53586142Y-35659190D02*
X53586142Y-35159190D01*
X53705190Y-35159190D01*
X53776619Y-35183000D01*
X53824238Y-35230619D01*
X53848047Y-35278238D01*
X53871857Y-35373476D01*
X53871857Y-35444904D01*
X53848047Y-35540142D01*
X53824238Y-35587761D01*
X53776619Y-35635380D01*
X53705190Y-35659190D01*
X53586142Y-35659190D01*
X54371857Y-35611571D02*
X54348047Y-35635380D01*
X54276619Y-35659190D01*
X54229000Y-35659190D01*
X54157571Y-35635380D01*
X54109952Y-35587761D01*
X54086142Y-35540142D01*
X54062333Y-35444904D01*
X54062333Y-35373476D01*
X54086142Y-35278238D01*
X54109952Y-35230619D01*
X54157571Y-35183000D01*
X54229000Y-35159190D01*
X54276619Y-35159190D01*
X54348047Y-35183000D01*
X54371857Y-35206809D01*
X54848047Y-35659190D02*
X54562333Y-35659190D01*
X54705190Y-35659190D02*
X54705190Y-35159190D01*
X54657571Y-35230619D01*
X54609952Y-35278238D01*
X54562333Y-35302047D01*
X55157571Y-35159190D02*
X55205190Y-35159190D01*
X55252809Y-35183000D01*
X55276619Y-35206809D01*
X55300428Y-35254428D01*
X55324238Y-35349666D01*
X55324238Y-35468714D01*
X55300428Y-35563952D01*
X55276619Y-35611571D01*
X55252809Y-35635380D01*
X55205190Y-35659190D01*
X55157571Y-35659190D01*
X55109952Y-35635380D01*
X55086142Y-35611571D01*
X55062333Y-35563952D01*
X55038523Y-35468714D01*
X55038523Y-35349666D01*
X55062333Y-35254428D01*
X55086142Y-35206809D01*
X55109952Y-35183000D01*
X55157571Y-35159190D01*
X55800761Y-35516333D02*
X56038857Y-35516333D01*
X55753142Y-35659190D02*
X55919809Y-35159190D01*
X56086476Y-35659190D01*
X56253142Y-35659190D02*
X56253142Y-35159190D01*
X56372190Y-35159190D01*
X56443619Y-35183000D01*
X56491238Y-35230619D01*
X56515047Y-35278238D01*
X56538857Y-35373476D01*
X56538857Y-35444904D01*
X56515047Y-35540142D01*
X56491238Y-35587761D01*
X56443619Y-35635380D01*
X56372190Y-35659190D01*
X56253142Y-35659190D01*
X57038857Y-35611571D02*
X57015047Y-35635380D01*
X56943619Y-35659190D01*
X56896000Y-35659190D01*
X56824571Y-35635380D01*
X56776952Y-35587761D01*
X56753142Y-35540142D01*
X56729333Y-35444904D01*
X56729333Y-35373476D01*
X56753142Y-35278238D01*
X56776952Y-35230619D01*
X56824571Y-35183000D01*
X56896000Y-35159190D01*
X56943619Y-35159190D01*
X57015047Y-35183000D01*
X57038857Y-35206809D01*
X57515047Y-35659190D02*
X57229333Y-35659190D01*
X57372190Y-35659190D02*
X57372190Y-35159190D01*
X57324571Y-35230619D01*
X57276952Y-35278238D01*
X57229333Y-35302047D01*
X57943619Y-35325857D02*
X57943619Y-35659190D01*
X57824571Y-35135380D02*
X57705523Y-35492523D01*
X58015047Y-35492523D01*
X55800761Y-36278333D02*
X56038857Y-36278333D01*
X55753142Y-36421190D02*
X55919809Y-35921190D01*
X56086476Y-36421190D01*
X56253142Y-36421190D02*
X56253142Y-35921190D01*
X56372190Y-35921190D01*
X56443619Y-35945000D01*
X56491238Y-35992619D01*
X56515047Y-36040238D01*
X56538857Y-36135476D01*
X56538857Y-36206904D01*
X56515047Y-36302142D01*
X56491238Y-36349761D01*
X56443619Y-36397380D01*
X56372190Y-36421190D01*
X56253142Y-36421190D01*
X57038857Y-36373571D02*
X57015047Y-36397380D01*
X56943619Y-36421190D01*
X56896000Y-36421190D01*
X56824571Y-36397380D01*
X56776952Y-36349761D01*
X56753142Y-36302142D01*
X56729333Y-36206904D01*
X56729333Y-36135476D01*
X56753142Y-36040238D01*
X56776952Y-35992619D01*
X56824571Y-35945000D01*
X56896000Y-35921190D01*
X56943619Y-35921190D01*
X57015047Y-35945000D01*
X57038857Y-35968809D01*
X57515047Y-36421190D02*
X57229333Y-36421190D01*
X57372190Y-36421190D02*
X57372190Y-35921190D01*
X57324571Y-35992619D01*
X57276952Y-36040238D01*
X57229333Y-36064047D01*
X57681714Y-35921190D02*
X57991238Y-35921190D01*
X57824571Y-36111666D01*
X57896000Y-36111666D01*
X57943619Y-36135476D01*
X57967428Y-36159285D01*
X57991238Y-36206904D01*
X57991238Y-36325952D01*
X57967428Y-36373571D01*
X57943619Y-36397380D01*
X57896000Y-36421190D01*
X57753142Y-36421190D01*
X57705523Y-36397380D01*
X57681714Y-36373571D01*
X58578857Y-35516333D02*
X58816952Y-35516333D01*
X58531238Y-35659190D02*
X58697904Y-35159190D01*
X58864571Y-35659190D01*
X59031238Y-35659190D02*
X59031238Y-35159190D01*
X59316952Y-35659190D01*
X59316952Y-35159190D01*
X59816952Y-35659190D02*
X59531238Y-35659190D01*
X59674095Y-35659190D02*
X59674095Y-35159190D01*
X59626476Y-35230619D01*
X59578857Y-35278238D01*
X59531238Y-35302047D01*
X59983619Y-35159190D02*
X60293142Y-35159190D01*
X60126476Y-35349666D01*
X60197904Y-35349666D01*
X60245523Y-35373476D01*
X60269333Y-35397285D01*
X60293142Y-35444904D01*
X60293142Y-35563952D01*
X60269333Y-35611571D01*
X60245523Y-35635380D01*
X60197904Y-35659190D01*
X60055047Y-35659190D01*
X60007428Y-35635380D01*
X59983619Y-35611571D01*
X58578857Y-36278333D02*
X58816952Y-36278333D01*
X58531238Y-36421190D02*
X58697904Y-35921190D01*
X58864571Y-36421190D01*
X59031238Y-36421190D02*
X59031238Y-35921190D01*
X59316952Y-36421190D01*
X59316952Y-35921190D01*
X59816952Y-36421190D02*
X59531238Y-36421190D01*
X59674095Y-36421190D02*
X59674095Y-35921190D01*
X59626476Y-35992619D01*
X59578857Y-36040238D01*
X59531238Y-36064047D01*
X60245523Y-36087857D02*
X60245523Y-36421190D01*
X60126476Y-35897380D02*
X60007428Y-36254523D01*
X60316952Y-36254523D01*
X60833142Y-35159190D02*
X60999809Y-35659190D01*
X61166476Y-35159190D01*
X61333142Y-35659190D02*
X61333142Y-35159190D01*
X61333142Y-35349666D02*
X61380761Y-35325857D01*
X61476000Y-35325857D01*
X61523619Y-35349666D01*
X61547428Y-35373476D01*
X61571238Y-35421095D01*
X61571238Y-35563952D01*
X61547428Y-35611571D01*
X61523619Y-35635380D01*
X61476000Y-35659190D01*
X61380761Y-35659190D01*
X61333142Y-35635380D01*
X61999809Y-35659190D02*
X61999809Y-35397285D01*
X61976000Y-35349666D01*
X61928380Y-35325857D01*
X61833142Y-35325857D01*
X61785523Y-35349666D01*
X61999809Y-35635380D02*
X61952190Y-35659190D01*
X61833142Y-35659190D01*
X61785523Y-35635380D01*
X61761714Y-35587761D01*
X61761714Y-35540142D01*
X61785523Y-35492523D01*
X61833142Y-35468714D01*
X61952190Y-35468714D01*
X61999809Y-35444904D01*
X62166476Y-35325857D02*
X62356952Y-35325857D01*
X62237904Y-35159190D02*
X62237904Y-35587761D01*
X62261714Y-35635380D01*
X62309333Y-35659190D01*
X62356952Y-35659190D01*
X62523619Y-35659190D02*
X62523619Y-35159190D01*
X62761714Y-35659190D02*
X62761714Y-35159190D01*
X63047428Y-35659190D01*
X63047428Y-35159190D01*
X61297428Y-35921190D02*
X61464095Y-36421190D01*
X61630761Y-35921190D01*
X61797428Y-36421190D02*
X61797428Y-36087857D01*
X61797428Y-36183095D02*
X61821238Y-36135476D01*
X61845047Y-36111666D01*
X61892666Y-36087857D01*
X61940285Y-36087857D01*
X62297428Y-36397380D02*
X62249809Y-36421190D01*
X62154571Y-36421190D01*
X62106952Y-36397380D01*
X62083142Y-36349761D01*
X62083142Y-36159285D01*
X62106952Y-36111666D01*
X62154571Y-36087857D01*
X62249809Y-36087857D01*
X62297428Y-36111666D01*
X62321238Y-36159285D01*
X62321238Y-36206904D01*
X62083142Y-36254523D01*
X62464095Y-36087857D02*
X62654571Y-36087857D01*
X62535523Y-36421190D02*
X62535523Y-35992619D01*
X62559333Y-35945000D01*
X62606952Y-35921190D01*
X62654571Y-35921190D01*
X66619476Y-36357690D02*
X66333761Y-36357690D01*
X66476619Y-36357690D02*
X66476619Y-35857690D01*
X66429000Y-35929119D01*
X66381380Y-35976738D01*
X66333761Y-36000547D01*
X66809952Y-35905309D02*
X66833761Y-35881500D01*
X66881380Y-35857690D01*
X67000428Y-35857690D01*
X67048047Y-35881500D01*
X67071857Y-35905309D01*
X67095666Y-35952928D01*
X67095666Y-36000547D01*
X67071857Y-36071976D01*
X66786142Y-36357690D01*
X67095666Y-36357690D01*
X67238523Y-35857690D02*
X67405190Y-36357690D01*
X67571857Y-35857690D01*
X64135047Y-35945000D02*
X64087428Y-35921190D01*
X64016000Y-35921190D01*
X63944571Y-35945000D01*
X63896952Y-35992619D01*
X63873142Y-36040238D01*
X63849333Y-36135476D01*
X63849333Y-36206904D01*
X63873142Y-36302142D01*
X63896952Y-36349761D01*
X63944571Y-36397380D01*
X64016000Y-36421190D01*
X64063619Y-36421190D01*
X64135047Y-36397380D01*
X64158857Y-36373571D01*
X64158857Y-36206904D01*
X64063619Y-36206904D01*
X64373142Y-36421190D02*
X64373142Y-35921190D01*
X64658857Y-36421190D01*
X64658857Y-35921190D01*
X64896952Y-36421190D02*
X64896952Y-35921190D01*
X65016000Y-35921190D01*
X65087428Y-35945000D01*
X65135047Y-35992619D01*
X65158857Y-36040238D01*
X65182666Y-36135476D01*
X65182666Y-36206904D01*
X65158857Y-36302142D01*
X65135047Y-36349761D01*
X65087428Y-36397380D01*
X65016000Y-36421190D01*
X64896952Y-36421190D01*
D11*
X69207071Y-35368785D02*
X69254690Y-35225928D01*
X69302309Y-35178309D01*
X69397547Y-35130690D01*
X69540404Y-35130690D01*
X69635642Y-35178309D01*
X69683261Y-35225928D01*
X69730880Y-35321166D01*
X69730880Y-35702119D01*
X68730880Y-35702119D01*
X68730880Y-35368785D01*
X68778500Y-35273547D01*
X68826119Y-35225928D01*
X68921357Y-35178309D01*
X69016595Y-35178309D01*
X69111833Y-35225928D01*
X69159452Y-35273547D01*
X69207071Y-35368785D01*
X69207071Y-35702119D01*
X69730880Y-34702119D02*
X68730880Y-34702119D01*
X69445166Y-34273547D02*
X69445166Y-33797357D01*
X69730880Y-34368785D02*
X68730880Y-34035452D01*
X69730880Y-33702119D01*
X69683261Y-33416404D02*
X69730880Y-33273547D01*
X69730880Y-33035452D01*
X69683261Y-32940214D01*
X69635642Y-32892595D01*
X69540404Y-32844976D01*
X69445166Y-32844976D01*
X69349928Y-32892595D01*
X69302309Y-32940214D01*
X69254690Y-33035452D01*
X69207071Y-33225928D01*
X69159452Y-33321166D01*
X69111833Y-33368785D01*
X69016595Y-33416404D01*
X68921357Y-33416404D01*
X68826119Y-33368785D01*
X68778500Y-33321166D01*
X68730880Y-33225928D01*
X68730880Y-32987833D01*
X68778500Y-32844976D01*
X69349928Y-32416404D02*
X69349928Y-31654500D01*
X69730880Y-30606880D02*
X69254690Y-30940214D01*
X69730880Y-31178309D02*
X68730880Y-31178309D01*
X68730880Y-30797357D01*
X68778500Y-30702119D01*
X68826119Y-30654500D01*
X68921357Y-30606880D01*
X69064214Y-30606880D01*
X69159452Y-30654500D01*
X69207071Y-30702119D01*
X69254690Y-30797357D01*
X69254690Y-31178309D01*
X69207071Y-30178309D02*
X69207071Y-29844976D01*
X69730880Y-29702119D02*
X69730880Y-30178309D01*
X68730880Y-30178309D01*
X68730880Y-29702119D01*
X69683261Y-29321166D02*
X69730880Y-29178309D01*
X69730880Y-28940214D01*
X69683261Y-28844976D01*
X69635642Y-28797357D01*
X69540404Y-28749738D01*
X69445166Y-28749738D01*
X69349928Y-28797357D01*
X69302309Y-28844976D01*
X69254690Y-28940214D01*
X69207071Y-29130690D01*
X69159452Y-29225928D01*
X69111833Y-29273547D01*
X69016595Y-29321166D01*
X68921357Y-29321166D01*
X68826119Y-29273547D01*
X68778500Y-29225928D01*
X68730880Y-29130690D01*
X68730880Y-28892595D01*
X68778500Y-28749738D01*
X69730880Y-28321166D02*
X68730880Y-28321166D01*
X69683261Y-27892595D02*
X69730880Y-27749738D01*
X69730880Y-27511642D01*
X69683261Y-27416404D01*
X69635642Y-27368785D01*
X69540404Y-27321166D01*
X69445166Y-27321166D01*
X69349928Y-27368785D01*
X69302309Y-27416404D01*
X69254690Y-27511642D01*
X69207071Y-27702119D01*
X69159452Y-27797357D01*
X69111833Y-27844976D01*
X69016595Y-27892595D01*
X68921357Y-27892595D01*
X68826119Y-27844976D01*
X68778500Y-27797357D01*
X68730880Y-27702119D01*
X68730880Y-27464023D01*
X68778500Y-27321166D01*
X68730880Y-27035452D02*
X68730880Y-26464023D01*
X69730880Y-26749738D02*
X68730880Y-26749738D01*
X68730880Y-25940214D02*
X68730880Y-25749738D01*
X68778500Y-25654500D01*
X68873738Y-25559261D01*
X69064214Y-25511642D01*
X69397547Y-25511642D01*
X69588023Y-25559261D01*
X69683261Y-25654500D01*
X69730880Y-25749738D01*
X69730880Y-25940214D01*
X69683261Y-26035452D01*
X69588023Y-26130690D01*
X69397547Y-26178309D01*
X69064214Y-26178309D01*
X68873738Y-26130690D01*
X68778500Y-26035452D01*
X68730880Y-25940214D01*
X69730880Y-24511642D02*
X69254690Y-24844976D01*
X69730880Y-25083071D02*
X68730880Y-25083071D01*
X68730880Y-24702119D01*
X68778500Y-24606880D01*
X68826119Y-24559261D01*
X68921357Y-24511642D01*
X69064214Y-24511642D01*
X69159452Y-24559261D01*
X69207071Y-24606880D01*
X69254690Y-24702119D01*
X69254690Y-25083071D01*
X69683261Y-24130690D02*
X69730880Y-23987833D01*
X69730880Y-23749738D01*
X69683261Y-23654500D01*
X69635642Y-23606880D01*
X69540404Y-23559261D01*
X69445166Y-23559261D01*
X69349928Y-23606880D01*
X69302309Y-23654500D01*
X69254690Y-23749738D01*
X69207071Y-23940214D01*
X69159452Y-24035452D01*
X69111833Y-24083071D01*
X69016595Y-24130690D01*
X68921357Y-24130690D01*
X68826119Y-24083071D01*
X68778500Y-24035452D01*
X68730880Y-23940214D01*
X68730880Y-23702119D01*
X68778500Y-23559261D01*
D10*
X68326000Y-36068000D02*
X68326000Y-21590000D01*
X79248000Y-39116000D02*
X70866000Y-39116000D01*
X79502000Y-21590000D02*
X79248000Y-39116000D01*
X68326000Y-21590000D02*
X79502000Y-21590000D01*
D13*
X70593142Y-26008000D02*
X70878857Y-26008000D01*
X70536000Y-26179428D02*
X70736000Y-25579428D01*
X70936000Y-26179428D01*
X71136000Y-26179428D02*
X71136000Y-25579428D01*
X71278857Y-25579428D01*
X71364571Y-25608000D01*
X71421714Y-25665142D01*
X71450285Y-25722285D01*
X71478857Y-25836571D01*
X71478857Y-25922285D01*
X71450285Y-26036571D01*
X71421714Y-26093714D01*
X71364571Y-26150857D01*
X71278857Y-26179428D01*
X71136000Y-26179428D01*
X72078857Y-26122285D02*
X72050285Y-26150857D01*
X71964571Y-26179428D01*
X71907428Y-26179428D01*
X71821714Y-26150857D01*
X71764571Y-26093714D01*
X71736000Y-26036571D01*
X71707428Y-25922285D01*
X71707428Y-25836571D01*
X71736000Y-25722285D01*
X71764571Y-25665142D01*
X71821714Y-25608000D01*
X71907428Y-25579428D01*
X71964571Y-25579428D01*
X72050285Y-25608000D01*
X72078857Y-25636571D01*
X73107428Y-26179428D02*
X72764571Y-26179428D01*
X72936000Y-26179428D02*
X72936000Y-25579428D01*
X72878857Y-25665142D01*
X72821714Y-25722285D01*
X72764571Y-25750857D01*
X73307428Y-25579428D02*
X73678857Y-25579428D01*
X73478857Y-25808000D01*
X73564571Y-25808000D01*
X73621714Y-25836571D01*
X73650285Y-25865142D01*
X73678857Y-25922285D01*
X73678857Y-26065142D01*
X73650285Y-26122285D01*
X73621714Y-26150857D01*
X73564571Y-26179428D01*
X73393142Y-26179428D01*
X73336000Y-26150857D01*
X73307428Y-26122285D01*
X71132857Y-28929000D02*
X71418571Y-28929000D01*
X71075714Y-29100428D02*
X71275714Y-28500428D01*
X71475714Y-29100428D01*
X71675714Y-29100428D02*
X71675714Y-28500428D01*
X71818571Y-28500428D01*
X71904285Y-28529000D01*
X71961428Y-28586142D01*
X71990000Y-28643285D01*
X72018571Y-28757571D01*
X72018571Y-28843285D01*
X71990000Y-28957571D01*
X71961428Y-29014714D01*
X71904285Y-29071857D01*
X71818571Y-29100428D01*
X71675714Y-29100428D01*
X72618571Y-29043285D02*
X72590000Y-29071857D01*
X72504285Y-29100428D01*
X72447142Y-29100428D01*
X72361428Y-29071857D01*
X72304285Y-29014714D01*
X72275714Y-28957571D01*
X72247142Y-28843285D01*
X72247142Y-28757571D01*
X72275714Y-28643285D01*
X72304285Y-28586142D01*
X72361428Y-28529000D01*
X72447142Y-28500428D01*
X72504285Y-28500428D01*
X72590000Y-28529000D01*
X72618571Y-28557571D01*
X73361428Y-29100428D02*
X73475714Y-29100428D01*
X73532857Y-29071857D01*
X73561428Y-29043285D01*
X73618571Y-28957571D01*
X73647142Y-28843285D01*
X73647142Y-28614714D01*
X73618571Y-28557571D01*
X73590000Y-28529000D01*
X73532857Y-28500428D01*
X73418571Y-28500428D01*
X73361428Y-28529000D01*
X73332857Y-28557571D01*
X73304285Y-28614714D01*
X73304285Y-28757571D01*
X73332857Y-28814714D01*
X73361428Y-28843285D01*
X73418571Y-28871857D01*
X73532857Y-28871857D01*
X73590000Y-28843285D01*
X73618571Y-28814714D01*
X73647142Y-28757571D01*
X70720142Y-27405000D02*
X71005857Y-27405000D01*
X70663000Y-27576428D02*
X70863000Y-26976428D01*
X71063000Y-27576428D01*
X71263000Y-27576428D02*
X71263000Y-26976428D01*
X71405857Y-26976428D01*
X71491571Y-27005000D01*
X71548714Y-27062142D01*
X71577285Y-27119285D01*
X71605857Y-27233571D01*
X71605857Y-27319285D01*
X71577285Y-27433571D01*
X71548714Y-27490714D01*
X71491571Y-27547857D01*
X71405857Y-27576428D01*
X71263000Y-27576428D01*
X72205857Y-27519285D02*
X72177285Y-27547857D01*
X72091571Y-27576428D01*
X72034428Y-27576428D01*
X71948714Y-27547857D01*
X71891571Y-27490714D01*
X71863000Y-27433571D01*
X71834428Y-27319285D01*
X71834428Y-27233571D01*
X71863000Y-27119285D01*
X71891571Y-27062142D01*
X71948714Y-27005000D01*
X72034428Y-26976428D01*
X72091571Y-26976428D01*
X72177285Y-27005000D01*
X72205857Y-27033571D01*
X73234428Y-27576428D02*
X72891571Y-27576428D01*
X73063000Y-27576428D02*
X73063000Y-26976428D01*
X73005857Y-27062142D01*
X72948714Y-27119285D01*
X72891571Y-27147857D01*
X73748714Y-27176428D02*
X73748714Y-27576428D01*
X73605857Y-26947857D02*
X73463000Y-27376428D01*
X73834428Y-27376428D01*
X71259857Y-36676000D02*
X71545571Y-36676000D01*
X71202714Y-36847428D02*
X71402714Y-36247428D01*
X71602714Y-36847428D01*
X71802714Y-36847428D02*
X71802714Y-36247428D01*
X71945571Y-36247428D01*
X72031285Y-36276000D01*
X72088428Y-36333142D01*
X72117000Y-36390285D01*
X72145571Y-36504571D01*
X72145571Y-36590285D01*
X72117000Y-36704571D01*
X72088428Y-36761714D01*
X72031285Y-36818857D01*
X71945571Y-36847428D01*
X71802714Y-36847428D01*
X72745571Y-36790285D02*
X72717000Y-36818857D01*
X72631285Y-36847428D01*
X72574142Y-36847428D01*
X72488428Y-36818857D01*
X72431285Y-36761714D01*
X72402714Y-36704571D01*
X72374142Y-36590285D01*
X72374142Y-36504571D01*
X72402714Y-36390285D01*
X72431285Y-36333142D01*
X72488428Y-36276000D01*
X72574142Y-36247428D01*
X72631285Y-36247428D01*
X72717000Y-36276000D01*
X72745571Y-36304571D01*
X73717000Y-36247428D02*
X73602714Y-36247428D01*
X73545571Y-36276000D01*
X73517000Y-36304571D01*
X73459857Y-36390285D01*
X73431285Y-36504571D01*
X73431285Y-36733142D01*
X73459857Y-36790285D01*
X73488428Y-36818857D01*
X73545571Y-36847428D01*
X73659857Y-36847428D01*
X73717000Y-36818857D01*
X73745571Y-36790285D01*
X73774142Y-36733142D01*
X73774142Y-36590285D01*
X73745571Y-36533142D01*
X73717000Y-36504571D01*
X73659857Y-36476000D01*
X73545571Y-36476000D01*
X73488428Y-36504571D01*
X73459857Y-36533142D01*
X73431285Y-36590285D01*
X71132857Y-35025000D02*
X71418571Y-35025000D01*
X71075714Y-35196428D02*
X71275714Y-34596428D01*
X71475714Y-35196428D01*
X71675714Y-35196428D02*
X71675714Y-34596428D01*
X71818571Y-34596428D01*
X71904285Y-34625000D01*
X71961428Y-34682142D01*
X71990000Y-34739285D01*
X72018571Y-34853571D01*
X72018571Y-34939285D01*
X71990000Y-35053571D01*
X71961428Y-35110714D01*
X71904285Y-35167857D01*
X71818571Y-35196428D01*
X71675714Y-35196428D01*
X72618571Y-35139285D02*
X72590000Y-35167857D01*
X72504285Y-35196428D01*
X72447142Y-35196428D01*
X72361428Y-35167857D01*
X72304285Y-35110714D01*
X72275714Y-35053571D01*
X72247142Y-34939285D01*
X72247142Y-34853571D01*
X72275714Y-34739285D01*
X72304285Y-34682142D01*
X72361428Y-34625000D01*
X72447142Y-34596428D01*
X72504285Y-34596428D01*
X72590000Y-34625000D01*
X72618571Y-34653571D01*
X73618571Y-34596428D02*
X73332857Y-34596428D01*
X73304285Y-34882142D01*
X73332857Y-34853571D01*
X73390000Y-34825000D01*
X73532857Y-34825000D01*
X73590000Y-34853571D01*
X73618571Y-34882142D01*
X73647142Y-34939285D01*
X73647142Y-35082142D01*
X73618571Y-35139285D01*
X73590000Y-35167857D01*
X73532857Y-35196428D01*
X73390000Y-35196428D01*
X73332857Y-35167857D01*
X73304285Y-35139285D01*
X70720142Y-30453000D02*
X71005857Y-30453000D01*
X70663000Y-30624428D02*
X70863000Y-30024428D01*
X71063000Y-30624428D01*
X71263000Y-30624428D02*
X71263000Y-30024428D01*
X71405857Y-30024428D01*
X71491571Y-30053000D01*
X71548714Y-30110142D01*
X71577285Y-30167285D01*
X71605857Y-30281571D01*
X71605857Y-30367285D01*
X71577285Y-30481571D01*
X71548714Y-30538714D01*
X71491571Y-30595857D01*
X71405857Y-30624428D01*
X71263000Y-30624428D01*
X72205857Y-30567285D02*
X72177285Y-30595857D01*
X72091571Y-30624428D01*
X72034428Y-30624428D01*
X71948714Y-30595857D01*
X71891571Y-30538714D01*
X71863000Y-30481571D01*
X71834428Y-30367285D01*
X71834428Y-30281571D01*
X71863000Y-30167285D01*
X71891571Y-30110142D01*
X71948714Y-30053000D01*
X72034428Y-30024428D01*
X72091571Y-30024428D01*
X72177285Y-30053000D01*
X72205857Y-30081571D01*
X73234428Y-30624428D02*
X72891571Y-30624428D01*
X73063000Y-30624428D02*
X73063000Y-30024428D01*
X73005857Y-30110142D01*
X72948714Y-30167285D01*
X72891571Y-30195857D01*
X73605857Y-30024428D02*
X73663000Y-30024428D01*
X73720142Y-30053000D01*
X73748714Y-30081571D01*
X73777285Y-30138714D01*
X73805857Y-30253000D01*
X73805857Y-30395857D01*
X73777285Y-30510142D01*
X73748714Y-30567285D01*
X73720142Y-30595857D01*
X73663000Y-30624428D01*
X73605857Y-30624428D01*
X73548714Y-30595857D01*
X73520142Y-30567285D01*
X73491571Y-30510142D01*
X73463000Y-30395857D01*
X73463000Y-30253000D01*
X73491571Y-30138714D01*
X73520142Y-30081571D01*
X73548714Y-30053000D01*
X73605857Y-30024428D01*
X70720142Y-33501000D02*
X71005857Y-33501000D01*
X70663000Y-33672428D02*
X70863000Y-33072428D01*
X71063000Y-33672428D01*
X71263000Y-33672428D02*
X71263000Y-33072428D01*
X71405857Y-33072428D01*
X71491571Y-33101000D01*
X71548714Y-33158142D01*
X71577285Y-33215285D01*
X71605857Y-33329571D01*
X71605857Y-33415285D01*
X71577285Y-33529571D01*
X71548714Y-33586714D01*
X71491571Y-33643857D01*
X71405857Y-33672428D01*
X71263000Y-33672428D01*
X72205857Y-33615285D02*
X72177285Y-33643857D01*
X72091571Y-33672428D01*
X72034428Y-33672428D01*
X71948714Y-33643857D01*
X71891571Y-33586714D01*
X71863000Y-33529571D01*
X71834428Y-33415285D01*
X71834428Y-33329571D01*
X71863000Y-33215285D01*
X71891571Y-33158142D01*
X71948714Y-33101000D01*
X72034428Y-33072428D01*
X72091571Y-33072428D01*
X72177285Y-33101000D01*
X72205857Y-33129571D01*
X73234428Y-33672428D02*
X72891571Y-33672428D01*
X73063000Y-33672428D02*
X73063000Y-33072428D01*
X73005857Y-33158142D01*
X72948714Y-33215285D01*
X72891571Y-33243857D01*
X73463000Y-33129571D02*
X73491571Y-33101000D01*
X73548714Y-33072428D01*
X73691571Y-33072428D01*
X73748714Y-33101000D01*
X73777285Y-33129571D01*
X73805857Y-33186714D01*
X73805857Y-33243857D01*
X73777285Y-33329571D01*
X73434428Y-33672428D01*
X73805857Y-33672428D01*
X70847142Y-31977000D02*
X71132857Y-31977000D01*
X70790000Y-32148428D02*
X70990000Y-31548428D01*
X71190000Y-32148428D01*
X71390000Y-32148428D02*
X71390000Y-31548428D01*
X71532857Y-31548428D01*
X71618571Y-31577000D01*
X71675714Y-31634142D01*
X71704285Y-31691285D01*
X71732857Y-31805571D01*
X71732857Y-31891285D01*
X71704285Y-32005571D01*
X71675714Y-32062714D01*
X71618571Y-32119857D01*
X71532857Y-32148428D01*
X71390000Y-32148428D01*
X72332857Y-32091285D02*
X72304285Y-32119857D01*
X72218571Y-32148428D01*
X72161428Y-32148428D01*
X72075714Y-32119857D01*
X72018571Y-32062714D01*
X71990000Y-32005571D01*
X71961428Y-31891285D01*
X71961428Y-31805571D01*
X71990000Y-31691285D01*
X72018571Y-31634142D01*
X72075714Y-31577000D01*
X72161428Y-31548428D01*
X72218571Y-31548428D01*
X72304285Y-31577000D01*
X72332857Y-31605571D01*
X73361428Y-32148428D02*
X73018571Y-32148428D01*
X73190000Y-32148428D02*
X73190000Y-31548428D01*
X73132857Y-31634142D01*
X73075714Y-31691285D01*
X73018571Y-31719857D01*
X73932857Y-32148428D02*
X73590000Y-32148428D01*
X73761428Y-32148428D02*
X73761428Y-31548428D01*
X73704285Y-31634142D01*
X73647142Y-31691285D01*
X73590000Y-31719857D01*
X71386857Y-38200000D02*
X71672571Y-38200000D01*
X71329714Y-38371428D02*
X71529714Y-37771428D01*
X71729714Y-38371428D01*
X71929714Y-38371428D02*
X71929714Y-37771428D01*
X72072571Y-37771428D01*
X72158285Y-37800000D01*
X72215428Y-37857142D01*
X72244000Y-37914285D01*
X72272571Y-38028571D01*
X72272571Y-38114285D01*
X72244000Y-38228571D01*
X72215428Y-38285714D01*
X72158285Y-38342857D01*
X72072571Y-38371428D01*
X71929714Y-38371428D01*
X72872571Y-38314285D02*
X72844000Y-38342857D01*
X72758285Y-38371428D01*
X72701142Y-38371428D01*
X72615428Y-38342857D01*
X72558285Y-38285714D01*
X72529714Y-38228571D01*
X72501142Y-38114285D01*
X72501142Y-38028571D01*
X72529714Y-37914285D01*
X72558285Y-37857142D01*
X72615428Y-37800000D01*
X72701142Y-37771428D01*
X72758285Y-37771428D01*
X72844000Y-37800000D01*
X72872571Y-37828571D01*
X73529714Y-37771428D02*
X73929714Y-37771428D01*
X73672571Y-38371428D01*
D11*
X80000000Y-42000000D02*
X80000000Y-20000000D01*
X80000000Y-20000000D02*
X20000000Y-20000000D01*
X80000000Y-42000000D02*
X20000000Y-42000000D01*
X20000000Y-20000000D02*
X20000000Y-42000000D01*
D10*
X30663000Y-30863000D02*
X30663000Y-32323000D01*
X27503000Y-30863000D02*
X27503000Y-33023000D01*
X27503000Y-30863000D02*
X28433000Y-30863000D01*
X30663000Y-30863000D02*
X29733000Y-30863000D01*
X58984000Y-30672500D02*
X58984000Y-32132500D01*
X55824000Y-30672500D02*
X55824000Y-32832500D01*
X55824000Y-30672500D02*
X56754000Y-30672500D01*
X58984000Y-30672500D02*
X58054000Y-30672500D01*
X22604000Y-33203000D02*
X21144000Y-33203000D01*
X22604000Y-30043000D02*
X20444000Y-30043000D01*
X22604000Y-30043000D02*
X22604000Y-30973000D01*
X22604000Y-33203000D02*
X22604000Y-32273000D01*
X42347000Y-30672500D02*
X42347000Y-32132500D01*
X39187000Y-30672500D02*
X39187000Y-32832500D01*
X39187000Y-30672500D02*
X40117000Y-30672500D01*
X42347000Y-30672500D02*
X41417000Y-30672500D01*
X57846500Y-25837000D02*
X56386500Y-25837000D01*
X57846500Y-22677000D02*
X55686500Y-22677000D01*
X57846500Y-22677000D02*
X57846500Y-23607000D01*
X57846500Y-25837000D02*
X57846500Y-24907000D01*
X40515000Y-21851500D02*
X41975000Y-21851500D01*
X40515000Y-25011500D02*
X42675000Y-25011500D01*
X40515000Y-25011500D02*
X40515000Y-24081500D01*
X40515000Y-21851500D02*
X40515000Y-22781500D01*
X28450000Y-22550000D02*
X29910000Y-22550000D01*
X28450000Y-25710000D02*
X30610000Y-25710000D01*
X28450000Y-25710000D02*
X28450000Y-24780000D01*
X28450000Y-22550000D02*
X28450000Y-23480000D01*
X66413500Y-30148500D02*
X66413500Y-31608500D01*
X63253500Y-30148500D02*
X63253500Y-32308500D01*
X63253500Y-30148500D02*
X64183500Y-30148500D01*
X66413500Y-30148500D02*
X65483500Y-30148500D01*
X64327500Y-22740500D02*
X65787500Y-22740500D01*
X64327500Y-25900500D02*
X66487500Y-25900500D01*
X64327500Y-25900500D02*
X64327500Y-24970500D01*
X64327500Y-22740500D02*
X64327500Y-23670500D01*
X34981000Y-30736000D02*
X34981000Y-32196000D01*
X31821000Y-30736000D02*
X31821000Y-32896000D01*
X31821000Y-30736000D02*
X32751000Y-30736000D01*
X34981000Y-30736000D02*
X34051000Y-30736000D01*
X45591000Y-24948000D02*
X44131000Y-24948000D01*
X45591000Y-21788000D02*
X43431000Y-21788000D01*
X45591000Y-21788000D02*
X45591000Y-22718000D01*
X45591000Y-24948000D02*
X45591000Y-24018000D01*
X46792000Y-30672500D02*
X46792000Y-32132500D01*
X43632000Y-30672500D02*
X43632000Y-32832500D01*
X43632000Y-30672500D02*
X44562000Y-30672500D01*
X46792000Y-30672500D02*
X45862000Y-30672500D01*
X33589500Y-25710000D02*
X32129500Y-25710000D01*
X33589500Y-22550000D02*
X31429500Y-22550000D01*
X33589500Y-22550000D02*
X33589500Y-23480000D01*
X33589500Y-25710000D02*
X33589500Y-24780000D01*
X52453000Y-22613500D02*
X53913000Y-22613500D01*
X52453000Y-25773500D02*
X54613000Y-25773500D01*
X52453000Y-25773500D02*
X52453000Y-24843500D01*
X52453000Y-22613500D02*
X52453000Y-23543500D01*
X54158000Y-30736000D02*
X54158000Y-32196000D01*
X50998000Y-30736000D02*
X50998000Y-32896000D01*
X50998000Y-30736000D02*
X51928000Y-30736000D01*
X54158000Y-30736000D02*
X53228000Y-30736000D01*
X23551000Y-23497000D02*
X23551000Y-24957000D01*
X20391000Y-23497000D02*
X20391000Y-25657000D01*
X20391000Y-23497000D02*
X21321000Y-23497000D01*
X23551000Y-23497000D02*
X22621000Y-23497000D01*
X20006000Y-38100000D02*
X20006000Y-36770000D01*
X20006000Y-36770000D02*
X21336000Y-36770000D01*
X20006000Y-39370000D02*
X22606000Y-39370000D01*
X22606000Y-39370000D02*
X22606000Y-36770000D01*
X22606000Y-36770000D02*
X70926000Y-36770000D01*
X70926000Y-41970000D02*
X70926000Y-36770000D01*
X20006000Y-41970000D02*
X70926000Y-41970000D01*
X20006000Y-41970000D02*
X20006000Y-39370000D01*
X62640000Y-24122000D02*
X62640000Y-23122000D01*
X59280000Y-24122000D02*
X59280000Y-23122000D01*
X50594000Y-24122000D02*
X50594000Y-23122000D01*
X47234000Y-24122000D02*
X47234000Y-23122000D01*
X59407000Y-28964000D02*
X59407000Y-29964000D01*
X62767000Y-28964000D02*
X62767000Y-29964000D01*
X47215000Y-28964000D02*
X47215000Y-29964000D01*
X50575000Y-28964000D02*
X50575000Y-29964000D01*
X38891000Y-24122000D02*
X38891000Y-23122000D01*
X35531000Y-24122000D02*
X35531000Y-23122000D01*
X27270500Y-24376000D02*
X27270500Y-23376000D01*
X23910500Y-24376000D02*
X23910500Y-23376000D01*
X35404000Y-28964000D02*
X35404000Y-29964000D01*
X38764000Y-28964000D02*
X38764000Y-29964000D01*
X23720000Y-29091000D02*
X23720000Y-30091000D01*
X27080000Y-29091000D02*
X27080000Y-30091000D01*
X75520733Y-27815000D02*
X75863267Y-27815000D01*
X75520733Y-26795000D02*
X75863267Y-26795000D01*
X75520733Y-29339000D02*
X75863267Y-29339000D01*
X75520733Y-28319000D02*
X75863267Y-28319000D01*
X75520733Y-26291000D02*
X75863267Y-26291000D01*
X75520733Y-25271000D02*
X75863267Y-25271000D01*
X75520733Y-23243000D02*
X75863267Y-23243000D01*
X75520733Y-22223000D02*
X75863267Y-22223000D01*
X75520733Y-24767000D02*
X75863267Y-24767000D01*
X75520733Y-23747000D02*
X75863267Y-23747000D01*
X75520733Y-33911000D02*
X75863267Y-33911000D01*
X75520733Y-32891000D02*
X75863267Y-32891000D01*
X75520733Y-29843000D02*
X75863267Y-29843000D01*
X75520733Y-30863000D02*
X75863267Y-30863000D01*
X75520733Y-34415000D02*
X75863267Y-34415000D01*
X75520733Y-35435000D02*
X75863267Y-35435000D01*
X75520733Y-35939000D02*
X75863267Y-35939000D01*
X75520733Y-36959000D02*
X75863267Y-36959000D01*
X75520733Y-31367000D02*
X75863267Y-31367000D01*
X75520733Y-32387000D02*
X75863267Y-32387000D01*
X75520733Y-37463000D02*
X75863267Y-37463000D01*
X75520733Y-38483000D02*
X75863267Y-38483000D01*
X41277000Y-27222267D02*
X41277000Y-26879733D01*
X40257000Y-27222267D02*
X40257000Y-26879733D01*
X52279733Y-27307000D02*
X52622267Y-27307000D01*
X52279733Y-26287000D02*
X52622267Y-26287000D01*
X64090733Y-27434000D02*
X64433267Y-27434000D01*
X64090733Y-26414000D02*
X64433267Y-26414000D01*
X28911733Y-27561000D02*
X29254267Y-27561000D01*
X28911733Y-26541000D02*
X29254267Y-26541000D01*
D13*
X27507452Y-30452190D02*
X27507452Y-29952190D01*
X27626500Y-29952190D01*
X27697928Y-29976000D01*
X27745547Y-30023619D01*
X27769357Y-30071238D01*
X27793166Y-30166476D01*
X27793166Y-30237904D01*
X27769357Y-30333142D01*
X27745547Y-30380761D01*
X27697928Y-30428380D01*
X27626500Y-30452190D01*
X27507452Y-30452190D01*
X28245547Y-29952190D02*
X28007452Y-29952190D01*
X27983642Y-30190285D01*
X28007452Y-30166476D01*
X28055071Y-30142666D01*
X28174119Y-30142666D01*
X28221738Y-30166476D01*
X28245547Y-30190285D01*
X28269357Y-30237904D01*
X28269357Y-30356952D01*
X28245547Y-30404571D01*
X28221738Y-30428380D01*
X28174119Y-30452190D01*
X28055071Y-30452190D01*
X28007452Y-30428380D01*
X27983642Y-30404571D01*
X56847657Y-29474290D02*
X56847657Y-28974290D01*
X56966704Y-28974290D01*
X57038133Y-28998100D01*
X57085752Y-29045719D01*
X57109561Y-29093338D01*
X57133371Y-29188576D01*
X57133371Y-29260004D01*
X57109561Y-29355242D01*
X57085752Y-29402861D01*
X57038133Y-29450480D01*
X56966704Y-29474290D01*
X56847657Y-29474290D01*
X57609561Y-29474290D02*
X57323847Y-29474290D01*
X57466704Y-29474290D02*
X57466704Y-28974290D01*
X57419085Y-29045719D01*
X57371466Y-29093338D01*
X57323847Y-29117147D01*
X58038133Y-28974290D02*
X57942895Y-28974290D01*
X57895276Y-28998100D01*
X57871466Y-29021909D01*
X57823847Y-29093338D01*
X57800038Y-29188576D01*
X57800038Y-29379052D01*
X57823847Y-29426671D01*
X57847657Y-29450480D01*
X57895276Y-29474290D01*
X57990514Y-29474290D01*
X58038133Y-29450480D01*
X58061942Y-29426671D01*
X58085752Y-29379052D01*
X58085752Y-29260004D01*
X58061942Y-29212385D01*
X58038133Y-29188576D01*
X57990514Y-29164766D01*
X57895276Y-29164766D01*
X57847657Y-29188576D01*
X57823847Y-29212385D01*
X57800038Y-29260004D01*
X21871857Y-34135190D02*
X21871857Y-33635190D01*
X21990904Y-33635190D01*
X22062333Y-33659000D01*
X22109952Y-33706619D01*
X22133761Y-33754238D01*
X22157571Y-33849476D01*
X22157571Y-33920904D01*
X22133761Y-34016142D01*
X22109952Y-34063761D01*
X22062333Y-34111380D01*
X21990904Y-34135190D01*
X21871857Y-34135190D01*
X22633761Y-34135190D02*
X22348047Y-34135190D01*
X22490904Y-34135190D02*
X22490904Y-33635190D01*
X22443285Y-33706619D01*
X22395666Y-33754238D01*
X22348047Y-33778047D01*
X23086142Y-33635190D02*
X22848047Y-33635190D01*
X22824238Y-33873285D01*
X22848047Y-33849476D01*
X22895666Y-33825666D01*
X23014714Y-33825666D01*
X23062333Y-33849476D01*
X23086142Y-33873285D01*
X23109952Y-33920904D01*
X23109952Y-34039952D01*
X23086142Y-34087571D01*
X23062333Y-34111380D01*
X23014714Y-34135190D01*
X22895666Y-34135190D01*
X22848047Y-34111380D01*
X22824238Y-34087571D01*
X43342690Y-32420642D02*
X42842690Y-32420642D01*
X42842690Y-32301595D01*
X42866500Y-32230166D01*
X42914119Y-32182547D01*
X42961738Y-32158738D01*
X43056976Y-32134928D01*
X43128404Y-32134928D01*
X43223642Y-32158738D01*
X43271261Y-32182547D01*
X43318880Y-32230166D01*
X43342690Y-32301595D01*
X43342690Y-32420642D01*
X43342690Y-31658738D02*
X43342690Y-31944452D01*
X43342690Y-31801595D02*
X42842690Y-31801595D01*
X42914119Y-31849214D01*
X42961738Y-31896833D01*
X42985547Y-31944452D01*
X43009357Y-31230166D02*
X43342690Y-31230166D01*
X42818880Y-31349214D02*
X43176023Y-31468261D01*
X43176023Y-31158738D01*
X56479357Y-22247990D02*
X56479357Y-21747990D01*
X56598404Y-21747990D01*
X56669833Y-21771800D01*
X56717452Y-21819419D01*
X56741261Y-21867038D01*
X56765071Y-21962276D01*
X56765071Y-22033704D01*
X56741261Y-22128942D01*
X56717452Y-22176561D01*
X56669833Y-22224180D01*
X56598404Y-22247990D01*
X56479357Y-22247990D01*
X57241261Y-22247990D02*
X56955547Y-22247990D01*
X57098404Y-22247990D02*
X57098404Y-21747990D01*
X57050785Y-21819419D01*
X57003166Y-21867038D01*
X56955547Y-21890847D01*
X57407928Y-21747990D02*
X57717452Y-21747990D01*
X57550785Y-21938466D01*
X57622214Y-21938466D01*
X57669833Y-21962276D01*
X57693642Y-21986085D01*
X57717452Y-22033704D01*
X57717452Y-22152752D01*
X57693642Y-22200371D01*
X57669833Y-22224180D01*
X57622214Y-22247990D01*
X57479357Y-22247990D01*
X57431738Y-22224180D01*
X57407928Y-22200371D01*
X38864409Y-22875157D02*
X39364409Y-22875157D01*
X39364409Y-22994204D01*
X39340600Y-23065633D01*
X39292980Y-23113252D01*
X39245361Y-23137061D01*
X39150123Y-23160871D01*
X39078695Y-23160871D01*
X38983457Y-23137061D01*
X38935838Y-23113252D01*
X38888219Y-23065633D01*
X38864409Y-22994204D01*
X38864409Y-22875157D01*
X38864409Y-23637061D02*
X38864409Y-23351347D01*
X38864409Y-23494204D02*
X39364409Y-23494204D01*
X39292980Y-23446585D01*
X39245361Y-23398966D01*
X39221552Y-23351347D01*
X39316790Y-23827538D02*
X39340600Y-23851347D01*
X39364409Y-23898966D01*
X39364409Y-24018014D01*
X39340600Y-24065633D01*
X39316790Y-24089442D01*
X39269171Y-24113252D01*
X39221552Y-24113252D01*
X39150123Y-24089442D01*
X38864409Y-23803728D01*
X38864409Y-24113252D01*
X27454990Y-24686342D02*
X26954990Y-24686342D01*
X26954990Y-24567295D01*
X26978800Y-24495866D01*
X27026419Y-24448247D01*
X27074038Y-24424438D01*
X27169276Y-24400628D01*
X27240704Y-24400628D01*
X27335942Y-24424438D01*
X27383561Y-24448247D01*
X27431180Y-24495866D01*
X27454990Y-24567295D01*
X27454990Y-24686342D01*
X27454990Y-23924438D02*
X27454990Y-24210152D01*
X27454990Y-24067295D02*
X26954990Y-24067295D01*
X27026419Y-24114914D01*
X27074038Y-24162533D01*
X27097847Y-24210152D01*
X27454990Y-23448247D02*
X27454990Y-23733961D01*
X27454990Y-23591104D02*
X26954990Y-23591104D01*
X27026419Y-23638723D01*
X27074038Y-23686342D01*
X27097847Y-23733961D01*
X62559690Y-31515642D02*
X62059690Y-31515642D01*
X62059690Y-31396595D01*
X62083500Y-31325166D01*
X62131119Y-31277547D01*
X62178738Y-31253738D01*
X62273976Y-31229928D01*
X62345404Y-31229928D01*
X62440642Y-31253738D01*
X62488261Y-31277547D01*
X62535880Y-31325166D01*
X62559690Y-31396595D01*
X62559690Y-31515642D01*
X62559690Y-30753738D02*
X62559690Y-31039452D01*
X62559690Y-30896595D02*
X62059690Y-30896595D01*
X62131119Y-30944214D01*
X62178738Y-30991833D01*
X62202547Y-31039452D01*
X62059690Y-30444214D02*
X62059690Y-30396595D01*
X62083500Y-30348976D01*
X62107309Y-30325166D01*
X62154928Y-30301357D01*
X62250166Y-30277547D01*
X62369214Y-30277547D01*
X62464452Y-30301357D01*
X62512071Y-30325166D01*
X62535880Y-30348976D01*
X62559690Y-30396595D01*
X62559690Y-30444214D01*
X62535880Y-30491833D01*
X62512071Y-30515642D01*
X62464452Y-30539452D01*
X62369214Y-30563261D01*
X62250166Y-30563261D01*
X62154928Y-30539452D01*
X62107309Y-30515642D01*
X62083500Y-30491833D01*
X62059690Y-30444214D01*
X66944109Y-23951452D02*
X67444109Y-23951452D01*
X67444109Y-24070500D01*
X67420300Y-24141928D01*
X67372680Y-24189547D01*
X67325061Y-24213357D01*
X67229823Y-24237166D01*
X67158395Y-24237166D01*
X67063157Y-24213357D01*
X67015538Y-24189547D01*
X66967919Y-24141928D01*
X66944109Y-24070500D01*
X66944109Y-23951452D01*
X66944109Y-24475261D02*
X66944109Y-24570500D01*
X66967919Y-24618119D01*
X66991728Y-24641928D01*
X67063157Y-24689547D01*
X67158395Y-24713357D01*
X67348871Y-24713357D01*
X67396490Y-24689547D01*
X67420300Y-24665738D01*
X67444109Y-24618119D01*
X67444109Y-24522880D01*
X67420300Y-24475261D01*
X67396490Y-24451452D01*
X67348871Y-24427642D01*
X67229823Y-24427642D01*
X67182204Y-24451452D01*
X67158395Y-24475261D01*
X67134585Y-24522880D01*
X67134585Y-24618119D01*
X67158395Y-24665738D01*
X67182204Y-24689547D01*
X67229823Y-24713357D01*
X32968452Y-29626690D02*
X32968452Y-29126690D01*
X33087500Y-29126690D01*
X33158928Y-29150500D01*
X33206547Y-29198119D01*
X33230357Y-29245738D01*
X33254166Y-29340976D01*
X33254166Y-29412404D01*
X33230357Y-29507642D01*
X33206547Y-29555261D01*
X33158928Y-29602880D01*
X33087500Y-29626690D01*
X32968452Y-29626690D01*
X33539880Y-29340976D02*
X33492261Y-29317166D01*
X33468452Y-29293357D01*
X33444642Y-29245738D01*
X33444642Y-29221928D01*
X33468452Y-29174309D01*
X33492261Y-29150500D01*
X33539880Y-29126690D01*
X33635119Y-29126690D01*
X33682738Y-29150500D01*
X33706547Y-29174309D01*
X33730357Y-29221928D01*
X33730357Y-29245738D01*
X33706547Y-29293357D01*
X33682738Y-29317166D01*
X33635119Y-29340976D01*
X33539880Y-29340976D01*
X33492261Y-29364785D01*
X33468452Y-29388595D01*
X33444642Y-29436214D01*
X33444642Y-29531452D01*
X33468452Y-29579071D01*
X33492261Y-29602880D01*
X33539880Y-29626690D01*
X33635119Y-29626690D01*
X33682738Y-29602880D01*
X33706547Y-29579071D01*
X33730357Y-29531452D01*
X33730357Y-29436214D01*
X33706547Y-29388595D01*
X33682738Y-29364785D01*
X33635119Y-29340976D01*
X44512752Y-21358990D02*
X44512752Y-20858990D01*
X44631800Y-20858990D01*
X44703228Y-20882800D01*
X44750847Y-20930419D01*
X44774657Y-20978038D01*
X44798466Y-21073276D01*
X44798466Y-21144704D01*
X44774657Y-21239942D01*
X44750847Y-21287561D01*
X44703228Y-21335180D01*
X44631800Y-21358990D01*
X44512752Y-21358990D01*
X44965133Y-20858990D02*
X45298466Y-20858990D01*
X45084180Y-21358990D01*
X44842952Y-29436190D02*
X44842952Y-28936190D01*
X44962000Y-28936190D01*
X45033428Y-28960000D01*
X45081047Y-29007619D01*
X45104857Y-29055238D01*
X45128666Y-29150476D01*
X45128666Y-29221904D01*
X45104857Y-29317142D01*
X45081047Y-29364761D01*
X45033428Y-29412380D01*
X44962000Y-29436190D01*
X44842952Y-29436190D01*
X45557238Y-28936190D02*
X45462000Y-28936190D01*
X45414380Y-28960000D01*
X45390571Y-28983809D01*
X45342952Y-29055238D01*
X45319142Y-29150476D01*
X45319142Y-29340952D01*
X45342952Y-29388571D01*
X45366761Y-29412380D01*
X45414380Y-29436190D01*
X45509619Y-29436190D01*
X45557238Y-29412380D01*
X45581047Y-29388571D01*
X45604857Y-29340952D01*
X45604857Y-29221904D01*
X45581047Y-29174285D01*
X45557238Y-29150476D01*
X45509619Y-29126666D01*
X45414380Y-29126666D01*
X45366761Y-29150476D01*
X45342952Y-29174285D01*
X45319142Y-29221904D01*
X33933652Y-23136990D02*
X33933652Y-22636990D01*
X34052700Y-22636990D01*
X34124128Y-22660800D01*
X34171747Y-22708419D01*
X34195557Y-22756038D01*
X34219366Y-22851276D01*
X34219366Y-22922704D01*
X34195557Y-23017942D01*
X34171747Y-23065561D01*
X34124128Y-23113180D01*
X34052700Y-23136990D01*
X33933652Y-23136990D01*
X34647938Y-22803657D02*
X34647938Y-23136990D01*
X34528890Y-22613180D02*
X34409842Y-22970323D01*
X34719366Y-22970323D01*
X50573809Y-23887952D02*
X51073809Y-23887952D01*
X51073809Y-24007000D01*
X51050000Y-24078428D01*
X51002380Y-24126047D01*
X50954761Y-24149857D01*
X50859523Y-24173666D01*
X50788095Y-24173666D01*
X50692857Y-24149857D01*
X50645238Y-24126047D01*
X50597619Y-24078428D01*
X50573809Y-24007000D01*
X50573809Y-23887952D01*
X51073809Y-24340333D02*
X51073809Y-24649857D01*
X50883333Y-24483190D01*
X50883333Y-24554619D01*
X50859523Y-24602238D01*
X50835714Y-24626047D01*
X50788095Y-24649857D01*
X50669047Y-24649857D01*
X50621428Y-24626047D01*
X50597619Y-24602238D01*
X50573809Y-24554619D01*
X50573809Y-24411761D01*
X50597619Y-24364142D01*
X50621428Y-24340333D01*
X50581690Y-31928547D02*
X50081690Y-31928547D01*
X50081690Y-31809500D01*
X50105500Y-31738071D01*
X50153119Y-31690452D01*
X50200738Y-31666642D01*
X50295976Y-31642833D01*
X50367404Y-31642833D01*
X50462642Y-31666642D01*
X50510261Y-31690452D01*
X50557880Y-31738071D01*
X50581690Y-31809500D01*
X50581690Y-31928547D01*
X50129309Y-31452357D02*
X50105500Y-31428547D01*
X50081690Y-31380928D01*
X50081690Y-31261880D01*
X50105500Y-31214261D01*
X50129309Y-31190452D01*
X50176928Y-31166642D01*
X50224547Y-31166642D01*
X50295976Y-31190452D01*
X50581690Y-31476166D01*
X50581690Y-31166642D01*
X22681452Y-23022690D02*
X22681452Y-22522690D01*
X22800500Y-22522690D01*
X22871928Y-22546500D01*
X22919547Y-22594119D01*
X22943357Y-22641738D01*
X22967166Y-22736976D01*
X22967166Y-22808404D01*
X22943357Y-22903642D01*
X22919547Y-22951261D01*
X22871928Y-22998880D01*
X22800500Y-23022690D01*
X22681452Y-23022690D01*
X23443357Y-23022690D02*
X23157642Y-23022690D01*
X23300500Y-23022690D02*
X23300500Y-22522690D01*
X23252880Y-22594119D01*
X23205261Y-22641738D01*
X23157642Y-22665547D01*
X21220133Y-38130990D02*
X21220133Y-38488133D01*
X21196323Y-38559561D01*
X21148704Y-38607180D01*
X21077276Y-38630990D01*
X21029657Y-38630990D01*
X21720133Y-38630990D02*
X21434419Y-38630990D01*
X21577276Y-38630990D02*
X21577276Y-38130990D01*
X21529657Y-38202419D01*
X21482038Y-38250038D01*
X21434419Y-38273847D01*
X60391752Y-25532590D02*
X60391752Y-25937352D01*
X60415561Y-25984971D01*
X60439371Y-26008780D01*
X60486990Y-26032590D01*
X60582228Y-26032590D01*
X60629847Y-26008780D01*
X60653657Y-25984971D01*
X60677466Y-25937352D01*
X60677466Y-25532590D01*
X60891752Y-25580209D02*
X60915561Y-25556400D01*
X60963180Y-25532590D01*
X61082228Y-25532590D01*
X61129847Y-25556400D01*
X61153657Y-25580209D01*
X61177466Y-25627828D01*
X61177466Y-25675447D01*
X61153657Y-25746876D01*
X60867942Y-26032590D01*
X61177466Y-26032590D01*
X61486990Y-25532590D02*
X61534609Y-25532590D01*
X61582228Y-25556400D01*
X61606038Y-25580209D01*
X61629847Y-25627828D01*
X61653657Y-25723066D01*
X61653657Y-25842114D01*
X61629847Y-25937352D01*
X61606038Y-25984971D01*
X61582228Y-26008780D01*
X61534609Y-26032590D01*
X61486990Y-26032590D01*
X61439371Y-26008780D01*
X61415561Y-25984971D01*
X61391752Y-25937352D01*
X61367942Y-25842114D01*
X61367942Y-25723066D01*
X61391752Y-25627828D01*
X61415561Y-25580209D01*
X61439371Y-25556400D01*
X61486990Y-25532590D01*
X48148952Y-25507190D02*
X48148952Y-25911952D01*
X48172761Y-25959571D01*
X48196571Y-25983380D01*
X48244190Y-26007190D01*
X48339428Y-26007190D01*
X48387047Y-25983380D01*
X48410857Y-25959571D01*
X48434666Y-25911952D01*
X48434666Y-25507190D01*
X48934666Y-26007190D02*
X48648952Y-26007190D01*
X48791809Y-26007190D02*
X48791809Y-25507190D01*
X48744190Y-25578619D01*
X48696571Y-25626238D01*
X48648952Y-25650047D01*
X49172761Y-26007190D02*
X49268000Y-26007190D01*
X49315619Y-25983380D01*
X49339428Y-25959571D01*
X49387047Y-25888142D01*
X49410857Y-25792904D01*
X49410857Y-25602428D01*
X49387047Y-25554809D01*
X49363238Y-25531000D01*
X49315619Y-25507190D01*
X49220380Y-25507190D01*
X49172761Y-25531000D01*
X49148952Y-25554809D01*
X49125142Y-25602428D01*
X49125142Y-25721476D01*
X49148952Y-25769095D01*
X49172761Y-25792904D01*
X49220380Y-25816714D01*
X49315619Y-25816714D01*
X49363238Y-25792904D01*
X49387047Y-25769095D01*
X49410857Y-25721476D01*
X60467952Y-31222190D02*
X60467952Y-31626952D01*
X60491761Y-31674571D01*
X60515571Y-31698380D01*
X60563190Y-31722190D01*
X60658428Y-31722190D01*
X60706047Y-31698380D01*
X60729857Y-31674571D01*
X60753666Y-31626952D01*
X60753666Y-31222190D01*
X61253666Y-31722190D02*
X60967952Y-31722190D01*
X61110809Y-31722190D02*
X61110809Y-31222190D01*
X61063190Y-31293619D01*
X61015571Y-31341238D01*
X60967952Y-31365047D01*
X61706047Y-31222190D02*
X61467952Y-31222190D01*
X61444142Y-31460285D01*
X61467952Y-31436476D01*
X61515571Y-31412666D01*
X61634619Y-31412666D01*
X61682238Y-31436476D01*
X61706047Y-31460285D01*
X61729857Y-31507904D01*
X61729857Y-31626952D01*
X61706047Y-31674571D01*
X61682238Y-31698380D01*
X61634619Y-31722190D01*
X61515571Y-31722190D01*
X61467952Y-31698380D01*
X61444142Y-31674571D01*
X48275952Y-31222190D02*
X48275952Y-31626952D01*
X48299761Y-31674571D01*
X48323571Y-31698380D01*
X48371190Y-31722190D01*
X48466428Y-31722190D01*
X48514047Y-31698380D01*
X48537857Y-31674571D01*
X48561666Y-31626952D01*
X48561666Y-31222190D01*
X49061666Y-31722190D02*
X48775952Y-31722190D01*
X48918809Y-31722190D02*
X48918809Y-31222190D01*
X48871190Y-31293619D01*
X48823571Y-31341238D01*
X48775952Y-31365047D01*
X49490238Y-31388857D02*
X49490238Y-31722190D01*
X49371190Y-31198380D02*
X49252142Y-31555523D01*
X49561666Y-31555523D01*
X37099952Y-23284690D02*
X37099952Y-23689452D01*
X37123761Y-23737071D01*
X37147571Y-23760880D01*
X37195190Y-23784690D01*
X37290428Y-23784690D01*
X37338047Y-23760880D01*
X37361857Y-23737071D01*
X37385666Y-23689452D01*
X37385666Y-23284690D01*
X37885666Y-23784690D02*
X37599952Y-23784690D01*
X37742809Y-23784690D02*
X37742809Y-23284690D01*
X37695190Y-23356119D01*
X37647571Y-23403738D01*
X37599952Y-23427547D01*
X38195190Y-23284690D02*
X38242809Y-23284690D01*
X38290428Y-23308500D01*
X38314238Y-23332309D01*
X38338047Y-23379928D01*
X38361857Y-23475166D01*
X38361857Y-23594214D01*
X38338047Y-23689452D01*
X38314238Y-23737071D01*
X38290428Y-23760880D01*
X38242809Y-23784690D01*
X38195190Y-23784690D01*
X38147571Y-23760880D01*
X38123761Y-23737071D01*
X38099952Y-23689452D01*
X38076142Y-23594214D01*
X38076142Y-23475166D01*
X38099952Y-23379928D01*
X38123761Y-23332309D01*
X38147571Y-23308500D01*
X38195190Y-23284690D01*
X25463547Y-25634190D02*
X25463547Y-26038952D01*
X25487357Y-26086571D01*
X25511166Y-26110380D01*
X25558785Y-26134190D01*
X25654023Y-26134190D01*
X25701642Y-26110380D01*
X25725452Y-26086571D01*
X25749261Y-26038952D01*
X25749261Y-25634190D01*
X26011166Y-26134190D02*
X26106404Y-26134190D01*
X26154023Y-26110380D01*
X26177833Y-26086571D01*
X26225452Y-26015142D01*
X26249261Y-25919904D01*
X26249261Y-25729428D01*
X26225452Y-25681809D01*
X26201642Y-25658000D01*
X26154023Y-25634190D01*
X26058785Y-25634190D01*
X26011166Y-25658000D01*
X25987357Y-25681809D01*
X25963547Y-25729428D01*
X25963547Y-25848476D01*
X25987357Y-25896095D01*
X26011166Y-25919904D01*
X26058785Y-25943714D01*
X26154023Y-25943714D01*
X26201642Y-25919904D01*
X26225452Y-25896095D01*
X26249261Y-25848476D01*
X36703047Y-31222190D02*
X36703047Y-31626952D01*
X36726857Y-31674571D01*
X36750666Y-31698380D01*
X36798285Y-31722190D01*
X36893523Y-31722190D01*
X36941142Y-31698380D01*
X36964952Y-31674571D01*
X36988761Y-31626952D01*
X36988761Y-31222190D01*
X37441142Y-31388857D02*
X37441142Y-31722190D01*
X37322095Y-31198380D02*
X37203047Y-31555523D01*
X37512571Y-31555523D01*
X25019047Y-31349190D02*
X25019047Y-31753952D01*
X25042857Y-31801571D01*
X25066666Y-31825380D01*
X25114285Y-31849190D01*
X25209523Y-31849190D01*
X25257142Y-31825380D01*
X25280952Y-31801571D01*
X25304761Y-31753952D01*
X25304761Y-31349190D01*
X25495238Y-31349190D02*
X25804761Y-31349190D01*
X25638095Y-31539666D01*
X25709523Y-31539666D01*
X25757142Y-31563476D01*
X25780952Y-31587285D01*
X25804761Y-31634904D01*
X25804761Y-31753952D01*
X25780952Y-31801571D01*
X25757142Y-31825380D01*
X25709523Y-31849190D01*
X25566666Y-31849190D01*
X25519047Y-31825380D01*
X25495238Y-31801571D01*
X77910571Y-27531190D02*
X77743904Y-27293095D01*
X77624857Y-27531190D02*
X77624857Y-27031190D01*
X77815333Y-27031190D01*
X77862952Y-27055000D01*
X77886761Y-27078809D01*
X77910571Y-27126428D01*
X77910571Y-27197857D01*
X77886761Y-27245476D01*
X77862952Y-27269285D01*
X77815333Y-27293095D01*
X77624857Y-27293095D01*
X78101047Y-27078809D02*
X78124857Y-27055000D01*
X78172476Y-27031190D01*
X78291523Y-27031190D01*
X78339142Y-27055000D01*
X78362952Y-27078809D01*
X78386761Y-27126428D01*
X78386761Y-27174047D01*
X78362952Y-27245476D01*
X78077238Y-27531190D01*
X78386761Y-27531190D01*
X78696285Y-27031190D02*
X78743904Y-27031190D01*
X78791523Y-27055000D01*
X78815333Y-27078809D01*
X78839142Y-27126428D01*
X78862952Y-27221666D01*
X78862952Y-27340714D01*
X78839142Y-27435952D01*
X78815333Y-27483571D01*
X78791523Y-27507380D01*
X78743904Y-27531190D01*
X78696285Y-27531190D01*
X78648666Y-27507380D01*
X78624857Y-27483571D01*
X78601047Y-27435952D01*
X78577238Y-27340714D01*
X78577238Y-27221666D01*
X78601047Y-27126428D01*
X78624857Y-27078809D01*
X78648666Y-27055000D01*
X78696285Y-27031190D01*
X77910571Y-29055190D02*
X77743904Y-28817095D01*
X77624857Y-29055190D02*
X77624857Y-28555190D01*
X77815333Y-28555190D01*
X77862952Y-28579000D01*
X77886761Y-28602809D01*
X77910571Y-28650428D01*
X77910571Y-28721857D01*
X77886761Y-28769476D01*
X77862952Y-28793285D01*
X77815333Y-28817095D01*
X77624857Y-28817095D01*
X78386761Y-29055190D02*
X78101047Y-29055190D01*
X78243904Y-29055190D02*
X78243904Y-28555190D01*
X78196285Y-28626619D01*
X78148666Y-28674238D01*
X78101047Y-28698047D01*
X78624857Y-29055190D02*
X78720095Y-29055190D01*
X78767714Y-29031380D01*
X78791523Y-29007571D01*
X78839142Y-28936142D01*
X78862952Y-28840904D01*
X78862952Y-28650428D01*
X78839142Y-28602809D01*
X78815333Y-28579000D01*
X78767714Y-28555190D01*
X78672476Y-28555190D01*
X78624857Y-28579000D01*
X78601047Y-28602809D01*
X78577238Y-28650428D01*
X78577238Y-28769476D01*
X78601047Y-28817095D01*
X78624857Y-28840904D01*
X78672476Y-28864714D01*
X78767714Y-28864714D01*
X78815333Y-28840904D01*
X78839142Y-28817095D01*
X78862952Y-28769476D01*
X77910571Y-26007190D02*
X77743904Y-25769095D01*
X77624857Y-26007190D02*
X77624857Y-25507190D01*
X77815333Y-25507190D01*
X77862952Y-25531000D01*
X77886761Y-25554809D01*
X77910571Y-25602428D01*
X77910571Y-25673857D01*
X77886761Y-25721476D01*
X77862952Y-25745285D01*
X77815333Y-25769095D01*
X77624857Y-25769095D01*
X78386761Y-26007190D02*
X78101047Y-26007190D01*
X78243904Y-26007190D02*
X78243904Y-25507190D01*
X78196285Y-25578619D01*
X78148666Y-25626238D01*
X78101047Y-25650047D01*
X78553428Y-25507190D02*
X78886761Y-25507190D01*
X78672476Y-26007190D01*
X77847071Y-23022690D02*
X77680404Y-22784595D01*
X77561357Y-23022690D02*
X77561357Y-22522690D01*
X77751833Y-22522690D01*
X77799452Y-22546500D01*
X77823261Y-22570309D01*
X77847071Y-22617928D01*
X77847071Y-22689357D01*
X77823261Y-22736976D01*
X77799452Y-22760785D01*
X77751833Y-22784595D01*
X77561357Y-22784595D01*
X78323261Y-23022690D02*
X78037547Y-23022690D01*
X78180404Y-23022690D02*
X78180404Y-22522690D01*
X78132785Y-22594119D01*
X78085166Y-22641738D01*
X78037547Y-22665547D01*
X78775642Y-22522690D02*
X78537547Y-22522690D01*
X78513738Y-22760785D01*
X78537547Y-22736976D01*
X78585166Y-22713166D01*
X78704214Y-22713166D01*
X78751833Y-22736976D01*
X78775642Y-22760785D01*
X78799452Y-22808404D01*
X78799452Y-22927452D01*
X78775642Y-22975071D01*
X78751833Y-22998880D01*
X78704214Y-23022690D01*
X78585166Y-23022690D01*
X78537547Y-22998880D01*
X78513738Y-22975071D01*
X77910571Y-24483190D02*
X77743904Y-24245095D01*
X77624857Y-24483190D02*
X77624857Y-23983190D01*
X77815333Y-23983190D01*
X77862952Y-24007000D01*
X77886761Y-24030809D01*
X77910571Y-24078428D01*
X77910571Y-24149857D01*
X77886761Y-24197476D01*
X77862952Y-24221285D01*
X77815333Y-24245095D01*
X77624857Y-24245095D01*
X78386761Y-24483190D02*
X78101047Y-24483190D01*
X78243904Y-24483190D02*
X78243904Y-23983190D01*
X78196285Y-24054619D01*
X78148666Y-24102238D01*
X78101047Y-24126047D01*
X78577238Y-24030809D02*
X78601047Y-24007000D01*
X78648666Y-23983190D01*
X78767714Y-23983190D01*
X78815333Y-24007000D01*
X78839142Y-24030809D01*
X78862952Y-24078428D01*
X78862952Y-24126047D01*
X78839142Y-24197476D01*
X78553428Y-24483190D01*
X78862952Y-24483190D01*
X77910571Y-33627190D02*
X77743904Y-33389095D01*
X77624857Y-33627190D02*
X77624857Y-33127190D01*
X77815333Y-33127190D01*
X77862952Y-33151000D01*
X77886761Y-33174809D01*
X77910571Y-33222428D01*
X77910571Y-33293857D01*
X77886761Y-33341476D01*
X77862952Y-33365285D01*
X77815333Y-33389095D01*
X77624857Y-33389095D01*
X78386761Y-33627190D02*
X78101047Y-33627190D01*
X78243904Y-33627190D02*
X78243904Y-33127190D01*
X78196285Y-33198619D01*
X78148666Y-33246238D01*
X78101047Y-33270047D01*
X78862952Y-33627190D02*
X78577238Y-33627190D01*
X78720095Y-33627190D02*
X78720095Y-33127190D01*
X78672476Y-33198619D01*
X78624857Y-33246238D01*
X78577238Y-33270047D01*
X78021666Y-30579190D02*
X77855000Y-30341095D01*
X77735952Y-30579190D02*
X77735952Y-30079190D01*
X77926428Y-30079190D01*
X77974047Y-30103000D01*
X77997857Y-30126809D01*
X78021666Y-30174428D01*
X78021666Y-30245857D01*
X77997857Y-30293476D01*
X77974047Y-30317285D01*
X77926428Y-30341095D01*
X77735952Y-30341095D01*
X78259761Y-30579190D02*
X78355000Y-30579190D01*
X78402619Y-30555380D01*
X78426428Y-30531571D01*
X78474047Y-30460142D01*
X78497857Y-30364904D01*
X78497857Y-30174428D01*
X78474047Y-30126809D01*
X78450238Y-30103000D01*
X78402619Y-30079190D01*
X78307380Y-30079190D01*
X78259761Y-30103000D01*
X78235952Y-30126809D01*
X78212142Y-30174428D01*
X78212142Y-30293476D01*
X78235952Y-30341095D01*
X78259761Y-30364904D01*
X78307380Y-30388714D01*
X78402619Y-30388714D01*
X78450238Y-30364904D01*
X78474047Y-30341095D01*
X78497857Y-30293476D01*
X78148666Y-35278190D02*
X77982000Y-35040095D01*
X77862952Y-35278190D02*
X77862952Y-34778190D01*
X78053428Y-34778190D01*
X78101047Y-34802000D01*
X78124857Y-34825809D01*
X78148666Y-34873428D01*
X78148666Y-34944857D01*
X78124857Y-34992476D01*
X78101047Y-35016285D01*
X78053428Y-35040095D01*
X77862952Y-35040095D01*
X78315333Y-34778190D02*
X78648666Y-34778190D01*
X78434380Y-35278190D01*
X78021666Y-36675190D02*
X77855000Y-36437095D01*
X77735952Y-36675190D02*
X77735952Y-36175190D01*
X77926428Y-36175190D01*
X77974047Y-36199000D01*
X77997857Y-36222809D01*
X78021666Y-36270428D01*
X78021666Y-36341857D01*
X77997857Y-36389476D01*
X77974047Y-36413285D01*
X77926428Y-36437095D01*
X77735952Y-36437095D01*
X78474047Y-36175190D02*
X78235952Y-36175190D01*
X78212142Y-36413285D01*
X78235952Y-36389476D01*
X78283571Y-36365666D01*
X78402619Y-36365666D01*
X78450238Y-36389476D01*
X78474047Y-36413285D01*
X78497857Y-36460904D01*
X78497857Y-36579952D01*
X78474047Y-36627571D01*
X78450238Y-36651380D01*
X78402619Y-36675190D01*
X78283571Y-36675190D01*
X78235952Y-36651380D01*
X78212142Y-36627571D01*
X78021666Y-32103190D02*
X77855000Y-31865095D01*
X77735952Y-32103190D02*
X77735952Y-31603190D01*
X77926428Y-31603190D01*
X77974047Y-31627000D01*
X77997857Y-31650809D01*
X78021666Y-31698428D01*
X78021666Y-31769857D01*
X77997857Y-31817476D01*
X77974047Y-31841285D01*
X77926428Y-31865095D01*
X77735952Y-31865095D01*
X78212142Y-31650809D02*
X78235952Y-31627000D01*
X78283571Y-31603190D01*
X78402619Y-31603190D01*
X78450238Y-31627000D01*
X78474047Y-31650809D01*
X78497857Y-31698428D01*
X78497857Y-31746047D01*
X78474047Y-31817476D01*
X78188333Y-32103190D01*
X78497857Y-32103190D01*
X78148666Y-38072190D02*
X77982000Y-37834095D01*
X77862952Y-38072190D02*
X77862952Y-37572190D01*
X78053428Y-37572190D01*
X78101047Y-37596000D01*
X78124857Y-37619809D01*
X78148666Y-37667428D01*
X78148666Y-37738857D01*
X78124857Y-37786476D01*
X78101047Y-37810285D01*
X78053428Y-37834095D01*
X77862952Y-37834095D01*
X78624857Y-38072190D02*
X78339142Y-38072190D01*
X78482000Y-38072190D02*
X78482000Y-37572190D01*
X78434380Y-37643619D01*
X78386761Y-37691238D01*
X78339142Y-37715047D01*
X40970971Y-24670533D02*
X40994780Y-24694342D01*
X41018590Y-24765771D01*
X41018590Y-24813390D01*
X40994780Y-24884819D01*
X40947161Y-24932438D01*
X40899542Y-24956247D01*
X40804304Y-24980057D01*
X40732876Y-24980057D01*
X40637638Y-24956247D01*
X40590019Y-24932438D01*
X40542400Y-24884819D01*
X40518590Y-24813390D01*
X40518590Y-24765771D01*
X40542400Y-24694342D01*
X40566209Y-24670533D01*
X40685257Y-24241961D02*
X41018590Y-24241961D01*
X40494780Y-24361009D02*
X40851923Y-24480057D01*
X40851923Y-24170533D01*
X52291466Y-28169371D02*
X52267657Y-28193180D01*
X52196228Y-28216990D01*
X52148609Y-28216990D01*
X52077180Y-28193180D01*
X52029561Y-28145561D01*
X52005752Y-28097942D01*
X51981942Y-28002704D01*
X51981942Y-27931276D01*
X52005752Y-27836038D01*
X52029561Y-27788419D01*
X52077180Y-27740800D01*
X52148609Y-27716990D01*
X52196228Y-27716990D01*
X52267657Y-27740800D01*
X52291466Y-27764609D01*
X52458133Y-27716990D02*
X52767657Y-27716990D01*
X52600990Y-27907466D01*
X52672419Y-27907466D01*
X52720038Y-27931276D01*
X52743847Y-27955085D01*
X52767657Y-28002704D01*
X52767657Y-28121752D01*
X52743847Y-28169371D01*
X52720038Y-28193180D01*
X52672419Y-28216990D01*
X52529561Y-28216990D01*
X52481942Y-28193180D01*
X52458133Y-28169371D01*
X64178666Y-28423371D02*
X64154857Y-28447180D01*
X64083428Y-28470990D01*
X64035809Y-28470990D01*
X63964380Y-28447180D01*
X63916761Y-28399561D01*
X63892952Y-28351942D01*
X63869142Y-28256704D01*
X63869142Y-28185276D01*
X63892952Y-28090038D01*
X63916761Y-28042419D01*
X63964380Y-27994800D01*
X64035809Y-27970990D01*
X64083428Y-27970990D01*
X64154857Y-27994800D01*
X64178666Y-28018609D01*
X64369142Y-28018609D02*
X64392952Y-27994800D01*
X64440571Y-27970990D01*
X64559619Y-27970990D01*
X64607238Y-27994800D01*
X64631047Y-28018609D01*
X64654857Y-28066228D01*
X64654857Y-28113847D01*
X64631047Y-28185276D01*
X64345333Y-28470990D01*
X64654857Y-28470990D01*
X31349166Y-27229571D02*
X31325357Y-27253380D01*
X31253928Y-27277190D01*
X31206309Y-27277190D01*
X31134880Y-27253380D01*
X31087261Y-27205761D01*
X31063452Y-27158142D01*
X31039642Y-27062904D01*
X31039642Y-26991476D01*
X31063452Y-26896238D01*
X31087261Y-26848619D01*
X31134880Y-26801000D01*
X31206309Y-26777190D01*
X31253928Y-26777190D01*
X31325357Y-26801000D01*
X31349166Y-26824809D01*
X31825357Y-27277190D02*
X31539642Y-27277190D01*
X31682500Y-27277190D02*
X31682500Y-26777190D01*
X31634880Y-26848619D01*
X31587261Y-26896238D01*
X31539642Y-26920047D01*
M02*
